<?xml version="1.0" encoding="utf-8"?>
<!-- Generator: Adobe Illustrator 16.0.0, SVG Export Plug-In . SVG Version: 6.00 Build 0)  -->
<!DOCTYPE svg PUBLIC "-//W3C//DTD SVG 1.1//EN" "http://www.w3.org/Graphics/SVG/1.1/DTD/svg11.dtd">
<svg version="1.1" id="Layer_1" xmlns="http://www.w3.org/2000/svg" xmlns:xlink="http://www.w3.org/1999/xlink" x="0px" y="0px"
	 width="300px" height="300px" viewBox="0 0 300 300" enable-background="new 0 0 300 300" xml:space="preserve">
<g>
	<circle fill="#E18BE8" cx="150.042" cy="150.09" r="82.229"/>
	<path fill="#50CCC6" d="M94.787,89.184c0,0,25.985-12.185,41.573,0.431s18.265,23.927,8.909,49.597
		c-9.354,25.673-7.128,32.63,7.57,40.462c10.524,5.604,32.075-0.52,42.209,8.594c21.049,18.925-24.776,41.66-24.776,41.66
		s-67.829,17.62-97.674-47.641C52.584,122.681,94.787,89.184,94.787,89.184z"/>
	<path fill="#69EDE9" d="M92.515,98.81c0,0,20.652-11.196,34.584,0.346c13.929,11.543,16.319,21.891,7.961,45.379
		c-8.359,23.485-6.37,29.854,6.768,37.021c9.399,5.126,28.659-0.477,37.714,7.861c18.808,17.317-21.793,39.109-21.793,39.109
		s-58.772,13.673-85.443-46.036C54.031,123.563,92.515,98.81,92.515,98.81z"/>
	<path fill="#50CCC6" d="M171.358,103.428c0,0,13.215-19.415,32.63,0c19.415,19.416-17.293,17.294-17.293,17.294
		S167.116,120.07,171.358,103.428z"/>
	<path fill="#69EDE9" d="M166.138,100.818c0,0,13.216-19.415,32.63,0c19.416,19.415-17.295,17.293-17.295,17.293
		S161.896,117.46,166.138,100.818z"/>
	<g>
		<path fill="none" d="M235.737,103.694l-9.04,5.218L235.737,103.694c-8.24-15.191-20.399-27.955-35.116-36.928l-4.974,8.616
			l4.084-8.616C185.442,58.052,168,52.944,150,52.635v10.006V52.635c0-0.01-0.235-0.043-0.808-0.043
			c-16.994,0-32.532,4.385-46.45,12.069l5.23,8.678l-4.897-8.678C88.27,72.833,75.864,84.742,67.028,99.115l8.178,4.709
			l-8.139-3.948C58.37,114.023,53.223,130,52.778,149h8.943h-8.943c-0.021,0-0.063,0.891-0.063,1.722
			c0,16.839,4.301,32.313,11.856,46.146l8.05-4.839l-8.05,4.553c8.097,14.818,19.935,27.252,34.229,36.146l4.875-8.466l-5.652,8.431
			C111.991,241.382,130,246.611,145,247.238v-9.7v9.7c2,0.041,3.119,0.089,4.303,0.089c16.585,0,32.598-4.177,46.275-11.52
			l-4.65-8.396l4.941,8.396c15.206-8.156,28.047-20.232,37.082-34.87l-8.886-5.145l8.921,5.793
			C241.689,187.48,246.89,170,247.381,154h-10.762h10.762c0.026-3,0.069-2.469,0.069-3.39
			C247.45,133.874,243.204,117.465,235.737,103.694z"/>
		<path fill="#FCFFC2" d="M199.731,66.766l0.862-2.263C185.92,55.569,170,50.334,150,50.025v2.61
			C168,52.944,185.442,58.052,199.731,66.766z"/>
		<path fill="#FCFFC2" d="M103.187,64.661l-1.305-2.259C86.68,70.804,73.887,83.042,64.821,97.81l2.261,1.305
			C75.92,84.742,88.38,72.833,103.187,64.661z"/>
		<path fill="#FCFFC2" d="M247.45,150.61c0,0.921-0.043,0.39-0.069,3.39h2.61c0.026-3,0.069-2.469,0.069-3.39
			c0-17.21-4.371-33.744-12.061-47.896l-2.263,1.468C243.204,117.952,247.45,133.874,247.45,150.61z"/>
		<path fill="#FCFFC2" d="M52.715,150.722c0-0.831,0.043-1.722,0.063-1.722h-2.61c-0.022,0-0.063,0.891-0.063,1.722
			c0,17.313,4.427,33.233,12.208,47.451l2.259-1.116C57.016,183.225,52.715,167.561,52.715,150.722z"/>
		<path fill="#FCFFC2" d="M195.969,235.808l1.305,2.264c15.602-8.389,28.726-20.796,37.984-35.829l-2.26-1.305
			C223.965,215.575,211.173,227.651,195.969,235.808z"/>
		<path fill="#FCFFC2" d="M98.023,232.68l-1.695,2.263C110.68,243.854,130,249.222,145,249.849v-2.61
			C130,246.611,111.991,241.371,98.023,232.68z"/>
	</g>
	<g>
		<path fill="none" d="M252.788,94.544l-10.847,6.264L252.788,94.544c-9.886-18.226-24.477-33.545-42.138-44.313l-5.972,10.34
			l4.952-10.34C192.484,39.777,172,33.643,150,33.277v12.007V33.277c0-0.013-0.332-0.054-1.017-0.054
			c-20.392,0-39.06,5.264-55.765,14.485l6.267,10.411l-5.885-10.411C75.834,57.515,60.943,71.806,50.34,89.054l9.813,5.649
			l-9.767-4.692C39.949,106.983,33.771,128,33.236,149h10.734H33.236c-0.023,0-0.074,1.023-0.074,2.019
			c0,20.21,5.16,38.76,14.227,55.356l9.663-5.817l-9.663,5.458c9.716,17.781,23.923,32.7,41.079,43.373l5.847-10.16l-6.234,10.114
			c16.759,10.429,35.92,16.704,56.92,17.456v-11.64v11.64c2,0.049,3.199,0.106,4.615,0.106c19.9,0,38.842-5.014,55.26-13.823
			l-5.721-10.072l5.863,10.072c18.241-9.789,33.621-24.279,44.459-41.844l-10.674-6.175l10.693,6.495
			C259.94,194.631,266.173,175,266.761,154h-12.914h12.914c0.031-3,0.083-2.506,0.083-3.613
			C266.844,130.306,261.749,111.069,252.788,94.544z"/>
		<path fill="#FCFFC2" d="M148.983,33.223c0.685,0,1.017,0.041,1.017,0.054v-3.134c0-0.013-0.332-0.053-1.017-0.053
			c-20.961,0-40.163,5.42-57.333,14.906l1.312,2.712C109.668,38.487,128.592,33.223,148.983,33.223z"/>
		<path fill="#FCFFC2" d="M252.788,94.544l2.715-1.568c-10.161-18.701-25.15-34.416-43.285-45.459l-1.567,2.714
			C228.312,60.999,242.902,76.318,252.788,94.544z"/>
		<path fill="#FCFFC2" d="M149.615,266.905c-1.416,0-2.615-0.058-4.615-0.106v3.134c2,0.048,3.199,0.106,4.615,0.106
			c20.472,0,39.947-5.164,56.824-14.24l-1.662-2.717C188.36,261.892,169.516,266.905,149.615,266.905z"/>
		<path fill="#FCFFC2" d="M266.761,154c-0.588,21-6.814,40.631-17.258,57.559l2.711,1.73C262.929,195.898,269.305,175,269.895,154
			H266.761z"/>
		<path fill="#FCFFC2" d="M47.389,205.895l-2.71,1.569c9.987,18.252,24.593,33.631,42.222,44.578l1.567-2.712
			C71.312,238.655,57.104,223.679,47.389,205.895z"/>
		<path fill="#FCFFC2" d="M50.402,90.011l-2.713-1.091C36.982,106.356,30.64,128,30.105,149h3.131
			C33.771,128,39.966,106.983,50.402,90.011z"/>
	</g>
</g>
</svg>
