<?xml version="1.0" encoding="utf-8"?>
<!-- Generator: Adobe Illustrator 16.0.0, SVG Export Plug-In . SVG Version: 6.00 Build 0)  -->
<!DOCTYPE svg PUBLIC "-//W3C//DTD SVG 1.1//EN" "http://www.w3.org/Graphics/SVG/1.1/DTD/svg11.dtd">
<svg version="1.1" id="Layer_1" xmlns="http://www.w3.org/2000/svg" xmlns:xlink="http://www.w3.org/1999/xlink" x="0px" y="0px"
	 width="300px" height="300px" viewBox="0 0 300 300" enable-background="new 0 0 300 300" xml:space="preserve">
<g>
	<g>
		<path fill="#3847D1" d="M163.358,259.5c-31.646,0-52.942-18.053-56.89-21.672c-1.018-0.923-1.277-2.56-1.333-3.04l-9-76.928
			c-0.015-0.126-0.027-0.461-0.027-0.591c0-3.187,8.025-25.07,12.89-38.043l0.015-0.234c1.077-17.299,1.794-28.684,2.019-32.057
			c0.66-9.917,2.091-23.915,6.888-30.951c4.429-6.498,16.209-12.532,16.709-12.786c0.559-0.285,1.188-0.436,1.816-0.436
			c1.07,0,2.075,0.417,2.83,1.173c1.229,1.233,1.521,3.101,0.726,4.649c-2.827,5.507-5.392,11.564-6.34,14.827
			c11.207,2.645,15.62,14.808,19.208,24.693l0.583,1.604c1.229,3.36,2.896,9.886,4.66,16.795c0.647,2.539,1.309,5.127,1.964,7.619
			c0.332,1.261,0.658,2.843,0.975,4.377h86.044c7.647,0,9.405,1.816,9.405,9.715v13.072c0,5.303-1.28,9.63-3.706,12.538
			c-0.348,0.678-0.757,1.267-1.224,1.763c0.624,1.62,0.93,3.561,0.93,5.877v13.072c0,5.51-1.82,12.391-6.781,15.266
			c0.52,1.482,0.781,3.126,0.781,4.912v13.072c0,5.144-2.708,10.376-6.69,13.333c1.768,2.301,2.69,4.635,2.69,6.845v13.072
			c0,5.524,0,18.463-9.405,18.463H163.358z"/>
		<path fill="#E214CF" d="M136.445,44.763c0.519,0,1.03,0.201,1.414,0.585c0.612,0.614,0.759,1.551,0.363,2.323
			c-3.379,6.583-6.728,14.623-6.936,17.35c11.577,1.377,15.888,13.255,19.704,23.767l0.583,1.604
			c1.641,4.483,4.146,15.018,6.569,24.239c0.431,1.636,0.859,3.869,1.282,5.869h87.671c6.593,0,7.405,0.905,7.405,7.715v13.072
			c0,4.998-1.239,8.968-3.389,11.429c-0.486,1.021-1.146,1.828-2.035,2.303c0.96,1.579,1.424,3.708,1.424,6.446v13.072
			c0,6.148-2.346,12.708-7.436,14.251c0.938,1.623,1.436,3.624,1.436,5.927v13.072c0,5.09-3.121,10.654-7.754,12.859
			c1.822,1.861,3.754,4.501,3.754,7.318v13.072c0,6.672-0.463,16.463-7.405,16.463h-69.736c-32.977,0-54.687-20.372-55.595-21.197
			c-0.357-0.324-0.585-1.268-0.642-1.747l-9-76.928c-0.009-0.078-0.014-0.28-0.014-0.358c0-3.013,9.708-29.198,12.868-37.62
			c0.185-2.971,1.687-27.105,2.051-32.581c0.644-9.676,2.022-23.323,6.545-29.958c4.125-6.052,15.481-11.885,15.962-12.129
			C135.824,44.834,136.136,44.763,136.445,44.763 M235.284,186.138c0.292,0.012,0.573,0.035,0.848,0.063
			c0.01-0.016,0.02-0.029,0.03-0.045L235.284,186.138c-0.156-0.007-0.315-0.011-0.479-0.011L235.284,186.138 M136.445,40.763
			L136.445,40.763c-0.943,0-1.886,0.227-2.728,0.656c-1.293,0.657-12.815,6.64-17.451,13.44c-5.015,7.356-6.499,20.937-7.231,31.945
			c-0.224,3.368-0.939,14.732-2.015,32.001c-12.912,34.446-12.913,37.468-12.913,38.465c0,0.144,0.004,0.513,0.042,0.829
			l8.999,76.922c0.099,0.841,0.483,2.936,1.927,4.245l0.041,0.037c4.043,3.707,25.854,22.197,58.241,22.197h69.736
			c2.825,0,7.9-1.115,10.138-8.581c1.117-3.728,1.268-8.098,1.268-11.882v-13.072c0-2.164-0.669-4.331-1.996-6.479
			c3.666-3.414,5.996-8.524,5.996-13.699v-13.072c0-1.436-0.152-2.796-0.455-4.072c4.692-3.64,6.455-10.519,6.455-16.105v-13.072
			c0-2.063-0.226-3.875-0.686-5.47c0.234-0.331,0.453-0.684,0.654-1.059c2.64-3.268,4.031-7.972,4.031-13.649v-13.072
			c0-3.678-0.176-6.906-2.335-9.171c-2.243-2.353-5.435-2.544-9.07-2.544h-84.417c-0.218-1.025-0.439-2.02-0.668-2.887
			c-0.653-2.486-1.313-5.07-1.96-7.604c-1.777-6.959-3.455-13.533-4.721-16.992l-0.581-1.596
			c-3.54-9.753-7.848-21.621-18.542-25.357c1.082-3.023,3.042-7.634,5.574-12.566c1.192-2.323,0.754-5.125-1.088-6.974
			C139.558,41.388,138.05,40.763,136.445,40.763L136.445,40.763z"/>
	</g>
	<g>
		<path fill="#3847D1" d="M53.584,257.904c-7.855,0-14.092-4.748-14.83-11.29l-8.293-73.532c-0.412-3.646,0.955-7.204,3.848-10.021
			c2.62-2.55,6.242-4.2,10.201-4.647l24.345-2.746c0.709-0.08,1.426-0.12,2.132-0.12c7.856,0,14.094,4.747,14.832,11.288
			l8.293,73.533c0.412,3.646-0.955,7.204-3.848,10.021c-2.62,2.552-6.243,4.202-10.201,4.649l-24.345,2.744
			C55.003,257.863,54.286,257.904,53.584,257.904z"/>
		<path fill="#E214CF" d="M70.988,157.548c6.821,0,12.223,4.001,12.844,9.513l8.293,73.533c0.341,3.018-0.815,5.987-3.256,8.363
			c-2.304,2.243-5.511,3.697-9.031,4.095l-24.345,2.744c-0.635,0.071-1.277,0.108-1.91,0.108c-6.82,0-12.221-4.002-12.842-9.514
			l-8.293-73.533c-0.341-3.017,0.815-5.987,3.256-8.362c2.304-2.243,5.511-3.696,9.03-4.094l24.345-2.746
			C69.714,157.584,70.356,157.548,70.988,157.548 M70.988,153.548c-0.781,0-1.573,0.045-2.355,0.133l-24.346,2.746
			c-4.398,0.496-8.437,2.344-11.372,5.202c-3.346,3.257-4.923,7.403-4.44,11.678l8.293,73.532
			c0.854,7.57,7.926,13.065,16.817,13.065c0.775,0,1.568-0.045,2.356-0.134l24.347-2.744c4.397-0.496,8.436-2.345,11.373-5.203
			c3.346-3.258,4.923-7.405,4.44-11.679l-8.293-73.532C86.954,159.042,79.88,153.548,70.988,153.548L70.988,153.548z"/>
	</g>
</g>
<g>
	<g>
		<g>
			<path fill="#E240B0" d="M247.095,120.5h-18.986h-41.986h-28.237c-2.921-11-6.21-24.007-8.19-29.421
				c-3.909-10.684-7.919-23.359-19.472-24.149c-3.997-0.273,6.22-20.173,6.22-20.173s-11.333,5.768-15.217,11.466
				c-4.334,6.359-5.616,20.145-6.202,28.948c-0.391,5.871-2.069,32.839-2.069,32.839s-12.845,34.214-12.845,37.135l9,76.678
				c0,0,21.667,19.678,54.25,19.678c23.986,0,64.75,0,64.75,0h4.986c5.531,0,7.405-6.891,7.405-12.463v-13.072
				c0-4.133-6-8.34-6-8.34c5.523-0.006,10-6.271,10-11.838v-13.072c0-5.567-3.172-8.582-8.695-8.588l1.149,0.035l5.761,0.964
				c5.531,0,7.785-7.017,7.785-12.589v-13.072c0-5.572-1.874-7.965-7.405-7.965h4c5.531,0,7.405-6.641,7.405-12.213v-13.072
				C254.5,122.643,252.626,120.5,247.095,120.5z"/>
			<path fill="#3847D1" d="M233.095,255.5h-69.736c-32.977,0-54.687-19.372-55.595-20.197c-0.357-0.324-0.585-0.768-0.642-1.247
				l-9-76.678c-0.009-0.078-0.014-0.155-0.014-0.233c0-3.013,9.708-29.135,12.868-37.558c0.185-2.971,1.687-27.074,2.051-32.549
				c0.644-9.676,2.022-23.307,6.545-29.942c4.125-6.052,15.481-11.877,15.962-12.122c0.773-0.394,1.711-0.243,2.324,0.371
				c0.612,0.614,0.759,1.553,0.363,2.325c-3.379,6.583-6.728,14.625-6.936,17.351c11.577,1.377,15.888,13.256,19.704,23.768
				l0.583,1.604c1.641,4.483,4.146,14.018,6.569,23.239c0.431,1.636,0.859,3.269,1.282,4.869h87.671
				c6.593,0,9.405,2.905,9.405,9.715v13.072c0,6.582-2.146,11.389-5.696,13.302c1.15,1.613,1.696,3.885,1.696,6.876v13.072
				c0,6.148-2.346,12.708-7.436,14.251c0.938,1.623,1.436,3.624,1.436,5.927v13.072c0,5.09-3.121,10.654-7.754,12.859
				c1.822,1.861,3.754,4.501,3.754,7.318v13.072C242.5,247.709,240.037,255.5,233.095,255.5z M111.003,232.813
				c3.539,2.95,23.772,18.688,52.355,18.688h69.736c4.267,0,5.405-6.577,5.405-10.463v-13.072c0-2.239-3.159-5.3-5.15-6.704
				c-0.712-0.502-1.019-1.408-0.755-2.238c0.263-0.831,1.032-1.396,1.903-1.397c4.433-0.005,8.002-5.386,8.002-9.838v-13.072
				c0-3.514-1.379-5.576-4.216-6.303l-1.431-0.239c-0.103-0.009-0.207-0.017-0.313-0.023l-0.798-0.023
				c-1.092-0.033-1.955-0.751-1.938-1.844c0.018-1.093,0.908-1.782,2-1.782c0.001,0,0.001,0,0.002,0c0.334,0,0.661-0.176,0.98-0.156
				l0.229-0.088c0.09,0.004,0.18-0.034,0.269-0.02l0.091-0.008c0.596,0.061,1.173,0.145,1.719,0.275l3.771,0.625
				c4.103-0.152,5.636-6.547,5.636-10.592v-13.072c0-4.683-1.162-5.965-5.405-5.965c-1.104,0-2-0.896-2-2s0.896-2,2-2h4
				c5.254,0,5.405-9.167,5.405-10.213v-13.072c0-4.593-1.061-5.715-5.405-5.715h-89.21c-0.907,0-1.7-0.61-1.933-1.487
				c-0.551-2.072-1.114-4.215-1.679-6.365c-2.4-9.132-4.882-18.575-6.458-22.882l-0.587-1.613
				c-3.67-10.111-7.465-20.566-17.144-21.229c-0.987-0.067-1.832-0.598-2.316-1.455c-1.395-2.47,0.952-9.091,3.99-15.687
				c-3.244,2.071-7.042,4.865-8.882,7.565c-4.432,6.502-5.506,22.648-5.859,27.955c-0.386,5.799-2.052,32.561-2.069,32.831
				c-0.012,0.198-0.054,0.393-0.124,0.579c-5.957,15.866-12.375,33.852-12.709,36.388L111.003,232.813z"/>
		</g>
		<g>
			<path fill="#3847D1" d="M90.138,240.818c0.558,4.939-4.153,9.527-10.523,10.246l-24.345,2.744
				c-6.37,0.719-11.983-2.703-12.541-7.643l-8.293-73.533c-0.558-4.939,4.154-9.525,10.523-10.244l24.345-2.746
				c6.37-0.718,11.984,2.703,12.541,7.643L90.138,240.818z"/>
			<path fill="#3847D1" d="M53.584,255.904c-6.82,0-12.221-4.002-12.842-9.514l-8.293-73.533c-0.341-3.017,0.815-5.987,3.256-8.362
				c2.304-2.243,5.511-3.696,9.03-4.094l24.345-2.746c0.634-0.071,1.276-0.107,1.908-0.107c6.821,0,12.223,4.001,12.844,9.513
				l8.293,73.533c0.341,3.018-0.815,5.987-3.256,8.363c-2.304,2.243-5.511,3.697-9.031,4.095l-24.345,2.744
				C54.859,255.867,54.217,255.904,53.584,255.904z M70.988,161.548c-0.483,0-0.974,0.027-1.46,0.082l-24.345,2.746
				c-2.642,0.298-5.017,1.358-6.688,2.985c-1.535,1.494-2.27,3.286-2.071,5.047l8.293,73.533c0.383,3.399,4.196,5.963,8.868,5.963
				c0.483,0,0.975-0.028,1.461-0.083l24.345-2.744c2.642-0.298,5.017-1.358,6.688-2.986c1.535-1.494,2.271-3.287,2.072-5.048
				l-8.293-73.533C79.475,164.11,75.662,161.548,70.988,161.548z"/>
		</g>
	</g>
	<g>
		<path fill="#3847D1" d="M213.817,165.391c-0.395,0-0.794-0.105-1.156-0.327c-1.043-0.638-1.371-2.001-0.735-3.046
			c0.31-0.51,7.448-12.549,0.062-23.383c-0.69-1.012-0.429-2.392,0.584-3.082c1.014-0.69,2.392-0.429,3.082,0.584
			c9.021,13.232,0.429,27.589,0.059,28.193C215.294,165.014,214.565,165.391,213.817,165.391z"/>
	</g>
	<g>
		<path fill="#3847D1" d="M211.817,201.99c-0.395,0-0.794-0.105-1.156-0.326c-1.043-0.639-1.371-2.002-0.735-3.047
			c0.31-0.51,7.448-12.549,0.062-23.383c-0.69-1.012-0.429-2.392,0.584-3.082c1.014-0.689,2.392-0.428,3.082,0.584
			c9.021,13.232,0.429,27.59,0.059,28.193C213.294,201.613,212.565,201.99,211.817,201.99z"/>
	</g>
	<g>
		<path fill="#3847D1" d="M209.817,241.918c-0.395,0-0.794-0.105-1.156-0.328c-1.043-0.639-1.371-2-0.735-3.045
			c0.31-0.51,7.448-12.549,0.062-23.383c-0.69-1.012-0.429-2.393,0.584-3.082c1.014-0.691,2.392-0.428,3.082,0.584
			c9.021,13.23,0.429,27.588,0.059,28.193C211.294,241.541,210.565,241.918,209.817,241.918z"/>
	</g>
</g>
</svg>
