<?xml version="1.0" encoding="utf-8"?>
<!-- Generator: Adobe Illustrator 16.0.0, SVG Export Plug-In . SVG Version: 6.00 Build 0)  -->
<!DOCTYPE svg PUBLIC "-//W3C//DTD SVG 1.1//EN" "http://www.w3.org/Graphics/SVG/1.1/DTD/svg11.dtd">
<svg version="1.1" id="Layer_1" xmlns="http://www.w3.org/2000/svg" xmlns:xlink="http://www.w3.org/1999/xlink" x="0px" y="0px"
	 width="300px" height="300px" viewBox="0 0 300 300" enable-background="new 0 0 300 300" xml:space="preserve">
<g>
	<g>
		<g>
			<path fill="#88BDED" d="M55.538,282c-11.286,0-20.827-10.781-20.893-23.573c-0.425-3.311-7.121-60.214,25.855-98.194
				c19.897-22.917,50.009-34.538,89.498-34.538c39.489,0,69.602,11.62,89.499,34.538c32.977,37.981,26.282,94.884,25.857,98.194
				C265.289,271.219,255.748,282,244.462,282H55.538z"/>
			<path fill="#E214CF" d="M149.999,127.695c131.87,0,113.356,130.598,113.356,130.598c0,11.484-8.459,21.707-18.894,21.707H55.538
				c-10.434,0-18.893-10.223-18.893-21.707C36.645,258.293,18.13,127.695,149.999,127.695 M149.999,123.695
				c-40.094,0-70.714,11.852-91.008,35.226c-18.031,20.768-24.22,46.847-26.237,65.068c-2.035,18.383-0.395,32.379-0.107,34.582
				C32.785,272.385,43.211,284,55.538,284h188.924c12.327,0,22.754-11.615,22.893-25.429c0.287-2.203,1.927-16.199-0.108-34.582
				c-2.017-18.221-8.206-44.301-26.237-65.068C220.714,135.547,190.094,123.695,149.999,123.695L149.999,123.695z"/>
		</g>
		<g>
			<path fill="#3847D1" d="M55.538,284c-12.301,0-22.76-11.637-22.892-25.44c-0.476-3.836-6.938-61.306,26.344-99.639
				c20.294-23.374,50.914-35.226,91.008-35.226c40.095,0,70.715,11.852,91.009,35.226c33.276,38.327,26.821,95.802,26.347,99.639
				c-0.133,13.804-10.591,25.44-22.893,25.44H55.538z M149.999,131.695c-37.673,0-66.26,10.925-84.967,32.471
				c-31.93,36.776-24.505,93.005-24.426,93.568l0.015,0.136l0.025,0.352v0.071c0,9.599,6.82,17.707,14.893,17.707h188.924
				c8.073,0,14.894-8.108,14.894-17.707l0.005-0.139l0.024-0.352l0.01-0.07c0.079-0.563,7.51-56.806-24.444-93.587
				C216.242,142.613,187.66,131.695,149.999,131.695z"/>
			<path fill="#E214CF" d="M149.999,125.695c39.489,0,69.602,11.62,89.499,34.538c32.977,37.981,26.282,94.884,25.857,98.194
				C265.289,271.219,255.748,282,244.462,282H55.538c-11.286,0-20.827-10.781-20.893-23.573
				c-0.425-3.311-7.121-60.214,25.855-98.194C80.398,137.315,110.51,125.695,149.999,125.695 M55.538,278h188.924
				c9.157,0,16.894-9.024,16.894-19.707l0.02-0.28c0.081-0.572,7.696-57.642-24.915-95.179
				c-19.104-21.989-48.194-33.139-86.461-33.139c-38.278,0-67.374,11.157-86.478,33.16C30.9,200.427,38.544,257.44,38.625,258.013
				l0.02,0.28C38.645,268.976,46.381,278,55.538,278 M149.999,121.695c-40.7,0-71.827,12.083-92.519,35.916
				c-14.287,16.455-23.17,38.065-26.402,64.23c-2.371,19.192-0.748,34.257-0.43,36.854C30.849,273.521,42.196,286,55.538,286
				h188.924c13.343,0,24.69-12.479,24.892-27.306c0.316-2.598,1.939-17.668-0.432-36.854c-3.232-26.165-12.116-47.775-26.403-64.23
				C221.827,133.778,190.699,121.695,149.999,121.695L149.999,121.695z M55.538,274c-6.868,0-12.893-7.34-12.893-15.707v-0.143
				l-0.01-0.143l-0.02-0.28l-0.01-0.137l-0.019-0.136c-0.076-0.551-7.295-55.983,23.956-91.979
				c18.311-21.089,46.39-31.782,83.457-31.782c37.057,0,65.13,10.687,83.441,31.762c31.263,35.984,24.05,91.445,23.973,92.002
				l-0.018,0.133l-0.011,0.143l-0.02,0.28l-0.01,0.139v0.14c0,8.367-6.025,15.707-12.894,15.707H55.538L55.538,274z"/>
		</g>
	</g>
	<g>
		<g>
			<path fill="#88BDED" d="M168.36,239.974c-1.438,0-2.849-0.76-4.194-2.259c-8.346-9.293-9.693-19.655-10.922-35.616
				c-0.294-3.818-1.534-9.81-2.6-13.539c-1.081,3.731-2.339,9.729-2.631,13.539c-1.353,17.589-3.276,26.905-11.101,35.616
				c-1.345,1.499-2.803,2.259-4.335,2.259c-1.001,0-2.492-0.344-3.907-1.982c-2.545-2.948-3.806-9.071-2.997-14.561
				c0.665-4.51,1.322-6.862,1.85-8.753c0.624-2.233,1.099-3.936,1.327-8.35c-3.783,6.808-11.202,11.956-17.957,16.645
				c-5.217,3.621-10.145,7.041-12.123,10.444c-2.999,5.163-6.145,5.934-7.753,5.934c-1.898,0-3.602-0.995-4.675-2.731
				c-1.588-2.569-1.526-6.261,0.16-9.635c3.709-7.418,9.627-11.558,14.848-15.21c6.271-4.387,11.271-7.885,11.629-15.672
				c-5.866,9.753-17.987,11.597-23.294,12.404c-2.297,0.35-4.567,0.526-6.747,0.526c-9.904,0-17.962-3.92-17.962-8.739
				c0-1.015,0.386-2.902,2.974-4.146c1.614-0.775,3.854-1.169,6.657-1.169l0.54,0.005c0.996,0.018,1.963,0.027,2.902,0.027
				c14.774,0,20.95-2.285,20.95-16.441v-14.232c0-10.21-0.094-17.598-0.095-17.671c-0.066-0.838-1.427-6.599-2.869-12.697
				c-4.191-17.73-11.206-47.406-11.206-58.365c0-31.625,29.511-57.354,65.785-57.354c36.235,0,65.716,25.729,65.716,57.354
				c0,10.974-7.485,40.658-11.957,58.394c-1.534,6.083-2.983,11.828-3.06,12.713v0.177l-0.029,0.104
				c-0.013,0.072-1.285,7.322-1.285,17.345v14.232c0,9.005,3.094,12.012,5.42,13.489c4.096,2.602,10.777,2.952,16.773,2.952
				c0.946,0,1.919-0.01,2.915-0.027l0.539-0.005c5.972,0,8.264,1.798,9.134,3.306c0.771,1.336,0.725,2.948-0.128,4.425
				c-1.817,3.147-7.826,6.323-17.153,6.323c-0.001,0-0.001,0-0.002,0c-2.176,0-4.443-0.177-6.74-0.526
				c-6.071-0.924-20.766-3.16-25.758-15.814v2.503c0,8.326,5.451,11.911,12.354,16.45c5.581,3.671,11.908,7.831,15.662,15.339
				c1.796,3.593,1.931,7.411,0.352,9.965c-0.942,1.526-2.437,2.401-4.098,2.401c-1.82,0-4.589-1.029-7.438-5.934
				c-1.983-3.413-7.117-6.854-12.552-10.499c-8.211-5.505-17.372-11.647-20.221-20.381c0.239,6.688,1.185,8.823,2.256,11.244
				c0.936,2.111,1.995,4.506,2.753,9.649c0.76,5.146,0.178,11.919-2.404,14.91C170.498,239.69,169.224,239.974,168.36,239.974z"/>
			<path fill="#E214CF" d="M150.615,20.251c35.268,0,63.716,24.784,63.716,55.354c0,15.178-15.015,68.421-15.015,71.036
				c0,0-1.316,7.353-1.316,17.697c0,5.419,0,8.43,0,14.232c0,15.885,8.863,18.441,24.193,18.441c0.957,0,1.942-0.01,2.949-0.027
				c0.172-0.003,0.339-0.005,0.505-0.005c13.707,0.002,7.903,10.054-8.149,10.054c-1.993,0-4.147-0.155-6.439-0.504
				c-9.588-1.459-24.406-4.836-25.666-21.209c-0.654-8.517-1.371-25.2-2.349-25.199c-0.015,0-0.029,0.003-0.044,0.011
				c0,3.411,0,20.009,0,35.063c0,16.877,20.291,16.813,28.227,32.684c2.444,4.89,0.953,9.472-1.957,9.472
				c-1.61,0-3.656-1.404-5.709-4.938c-5.765-9.918-32.088-17.871-33.348-34.246c-0.539-7.011-2.164-21.055-3.168-21.055
				c-0.016,0-0.03,0.004-0.045,0.01c0,6.454,0,14.344,0,21.852c0,16.879,3.325,12.785,5.089,24.75
				c0.989,6.701-0.563,14.251-3.729,14.251c-0.804,0-1.71-0.486-2.706-1.595c-7.663-8.533-9.156-18.061-10.416-34.434
				c-0.447-5.816-3.248-18.086-4.584-18.086c-1.335,0-4.188,12.27-4.635,18.086c-1.259,16.373-2.93,25.9-10.594,34.434
				c-0.996,1.109-1.957,1.595-2.847,1.595c-3.509,0-5.913-7.551-4.926-14.251c1.764-11.965,3.348-7.871,3.348-24.75
				c0-7.508,0-15.398,0-21.852c0-0.007,0-0.01-0.001-0.01c-0.032,0-1.135,14.045-1.674,21.055
				c-1.26,16.375-26.52,24.328-32.283,34.246c-2.054,3.534-4.236,4.938-6.024,4.938c-3.229,0-5.17-4.583-2.726-9.472
				C96.227,212.008,115,212.072,115,195.195c0-15.055,0-31.653,0-35.063c0-0.008,0-0.011,0-0.011c-0.004,0-0.156,16.683-0.81,25.199
				c-1.259,16.373-15.217,19.75-24.805,21.209c-2.293,0.349-4.447,0.504-6.446,0.504c-16.083,0-22.035-10.054-8.332-10.054
				c0.166,0,0.334,0.002,0.505,0.005c1.008,0.018,1.987,0.027,2.937,0.027c15.198,0,22.951-2.558,22.951-18.441
				c0-5.803,0-8.813,0-14.232c0-10.343-0.095-17.697-0.095-17.697c0-2.615-14.075-55.858-14.075-71.036
				C86.83,45.035,115.349,20.251,150.615,20.251 M150.615,16.251c-37.377,0-67.785,26.626-67.785,59.354
				c0,11.192,7.048,41.01,11.259,58.825c1.362,5.762,2.65,11.21,2.817,12.396c0.013,1.039,0.093,8.065,0.093,17.513v14.232
				c0,11.742-3.542,14.441-18.951,14.441c-0.928,0-1.883-0.01-2.868-0.026c-0.194-0.004-0.386-0.006-0.574-0.006
				c-5.536,0-9.175,1.441-10.815,4.282c-1.134,1.965-1.087,4.3,0.129,6.406c2.583,4.475,10.048,7.365,19.018,7.365
				c2.28,0,4.651-0.185,7.048-0.55c3.705-0.563,10.537-1.604,16.56-5.239c-1.68,1.583-3.809,3.119-6.342,4.891
				c-5.416,3.789-11.554,8.083-15.49,15.955c-1.995,3.989-2.022,8.427-0.073,11.581c1.445,2.338,3.77,3.68,6.376,3.68
				c2.038,0,5.98-0.9,9.483-6.929c1.754-3.019,6.504-6.315,11.534-9.806c4.688-3.254,9.684-6.721,13.662-10.832
				c-0.033,0.117-0.065,0.235-0.099,0.355c-0.543,1.944-1.219,4.365-1.902,9c-0.9,6.11,0.523,12.755,3.461,16.158
				c1.91,2.212,4.002,2.676,5.421,2.676c1.46,0,3.656-0.507,5.824-2.923c8.909-9.919,10.43-21.509,11.606-36.799
				c0.104-1.346,0.33-2.955,0.625-4.628c0.29,1.671,0.515,3.28,0.618,4.628c1.224,15.904,2.681,27.059,11.428,36.8
				c1.741,1.938,3.653,2.922,5.683,2.922c1.812,0,3.521-0.826,4.816-2.325c3.131-3.627,3.696-10.905,2.869-16.51
				c-0.798-5.413-1.965-8.049-2.902-10.167c-0.042-0.095-0.084-0.189-0.125-0.283c4.251,4.586,9.886,8.364,15.146,11.892
				c5.238,3.512,10.186,6.828,11.938,9.842c3.326,5.727,6.821,6.929,9.167,6.929c2.37,0,4.483-1.221,5.8-3.35
				c1.939-3.139,1.839-7.703-0.265-11.91c-3.995-7.989-10.561-12.308-16.353-16.116c-4.48-2.946-7.769-5.235-9.645-8.155
				c6.925,6.424,16.839,7.933,21.649,8.664c2.396,0.365,4.766,0.55,7.041,0.55c11.307,0,19.834-4.602,19.834-10.704
				c0-1.724-0.843-7.349-11.684-7.35c-0.194,0-0.382,0.002-0.575,0.006c-0.983,0.017-1.945,0.026-2.88,0.026
				c-16.041,0-20.193-2.97-20.193-14.441v-14.232c0-9.874,1.241-16.922,1.254-16.992l0.063-0.35v-0.165
				c0.197-1.243,1.559-6.64,2.996-12.344c4.495-17.826,12.019-47.66,12.019-58.883c0-15.968-7.105-30.94-20.008-42.159
				C185.571,22.357,168.628,16.251,150.615,16.251L150.615,16.251z"/>
		</g>
		<g>
			<path fill="#3847D1" d="M168.36,241.974c-2.029,0-3.941-0.983-5.683-2.923c-8.769-9.764-10.167-20.416-11.428-36.799
				c-0.102-1.324-0.326-2.936-0.618-4.622c-0.297,1.688-0.523,3.3-0.625,4.622c-1.389,18.058-3.395,27.656-11.607,36.8
				c-1.739,1.938-3.698,2.922-5.823,2.922c-1.419,0-3.512-0.464-5.421-2.676c-2.939-3.403-4.363-10.049-3.462-16.159
				c0.683-4.631,1.358-7.051,1.901-8.994c0.037-0.133,0.074-0.264,0.109-0.393c-4.015,4.162-9.049,7.656-13.667,10.861
				c-5.033,3.493-9.783,6.79-11.538,9.809c-3.501,6.028-7.444,6.929-9.482,6.929c-2.607,0-4.931-1.342-6.376-3.681
				c-1.949-3.153-1.921-7.591,0.073-11.58c3.936-7.871,10.073-12.165,15.488-15.953c2.558-1.789,4.816-3.369,6.598-5.106
				c-6.126,3.827-13.127,4.893-16.812,5.453c-2.396,0.365-4.768,0.55-7.049,0.55c-11.38,0-19.962-4.617-19.962-10.739
				c0-1.195,0.4-4.167,4.108-5.948c1.887-0.906,4.418-1.366,7.523-1.366l0.558,0.005c1.001,0.018,1.957,0.027,2.884,0.027
				C92.5,193.012,97,191.02,97,178.57v-14.232c0-9.554-0.083-16.68-0.094-17.555c-0.13-0.991-1.618-7.283-2.817-12.354
				C89.877,116.61,82.83,86.796,82.83,75.605c0-32.728,30.408-59.354,67.785-59.354c37.339,0,67.716,26.626,67.716,59.354
				c0,11.219-7.521,41.044-12.013,58.864c-1.281,5.079-2.854,11.314-3.006,12.372c-0.004,0.177-0.021,0.287-0.057,0.493
				c-0.014,0.079-1.256,7.241-1.256,17.004v14.232c0,8.947,3.264,11.021,4.492,11.801c3.663,2.327,9.992,2.641,15.701,2.641
				c0.935,0,1.896-0.01,2.88-0.027l0.556-0.005c6.945,0,9.751,2.342,10.885,4.306c1.121,1.941,1.073,4.344-0.128,6.425
				c-1.951,3.378-8.067,7.323-18.886,7.323c-2.279,0-4.649-0.185-7.043-0.549c-4.53-0.689-14.735-2.242-21.783-8.895
				c1.958,3.241,5.483,5.56,9.778,8.385c5.796,3.812,12.359,8.129,16.353,16.115c2.104,4.208,2.204,8.772,0.264,11.911
				c-1.314,2.128-3.428,3.35-5.799,3.35c-2.346,0-5.84-1.202-9.168-6.929c-1.75-3.012-6.692-6.326-11.926-9.836
				c-5.235-3.51-10.901-7.309-15.175-11.937c0.047,0.105,0.094,0.213,0.142,0.321c0.938,2.116,2.105,4.75,2.903,10.169
				c0.801,5.422,0.244,12.901-2.869,16.508C171.882,241.147,170.172,241.974,168.36,241.974z M131,173.111c2.206,0,4,1.799,4,4.01
				v21.852c0,11.24-0.712,13.79-1.698,17.318c-0.507,1.817-1.083,3.876-1.693,8.016c-0.557,3.781,0.22,7.333,1.14,9.062
				c6.409-7.334,8.057-15.792,9.282-31.729c0.231-3.007,1.051-7.669,2.089-11.876c1.656-6.71,3.056-9.903,6.535-9.903
				c3.486,0,4.877,3.197,6.512,9.916c1.02,4.188,1.828,8.844,2.061,11.863c1.226,15.929,2.733,24.066,8.575,31.108
				c0.468-1.759,0.877-4.74,0.33-8.44c-0.639-4.335-1.446-6.16-2.302-8.093c-1.456-3.291-2.83-6.395-2.83-17.241v-21.852
				c0-1.597,0.947-3.038,2.414-3.672c0.504-0.218,1.083-0.338,1.631-0.338c3.733,0,5.426,2.238,7.156,24.748
				c0.627,8.146,10.079,14.483,18.419,20.075c6.026,4.04,11.718,7.856,14.399,12.468c0.549,0.946,1.033,1.6,1.424,2.049
				c-0.04-0.724-0.245-1.684-0.795-2.783c-3.032-6.065-8.4-9.596-13.592-13.01c-7.058-4.641-15.057-9.9-15.057-21.463v-35.063
				c0-1.512,0.836-2.877,2.183-3.563c0.57-0.289,1.229-0.447,1.861-0.447c4.137,0,4.508,4.095,4.977,9.28
				c0.309,3.421,0.581,7.743,0.845,11.923c0.178,2.819,0.35,5.521,0.516,7.689c0.969,12.603,11.28,15.888,22.279,17.561
				c2,0.305,3.965,0.459,5.838,0.459c4.92,0,8.241-1.004,10.124-1.958c-0.537-0.058-1.189-0.096-1.975-0.096l-0.45,0.005
				c-1.017,0.018-2.024,0.027-3.004,0.027c-7.204,0-14.612-0.471-19.99-3.887c-5.597-3.556-8.203-9.451-8.203-18.555v-14.232
				c0-9.687,1.091-16.699,1.344-18.198c0.132-1.307,0.798-4.035,3.212-13.608c4.404-17.465,11.775-46.697,11.775-56.926
				c0-28.317-26.788-51.354-59.716-51.354c-32.966,0-59.785,23.037-59.785,51.354c0,10.262,6.914,39.51,11.045,56.985
				c2.533,10.718,3.03,12.917,3.03,14.051c0,0.007,0.095,7.51,0.095,17.697v14.232c0,18.688-10.312,22.441-26.95,22.441
				c-0.973,0-1.974-0.01-3.006-0.027l-0.457-0.005c-0.704,0-1.3,0.031-1.801,0.08c1.865,0.935,5.133,1.974,10.152,1.974
				c1.877,0,3.844-0.154,5.844-0.459c10.546-1.604,20.44-4.842,21.418-17.561c0.533-6.941,0.733-19.534,0.794-24.626l0.017-0.382
				c0.221-2.682,2.221-3.885,3.987-3.885c2.206,0,4,1.799,4,4.011v35.063c0,11.554-7.549,16.835-14.209,21.495
				c-4.864,3.402-9.893,6.92-12.92,12.978c-0.838,1.675-0.736,2.918-0.548,3.51c0.448-0.317,1.295-1.112,2.261-2.775
				c2.648-4.557,8.108-8.346,13.888-12.357c8.079-5.607,17.232-11.961,17.866-20.186c0.27-3.507,0.68-8.774,1.028-13.165
				c0.174-2.198,0.332-4.176,0.449-5.604c0.067-0.827,0.125-1.521,0.207-2.094l0.024-0.167
				C127.19,175.896,127.627,173.111,131,173.111z"/>
			<path fill="#E214CF" d="M150.615,18.251c36.235,0,65.716,25.729,65.716,57.354c0,10.974-7.485,40.658-11.957,58.394
				c-1.534,6.083-2.983,11.828-3.06,12.713c0,0.118-0.009,0.166-0.029,0.282c-0.013,0.072-1.285,7.322-1.285,17.345v14.232
				c0,9.005,3.094,12.012,5.42,13.489c4.096,2.602,10.777,2.952,16.773,2.952c0.946,0,1.919-0.01,2.915-0.027l0.539-0.005
				c5.972,0,8.264,1.798,9.134,3.306c0.771,1.336,0.725,2.948-0.128,4.425c-1.817,3.147-7.826,6.323-17.153,6.323
				c-0.001,0-0.001,0-0.002,0c-2.176,0-4.443-0.177-6.74-0.526c-6.071-0.924-20.766-3.16-25.758-15.814v2.503
				c0,8.326,5.451,11.911,12.354,16.45c5.581,3.671,11.908,7.831,15.662,15.339c1.796,3.593,1.931,7.411,0.352,9.965
				c-0.942,1.526-2.437,2.401-4.098,2.401c-1.82,0-4.589-1.029-7.438-5.934c-1.983-3.413-7.117-6.854-12.552-10.499
				c-8.211-5.505-17.372-11.647-20.221-20.381c0.239,6.688,1.185,8.823,2.256,11.244c0.936,2.111,1.995,4.506,2.753,9.649
				c0.76,5.146,0.178,11.919-2.404,14.91c-1.165,1.35-2.439,1.633-3.303,1.633c-1.438,0-2.849-0.76-4.194-2.259
				c-8.346-9.293-9.693-19.655-10.922-35.616c-0.294-3.818-1.534-9.81-2.6-13.539c-1.081,3.731-2.339,9.729-2.631,13.539
				c-1.353,17.589-3.276,26.905-11.101,35.616c-1.345,1.499-2.803,2.259-4.335,2.259c-1.001,0-2.492-0.344-3.907-1.982
				c-2.545-2.948-3.806-9.071-2.997-14.561c0.665-4.51,1.322-6.862,1.85-8.753c0.624-2.233,1.099-3.936,1.327-8.35
				c-3.783,6.808-11.202,11.956-17.957,16.645c-5.217,3.621-10.145,7.041-12.123,10.444c-2.999,5.163-6.145,5.934-7.753,5.934
				c-1.898,0-3.602-0.995-4.675-2.731c-1.588-2.569-1.526-6.261,0.16-9.635c3.709-7.418,9.627-11.558,14.848-15.21
				c6.271-4.387,11.271-7.885,11.629-15.672c-5.866,9.753-17.987,11.597-23.294,12.404c-2.297,0.35-4.567,0.526-6.747,0.526
				c-9.904,0-17.962-3.92-17.962-8.739c0-1.015,0.386-2.902,2.974-4.146c1.614-0.775,3.854-1.169,6.657-1.169l0.54,0.005
				c0.996,0.018,1.963,0.027,2.902,0.027c14.774,0,20.95-2.285,20.95-16.441v-14.232c0-10.21-0.094-17.598-0.095-17.671
				c-0.066-0.838-1.427-6.599-2.869-12.697c-4.191-17.73-11.206-47.406-11.206-58.365C84.83,43.98,114.341,18.251,150.615,18.251
				 M78.05,199.012c-0.961,0-1.951-0.01-2.971-0.027l-0.471-0.005c-2.883,0-4.323,0.485-4.925,0.774
				c-0.576,0.276-0.706,0.509-0.706,0.54c0,1.104,4.352,4.739,13.962,4.739c1.979,0,4.046-0.162,6.145-0.481
				c10.818-1.646,22.024-5.236,23.112-19.385c0.538-7.006,0.739-19.646,0.8-24.755c0-0.048,0.002-0.096,0.004-0.142l0.009-0.139
				c0.158-1.91,1.676-2.011,1.991-2.011c1.104,0,2,0.906,2,2.011v35.063c0,10.513-6.79,15.263-13.356,19.856
				c-5.067,3.545-10.308,7.211-13.563,13.722c-1.283,2.564-0.982,4.696-0.335,5.743c0.342,0.554,0.77,0.834,1.272,0.834
				c0.969,0,2.606-1.036,4.295-3.943c2.425-4.173,7.708-7.839,13.301-11.721c8.442-5.859,18.012-12.501,18.718-21.674
				c0.27-3.506,0.68-8.771,1.027-13.16c0.174-2.196,0.332-4.172,0.448-5.6c0.063-0.781,0.117-1.436,0.193-1.977l0.023-0.155
				c0.225-1.433,0.649-2.01,1.977-2.01c1.104,0,2,0.905,2,2.01v21.852c0,10.967-0.681,13.405-1.624,16.781
				c-0.524,1.875-1.117,4-1.746,8.261c-0.707,4.795,0.496,9.543,2.067,11.362c0.328,0.379,0.648,0.597,0.88,0.597
				c0.123,0,0.583-0.067,1.359-0.931c7.047-7.847,8.808-16.6,10.088-33.251c0.223-2.905,1.022-7.439,2.037-11.55
				c1.759-7.129,2.882-8.383,4.593-8.383c1.713,0,2.833,1.255,4.568,8.389c0.997,4.097,1.785,8.628,2.01,11.544
				c1.318,17.135,2.986,25.541,9.91,33.251c0.665,0.74,1.1,0.922,1.211,0.931c0.975-0.325,2.724-5.412,1.757-11.959
				c-0.679-4.606-1.581-6.644-2.453-8.614c-1.366-3.087-2.657-6.003-2.657-16.428v-21.852c0-0.798,0.475-1.52,1.207-1.836
				c0.251-0.108,0.565-0.174,0.838-0.174c1.595,0,3.401,0,5.162,22.901c0.701,9.113,10.582,15.738,19.3,21.583
				c5.829,3.908,11.335,7.601,13.783,11.812c1.69,2.91,3.2,3.943,3.979,3.943c0.105,0,0.384,0,0.695-0.504
				c0.668-1.081,0.788-3.442-0.527-6.073c-3.272-6.546-8.869-10.227-14.282-13.786c-6.959-4.576-14.155-9.309-14.155-19.792v-35.063
				c0-0.752,0.422-1.44,1.092-1.782c0.281-0.143,0.637-0.229,0.952-0.229c2.31,0,2.535,2.493,2.984,7.46
				c0.304,3.362,0.577,7.687,0.841,11.869c0.179,2.829,0.351,5.541,0.518,7.717c1.079,14.031,12.725,17.674,23.973,19.385
				c2.099,0.319,4.164,0.481,6.139,0.481c0.002,0,0.003,0,0.005,0c8.152,0,12.722-2.651,13.687-4.323
				c0.02-0.033,0.185-0.326,0.128-0.425c-0.21-0.363-1.637-1.306-5.67-1.306l-0.471,0.005c-1.019,0.018-2.015,0.027-2.983,0.027
				c-6.901,0-13.971-0.433-18.918-3.575c-4.964-3.153-7.275-8.513-7.275-16.866v-14.232c0-9.832,1.155-16.928,1.328-17.936
				c0.096-1.118,0.822-4.085,3.167-13.381c4.427-17.555,11.836-46.938,11.836-57.416c0-29.419-27.686-53.354-61.716-53.354
				c-34.068,0-61.785,23.935-61.785,53.354c0,10.493,6.947,39.884,11.099,57.445c2.374,10.042,2.976,12.689,2.976,13.591
				c0.001,0.048,0.095,7.459,0.095,17.697v14.232C103,195.754,94.231,199.012,78.05,199.012 M150.615,14.251
				c-38.479,0-69.785,27.523-69.785,61.354c0,11.424,6.807,40.222,11.311,59.278c1.139,4.816,2.544,10.761,2.767,12.077
				c0.016,1.341,0.092,8.191,0.092,17.378v14.232c0,10.465-2.693,12.441-16.95,12.441c-0.916,0-1.86-0.01-2.832-0.026l-0.574-0.006
				c-3.443,0-6.265,0.526-8.425,1.563c-4.731,2.272-5.242,6.178-5.242,7.751c0,7.263,9.441,12.739,21.962,12.739
				c2.382,0,4.855-0.192,7.348-0.572c1.162-0.177,2.636-0.4,4.307-0.739c-4.228,3.239-8.614,7.364-11.668,13.474
				c-2.302,4.604-2.296,9.788,0.015,13.526c1.791,2.898,4.811,4.629,8.078,4.629c2.468,0,7.207-1.029,11.212-7.925
				c1.53-2.633,6.315-5.954,10.943-9.166c2.977-2.066,6.123-4.25,9.08-6.662c-0.177,0.953-0.357,2.026-0.537,3.249
				c-0.979,6.645,0.635,13.946,3.926,17.759c1.876,2.172,4.339,3.368,6.935,3.368c1.868,0,4.652-0.622,7.313-3.588
				c6.247-6.955,9.086-14.336,10.708-24.894c1.438,9.785,4.089,17.653,10.593,24.896c2.66,2.964,5.367,3.586,7.17,3.586
				c2.401,0,4.65-1.072,6.331-3.02c4.049-4.69,4-13.589,3.333-18.107c-0.191-1.299-0.403-2.446-0.628-3.469
				c3.119,2.48,6.466,4.725,9.655,6.862c4.825,3.235,9.803,6.574,11.321,9.187c3.805,6.549,8.025,7.924,10.896,7.924
				c3.035,0,5.839-1.607,7.501-4.3c2.302-3.722,2.234-9.031-0.177-13.854c-3.18-6.358-7.974-10.575-12.579-13.869
				c2.459,0.574,4.609,0.901,6.142,1.134c2.493,0.38,4.963,0.572,7.342,0.572c9.755,0,17.655-3.189,20.619-8.323
				c1.563-2.707,1.611-5.856,0.128-8.425c-1.396-2.42-4.716-5.306-12.598-5.306l-0.575,0.005c-1.007,0.018-1.955,0.027-2.879,0.027
				c-5.104,0-11.38-0.265-14.629-2.328c-0.975-0.62-3.564-2.265-3.564-10.113v-14.232c0-9.56,1.212-16.581,1.225-16.651
				c0.03-0.174,0.063-0.372,0.079-0.621c0.217-1.256,1.723-7.229,2.939-12.053l0.014-0.055c6.109-24.23,12.074-48.771,12.074-59.353
				C220.331,41.774,189.057,14.251,150.615,14.251L150.615,14.251z M106.905,146.622c-0.003-1.311-0.331-2.845-3.083-14.492
				C99.98,115.88,92.83,85.634,92.83,75.605c0-27.214,25.922-49.354,57.785-49.354c31.824,0,57.716,22.14,57.716,49.354
				c0,9.981-7.62,40.202-11.715,56.438c-2.435,9.653-3.096,12.361-3.255,13.827c-0.278,1.661-1.361,8.756-1.361,18.468v14.232
				c0,7.849,1.948,13.677,5.934,17.686c-4.169-2.591-6.162-6.242-6.559-11.396c-0.168-2.189-0.344-4.972-0.514-7.662
				c-0.265-4.193-0.538-8.53-0.85-11.978c-0.251-2.782-0.433-4.792-0.971-6.46c-1.351-4.188-4.644-4.64-5.997-4.64
				c-0.939,0-1.92,0.234-2.761,0.661c-2.028,1.035-3.283,3.083-3.283,5.35v35.063c0,3.229,0.577,6.013,1.556,8.446
				c-1.339-1.892-2.201-3.867-2.36-5.936c-0.819-10.662-1.711-17.302-2.805-20.896c-0.744-2.446-2.212-5.698-6.346-5.698
				c-0.814,0-1.675,0.178-2.424,0.502c-2.2,0.95-3.621,3.112-3.621,5.508v21.852c0,0.132,0,0.264,0.001,0.394
				c-0.371-2.947-1.064-6.663-1.892-10.064c-1.305-5.363-2.784-11.442-8.455-11.442c-5.658,0-7.155,6.069-8.477,11.425
				c-1.062,4.305-1.902,9.094-2.141,12.201c-1.042,13.55-2.299,21.242-6.477,27.543c-0.172-1.281-0.212-2.801,0.027-4.431
				c0.592-4.015,1.125-5.922,1.641-7.768c1.098-3.933,1.771-6.899,1.771-17.857v-21.852c0-3.313-2.692-6.01-6-6.01
				c-1.898,0-5.193,0.7-5.928,5.391l-0.028,0.19c-0.097,0.683-0.155,1.402-0.223,2.236c-0.117,1.429-0.275,3.408-0.449,5.608
				c-0.348,4.392-0.759,9.661-1.028,13.169c-0.289,3.752-2.752,7.182-6.127,10.358c2.264-3.352,3.784-7.495,3.784-12.869v-35.063
				c0-3.314-2.691-6.011-6-6.011c-2.737,0-5.669,1.951-5.978,5.682l-0.003,0.038l-0.002,0.038l-0.009,0.139l-0.002,0.041
				l-0.001,0.041c-0.004,0.088-0.007,0.18-0.008,0.271c-0.061,5.066-0.26,17.607-0.789,24.49c-0.471,6.122-3.18,9.831-7.521,12.204
				c3.856-3.601,6.313-9.349,6.313-18.494v-14.232C107,154.538,106.915,147.369,106.905,146.622L106.905,146.622z M166.383,227.128
				c-2.054-3.796-3.231-8.293-4.08-14.669c0.506,1.87,1.105,3.224,1.696,4.56c0.801,1.81,1.555,3.514,2.154,7.579
				C166.285,225.489,166.356,226.337,166.383,227.128L166.383,227.128z"/>
		</g>
	</g>
	<g>
		<g>
			<path fill="#191919" d="M121.907,125.744c-4.448,0-15.391-1.309-20.917-13.42c-4.667-10.231-1.008-18.535,1.589-22.574
				c2.778-4.32,6.59-7.338,9.271-7.338c0.987,0,1.842,0.394,2.407,1.108c1.836,2.324,17.286,34.323,17.286,37.851
				c0,1.048-0.615,2.505-3.543,3.489C126.302,125.43,124.138,125.744,121.907,125.744
				C121.907,125.744,121.907,125.744,121.907,125.744z"/>
			<path fill="#E214CF" d="M111.851,84.413c0.364,0,0.652,0.113,0.837,0.348c2.11,2.669,16.855,33.981,16.855,36.61
				c0,1.083-3.269,2.373-7.636,2.373c-6.235,0-14.708-2.631-19.097-12.25C96.004,96.576,108.074,84.413,111.851,84.413
				 M111.851,80.413c-3.899,0-8.311,4.146-10.954,8.256c-4.794,7.457-5.423,16.381-1.726,24.485
				c4.167,9.136,12.667,14.59,22.736,14.59c5.368,0,11.636-1.669,11.636-6.373c0-0.965,0-2.761-8.01-19.977
				c-1.29-2.773-7.821-16.728-9.707-19.114C114.888,81.093,113.439,80.413,111.851,80.413L111.851,80.413z"/>
		</g>
	</g>
	<g>
		<g>
			<path fill="#191919" d="M179.605,125.744c-4.642,0-9.637-1.369-9.637-4.373c0-3.531,15.45-35.529,17.287-37.851
				c0.563-0.714,1.418-1.107,2.405-1.107c2.682,0,6.494,3.018,9.271,7.338c2.597,4.039,6.256,12.342,1.588,22.573
				C194.996,124.437,184.054,125.744,179.605,125.744z"/>
			<path fill="#E214CF" d="M189.661,84.413c3.776-0.001,15.847,12.163,9.04,27.082c-4.388,9.619-12.86,12.25-19.096,12.25
				c-4.368,0-7.637-1.29-7.637-2.373c0-2.629,14.744-33.941,16.855-36.61C189.01,84.526,189.297,84.413,189.661,84.413
				 M189.662,80.413L189.662,80.413L189.662,80.413c-1.59,0-3.039,0.682-3.977,1.869c-1.885,2.383-8.417,16.339-9.708,19.113
				c-8.009,17.215-8.009,19.012-8.009,19.977c0,4.704,6.269,6.373,11.637,6.373c10.068,0,18.568-5.454,22.735-14.59
				c3.697-8.104,3.068-17.029-1.726-24.486C197.973,84.559,193.562,80.413,189.662,80.413L189.662,80.413z"/>
		</g>
	</g>
	<g>
		<g>
			<path fill="#78AED6" d="M133.51,45.263c-4.857,0-7.725-2.199-8.524-6.536c-1.408-7.641,4.831-15.218,13.906-16.891
				c1.194-0.22,2.406-0.331,3.602-0.331c7.864,0,14.201,4.588,15.41,11.158c0.424,2.302,0.083,4.275-1.014,5.865
				c-2.293,3.323-7.29,4.237-13.076,5.295l-1.692,0.312C138.994,44.715,136.039,45.263,133.51,45.263z"/>
			<path fill="#E214CF" d="M142.494,23.505c6.69-0.001,12.399,3.85,13.443,9.52c1.209,6.567-5.324,7.512-13.33,8.986
				c-3.411,0.628-6.539,1.252-9.098,1.252c-3.447,0-5.863-1.129-6.557-4.898c-1.21-6.567,4.298-13.086,12.302-14.562
				C140.349,23.602,141.435,23.505,142.494,23.505 M142.495,19.505h-0.001c-1.317,0-2.65,0.123-3.963,0.364
				c-10.161,1.873-17.119,10.495-15.511,19.22c0.562,3.053,2.673,8.174,10.491,8.174c2.713,0,5.755-0.564,8.977-1.162l0.846-0.157
				l0.841-0.154c6.224-1.138,11.599-2.122,14.362-6.127c1.409-2.042,1.858-4.52,1.335-7.362
				C158.484,24.767,151.339,19.505,142.495,19.505L142.495,19.505z"/>
		</g>
	</g>
	<g>
		<g>
			<path fill="#78AED6" d="M172.689,49.849c-2.438,0-4.637-1.442-6.964-2.969l-0.883-0.577c-2.713-1.767-5.275-3.435-5.887-6.34
				c-0.403-1.917,0.156-4.004,1.71-6.38c2.886-4.415,7.397-7.158,11.773-7.158c1.845,0,3.596,0.508,5.065,1.469
				c2.548,1.665,4.075,4.491,4.3,7.956c0.21,3.25-0.768,6.713-2.754,9.751C177.182,48.459,175.102,49.849,172.689,49.849z"/>
			<path fill="#E214CF" d="M172.439,28.424c1.424,0,2.785,0.367,3.971,1.143c4.154,2.714,4.586,9.402,0.967,14.939
				c-1.601,2.449-3.126,3.343-4.688,3.343c-1.968,0-3.995-1.419-6.311-2.933c-4.154-2.716-7.658-4.703-4.039-10.24
				C164.925,30.721,168.879,28.424,172.439,28.424 M172.439,24.424L172.439,24.424c-5.044,0-10.197,3.09-13.447,8.063
				c-1.859,2.844-2.511,5.423-1.993,7.886c0.782,3.717,3.954,5.783,6.753,7.604l0.438,0.286l0.438,0.287
				c2.47,1.621,5.024,3.297,8.061,3.297c3.097,0,5.8-1.734,8.035-5.154c2.222-3.398,3.313-7.296,3.075-10.975
				c-0.262-4.049-2.157-7.512-5.202-9.501C176.804,25.045,174.674,24.424,172.439,24.424L172.439,24.424z"/>
		</g>
	</g>
	<g>
		<g>
			<path fill="#78AED6" d="M115.156,47.942c-2.397,0-4.472-1.092-5.55-2.922c-0.922-1.566-1.025-3.53-0.283-5.39
				c0.682-1.709,2.009-3.21,3.738-4.228c1.42-0.837,2.989-1.279,4.536-1.279c2.397,0,4.472,1.092,5.55,2.922
				c0.922,1.565,1.025,3.53,0.283,5.389c-0.682,1.709-2.009,3.21-3.737,4.228C118.272,47.5,116.703,47.942,115.156,47.942z"/>
			<path fill="#E214CF" d="M117.597,36.123c1.632,0,3.079,0.667,3.826,1.937c1.271,2.158,0.042,5.238-2.746,6.879
				c-1.147,0.676-2.38,1.002-3.521,1.002c-1.632,0-3.079-0.667-3.827-1.937c-1.271-2.158-0.042-5.238,2.746-6.879
				C115.223,36.45,116.456,36.123,117.597,36.123 M117.597,32.123c-1.904,0-3.823,0.538-5.551,1.556
				c-2.108,1.241-3.734,3.092-4.58,5.21c-0.974,2.438-0.821,5.043,0.417,7.146c1.441,2.446,4.16,3.907,7.273,3.907
				c1.903,0,3.823-0.538,5.551-1.556c2.108-1.242,3.734-3.092,4.58-5.21c0.974-2.439,0.821-5.043-0.417-7.146
				C123.43,33.584,120.71,32.123,117.597,32.123L117.597,32.123z"/>
		</g>
	</g>
	<g>
		<g>
			<path fill="#78AED6" d="M185.438,50.204c-2.397,0-4.472-1.093-5.551-2.923c-1.828-3.105-0.278-7.42,3.454-9.618
				c1.42-0.836,2.987-1.279,4.534-1.279c2.398,0,4.473,1.093,5.552,2.923c1.828,3.105,0.278,7.42-3.454,9.618
				C188.554,49.761,186.985,50.204,185.438,50.204z"/>
			<path fill="#E214CF" d="M187.876,38.384c1.633,0,3.08,0.668,3.828,1.938c1.271,2.158,0.042,5.238-2.745,6.88
				c-1.146,0.675-2.379,1.002-3.521,1.002c-1.632,0-3.079-0.668-3.827-1.938c-1.271-2.158-0.042-5.238,2.745-6.88
				C185.503,38.71,186.734,38.384,187.876,38.384 M187.876,34.384c-1.903,0-3.822,0.538-5.55,1.556
				c-4.762,2.804-6.59,8.231-4.162,12.355c1.442,2.448,4.161,3.909,7.274,3.909c1.903,0,3.822-0.538,5.55-1.555
				c4.763-2.805,6.591-8.232,4.163-12.356C193.709,35.845,190.989,34.384,187.876,34.384L187.876,34.384z"/>
		</g>
	</g>
	<g>
		<g>
			<path fill="#78AED6" d="M161.205,62.136c-0.59,0-1.174-0.006-1.743-0.012c-0.525-0.006-1.037-0.011-1.526-0.011
				c-9.076,0-14.281-2.863-14.281-7.856c0-5.883,8.285-11.636,14.468-11.636c6.355,0,14.469,7.478,14.469,13.336
				C172.592,62.136,164.612,62.136,161.205,62.136z"/>
			<path fill="#E214CF" d="M158.123,44.621c5.113,0,12.469,6.588,12.469,11.336c0,3.8-4.836,4.179-9.387,4.179
				c-1.134,0-2.25-0.023-3.27-0.023c-5.113,0-12.281-1.109-12.281-5.856C145.655,49.509,153.012,44.621,158.123,44.621
				 M158.123,40.621c-7.259,0-16.468,6.42-16.468,13.636c0,6.171,6.086,9.856,16.281,9.856c0.482,0,0.987,0.005,1.505,0.011
				c0.576,0.006,1.168,0.012,1.765,0.012c2.448,0,5.269-0.102,7.621-0.855c3.664-1.174,5.766-3.844,5.766-7.324
				C174.592,49.077,165.511,40.621,158.123,40.621L158.123,40.621z"/>
		</g>
	</g>
	<g>
		<g>
			<path fill="#78AED6" d="M136.728,62.595c-2.821,0-5.905-1.293-8.461-3.547c-2.132-1.881-3.662-4.228-4.308-6.609
				c-0.716-2.639-0.261-5.134,1.248-6.844c1.246-1.412,3.117-2.19,5.27-2.19c2.821,0,5.905,1.293,8.46,3.547
				c4.707,4.153,6.051,10.063,3.06,13.454C140.751,61.817,138.88,62.595,136.728,62.595z"/>
			<path fill="#E214CF" d="M130.477,45.404c2.236,0,4.876,1.053,7.137,3.047c3.808,3.359,5.099,8.119,2.883,10.631
				c-0.9,1.02-2.24,1.513-3.77,1.513c-2.236,0-4.876-1.052-7.138-3.047c-3.808-3.359-5.099-8.119-2.883-10.63
				C127.606,45.897,128.947,45.404,130.477,45.404 M130.477,41.404L130.477,41.404c-2.735,0-5.139,1.019-6.77,2.867
				c-1.961,2.223-2.573,5.391-1.678,8.69c0.747,2.755,2.493,5.449,4.915,7.585c2.916,2.573,6.482,4.048,9.784,4.048
				c2.734,0,5.138-1.018,6.769-2.867c3.733-4.232,2.312-11.382-3.237-16.276C137.344,42.88,133.778,41.404,130.477,41.404
				L130.477,41.404z"/>
		</g>
	</g>
	<g>
		<g>
			<path fill="#78AED6" d="M142.374,74.609c-5.716,0-7.297-2.986-7.731-4.766c-1.568-6.438,5.269-8.104,7.516-8.651
				c0.543-0.132,1.168-0.33,1.831-0.539c1.531-0.484,3.267-1.032,4.865-1.032c2.487,0,4.25,1.384,4.836,3.798
				c1.298,5.33-2.154,9.544-6.241,10.54C146.453,74.202,144.468,74.609,142.374,74.609z"/>
			<path fill="#E214CF" d="M148.855,61.621c1.375,0,2.474,0.55,2.893,2.271c1,4.106-1.528,7.334-4.771,8.124
				c-1.255,0.306-2.945,0.593-4.604,0.593c-2.627,0-5.174-0.722-5.788-3.239c-1-4.106,2.802-5.444,6.046-6.234
				C144.516,62.677,146.95,61.621,148.855,61.621 M148.855,57.621L148.855,57.621c-1.907,0-3.799,0.598-5.469,1.125
				c-0.629,0.199-1.223,0.386-1.701,0.502c-1.983,0.483-4.259,1.168-6.107,2.589c-2.646,2.035-3.696,5.125-2.879,8.478
				c0.46,1.892,2.326,6.293,9.674,6.293c2.188,0,4.226-0.384,5.55-0.707c5.042-1.228,9.305-6.411,7.711-12.957
				C154.823,59.612,152.289,57.621,148.855,57.621L148.855,57.621z"/>
		</g>
	</g>
	<g>
		<g>
			<path fill="#474747" d="M108.543,102.477c-0.204,0-0.408-0.013-0.612-0.041c-3.196-0.43-5.261-4.031-4.701-8.199
				c0.514-3.825,3.13-6.709,6.085-6.709c0.204,0,0.408,0.013,0.612,0.041c3.196,0.43,5.261,4.031,4.701,8.199
				C114.115,99.593,111.499,102.477,108.543,102.477z"/>
			<path fill="#E214CF" d="M109.315,89.529c0.115,0,0.23,0.007,0.346,0.023c2.053,0.276,3.389,2.94,2.985,5.95
				c-0.381,2.841-2.177,4.975-4.103,4.975c-0.115,0-0.23-0.007-0.346-0.023c-2.053-0.276-3.389-2.94-2.985-5.95
				C105.594,91.663,107.389,89.529,109.315,89.529 M109.315,85.529L109.315,85.529c-4.017,0-7.41,3.551-8.067,8.443
				c-0.709,5.279,2.109,9.868,6.417,10.447c0.291,0.039,0.586,0.059,0.879,0.059c4.017,0,7.41-3.551,8.067-8.443
				c0.709-5.279-2.109-9.868-6.417-10.447C109.903,85.548,109.607,85.529,109.315,85.529L109.315,85.529z"/>
		</g>
	</g>
	<g>
		<g>
			<path fill="#474747" d="M191.544,102.479c-0.204,0-0.408-0.013-0.613-0.041c-1.644-0.22-3.078-1.327-3.935-3.035
				c-0.742-1.479-1.014-3.313-0.766-5.164c0.514-3.825,3.13-6.708,6.085-6.708c0.204,0,0.408,0.013,0.613,0.041
				c1.644,0.221,3.078,1.327,3.935,3.035c0.742,1.479,1.014,3.313,0.766,5.164C197.115,99.596,194.499,102.479,191.544,102.479z"/>
			<path fill="#E214CF" d="M192.315,89.531c0.115,0,0.23,0.008,0.347,0.023c2.053,0.275,3.389,2.939,2.984,5.95
				c-0.382,2.84-2.177,4.975-4.103,4.975c-0.115,0-0.23-0.007-0.347-0.023c-2.053-0.275-3.389-2.939-2.984-5.95
				C188.595,91.666,190.39,89.532,192.315,89.531 M192.315,85.532L192.315,85.532c-4.018,0-7.41,3.551-8.067,8.442
				c-0.301,2.245,0.04,4.491,0.96,6.326c1.158,2.309,3.147,3.811,5.457,4.121c0.29,0.039,0.586,0.059,0.879,0.059
				c4.018,0,7.41-3.55,8.067-8.442c0.301-2.245-0.04-4.491-0.96-6.326c-1.158-2.309-3.147-3.811-5.457-4.121
				C192.904,85.551,192.608,85.532,192.315,85.532L192.315,85.532z"/>
		</g>
	</g>
</g>
<g>
	<g>
		<path fill="#88BDED" d="M263.355,258.293c0,11.484-8.459,21.707-18.894,21.707H55.538c-10.434,0-18.893-10.223-18.893-21.707
			c0,0-18.515-130.598,113.354-130.598C281.869,127.695,263.355,258.293,263.355,258.293z"/>
		<path fill="#3847D1" d="M244.462,282H55.538c-11.286,0-20.827-10.781-20.893-23.573c-0.425-3.311-7.121-60.214,25.855-98.194
			c19.897-22.917,50.009-34.538,89.498-34.538c39.489,0,69.602,11.62,89.499,34.538c32.977,37.981,26.282,94.884,25.857,98.194
			C265.289,271.219,255.748,282,244.462,282z M149.999,129.695c-38.278,0-67.374,11.157-86.478,33.16
			C30.9,200.427,38.544,257.44,38.625,258.013l0.02,0.28c0,10.683,7.736,19.707,16.893,19.707h188.924
			c9.157,0,16.894-9.024,16.894-19.707l0.02-0.28c0.081-0.572,7.696-57.642-24.915-95.179
			C217.355,140.845,188.266,129.695,149.999,129.695z"/>
	</g>
	<g>
		<path fill="#88BDED" d="M225.143,196.984C208.008,197.279,198,195.447,198,178.57c0-5.803,0-8.813,0-14.232
			c0-10.344,1.316-17.697,1.316-17.697c0-2.615,15.015-55.858,15.015-71.036c0-30.57-28.448-55.354-63.716-55.354
			c-35.266,0-63.785,24.784-63.785,55.354c0,15.178,14.075,68.421,14.075,71.036c0,0,0.095,7.354,0.095,17.697
			c0,5.42,0,8.43,0,14.232c0,16.877-8.752,18.709-25.887,18.414c-16.113-0.279-6.699,12.736,14.272,9.545
			c9.588-1.459,23.546-4.836,24.805-21.209c0.664-8.644,0.81-25.697,0.81-25.188c0,3.41,0,20.009,0,35.063
			c0,16.877-18.773,16.813-26.708,32.684c-3.798,7.596,2.988,14.451,8.75,4.533c5.763-9.918,31.023-17.871,32.283-34.246
			c0.547-7.115,1.675-21.477,1.675-21.045c0,6.453,0,14.344,0,21.852c0,16.879-1.584,12.785-3.348,24.75
			c-1.238,8.4,2.854,18.137,7.773,12.656c7.664-8.533,9.335-18.061,10.594-34.434c0.447-5.816,3.3-18.086,4.635-18.086
			c1.336,0,4.137,12.27,4.584,18.086c1.26,16.373,2.753,25.9,10.416,34.434c4.921,5.48,7.675-4.256,6.435-12.656
			c-1.764-11.965-5.089-7.871-5.089-24.75c0-7.508,0-15.397,0-21.852c1-0.432,2.666,13.93,3.213,21.045
			c1.26,16.375,27.583,24.328,33.348,34.246c5.762,9.918,11.463,3.063,7.666-4.533C203.291,212.008,183,212.072,183,195.195
			c0-15.055,0-31.652,0-35.063c1-0.51,1.729,16.545,2.393,25.188c1.26,16.373,16.078,19.75,25.666,21.209
			C232.029,209.721,241.258,196.705,225.143,196.984z"/>
		<path fill="#3847D1" d="M168.36,239.974c-1.438,0-2.849-0.76-4.194-2.259c-8.346-9.293-9.693-19.655-10.922-35.616
			c-0.294-3.818-1.534-9.81-2.6-13.539c-1.081,3.731-2.339,9.729-2.631,13.539c-1.353,17.589-3.276,26.905-11.101,35.616
			c-1.345,1.499-2.803,2.259-4.335,2.259c-1.001,0-2.492-0.344-3.907-1.982c-2.545-2.948-3.806-9.071-2.997-14.561
			c0.665-4.51,1.322-6.862,1.85-8.753c0.624-2.233,1.099-3.936,1.327-8.35c-3.783,6.808-11.202,11.956-17.957,16.645
			c-5.217,3.621-10.145,7.041-12.123,10.444c-2.999,5.163-6.145,5.934-7.753,5.934c-1.898,0-3.602-0.995-4.675-2.731
			c-1.588-2.569-1.526-6.261,0.16-9.635c3.709-7.418,9.627-11.558,14.848-15.21c6.271-4.387,11.271-7.885,11.629-15.672
			c-5.866,9.753-17.987,11.597-23.294,12.404c-2.297,0.35-4.567,0.526-6.747,0.526c-9.904,0-17.962-3.92-17.962-8.739
			c0-1.015,0.386-2.902,2.974-4.146c1.614-0.775,3.854-1.169,6.657-1.169l0.54,0.005c0.996,0.018,1.963,0.027,2.902,0.027
			c14.774,0,20.95-2.285,20.95-16.441v-14.232c0-10.21-0.094-17.598-0.095-17.671c-0.066-0.838-1.427-6.599-2.869-12.697
			c-4.191-17.73-11.206-47.406-11.206-58.365c0-31.625,29.511-57.354,65.785-57.354c36.235,0,65.716,25.729,65.716,57.354
			c0,10.974-7.485,40.658-11.957,58.394c-1.534,6.083-2.983,11.828-3.06,12.713c0,0.118-0.009,0.166-0.029,0.282
			c-0.013,0.072-1.285,7.322-1.285,17.345v14.232c0,9.005,3.094,12.012,5.42,13.489c4.096,2.602,10.777,2.952,16.773,2.952
			c0.946,0,1.919-0.01,2.915-0.027l0.539-0.005c5.972,0,8.264,1.798,9.134,3.306c0.771,1.336,0.725,2.948-0.128,4.425
			c-1.817,3.147-7.826,6.323-17.153,6.323c-0.001,0-0.001,0-0.002,0c-2.176,0-4.443-0.177-6.74-0.526
			c-6.071-0.924-20.766-3.16-25.758-15.814v2.503c0,8.326,5.451,11.911,12.354,16.45c5.581,3.671,11.908,7.831,15.662,15.339
			c1.796,3.593,1.931,7.411,0.352,9.965c-0.942,1.526-2.437,2.401-4.098,2.401c-1.82,0-4.589-1.029-7.438-5.934
			c-1.983-3.413-7.117-6.854-12.552-10.499c-8.211-5.505-17.372-11.647-20.221-20.381c0.239,6.688,1.185,8.823,2.256,11.244
			c0.936,2.111,1.995,4.506,2.753,9.649c0.76,5.146,0.178,11.919-2.404,14.91C170.498,239.69,169.224,239.974,168.36,239.974z
			 M131,175.111c1.104,0,2,0.905,2,2.01v21.852c0,10.967-0.681,13.405-1.624,16.781c-0.524,1.875-1.117,4-1.746,8.261
			c-0.707,4.795,0.496,9.543,2.067,11.362c0.328,0.379,0.648,0.597,0.88,0.597c0.123,0,0.583-0.067,1.359-0.931
			c7.047-7.847,8.808-16.6,10.088-33.251c0.223-2.905,1.022-7.439,2.037-11.55c1.759-7.129,2.882-8.383,4.593-8.383
			c1.713,0,2.833,1.255,4.568,8.389c0.997,4.097,1.785,8.628,2.01,11.544c1.318,17.135,2.986,25.541,9.91,33.251
			c0.665,0.74,1.1,0.922,1.211,0.931c0.975-0.325,2.724-5.412,1.757-11.959c-0.679-4.606-1.581-6.644-2.453-8.614
			c-1.366-3.087-2.657-6.003-2.657-16.428v-21.852c0-0.798,0.475-1.52,1.207-1.836c0.251-0.108,0.565-0.174,0.838-0.174
			c1.595,0,3.401,0,5.162,22.901c0.701,9.113,10.582,15.738,19.3,21.583c5.829,3.908,11.335,7.601,13.783,11.812
			c1.69,2.91,3.2,3.943,3.979,3.943c0.105,0,0.384,0,0.695-0.504c0.668-1.081,0.788-3.442-0.527-6.073
			c-3.272-6.546-8.869-10.227-14.282-13.786c-6.959-4.576-14.155-9.309-14.155-19.792v-35.063c0-0.752,0.422-1.44,1.092-1.782
			c0.281-0.143,0.637-0.229,0.952-0.229c2.31,0,2.535,2.493,2.984,7.46c0.304,3.362,0.577,7.687,0.841,11.869
			c0.179,2.829,0.351,5.541,0.518,7.717c1.079,14.031,12.725,17.674,23.973,19.385c2.099,0.319,4.164,0.481,6.139,0.481
			c8.155,0.001,12.727-2.651,13.691-4.323c0.02-0.033,0.185-0.326,0.128-0.425c-0.21-0.363-1.637-1.306-5.67-1.306l-0.471,0.005
			c-1.019,0.018-2.015,0.027-2.983,0.027c-6.901,0-13.971-0.433-18.918-3.575c-4.964-3.153-7.275-8.513-7.275-16.866v-14.232
			c0-9.832,1.155-16.928,1.328-17.936c0.096-1.118,0.822-4.085,3.167-13.381c4.427-17.555,11.836-46.938,11.836-57.416
			c0-29.419-27.686-53.354-61.716-53.354c-34.068,0-61.785,23.935-61.785,53.354c0,10.493,6.947,39.884,11.099,57.445
			c2.374,10.042,2.976,12.689,2.976,13.591c0.001,0.048,0.095,7.459,0.095,17.697v14.232c0,17.184-8.769,20.441-24.95,20.441
			c-0.961,0-1.951-0.01-2.971-0.027l-0.471-0.005c-2.883,0-4.323,0.485-4.925,0.774c-0.576,0.276-0.706,0.509-0.706,0.54
			c0,1.104,4.352,4.739,13.962,4.739c1.979,0,4.046-0.162,6.145-0.481c10.818-1.646,22.024-5.236,23.112-19.385
			c0.538-7.006,0.739-19.646,0.8-24.755c0-0.048,0.002-0.096,0.004-0.142l0.009-0.139c0.158-1.91,1.676-2.011,1.991-2.011
			c1.104,0,2,0.906,2,2.011v35.063c0,10.513-6.79,15.263-13.356,19.856c-5.067,3.545-10.308,7.211-13.563,13.722
			c-1.283,2.564-0.982,4.696-0.335,5.743c0.342,0.554,0.77,0.834,1.272,0.834c0.969,0,2.606-1.036,4.295-3.943
			c2.425-4.173,7.708-7.839,13.301-11.721c8.442-5.859,18.012-12.501,18.718-21.674c0.27-3.506,0.68-8.771,1.027-13.16
			c0.174-2.196,0.332-4.172,0.448-5.6c0.063-0.781,0.117-1.436,0.193-1.977l0.023-0.155
			C129.248,175.688,129.672,175.111,131,175.111z"/>
	</g>
	<g>
		<path fill="#191919" d="M102.81,111.494c7.462,16.357,26.733,12.506,26.733,9.877s-14.745-33.941-16.855-36.61
			C110.578,82.091,95.348,95.137,102.81,111.494z"/>
	</g>
	<g>
		<path fill="#191919" d="M198.701,111.494c-7.461,16.357-26.732,12.506-26.732,9.877s14.744-33.941,16.855-36.61
			C190.934,82.091,206.164,95.137,198.701,111.494z"/>
	</g>
	<g>
		<path fill="#D67BBA" d="M155.938,33.025c1.209,6.567-5.324,7.512-13.33,8.986c-8.003,1.475-14.445,2.921-15.655-3.646
			c-1.21-6.567,4.298-13.086,12.302-14.562C147.258,22.33,154.729,26.457,155.938,33.025z"/>
	</g>
	<g>
		<path fill="#D67BBA" d="M177.377,44.506c-3.619,5.536-6.846,3.124-10.998,0.41c-4.154-2.716-7.658-4.703-4.039-10.24
			c3.619-5.537,9.92-7.824,14.07-5.109C180.564,32.281,180.996,38.969,177.377,44.506z"/>
	</g>
	<g>
		
			<ellipse transform="matrix(-0.5075 -0.8617 0.8617 -0.5075 140.0792 162.1332)" fill="#D67BBA" cx="116.377" cy="41.032" rx="4.534" ry="5.857"/>
	</g>
	<g>
		
			<ellipse transform="matrix(-0.5074 -0.8617 0.8617 -0.5074 244.0665 226.1042)" fill="#D67BBA" cx="186.658" cy="43.294" rx="4.535" ry="5.856"/>
	</g>
	<g>
		<path fill="#D67BBA" d="M170.592,55.957c0,4.747-7.545,4.156-12.656,4.156c-5.113,0-12.281-1.109-12.281-5.856
			c0-4.748,7.357-9.636,12.468-9.636C163.236,44.621,170.592,51.209,170.592,55.957z"/>
	</g>
	<g>
		
			<ellipse transform="matrix(-0.7499 -0.6615 0.6615 -0.7499 198.7316 181.1271)" fill="#D67BBA" cx="133.602" cy="53" rx="9.195" ry="6.065"/>
	</g>
	<g>
		<path fill="#D67BBA" d="M151.748,63.892c1,4.106-1.528,7.334-4.771,8.124c-3.244,0.79-9.391,1.46-10.391-2.646
			s2.802-5.444,6.046-6.234C145.876,62.346,150.749,59.786,151.748,63.892z"/>
	</g>
	<g>
		
			<ellipse transform="matrix(0.1331 -0.9911 0.9911 0.1331 0.2753 190.3206)" fill="#474747" cx="108.929" cy="95.003" rx="5.5" ry="3.75"/>
	</g>
	<g>
		
			<ellipse transform="matrix(0.1332 -0.9911 0.9911 0.1332 72.2111 272.574)" fill="#474747" cx="191.93" cy="95.006" rx="5.5" ry="3.75"/>
	</g>
</g>
</svg>
