<?xml version="1.0" encoding="utf-8"?>
<!-- Generator: Adobe Illustrator 16.0.0, SVG Export Plug-In . SVG Version: 6.00 Build 0)  -->
<!DOCTYPE svg PUBLIC "-//W3C//DTD SVG 1.1//EN" "http://www.w3.org/Graphics/SVG/1.1/DTD/svg11.dtd">
<svg version="1.1" id="Layer_1" xmlns="http://www.w3.org/2000/svg" xmlns:xlink="http://www.w3.org/1999/xlink" x="0px" y="0px"
	 width="1126px" height="932px" viewBox="0 0 1126 932" style="enable-background:new 0 0 1126 932;" xml:space="preserve">
<style type="text/css">
<![CDATA[
	.st0{fill:#474747;}
	.st1{fill:#F275C5;stroke:#E240B0;stroke-width:4;stroke-miterlimit:10;}
	.st2{fill:#F7D379;stroke:#3847D1;stroke-width:3;stroke-linecap:round;stroke-miterlimit:10;}
	.st3{fill:#E240B0;}
	.st4{fill:#E3F6FF;}
	.st5{fill:#E525A5;}
	.st6{fill:#F275C5;stroke:#3847D1;stroke-width:4;stroke-linejoin:round;stroke-miterlimit:10;}
	.st7{fill:#D1D1D1;stroke:#3847D1;stroke-width:5;stroke-miterlimit:10;}
	.st8{fill:#191919;}
	.st9{fill:#88BDED;stroke:#3847D1;stroke-width:4;stroke-miterlimit:10;}
	.st10{fill:#F9DB85;stroke:#3847D1;stroke-width:4;stroke-miterlimit:10;}
	.st11{fill:#1B2C77;}
	.st12{fill:#88BDED;}
	.st13{fill:#E240B0;stroke:#3847D1;stroke-width:4;stroke-linejoin:round;stroke-miterlimit:10;}
	.st14{fill:#5FED80;stroke:#3847D1;stroke-width:3;stroke-linecap:round;stroke-miterlimit:10;}
	.st15{fill:#BCFFB8;}
	.st16{fill:#F4CC69;stroke:#3847D1;stroke-width:4;stroke-miterlimit:10;}
	.st17{fill:#F275C5;}
	.st18{fill:#5A70ED;}
	.st19{fill:#5AEDBF;}
	.st20{fill:#3847D1;stroke:#3847D1;stroke-width:4;stroke-miterlimit:10;}
	.st21{fill:#F275C5;stroke:#3847D1;stroke-width:4;stroke-miterlimit:10;}
	.st22{fill:#558CB5;stroke:#3847D1;stroke-width:4;stroke-linecap:round;stroke-linejoin:round;stroke-miterlimit:10;}
	.st23{fill:#F9DB85;}
	.st24{fill:#C0E4FF;}
	.st25{fill:#93EA73;}
	.st26{fill:none;stroke:#3847D1;stroke-width:4;stroke-miterlimit:10;}
	.st27{fill:#88BDED;stroke:#3847D1;stroke-width:4;stroke-linecap:round;stroke-linejoin:round;stroke-miterlimit:10;}
	.st28{fill:#FF99EC;}
	.st29{fill:#FFBBED;}
	.st30{fill:#FFC294;}
	.st31{fill:#FFEEB6;}
	.st32{fill:#FFFFFF;}
	.st33{fill:#66AADD;}
	.st34{fill:#350F2C;}
	.st35{fill:#353535;}
	.st36{fill:#3847D1;}
	.st37{fill:#CC505F;stroke:#3847D1;stroke-width:3;stroke-linecap:round;stroke-miterlimit:10;}
	.st38{fill:#B2DAF7;stroke:#3847D1;stroke-width:4;stroke-miterlimit:10;}
	.st39{fill:#D788EA;}
	.st40{fill:#78AED6;}
	.st41{fill:#A80E84;}
	.st42{fill:none;stroke:#3847D1;stroke-width:3;stroke-linecap:round;stroke-miterlimit:10;}
	.st43{fill:none;stroke:#3847D1;stroke-width:4;stroke-linecap:round;stroke-miterlimit:10;}
]]>
</style>
<g>
	<g>
		<path class="st33" d="M514.646,657.006c-6.829,0-8.325-12.698-8.325-17.591v-0.311l24.911-78.33
			c0.162-5.385,4.337-8.979,10.493-8.979h42.087c5.756,0,10.444,4.807,10.499,10.735h93.69c0.55,0,0.953-0.03,1.248-0.052
			c0.249-0.018,0.446-0.029,0.601-0.029c0.739,0,1.341,0.243,1.786,0.723c0.692,0.743,0.631,1.593,0.581,2.275
			c-0.021,0.295-0.051,0.698-0.051,1.247v18.673c0,0.433,0.018,0.924,0.035,1.445c0.098,2.798,0.207,5.97-1.49,7.727
			c-0.713,0.737-1.649,1.127-2.71,1.127h-63.27c-0.323,0.475-0.684,1.084-1.037,1.681c-0.172,0.291-0.347,0.586-0.521,0.875
			c-8.215,13.515-12.518,16.229-16.798,16.229l-24.767,1.15h-0.072c-1.53,0-2.935-0.347-4.227-0.776l-10.085,30.656
			c-0.167,5.521-4.43,11.524-10.493,11.524H514.646z M580.955,603.567c0.183-0.011,0.364-0.018,0.547-0.018l14.203,0.003
			c-1.998-0.729-3.835-1.932-4.352-3.699l-1.266-4.188h-6.438L580.955,603.567z M605.607,603.555c0.672-0.504,2.389-2.2,6.401-7.889
			h-9.322l1.79,4.665l0.023,0.078c0.274,0.939,0.122,1.862-0.43,2.599c-0.152,0.203-0.33,0.386-0.532,0.546L605.607,603.555z"/>
		<path class="st36" d="M583.812,553.795c4.692,0,8.499,3.958,8.499,8.839l-0.617,1.896h96.308c0.966,0,1.528-0.081,1.849-0.081
			c0.638,0,0.316,0.321,0.316,2.245v18.673c0,2.89,0.725,8.299-2.165,8.299h-64.239c-0.726,0.768-1.498,2.198-2.299,3.518
			c-8.36,13.755-12.18,15.268-15.088,15.268l-24.813,1.15h-0.026c-1.968,0-3.813-0.731-5.481-1.362l-10.825,32.906
			c0,4.881-3.804,9.86-8.498,9.86h-42.086c-4.693,0-6.325-10.709-6.325-15.591l24.906-78.314c0-4.882,3.806-7.306,8.498-7.306
			H583.812 M600.362,602.438c-2.597,0-6.561-1.337-7.089-3.146l-1.7-5.627h-9.354l-4.016,11.776c0.406,0.178,0.83,0.23,1.266,0.23
			c0.661,0,1.348-0.123,2.033-0.123c0.003,0,0.007,0,0.01,0l24.641,0.005c1.764-0.799,5.507-5.755,9.67-11.889h-16.045l2.803,7.305
			C602.882,602.003,601.845,602.438,600.362,602.438 M583.812,549.795h-42.087c-7.106,0-12.143,4.336-12.48,10.628l-24.735,77.78
			l-0.188,0.591v0.621c0,6.776,2.158,19.591,10.325,19.591h42.086c6.448,0,12.13-6.076,12.48-13.167l9.4-28.573
			c0.915,0.203,1.892,0.336,2.924,0.336h0.093l0.119-0.004l24.729-1.146c4.938-0.039,9.763-2.973,18.404-17.19
			c0.181-0.297,0.358-0.598,0.535-0.896c0.124-0.211,0.269-0.455,0.417-0.699h62.168c1.593,0,3.065-0.617,4.148-1.738
			c2.287-2.367,2.156-6.146,2.051-9.184c-0.017-0.497-0.034-0.965-0.034-1.377v-18.673c0-0.468,0.024-0.806,0.046-1.103
			c0.057-0.779,0.174-2.401-1.111-3.783c-0.577-0.62-1.61-1.359-3.251-1.359c-0.191,0-0.436,0.013-0.745,0.035
			c-0.298,0.021-0.636,0.046-1.104,0.046h-91.858C595.163,554.448,590.006,549.795,583.812,549.795L583.812,549.795z
			 M605.597,597.666h2.485c-0.659,0.875-1.213,1.576-1.676,2.139l-0.033-0.113l-0.059-0.153L605.597,597.666L605.597,597.666z
			 M585.081,597.666h3.522l0.841,2.784c0.114,0.39,0.267,0.756,0.454,1.102l-6.142-0.002L585.081,597.666L585.081,597.666z"/>
	</g>
	<path class="st7" d="M734.5,545.966c0,1.014,1.045,4.534,0.272,4.534h-19.439c-0.772,0-2.833-3.521-2.833-4.534v-4.382
		c0-1.013,2.061-0.084,2.833-0.084h19.439c0.772,0-0.272-0.929-0.272,0.084V545.966z"/>
	<path class="st16" d="M717,553.547c0,0.772,0.143,1.398-0.631,1.398l-8.838,1.533c-0.772,0-1.531-0.626-1.531-1.397v-19.439
		c0-0.772,1.144-1.398,1.916-1.398l8.195,1.533c0.771,0,0.889,0.626,0.889,1.398V553.547z"/>
	<path class="st31" d="M716,544.391c0,0.222,0.259,0.401-0.514,0.401l-8.897,0.441c-0.771,0-1.589-0.18-1.589-0.402v-5.586
		c0-0.222,1.26-0.401,2.031-0.401l8.138,0.44c0.772,0,0.831,0.181,0.831,0.401V544.391z"/>
	<circle class="st21" cx="747.608" cy="545.361" r="14.504"/>
	<g>
		<path class="st23" d="M554.773,530.824c-4.24,0-17.146,0-17.146-7.443c0-9.276-21.673-25.554-30.023-31.042l-6.393-4.203
			l7.631,0.536c2.958,0.208,72.551,5.142,83.729,10.068c8.418,3.709,11.418,10.672,11.418,15.951c0,6.827-2.889,9.624-3.218,9.92
			l-0.399,0.359l-0.524,0.111C598.74,525.316,572.498,530.824,554.773,530.824C554.773,530.824,554.774,530.824,554.773,530.824z"/>
		<path class="st36" d="M508.703,490.667c0,0,72.074,5.061,83.063,9.903c7.541,3.322,10.225,9.463,10.225,14.121
			c0,6.134-2.556,8.434-2.556,8.434s-26.942,5.699-44.661,5.699c-8.679,0-15.146-1.368-15.146-5.443
			C539.628,510.986,508.703,490.667,508.703,490.667 M493.726,485.605l12.78,8.404c12.093,7.951,29.122,22.32,29.122,29.371
			c0,9.443,14.41,9.443,19.146,9.443c17.931,0,44.372-5.55,45.489-5.786l1.05-0.222l0.798-0.718c0.647-0.583,3.88-3.873,3.88-11.407
			c0-5.91-3.313-13.685-12.612-17.781c-11.299-4.98-76.946-9.71-84.395-10.233L493.726,485.605L493.726,485.605z"/>
	</g>
	<g>
		<path class="st12" d="M530.867,577.778c-18.301,0-49-3.829-49-29.284c0-26.412,36.777-28.494,48.049-28.494h169.632
			c4.984,0,7.452,0.059,7.452,5.341v40.331c0,7.447-2.812,11.328-7.576,11.328H538.861c-0.172,0-0.52,0.299-1.018,0.32
			C536.503,577.383,534.008,577.778,530.867,577.778z"/>
		<path class="st36" d="M700.023,521.795c5.038,0,5.977-0.188,5.977,3.546v40.331c0,3.766-1.429,10.328-6.576,10.328H538.861
			c-0.657,0-3.676,0.229-7.994,0.229c-15.439,0-47.467-2.521-47.467-27.51c0-23.481,31.535-26.72,46.516-26.72
			c0.311,0,169.508,0,169.508,0c0.042,0,0.576,0,0.576,0 M699.548,518h-0.124H529.916c-6.527,0-19.104,0.895-29.988,5.131
			c-12.818,4.99-19.594,13.812-19.594,25.263c0,12.08,6.886,21.169,19.913,26.159c10.125,3.878,22.239,4.727,30.62,4.727
			c3.176,0,5.693-0.148,7.045-0.21c0.465-0.021,0.788-0.069,0.949-0.069h160.563c5.64,0,8.576-5.046,8.576-13.328v-40.331
			C708,518.525,704.388,518,699.548,518L699.548,518z"/>
	</g>
	<g>
		<path class="st36" d="M528.376,576.904c-1.15,0-1.88-0.104-1.987-0.12c-0.628-0.095-1.06-0.682-0.964-1.31
			c0.095-0.628,0.684-1.059,1.308-0.964l0,0c0.363,0.053,8.98,1.227,15.427-6.259c3.893-4.521,7.077-4.44,9.636-4.375
			c0.285,0.007,0.566,0.131,0.844,0.131c2.652,0,111.887-0.008,112.989-0.008H705.5c0.635,0,1.15,0.365,1.15,1s-0.516,1-1.15,1
			h-39.87c-1.102,0-110.337,0.159-112.991,0.159c-0.297,0-0.598,0.009-0.902,0.001c-2.396-0.061-4.652-0.109-7.834,3.586
			C538.485,576.036,531.688,576.904,528.376,576.904z"/>
	</g>
	<g>
		<path class="st36" d="M705.5,534h-39.87c-1.104,0-110.339-0.198-112.991-0.198c-0.277,0-0.559-0.028-0.844-0.021
			c-2.561,0.066-5.743,0.128-9.636-4.394c-6.462-7.502-15.468-6.56-15.558-6.548c-0.628,0.075-1.202-0.383-1.276-1.014
			c-0.075-0.629,0.374-1.203,1.003-1.278c0.416-0.05,10.291-1.135,17.574,7.323c3.181,3.694,5.441,3.638,7.834,3.577
			c0.305-0.008,0.605,0.206,0.902,0.206c2.654,0,111.89,0.346,112.992,0.346H705.5c0.635,0,1.15,0.366,1.15,1
			C706.65,533.636,706.135,534,705.5,534z"/>
	</g>
	<g>
		<g>
			<path class="st30" d="M491.195,547.47c0,9.179,5.893,16.717,11.502,17.044c0,0-3.451-4.968-3.451-17.044
				s3.451-16.917,3.451-16.917C497.088,530.881,491.195,538.292,491.195,547.47z"/>
			<path class="st36" d="M504.955,565.793l-2.325-0.131c-6.704-0.392-12.585-8.893-12.585-18.192
				c0-10.212,6.633-17.716,12.585-18.064l2.397-0.14l-1.395,1.956c-0.028,0.04-3.236,4.783-3.236,16.248
				c0,11.478,3.216,16.346,3.248,16.394L504.955,565.793z M500.557,532.244c-4.222,1.805-8.211,7.837-8.211,15.226
				c0,7.462,4,13.549,8.229,15.357c-1.069-2.627-2.479-7.565-2.479-15.357C498.096,539.728,499.488,534.85,500.557,532.244z"/>
		</g>
	</g>
	<path class="st42" d="M514.893,653.779l22.516-69.493c0,0,0.479-2.786,5.537-2.786c5.06,0,146.055,0,146.055,0"/>
	<path class="st42" d="M536,593.5c0,0,29.091,0,31.486,0c2.396,0,3.994,1.873,3.771,4.045s-18.767,56.666-18.767,56.666"/>
	<line class="st42" x1="530" y1="606.5" x2="561" y2="606.5"/>
	<line class="st42" x1="527" y1="619.5" x2="557" y2="619.5"/>
	<line class="st42" x1="524" y1="630.5" x2="552" y2="630.5"/>
	<circle class="st2" cx="525.699" cy="646.189" r="3.961"/>
	<circle class="st14" cx="536.434" cy="646.189" r="3.961"/>
	<circle class="st37" cx="547.168" cy="646.189" r="3.961"/>
	<g>
		<g>
			<circle class="st39" cx="525.507" cy="547.661" r="16.868"/>
			<path class="st36" d="M525.508,565.68c-9.936,0-18.02-8.083-18.02-18.019s8.084-18.019,18.02-18.019s18.018,8.083,18.018,18.019
				S535.443,565.68,525.508,565.68z M525.508,531.943c-8.668,0-15.719,7.051-15.719,15.718s7.051,15.718,15.719,15.718
				c8.667,0,15.718-7.051,15.718-15.718S534.175,531.943,525.508,531.943z"/>
		</g>
		<g>
			<path class="st5" d="M525.539,538.27c-5.179,0-9.393,4.213-9.393,9.392c0,5.18,4.214,9.394,9.393,9.394
				c5.18,0,9.393-4.214,9.393-9.394C534.932,542.482,530.719,538.27,525.539,538.27z"/>
			<path class="st36" d="M525.539,557.438c-5.39,0-9.775-4.386-9.775-9.776c0-5.39,4.386-9.776,9.775-9.776
				c5.391,0,9.776,4.387,9.776,9.776C535.315,553.052,530.93,557.438,525.539,557.438z M525.539,538.652
				c-4.967,0-9.009,4.042-9.009,9.009c0,4.968,4.042,9.01,9.009,9.01c4.969,0,9.01-4.042,9.01-9.01
				C534.549,542.694,530.508,538.652,525.539,538.652z"/>
		</g>
		<ellipse class="st41" cx="527.424" cy="548.227" rx="4.984" ry="5.186"/>
		
			<ellipse transform="matrix(0.8971 -0.4417 0.4417 0.8971 -186.8333 287.238)" class="st28" cx="523.375" cy="544.81" rx="4.866" ry="3.226"/>
	</g>
	<g>
		<g>
			<g>
				<path class="st19" d="M613,554.5c0,3.037-2.463,5.5-5.5,5.5l0,0c-3.037,0-5.5-2.463-5.5-5.5v-11c0-3.037,2.463-5.5,5.5-5.5l0,0
					c3.037,0,5.5,2.463,5.5,5.5V554.5z"/>
				<path class="st36" d="M608,560.696c-3.806,0-7-3.096-7-6.901v-10.733c0-3.806,3.194-6.901,7-6.901c3.805,0,7,3.096,7,6.901
					v10.733C615,557.601,611.805,560.696,608,560.696z M608,538.46c-2.536,0-4,2.063-4,4.602v10.733c0,2.537,1.464,4.602,4,4.602
					c2.537,0,4-2.064,4-4.602v-10.733C612,540.523,610.537,538.46,608,538.46z"/>
			</g>
			<g>
				<path class="st19" d="M632,554.5c0,3.037-2.463,5.5-5.5,5.5l0,0c-3.037,0-5.5-2.463-5.5-5.5v-11c0-3.037,2.463-5.5,5.5-5.5l0,0
					c3.037,0,5.5,2.463,5.5,5.5V554.5z"/>
				<path class="st36" d="M627,560.696c-3.806,0-7-3.096-7-6.901v-10.733c0-3.806,3.194-6.901,7-6.901c3.805,0,7,3.096,7,6.901
					v10.733C634,557.601,630.805,560.696,627,560.696z M627.5,538.46c-2.537,0-4.5,2.063-4.5,4.602v10.733
					c0,2.537,1.963,4.602,4.5,4.602s4.5-2.064,4.5-4.602v-10.733C632,540.523,630.037,538.46,627.5,538.46z"/>
			</g>
			<g>
				<path class="st19" d="M650,554.5c0,3.037-2.463,5.5-5.5,5.5l0,0c-3.037,0-5.5-2.463-5.5-5.5v-11c0-3.037,2.463-5.5,5.5-5.5l0,0
					c3.037,0,5.5,2.463,5.5,5.5V554.5z"/>
				<path class="st36" d="M645,560.696c-3.806,0-7-3.096-7-6.901v-10.733c0-3.806,3.194-6.901,7-6.901c3.805,0,7,3.096,7,6.901
					v10.733C652,557.601,648.805,560.696,645,560.696z M645,538.46c-2.537,0-4,2.063-4,4.602v10.733c0,2.537,1.463,4.602,4,4.602
					s4-2.064,4-4.602v-10.733C649,540.523,647.537,538.46,645,538.46z"/>
			</g>
			<g>
				<path class="st19" d="M668,554.5c0,3.037-2.463,5.5-5.5,5.5l0,0c-3.037,0-5.5-2.463-5.5-5.5v-11c0-3.037,2.463-5.5,5.5-5.5l0,0
					c3.037,0,5.5,2.463,5.5,5.5V554.5z"/>
				<path class="st36" d="M663.5,560.696c-3.805,0-7.5-3.096-7.5-6.901v-10.733c0-3.806,3.695-6.901,7.5-6.901s7.5,3.096,7.5,6.901
					v10.733C671,557.601,667.305,560.696,663.5,560.696z M663.5,538.46c-2.536,0-4.5,2.063-4.5,4.602v10.733
					c0,2.537,1.964,4.602,4.5,4.602c2.537,0,4.5-2.064,4.5-4.602v-10.733C668,540.523,666.037,538.46,663.5,538.46z"/>
			</g>
		</g>
		<path class="st15" d="M611,552.5c0,0.828-0.672,1.5-1.5,1.5l0,0c-0.828,0-1.5-0.672-1.5-1.5v-9c0-0.828,0.672-1.5,1.5-1.5l0,0
			c0.828,0,1.5,0.672,1.5,1.5V552.5z"/>
		<path class="st15" d="M630,552.5c0,0.828-0.672,1.5-1.5,1.5l0,0c-0.828,0-1.5-0.672-1.5-1.5v-9c0-0.828,0.672-1.5,1.5-1.5l0,0
			c0.828,0,1.5,0.672,1.5,1.5V552.5z"/>
		<path class="st15" d="M648,552.5c0,0.828-0.672,1.5-1.5,1.5l0,0c-0.828,0-1.5-0.672-1.5-1.5v-9c0-0.828,0.672-1.5,1.5-1.5l0,0
			c0.828,0,1.5,0.672,1.5,1.5V552.5z"/>
		<path class="st15" d="M667,552.5c0,0.828-0.672,1.5-1.5,1.5l0,0c-0.828,0-1.5-0.672-1.5-1.5v-9c0-0.828,0.672-1.5,1.5-1.5l0,0
			c0.828,0,1.5,0.672,1.5,1.5V552.5z"/>
	</g>
	<path class="st31" d="M590.342,503.195c-5.539-2.049-62.984-8.31-62.984-8.31c-1.683-0.189-9.23-0.226-9.23-0.226
		s63.449,14.088,68.528,15.048c5.079,0.958,6.645,5.11,8.562,5.751c1.916,0.639,2.813-0.641,2.813-3.26
		S595.88,505.243,590.342,503.195z"/>
	<path class="st3" d="M758.406,548.524c0,3.89-5.902,9.009-9.872,9.009s-9.585-4.16-9.585-8.051s5.71-0.768,9.681-0.768
		C752.6,548.715,758.406,544.633,758.406,548.524z"/>
	
		<ellipse transform="matrix(0.6998 -0.7144 0.7144 0.6998 -161.1448 699.5613)" class="st29" cx="751.698" cy="541.495" rx="5.687" ry="7.507"/>
</g>
<path class="st9" d="M655.279,182.632l-39.207-39.207c6.08-8.982,9.297-19.271,9.297-30.521c0-30.326-24.633-55.037-54.958-55.037
	c-30.324,0-54.978,24.652-54.978,54.978c0,30.325,24.74,54.929,55.065,54.929c11.248,0.001,21.527-3.206,30.511-9.286l39.207,39.207
	c1.451,1.453,3.752,1.63,5.205,0.178l10.076-10.077C656.951,186.344,656.731,184.084,655.279,182.632z M530.945,112.825
	c0-21.783,17.722-39.504,39.505-39.504c21.782,0,39.505,17.722,39.506,39.504c-0.001,21.784-17.723,39.505-39.506,39.505
	S530.945,134.608,530.945,112.825z"/>
<g>
	<circle class="st21" cx="571.078" cy="112.033" r="17.574"/>
	<path class="st3" d="M583.791,115.316c-0.001,5.227-7.434,11.017-12.659,11.017s-12.658-5.879-12.658-11.105
		c0.001-5.226,7.432-4.438,12.658-4.438C576.357,110.79,583.791,110.091,583.791,115.316z"/>
	<circle class="st34" cx="571.078" cy="111.732" r="6.622"/>
	
		<ellipse transform="matrix(0.6997 -0.7144 0.7144 0.6997 98.3201 444.0908)" class="st29" cx="577.47" cy="105.08" rx="5.267" ry="6.953"/>
</g>
<g>
	<path class="st21" d="M657.104,98.014c0,0-11.634,9.846-18.614,17.569c-6.88,7.614-14.855,21.661-6.982,30
		c7.871,8.339,22.826-0.704,27.619-4.03c4.708-3.268,10.556-9.411,11.478-11.055c1.937-3.458,2.607-9.801,0.476-12.059l-0.09-0.096
		c-1.114-1.181-2.153-0.112-3.222,0.894l1.247-1.175c1.968-1.857,1.379-12.19,0.074-13.572c-1.304-1.38-3.059,0.115-4.237,1.334
		c1.933-2.52,2.061-9.164-0.071-11.423C662.65,92.144,659.363,95.882,657.104,98.014z"/>
	<path class="st43" d="M648.403,121.317c0,0,16.099-14.887,16.63-15.698"/>
	<line class="st43" x1="652.781" y1="133.388" x2="667.752" y2="119.256"/>
</g>
<g>
	<path class="st21" d="M555.096,200.022c0,0,9.847-11.633,17.569-18.614c7.613-6.88,21.66-14.855,30-6.982
		c8.34,7.871-0.702,22.826-4.029,27.619c-3.268,4.708-9.41,10.556-11.055,11.477c-3.458,1.937-9.802,2.606-12.06,0.476l-0.095-0.089
		c-1.182-1.114-0.112-2.154,0.894-3.222l-1.176,1.247c-1.857,1.968-12.19,1.379-13.57,0.074c-1.382-1.304,0.112-3.059,1.333-4.237
		c-2.521,1.931-9.165,2.061-11.423-0.071C549.226,205.568,552.964,202.281,555.096,200.022z"/>
	<path class="st43" d="M578.4,191.321c0,0-14.887,16.099-15.699,16.63"/>
	<line class="st43" x1="590.47" y1="195.698" x2="576.337" y2="210.67"/>
</g>
<g>
	<g>
		<path class="st9" d="M427,153.68c0,8.299-5.894,14.32-13.549,14.32H292.86c-7.654,0-13.86-6.021-13.86-14.32V71.027
			C279,62.729,285.206,56,292.86,56h120.591C421.106,56,427,62.729,427,71.027V153.68z"/>
		<path class="st43" d="M426.525,70.02l-66.017,55.138c0,0-4.404,2.578-7.638,2.578c-3.388,0-7.859-2.942-7.859-2.942
			l-64.903-56.821"/>
	</g>
</g>
<g>
	<circle class="st21" cx="353.078" cy="122.033" r="17.574"/>
	<path class="st3" d="M365.791,125.316c-0.001,5.227-7.434,11.017-12.659,11.017s-12.658-5.879-12.658-11.105
		c0.001-5.226,7.432-4.438,12.658-4.438C358.357,120.79,365.791,120.091,365.791,125.316z"/>
	<circle class="st34" cx="353.078" cy="121.732" r="6.622"/>
	
		<ellipse transform="matrix(0.6997 -0.7144 0.7144 0.6997 25.7206 291.3557)" class="st29" cx="359.47" cy="115.08" rx="5.267" ry="6.953"/>
</g>
<g>
	<g>
		<path class="st38" d="M887.261,339.353c0-39.08-31.681-71.512-70.761-71.512s-70.761,32.807-70.761,71.888
			c0,0.048,0.003,0.271,0.003,1.271h141.516C887.258,340,887.261,339.401,887.261,339.353z"/>
	</g>
	<g>
		<g>
			<path class="st25" d="M786.917,357l17.994-31.188c-7.153-6.183-11.378-17.276-11.378-25.007c0-12.024,9.782-21.812,21.807-21.812
				s21.807,9.78,21.807,21.804c0,7.812-4.469,19.306-11.796,25.363L843.146,357H786.917z"/>
			<path class="st36" d="M815.34,280.989c10.939,0,19.807,8.868,19.807,19.806c0,8.323-5.135,19.819-12.409,24.837L839.682,355
				h-49.301l17.121-29.676c-7.039-5.168-11.969-16.364-11.969-24.519C795.533,289.867,804.401,280.989,815.34,280.989
				 M815.34,276.989c-13.127,0-23.807,10.679-23.807,23.806c0,7.737,4.002,18.649,10.848,25.379l-15.464,26.806l-3.464,6.02h6.928
				h49.301h6.929l-3.465-6.02l-15.243-26.412c7.097-6.675,11.244-17.776,11.244-25.768
				C839.146,287.673,828.467,276.989,815.34,276.989L815.34,276.989z"/>
		</g>
		<g>
			<path class="st35" d="M829.131,305.562c-3.416,3.901-10.05,3.678-10.05,3.678s-1.095-6.545,2.32-10.446
				c3.417-3.903,10.052-3.679,10.052-3.679S832.548,301.66,829.131,305.562z"/>
		</g>
		<g>
			<path class="st35" d="M801.547,305.562c3.417,3.901,10.051,3.678,10.051,3.678s1.096-6.545-2.32-10.446
				c-3.417-3.903-10.051-3.679-10.051-3.679S798.132,301.66,801.547,305.562z"/>
		</g>
	</g>
	<circle class="st21" cx="745.594" cy="367.719" r="8.41"/>
	<circle class="st21" cx="885.377" cy="367.719" r="8.41"/>
	<circle class="st21" cx="816.647" cy="385.99" r="8.41"/>
	<g>
		<path class="st27" d="M924.815,347.054c0-5.044-4.09-8.054-9.135-8.054H717.319c-5.045,0-9.135,2.955-9.135,8
			c0,4.027,2.608,7,6.225,8h202.775C921.513,355,924.815,351.586,924.815,347.054z"/>
		<path class="st22" d="M714.409,355c0.915,1,68.156,31.104,102.163,31.104c34.008,0,100.122-31.104,100.612-31.104H714.409z"/>
	</g>
	<path class="st4" d="M876.285,314.354c2.586,8.2,3.275,14.51-4.926,17.096c-8.2,2.586-11.274-10.249-14.766-18.104
		c-3.757-8.455-12.542-20.853-4.341-23.438C860.453,287.321,873.699,306.152,876.285,314.354z"/>
</g>
<g>
	<circle class="st24" cx="1351.072" cy="243.619" r="199.953"/>
	<g>
		<g>
			<path class="st11" d="M1429.312,316.236c5.093,8.514,2.552,19.404-5.674,24.324l-27.437,16.412
				c-8.226,4.92-19.022,2.007-24.114-6.505l-60.659-101.409c-5.095-8.513-2.554-19.403,5.672-24.324l27.438-16.412
				c8.225-4.92,19.021-2.008,24.114,6.505L1429.312,316.236z"/>
			<path class="st36" d="M1518.312,205.931c-13.622-27.146-113.313-86.503-167.161-85.931c-37.689,0.4-125.197,6.851-153.549,62.443
				c-9.438,28.661,2.504,64.084,30.854,75.413c5.617,2.245,19.584-9.624,38.2-15.454c35.381-11.08,82.944-21.428,89.523-19.654
				c24.383,6.576,86.905,26.439,125,20.567C1519.274,237.444,1527.142,223.527,1518.312,205.931z"/>
			<g>
				<path class="st36" d="M1299.604,241.866c2.373,3.402,0.589,8.744-3.982,11.934c0,0-63.021,42.344-64.192,43.42
					c-0.89,0.82-4.271,8.094-4.271,8.094c-2.221,1.548-5.574-1.617-5.574-1.617l6.879-8.418c-3.543-3.473-13.288,3.738-13.288,3.738
					s-2.621-1.427-2.795-4.128c-0.174-2.701,3.555-3.616,4.265-4.111l70.385-49.292
					C1291.6,238.296,1297.229,238.465,1299.604,241.866L1299.604,241.866z"/>
				<polygon class="st36" points="1223.209,296.008 1221.603,296.154 1217.83,299.542 1216.677,300.355 1214.072,297.114 
					1221.014,292.263 				"/>
				<polygon class="st36" points="1223.769,301.263 1222.547,304.284 1219.914,303.312 1222.856,300.801 				"/>
			</g>
			<path class="st11" d="M1310.635,224.261c26.174-1.124,5.162,11.566,0.684,20.225l-26.163,50.596
				c-4.478,8.658-12.043,13.641-16.899,11.129l-0.161-0.083c-21.055-9.001-5.166-11.565-0.688-20.224l26.165-50.596
				c4.477-8.658,12.041-13.641,16.897-11.13L1310.635,224.261z"/>
			<path class="st11" d="M1295.661,231.836c2.469,4.686,6.653,10.533,1.967,13.002l-28.688,1.37l-35.659,19.285
				c-4.686,2.469-9.231-7.301-11.7-11.987l0,0c-4.196-9.37,8.329,2.523,13.017,0.054l45.469-24.194
				c4.686-2.469,12.97-2.688,15.438,1.999L1295.661,231.836z"/>
			<path class="st36" d="M1465.5,290.75c34.25,28.25,41.635,45.281,38.834,54.021c-6.976,21.768-42.868,52.873-59.667,60.896
				c-15.273,7.294-68.666,20.667-68.666,20.667s-44.987-30.896-52.465-63.667s11.762-82.626,35.305-93.871
				C1382.385,257.55,1431.25,262.5,1465.5,290.75z"/>
			<polygon class="st11" points="1247.626,263.45 1244.619,263.335 1236.816,268.702 1234.491,269.93 1230.446,263.305 
				1244.465,255.989 			"/>
			<polygon class="st11" points="1263.042,292.854 1259.182,297.894 1254.741,294.703 1261.573,291.512 			"/>
			<path class="st11" d="M1288.646,271.233c0.371,1.984-1.316,3.964-3.772,4.424l0,0c-2.452,0.459-4.744-0.775-5.117-2.759
				l-6.895-36.811c-0.372-1.984,1.317-3.964,3.771-4.424l0,0c2.453-0.46,4.745,0.775,5.116,2.759L1288.646,271.233z"/>
			<path class="st11" d="M1278.416,276.519c0.371,1.984-0.458,3.803-1.854,4.064l0,0c-1.394,0.261-2.826-1.135-3.198-3.118
				l-6.896-36.812c-0.372-1.983,0.458-3.803,1.854-4.064l0,0c1.396-0.261,2.828,1.135,3.199,3.118L1278.416,276.519z"/>
			<path class="st11" d="M1430.62,195.825c3.045,35.311-44.286,8.369-89.953,10.105s-107.635,46.068-116.114,28.128
				c-17.787-37.634,19.006-72.124,58.78-79.12C1355,142.333,1428.915,176.055,1430.62,195.825z"/>
			<path class="st18" d="M1234,199.241c0,16.103,8.142,28.398-6.623,28.398c-14.763,0-23.32-13.054-23.32-29.157
				c0-16.103,19.291-43.544,34.054-43.544C1252.875,154.939,1234,183.139,1234,199.241z"/>
		</g>
		<path class="st11" d="M1467.509,381.945c4.194,6.492,0.448,16.371-8.365,22.064l-9.24,5.97
			c-8.813,5.693-19.358,5.048-23.553-1.444l-47.163-73.002c-4.193-6.492-0.447-16.371,8.365-22.065l9.24-5.969
			c8.814-5.694,19.359-5.047,23.553,1.445L1467.509,381.945z"/>
		<circle class="st11" cx="1392.547" cy="317.452" r="41.88"/>
	</g>
	<path class="st1" d="M1350.867,31.209c-116.824,0-211.867,95.043-211.867,211.867c0,116.824,95.043,211.867,211.867,211.867
		s211.867-95.043,211.867-211.867C1562.734,126.252,1467.691,31.209,1350.867,31.209z M1169,243.076
		c0-100.282,81.585-181.867,181.867-181.867c39.625,0,76.325,12.747,106.232,34.344l-233.053,277.741
		C1190.113,340.237,1169,294.08,1169,243.076z M1350.867,424.943c-38.51,0-74.255-12.041-103.689-32.543l232.726-277.354
		c32.637,32.89,52.831,78.144,52.831,128.03C1532.734,343.358,1451.149,424.943,1350.867,424.943z"/>
</g>
<g>
	<circle class="st12" cx="1030.351" cy="108.684" r="71.017"/>
	<path class="st3" d="M1091.944,76.194c0,8.042-12.746-1.356-19.822,2.234c-6.66,3.378,10.609,7.259,1.396,17.309
		c-5.404,5.896-24.522,3.26-40.481-3.909c-15.423-6.927-18.984-21.776-14.797-29.593c3.102-5.788-16.438-14.261-12.596-18.426
		c5.291-5.736,21.352-5.912,30.463-5.912C1051.835,37.897,1091.944,60.583,1091.944,76.194z"/>
	<path class="st3" d="M1021.648,96.294c1.326,4.816-20.527,10.126-14.296,12.39c8.935,3.245,28.861,11.341-0.278,12.458
		c-14.717,0.563-5.633-16.855-20.002-20.844c-11.262-3.126-11.424-25.741-4.566-27.733c6.403-1.862,19.327,16.789,24.079,16.891
		C1016.426,89.664,1020.323,91.478,1021.648,96.294z"/>
	<path class="st3" d="M1096.411,129.45c-10.703,33.749-43.272,52.035-67.865,50.088c-47.637-3.771-61.744-42.344-61.744-42.344
		s26.759,7.029,32.235,2.441c8.135-6.815,22.326,11.657,37.07,11.657c9.902,0-9.931,24.678,1.396,19.542
		c9.35-4.238,42.314-29.92,25.824-35.525C1048.543,130.285,1097.622,125.632,1096.411,129.45z"/>
	<circle class="st26" cx="1030.351" cy="108.684" r="71.017"/>
</g>
<g>
	<path class="st10" d="M426.987,373.697c2.201,4.746,0.801,14.488-10.053,14.662l-128.368,0.121c-7.288,0-11.76-9.071-7.957-16.21
		c3.804-7.14,61.699-115.822,64.245-120.221c4.514-8.566,14.666-7.691,17.902-0.194
		C365.999,258.281,424.788,368.951,426.987,373.697z"/>
	<g>
		<path class="st36" d="M361,363.817c0,0.825-1.048,1.183-1.875,1.183h-10.613c-0.826,0-1.512-0.358-1.512-1.183V353.2
			c0-0.825,0.686-1.2,1.512-1.2h10.613c0.827,0,1.875,0.375,1.875,1.2V363.817z"/>
		<path class="st36" d="M359.703,346.565c0,0.827-0.669,1.435-1.496,1.435h-9.722c-0.826,0-1.496-0.608-1.496-1.435l-2.492-51.363
			c0-1.156,0.938-2.202,2.094-2.202h13.611c1.157,0,2.094,1.046,2.094,2.202L359.703,346.565z"/>
	</g>
</g>
<g>
	<g>
		<path class="st32" d="M138.128,409.756c-43.355,0-78.628-35.272-78.628-78.628S94.772,252.5,138.128,252.5
			s78.628,35.272,78.628,78.628S181.483,409.756,138.128,409.756z"/>
		<path class="st36" d="M138.128,254.5c42.32,0,76.628,34.308,76.628,76.628s-34.308,76.628-76.628,76.628
			S61.5,373.448,61.5,331.128S95.808,254.5,138.128,254.5 M138.128,250.5c-44.458,0-80.628,36.169-80.628,80.628
			s36.169,80.628,80.628,80.628s80.628-36.169,80.628-80.628S182.586,250.5,138.128,250.5L138.128,250.5z"/>
	</g>
	<g>
		<circle class="st3" cx="138.128" cy="331.128" r="76.628"/>
	</g>
	<g>
		<circle class="st12" cx="138.128" cy="331.128" r="53.64"/>
	</g>
	<g>
		<circle class="st12" cx="138.128" cy="331.128" r="53.64"/>
	</g>
	<g>
		<circle class="st3" cx="138.128" cy="331.128" r="32.184"/>
	</g>
	<path class="st36" d="M148.529,327H142v-5.849c0-0.938-1.024-2.151-1.962-2.151h-4.245c-0.938,0-1.793,1.214-1.793,2.151V327
		h-5.849c-0.938,0-2.151,0.855-2.151,1.793v4.245c0,0.938,1.214,1.962,2.151,1.962H134v6.529c0,0.938,0.855,1.471,1.793,1.471h4.245
		c0.938,0,1.962-0.533,1.962-1.471V335h6.529c0.938,0,1.471-1.024,1.471-1.962v-4.245C150,327.855,149.467,327,148.529,327z"/>
</g>
<g>
	<path class="st21" d="M436.875,638.118c0,8.479-6.245,15.882-13.949,15.882H283.43c-7.705,0-13.95-7.402-13.95-15.882
		c0,0-13.672-96.43,83.698-96.43C450.546,541.688,436.875,638.118,436.875,638.118z"/>
	<path class="st6" d="M408.852,592.995C396.199,593.214,389,591.859,389,579.398c0-4.283,0-6.507,0-10.509
		c0-7.638,0.781-13.066,0.781-13.066c0-1.931,10.992-41.244,10.992-52.451c0-22.572-21.053-40.872-47.094-40.872
		c-26.04,0-47.122,18.3-47.122,40.872c0,11.207,10.383,50.521,10.383,52.451c0,0,0.06,5.429,0.06,13.066c0,4.002,0,6.226,0,10.509
		c0,12.461-6.465,13.815-19.115,13.597c-11.898-0.205-4.948,9.405,10.536,7.049c7.08-1.077,17.219-3.571,18.147-15.661
		c0.491-6.381,0.432-18.974,0.432-18.598c0,2.518,0,14.773,0,25.889c0,12.462-13.694,12.415-19.554,24.133
		c-2.804,5.608,2.29,10.671,6.544,3.349c4.256-7.325,23.375-13.196,24.306-25.287c0.403-5.255,1.704-15.858,1.704-15.538
		c0,4.764,0,10.59,0,16.134c0,12.462-1.596,9.439-2.897,18.274c-0.914,6.202,1.894,13.391,5.526,9.346
		c5.658-6.302,6.786-13.336,7.716-25.425c0.33-4.296,2.383-13.355,3.369-13.355s3.028,9.06,3.358,13.355
		c0.929,12.089,2.02,19.123,7.678,25.425c3.633,4.045,5.295-3.144,4.379-9.346c-1.302-8.835-4.129-5.813-4.129-18.274
		c0-5.544,0-11.37,0-16.134c1-0.32,2.333,10.283,2.737,15.538c0.931,12.091,20.549,17.962,24.804,25.287
		c4.255,7.322,8.285,2.26,5.481-3.349C392.164,604.089,377,604.136,377,591.674c0-11.115,0-23.371,0-25.889
		c1-0.376,1.548,12.217,2.038,18.598c0.931,12.09,12.104,14.584,19.183,15.661C413.704,602.4,420.749,592.79,408.852,592.995z"/>
	<path class="st8" d="M318.334,529.872c5.509,12.078,19.739,9.234,19.739,7.293c0-1.94-10.888-25.062-12.446-27.032
		C324.069,508.162,312.824,517.795,318.334,529.872z"/>
	<path class="st8" d="M389.136,529.872c-5.508,12.078-19.737,9.234-19.737,7.293c0-1.94,10.886-25.062,12.445-27.032
		C383.402,508.162,394.646,517.795,389.136,529.872z"/>
	<path class="st40" d="M357.561,471.933c0.894,4.85-3.931,5.547-9.841,6.636c-5.909,1.089-10.667,2.157-11.56-2.693
		c-0.894-4.85,3.173-9.662,9.083-10.751C351.152,464.035,356.669,467.083,357.561,471.933z"/>
	<path class="st40" d="M373.392,480.41c-2.672,4.088-5.055,2.307-8.121,0.303c-3.066-2.006-5.653-3.473-2.981-7.561
		c2.672-4.089,7.324-5.778,10.39-3.773C375.745,471.384,376.064,476.321,373.392,480.41z"/>
	
		<ellipse transform="matrix(0.8617 -0.5075 0.5075 0.8617 -197.067 232.7173)" class="st40" cx="328.347" cy="477.845" rx="4.324" ry="3.348"/>
	
		<ellipse transform="matrix(0.8617 -0.5075 0.5075 0.8617 -190.7385 259.282)" class="st40" cx="380.24" cy="479.519" rx="4.324" ry="3.348"/>
	<path class="st40" d="M368.383,488.865c0,3.505-5.571,3.069-9.346,3.069c-3.776,0-9.068-0.819-9.068-4.325s5.432-7.114,9.207-7.114
		S368.383,485.359,368.383,488.865z"/>
	
		<ellipse transform="matrix(0.6616 -0.7499 0.7499 0.6616 -249.5247 420.4767)" class="st40" cx="341.073" cy="486.68" rx="4.478" ry="6.789"/>
	<path class="st40" d="M354.469,494.724c0.738,3.032-1.129,5.415-3.523,5.998c-2.396,0.584-6.934,1.079-7.673-1.953
		c-0.738-3.031,2.069-4.02,4.465-4.604C350.133,493.582,353.73,491.692,354.469,494.724z"/>
	
		<ellipse transform="matrix(0.9911 0.133 -0.133 0.9911 71.7059 -38.3335)" class="st0" cx="322.854" cy="517.693" rx="2.769" ry="4.061"/>
	
		<ellipse transform="matrix(0.9911 0.1329 -0.1329 0.9911 72.2369 -46.4753)" class="st0" cx="384.139" cy="517.693" rx="2.769" ry="4.062"/>
</g>
<g>
	<g>
		<path class="st12" d="M191.446,117.391c-11.556-16.262-52.537-65.703-54.577-68.346c-2.016-2.867-5.444-4.096-7.668-3.963
			c-0.175-0.012,0.363,0.002-0.749,0.009c-1.112-0.007-0.616-0.021-0.792-0.009c-2.224-0.133-5.802,1.096-7.818,3.963
			c-2.04,2.643-44.207,52.084-55.762,68.346C59.704,122.029,59,127.979,59,129.224v53.493c0,11.521,3.262,20.489,24.496,20.489
			S105,203.319,105,182.449c0-16.264,0-18.163,0-18.163c0-5.528,5.779-8.286,11.306-8.286h12.232h12.232
			c5.527,0,9.229,2.758,9.229,8.286c0,0,0,1.899,0,18.163c0,20.87-0.23,20.757,21.004,20.757S195,194.237,195,182.717v-53.493
			C195,127.979,195.824,122.029,191.446,117.391z"/>
		<path class="st36" d="M170.399,205C148.998,205,148,204.007,148,182.449v-18.163c0-4.626-2.322-7.286-7.229-7.286h-24.464
			C111.5,157,106,159.627,106,164.286v18.163C106,204.007,105.775,205,84.373,205h-0.681C62.369,205,58,195.869,58,182.717v-53.493
			c0-0.294,0.06-7.237,5.192-12.736c9.052-12.716,35.999-44.924,48.963-60.419c3.557-4.251,6.126-7.322,6.566-7.893
			c1.921-2.734,5.132-3.999,7.66-4.296l0.004,0.12h0.665c0.196,0,0.385,0,0.568,0h1.689c0.18,0,0.366,0,0.555,0h0.7l0.003-0.117
			c2.518,0.303,5.597,1.646,7.555,4.43c0.381,0.492,2.671,3.238,5.84,7.099c11.851,14.437,39.572,48.185,48.764,61.098
			c4.325,4.646,4.237,10.426,4.171,12.336c-0.005,0.16,0.104,0.281,0.104,0.379v53.493c0,13.152-4.597,22.283-25.92,22.283H170.399z
			 M116.306,154h24.464c6.45,0,10.229,4.105,10.229,10.286v18.163c0,9.617,0.113,15.023,2.294,17.229
			c2.19,2.213,7.561,2.322,17.105,2.322h0.681c21.099,0,22.92-9.235,22.92-19.283v-53.493c0-0.123-0.032-0.288-0.025-0.489
			c0.063-1.797,0.21-6.573-3.371-10.367l-0.134-0.152c-9.078-12.773-36.848-46.598-48.705-61.04
			c-3.303-4.024-5.488-6.683-5.933-7.26c-1.663-2.362-4.607-3.286-6.502-3.167L129.242,47h-0.006l-0.024-0.244l-0.053-0.128
			c-0.13,0.003-0.34,0.184-0.676,0.186c-0.363-0.002-0.577,0.187-0.71,0.187H127.7l-0.112-0.254
			c-1.945-0.117-4.954,0.933-6.575,3.239c-0.512,0.665-2.963,3.535-6.674,7.971c-12.968,15.5-39.951,47.72-48.883,60.288
			l-0.048,0.139C60.975,123.08,61,129.162,61,129.224v53.493C61,192.765,62.594,202,83.692,202h0.681
			c9.546,0,15.032-0.109,17.221-2.322c2.179-2.203,2.406-7.61,2.406-17.229v-18.163C104,157.777,110.12,154,116.306,154z"/>
	</g>
</g>
<g>
	<path class="st21" d="M625.247,253.654c-21.035,0-39.553,22.53-39.553,22.53s-18.517-22.53-39.552-22.53
		c-24.576,0-44.396,19.922-44.396,44.5c0,52.57,74,113.623,83.948,121.113c9.949-7.49,83.949-68.543,83.949-121.113
		C669.644,273.577,649.823,253.654,625.247,253.654z"/>
	<path class="st29" d="M617.281,270.127c-16.828,0-31.642,18.025-31.642,18.025s-14.813-18.025-31.642-18.025
		c-19.661,0-35.518,15.938-35.518,35.6c0,42.056,59.2,90.898,67.159,96.89c7.959-5.992,67.158-54.833,67.158-96.89
		C652.798,286.066,636.943,270.127,617.281,270.127z"/>
	<path class="st17" d="M610.882,283.389c-13.463,0-25.314,14.419-25.314,14.419s-11.851-14.419-25.313-14.419
		c-15.729,0-28.413,12.75-28.413,28.479c0,33.645,47.358,72.719,53.727,77.512c6.368-4.793,53.727-43.868,53.727-77.512
		C639.294,296.14,626.61,283.389,610.882,283.389z"/>
	<path class="st29" d="M605.844,294.025c-10.77,0-20.251,11.536-20.251,11.536s-9.48-11.536-20.251-11.536
		c-12.582,0-22.73,10.2-22.73,22.784c0,26.916,37.887,58.175,42.981,62.01c5.095-3.834,42.981-35.094,42.981-62.01
		C628.574,304.226,618.427,294.025,605.844,294.025z"/>
	<g>
		<g>
			<circle class="st17" cx="585.281" cy="332.765" r="18.347"/>
			<path class="st36" d="M585.281,352.771L585.281,352.771c-11.032-0.001-20.006-8.975-20.006-20.006
				c0.001-11.031,8.976-20.005,20.006-20.005s20.005,8.975,20.005,20.005c0.001,5.344-2.08,10.367-5.859,14.146
				C595.648,350.688,590.625,352.77,585.281,352.771z M585.281,316.076c-9.202,0-16.688,7.487-16.689,16.689
				c0,9.202,7.486,16.688,16.689,16.689c4.458,0,8.648-1.737,11.801-4.889c3.152-3.152,4.889-7.343,4.888-11.801
				C601.97,323.562,594.482,316.076,585.281,316.076z"/>
		</g>
		<g>
			<path class="st3" d="M598.553,336.192c-0.001,5.458-7.761,11.501-13.216,11.501s-13.215-6.137-13.215-11.594
				c0.001-5.455,7.759-4.633,13.215-4.633C590.792,331.467,598.553,330.737,598.553,336.192z"/>
		</g>
		<g>
			<circle class="st34" cx="585.281" cy="332.45" r="6.913"/>
		</g>
		<g>
			
				<ellipse transform="matrix(0.6998 -0.7143 0.7143 0.6998 -54.8196 520.5629)" class="st29" cx="591.954" cy="325.506" rx="5.499" ry="7.259"/>
		</g>
	</g>
</g>
<g>
	<g>
		<path class="st13" d="M1101.045,301h-13.646h-30.178h-20.295c-2.1-7-4.464-16.947-5.888-20.839
			c-2.809-7.68-5.691-16.637-13.996-17.205c-2.872-0.196,4.472-14.423,4.472-14.423s-8.146,4.185-10.938,8.28
			c-3.115,4.57-4.036,14.499-4.457,20.826c-0.281,4.219-1.487,23.613-1.487,23.613s-9.233,24.596-9.233,26.695l6.47,55.01
			c0,0,15.572,14.042,38.992,14.042c17.24,0,46.539,0,46.539,0h3.584c3.976,0,5.018-4.744,5.018-8.748v-9.398
			c0-2.969-3.75-5.993-3.75-5.993c3.971-0.005,7.75-4.507,7.75-8.509v-9.396c0-4.001-2.689-6.168-6.66-6.172l0.621,0.026
			l4.292,0.692c3.976,0,5.747-5.043,5.747-9.048v-9.396c0-4.004-1.854-6.058-5.829-6.058h2.874c3.976,0,5.955-4.44,5.955-8.444
			v-9.396C1107,303.155,1105.021,301,1101.045,301z"/>
		<path class="st20" d="M996.138,384.5c0.401,3.551-2.983,6.846-7.563,7.363l-17.497,1.974c-4.579,0.516-8.613-1.943-9.014-5.494
			l-5.961-52.853c-0.401-3.55,2.986-6.847,7.564-7.363l17.496-1.973c4.579-0.516,8.614,1.943,9.015,5.493L996.138,384.5z"/>
	</g>
	<g>
		<path class="st36" d="M1077.127,333.879c-0.283,0-0.57-0.076-0.831-0.235c-0.75-0.458-0.985-1.438-0.528-2.189
			c0.223-0.367,5.354-9.02,0.044-16.806c-0.496-0.728-0.309-1.72,0.42-2.216s1.719-0.308,2.215,0.419
			c6.484,9.511,0.309,19.83,0.042,20.265C1078.188,333.609,1077.664,333.879,1077.127,333.879z"/>
	</g>
	<g>
		<path class="st36" d="M1075.689,360.186c-0.283,0-0.571-0.076-0.831-0.235c-0.749-0.459-0.985-1.438-0.528-2.19
			c0.223-0.366,5.354-9.02,0.044-16.806c-0.496-0.727-0.308-1.719,0.42-2.215c0.729-0.497,1.719-0.308,2.215,0.419
			c6.484,9.511,0.309,19.83,0.042,20.265C1076.751,359.915,1076.227,360.186,1075.689,360.186z"/>
	</g>
	<g>
		<path class="st36" d="M1074.252,388.884c-0.284,0-0.571-0.076-0.831-0.235c-0.749-0.459-0.985-1.439-0.528-2.19
			c0.223-0.366,5.354-9.02,0.044-16.806c-0.496-0.728-0.308-1.72,0.42-2.215c0.729-0.497,1.719-0.308,2.215,0.419
			c6.484,9.51,0.309,19.83,0.042,20.264C1075.313,388.613,1074.789,388.884,1074.252,388.884z"/>
	</g>
</g>
<g>
	<circle class="st21" cx="130.078" cy="125.033" r="17.574"/>
	<path class="st3" d="M142.791,128.316c-0.001,5.227-7.434,11.017-12.659,11.017s-12.658-5.879-12.658-11.105
		c0.001-5.226,7.432-4.438,12.658-4.438C135.357,123.79,142.791,123.091,142.791,128.316z"/>
	<circle class="st34" cx="130.078" cy="124.732" r="6.622"/>
	
		<ellipse transform="matrix(0.6997 -0.7144 0.7144 0.6997 -43.3795 132.947)" class="st29" cx="136.47" cy="118.08" rx="5.267" ry="6.953"/>
</g>
<g>
	<g>
		<path class="st9" d="M894.167,105h-10.839c-1.513-8-4.007-13.308-7.343-18.816l7.794-8.191c1.433-1.432,1.433-3.954,0-5.387
			L868.216,56.94c-1.434-1.434-3.755-1.481-5.188-0.049l-8.647,7.651C848.77,61.054,843,58.407,835,56.829v-10.65
			c0-2.026,0.298-2.179-1.729-2.179h-22.009c-2.027,0-5.263,0.152-5.263,2.179v10.708c-7,1.522-11.361,3.979-16.732,7.229
			l-7.395-7.792c-1.433-1.434-3.557-1.434-4.99,0L761.42,71.887c-1.433,1.434-1.385,3.755,0.049,5.187l7.7,8.475
			C765.638,91.226,763.022,97,761.451,105h-10.351c-2.026,0-5.101,0.048-5.101,2.073v22.011c0,2.026,3.074,4.916,5.101,4.916h10.52
			c1.591,7,4.172,11.826,7.575,17.299l-7.331,7.019c-1.433,1.433-1.434,3.599,0,5.031l15.563,15.485
			c1.433,1.433,3.757,1.395,5.189-0.039l6.651-7.467c5.371,3.251,9.732,5.686,16.732,7.209v10.708c0,2.026,3.235,4.755,5.263,4.755
			h22.009c2.026,0,1.729-2.729,1.729-4.755v-10.651c8-1.577,13.77-4.197,19.381-7.688l7.818,7.332c1.432,1.433,3.995,1.433,5.429,0
			l15.685-15.563c1.433-1.434,1.492-3.757,0.061-5.189l-7.418-6.824c3.209-5.301,5.676-9.662,7.202-16.662h11.01
			c2.026,0,1.833-2.89,1.833-4.916v-22.011C896,105.048,896.193,105,894.167,105z M822.391,161.978
			c-24.409,0-44.266-19.857-44.266-44.266s19.856-44.266,44.266-44.266c24.407,0,44.265,19.857,44.265,44.266
			S846.798,161.978,822.391,161.978z"/>
	</g>
	<g>
		<circle class="st21" cx="823.078" cy="117.033" r="17.574"/>
		<path class="st3" d="M835.791,120.316c-0.001,5.227-7.434,11.017-12.659,11.017s-12.658-5.879-12.658-11.105
			c0.001-5.226,7.432-4.438,12.658-4.438C828.357,115.79,835.791,115.091,835.791,120.316z"/>
		<circle class="st34" cx="823.078" cy="116.732" r="6.622"/>
		
			<ellipse transform="matrix(0.6997 -0.7144 0.7144 0.6997 170.4123 625.619)" class="st29" cx="829.47" cy="110.08" rx="5.267" ry="6.953"/>
	</g>
</g>
<g>
	<g>
		<circle class="st17" cx="1038.078" cy="346.033" r="17.574"/>
		<path class="st36" d="M1038.078,326.459c-10.793,0-23.328,19.273-23.328,19.273s12.535,19.874,23.328,19.875
			c10.793-0.001,23.255-19.191,23.255-19.191S1048.871,326.459,1038.078,326.459z M1038.078,361.607
			c-8.588-0.001-15.574-6.988-15.574-15.575c0-8.587,6.986-15.574,15.574-15.574s15.574,6.986,15.574,15.574
			C1053.652,354.62,1046.666,361.606,1038.078,361.607z"/>
	</g>
	<path class="st3" d="M1050.791,349.316c-0.001,5.227-7.434,11.017-12.659,11.017s-12.658-5.879-12.658-11.105
		c0.001-5.226,7.432-4.438,12.658-4.438C1043.357,344.79,1050.791,344.091,1050.791,349.316z"/>
	<circle class="st34" cx="1038.078" cy="345.732" r="6.622"/>
	
		<ellipse transform="matrix(0.6997 -0.7144 0.7144 0.6997 71.3712 847.9718)" class="st29" cx="1044.47" cy="339.08" rx="5.267" ry="6.953"/>
</g>
</svg>
