<?xml version="1.0" encoding="utf-8"?>
<!-- Generator: Adobe Illustrator 16.0.0, SVG Export Plug-In . SVG Version: 6.00 Build 0)  -->
<!DOCTYPE svg PUBLIC "-//W3C//DTD SVG 1.1//EN" "http://www.w3.org/Graphics/SVG/1.1/DTD/svg11.dtd">
<svg version="1.1" xmlns="http://www.w3.org/2000/svg" xmlns:xlink="http://www.w3.org/1999/xlink" x="0px" y="0px"
	 width="322.396px" height="153.646px" viewBox="0 0 322.396 153.646" style="enable-background:new 0 0 322.396 153.646;"
	 xml:space="preserve">
<style type="text/css">
<![CDATA[
	.st0{fill:#F25F1D;}
	.st1{fill:#FCF797;}
	.st2{fill:#FFB594;}
]]>
</style>
<g id="tail">
	<path id="tail02" class="st1" d="M148.896,90.439L320.722,1.334L146.852,58.987l63.267-28.844L17.425,101.9l0.009,0.023
		C5.484,107.103-1.479,122.117,3.797,134.9c5.276,12.781,20.916,18.467,32.497,13.932l15.685-8.133L223.574,62.74L148.896,90.439z"
		/>
	<path id="tail01" class="st2" d="M220.988,44.744c0,0-163.743,92.105-178.619,98.244c-14.882,6.145-30.819,1.742-35.595-9.826
		c-4.775-11.572,3.418-25.932,18.3-32.074C39.951,94.947,220.988,44.744,220.988,44.744z"/>
</g>
<g id="star">
	<path class="st0" d="M48.677,115.865c4.776,11.572-0.733,24.822-12.3,29.598c-11.573,4.777-24.827-0.732-29.603-12.301
		c-4.775-11.572,0.734-24.822,12.306-29.6C30.648,98.787,43.901,104.294,48.677,115.865z"/>
</g>
</svg>
