<?xml version="1.0" encoding="utf-8"?>
<!-- Generator: Adobe Illustrator 16.0.0, SVG Export Plug-In . SVG Version: 6.00 Build 0)  -->
<!DOCTYPE svg PUBLIC "-//W3C//DTD SVG 1.1//EN" "http://www.w3.org/Graphics/SVG/1.1/DTD/svg11.dtd">
<svg version="1.1" id="Layer_1" xmlns="http://www.w3.org/2000/svg" xmlns:xlink="http://www.w3.org/1999/xlink" x="0px" y="0px"
	 width="439.333px" height="385.333px" viewBox="-26.167 0 439.333 385.333" enable-background="new -26.167 0 439.333 385.333"
	 xml:space="preserve">
<g>
	<g>
		<g>
			<path fill="#B2DAF7" d="M53.83,212.808v-2.5c0-0.938-0.004-1.471-0.006-1.702l-0.001-0.146c0-37.56,14.586-73.061,41.073-99.963
				c26.591-27.009,61.824-41.884,99.207-41.884c77.351,0,140.281,63.398,140.281,141.325c0,0-0.008,1.429-0.008,2.369v2.5H53.83z"/>
			<path fill="#E214CF" d="M194.102,69.114c76.095,0,137.781,62.729,137.781,138.825c0,0.095-0.008,1.158-0.008,2.369H56.33
				c0-1.211-0.007-1.755-0.007-1.848C56.323,132.366,118.007,69.114,194.102,69.114 M194.102,64.114
				c-38.058,0-73.923,15.14-100.988,42.63c-13.093,13.298-23.379,28.744-30.575,45.908c-7.442,17.753-11.216,36.53-11.216,55.809
				l0.001,0.165c0.002,0.229,0.006,0.756,0.006,1.683v5h5h275.545h5v-5c0-0.935,0.005-1.779,0.007-2.148l0.001-0.221
				c0-19.277-3.774-38.029-11.218-55.732c-7.194-17.111-17.484-32.498-30.583-45.733C268.049,79.157,232.188,64.114,194.102,64.114
				L194.102,64.114z"/>
		</g>
	</g>
	<g>
		<g>
			<g>
				<path fill="#93EA73" d="M134.725,244.267l35.503-61.588c-14.22-12.705-21.871-34.385-21.871-48.936
					c0-23.99,19.508-43.508,43.486-43.508c23.978,0,43.485,19.502,43.485,43.473c0,15.198-8.441,37.456-22.674,49.669l35.104,60.891
					H134.725z"/>
				<path fill="#E214CF" d="M191.843,92.735c22.598,0,40.985,18.374,40.985,40.973c0,15.214-8.895,37.81-23.4,49.078l34.004,58.981
					h-104.38l34.38-59.639c-14.169-11.57-22.574-33.335-22.574-48.386C150.857,111.143,169.244,92.735,191.843,92.735
					 M191.843,87.735c-25.357,0-45.986,20.639-45.986,46.008c0,14.581,7.409,36.063,21.212,49.411l-32.35,56.117l-4.322,7.497h8.654
					h104.38h8.654l-4.322-7.497l-31.932-55.387c13.841-12.94,21.996-34.968,21.996-50.176
					C237.828,108.358,217.199,87.735,191.843,87.735L191.843,87.735z"/>
			</g>
			<path fill="#3847D1" stroke="#E214CF" stroke-width="5" stroke-miterlimit="10" d="M191.843,95.131
				c21.299,0,38.565,17.267,38.565,38.565c0,16.207-9.998,38.645-24.16,48.416l32.994,57.236h-95.998l33.339-57.837
				c-13.707-10.063-23.306-31.891-23.306-47.769C153.278,112.444,170.543,95.131,191.843,95.131 M191.843,90.292
				c-23.934,0-43.406,19.472-43.406,43.405c0,15.058,8.117,36.551,21.895,48.871l-31.279,54.268l-4.191,7.354h8.384h95.994h8.385
				l-4.191-7.354l-30.881-53.531c14.115-12.108,22.699-34.375,22.699-49.583C235.25,109.786,215.775,90.292,191.843,90.292
				L191.843,90.292z"/>
		</g>
		<g>
			<g>
				<path fill="#353535" d="M199.512,152.645c-0.306,0-0.471-0.006-0.471-0.006l-2.039-0.074l-0.343-2.013
					c-0.095-0.568-2.242-14.007,5.104-22.399c6.685-7.637,18.722-8.024,21.067-8.024c0.305,0,0.47,0.006,0.47,0.006l2.039,0.074
					l0.343,2.013c0.095,0.568,2.241,14.012-5.106,22.404C213.893,152.258,201.856,152.645,199.512,152.645z"/>
				<path fill="#E214CF" d="M222.831,122.629c0.25,0,0.386,0.004,0.386,0.004s2.131,12.747-4.521,20.345
					c-5.969,6.817-16.988,7.167-19.184,7.167c-0.251,0-0.387-0.004-0.387-0.004s-2.131-12.743,4.52-20.341
					C209.615,122.979,220.635,122.629,222.831,122.629 M222.831,117.629L222.831,117.629c-3.561,0-15.738,0.64-22.949,8.877
					c-8.117,9.273-5.792,23.843-5.688,24.459l0.672,4.018l4.092,0.155c0,0,0.195,0.007,0.555,0.007c3.56,0,15.737-0.64,22.945-8.873
					c8.119-9.273,5.794-23.847,5.691-24.463l-0.672-4.018l-4.092-0.155C223.385,117.636,223.19,117.629,222.831,117.629
					L222.831,117.629z"/>
			</g>
		</g>
		<g>
			<g>
				<path fill="#353535" d="M184.169,152.645c-2.344,0-14.378-0.387-21.063-8.02c-7.348-8.393-5.199-21.836-5.104-22.404
					l0.337-2.012l2.045-0.074c0,0,0.165-0.006,0.47-0.006c2.345,0,14.38,0.387,21.066,8.023c7.345,8.393,5.195,21.833,5.101,22.401
					l-0.337,2.012l-2.045,0.074C184.639,152.639,184.474,152.645,184.169,152.645z"/>
				<path fill="#E214CF" d="M160.854,122.629c2.196,0,13.214,0.35,19.186,7.17c6.649,7.598,4.516,20.341,4.516,20.341
					s-0.136,0.004-0.386,0.004c-2.195,0-13.211-0.349-19.182-7.167c-6.652-7.598-4.519-20.345-4.519-20.345
					S160.604,122.629,160.854,122.629 M160.854,117.629c-0.36,0-0.554,0.007-0.554,0.007l-4.069,0.154l-0.694,4.017
					c-0.104,0.616-2.432,15.19,5.688,24.464c7.21,8.233,19.384,8.873,22.944,8.873c0.359,0,0.554-0.007,0.554-0.007l4.07-0.154
					l0.694-4.018c0.104-0.616,2.432-15.186-5.684-24.459C176.59,118.269,164.414,117.629,160.854,117.629L160.854,117.629z"/>
			</g>
		</g>
	</g>
	<g>
		<path fill="#F275C5" d="M56.04,282.881c-10.408,0-18.875-8.468-18.875-18.875c0-10.408,8.467-18.876,18.875-18.876
			s18.875,8.468,18.875,18.876C74.915,274.414,66.447,282.881,56.04,282.881z"/>
		<path fill="#E214CF" d="M56.04,247.63c9.044,0,16.375,7.332,16.375,16.376c0,9.042-7.331,16.375-16.375,16.375
			s-16.375-7.333-16.375-16.375C39.665,254.962,46.996,247.63,56.04,247.63 M56.04,242.63c-11.786,0-21.375,9.589-21.375,21.376
			c0,11.786,9.589,21.375,21.375,21.375s21.375-9.589,21.375-21.375C77.415,252.219,67.826,242.63,56.04,242.63L56.04,242.63z"/>
	</g>
	<g>
		<path fill="#F275C5" d="M328.213,282.881c-10.406,0-18.873-8.468-18.873-18.875c0-10.408,8.467-18.876,18.873-18.876
			c10.407,0,18.875,8.468,18.875,18.876C347.088,274.414,338.62,282.881,328.213,282.881z"/>
		<path fill="#E214CF" d="M328.213,247.63c9.045,0,16.375,7.332,16.375,16.376c0,9.042-7.33,16.375-16.375,16.375
			c-9.043,0-16.373-7.333-16.373-16.375C311.84,254.962,319.17,247.63,328.213,247.63 M328.213,242.63
			c-11.785,0-21.373,9.589-21.373,21.376c0,11.786,9.588,21.375,21.373,21.375c11.786,0,21.375-9.589,21.375-21.375
			C349.588,252.219,339.999,242.63,328.213,242.63L328.213,242.63z"/>
	</g>
	<g>
		<path fill="#F275C5" d="M194.387,318.456c-10.408,0-18.875-8.468-18.875-18.875s8.467-18.875,18.875-18.875
			c10.409,0,18.876,8.468,18.876,18.875S204.796,318.456,194.387,318.456z"/>
		<path fill="#E214CF" d="M194.387,283.206c9.044,0,16.376,7.33,16.376,16.375c0,9.044-7.332,16.375-16.376,16.375
			c-9.043,0-16.375-7.331-16.375-16.375C178.012,290.536,185.344,283.206,194.387,283.206 M194.387,278.206
			c-11.786,0-21.375,9.589-21.375,21.375s9.589,21.375,21.375,21.375c11.787,0,21.376-9.589,21.376-21.375
			S206.174,278.206,194.387,278.206L194.387,278.206z"/>
	</g>
	<g>
		<g>
			<path fill="#88BDED" d="M-5.287,241.847l-0.539-0.278c-6.664-3.435-13.476-8.253-13.476-17.951
				c0-10.733,8.342-18.23,20.287-18.23h386.231c11.755,0,20.287,7.712,20.287,18.337c0,9.512-6.675,16.615-17.004,18.098
				l-0.177,0.025H-5.287z"/>
			<path fill="#E214CF" d="M387.217,207.887c9.824,0,17.787,6.015,17.787,15.837c0,8.824-6.43,14.413-14.859,15.623H-4.68
				c-7.042-3.63-12.121-7.889-12.121-15.729c0-9.822,7.963-15.73,17.787-15.73H387.217 M387.217,202.887H0.986
				c-13.204,0-22.787,8.719-22.787,20.73c0,11.105,7.925,16.614,14.83,20.174l1.078,0.556h1.213h394.825h0.357l0.353-0.051
				c11.633-1.67,19.149-9.745,19.149-20.572C410.004,211.651,400.421,202.887,387.217,202.887L387.217,202.887z"/>
		</g>
		<g>
			<path fill="#558CB5" d="M194.243,302.412c-38.085,0-102.683-19.345-191.999-57.495c-3.737-1.597-6.964-2.975-7.519-3.147
				c0.026,0.008,0.261,0.078,0.594,0.078v-5h394.825v5c0.404,0,0.703-0.102,0.759-0.122c-0.323,0.118-2.128,0.918-4.217,1.844
				C301.056,281.514,232.711,302.412,194.243,302.412z"/>
			<path fill="#E214CF" d="M390.145,239.347c-0.953,0-129.684,60.564-195.902,60.564c-66.217,0-197.141-60.564-198.923-60.564
				H390.145 M390.145,234.347H-4.68v10c-0.741,0-1.274-0.169-1.374-0.203c0.629,0.215,3.728,1.538,7.316,3.071
				c14.497,6.192,48.445,20.693,85.57,33.5c46.542,16.056,82.68,24.196,107.41,24.196c25.568,0,62.849-8.655,110.81-25.725
				c37.726-13.427,70.36-27.889,82.646-33.333c1.998-0.885,3.725-1.65,4.088-1.791c-0.172,0.067-0.799,0.284-1.643,0.284V234.347
				L390.145,234.347z"/>
		</g>
	</g>
	<g>
		<path fill="#E3F6FF" d="M296.881,196.542c-12.21,0-18.202-15.297-23.49-28.794c-1.204-3.073-2.341-5.976-3.507-8.6
			c-1.438-3.237-3.255-6.759-5.177-10.489c-6.145-11.92-12.498-24.247-9.166-32.244c1.262-3.028,3.76-5.15,7.424-6.305
			c1.234-0.389,2.545-0.586,3.897-0.586c18.234,0,41.501,35.45,46.033,49.819c2.239,7.103,4.364,15.263,3.156,21.942
			c-1.285,7.1-5.989,11.837-14.38,14.483C300.042,196.282,298.43,196.542,296.881,196.542z"/>
		<path fill="#E214CF" d="M266.862,112.024c16.006-0.004,38.931,33.114,43.649,48.071c5.033,15.968,6.377,28.255-9.592,33.288
			c-1.423,0.449-2.767,0.659-4.039,0.659c-13,0-18.52-21.976-24.713-35.909c-7.316-16.463-24.418-40.604-8.451-45.639
			C264.728,112.176,265.78,112.024,266.862,112.024 M266.865,107.024v5V107.024h-0.002h-0.002c-1.608,0-3.172,0.236-4.647,0.702
			c-5.481,1.728-7.909,5.156-8.98,7.728c-3.779,9.071,2.846,21.922,9.251,34.351c1.905,3.696,3.705,7.188,5.114,10.359
			c1.144,2.573,2.271,5.45,3.465,8.497c5.579,14.241,11.902,30.382,25.817,30.382c1.805,0,3.67-0.3,5.544-0.891
			c9.229-2.909,14.642-8.434,16.087-16.422c1.302-7.195-0.783-15.373-3.231-23.138C310.451,143.284,286.536,107.024,266.865,107.024
			L266.865,107.024z"/>
	</g>
</g>
<g>
	<g>
		<path fill="#B2DAF7" stroke="#3847D1" stroke-width="4" stroke-miterlimit="10" d="M331.883,207.939
			c0-76.097-61.686-138.825-137.781-138.825c-76.095,0-137.779,63.252-137.779,139.347c0,0.093,0.007,0.637,0.007,1.848h275.545
			C331.875,209.097,331.883,208.034,331.883,207.939z"/>
	</g>
	<g>
		<g>
			<path fill="#93EA73" d="M139.051,241.767l34.38-59.639c-14.169-11.57-22.574-33.335-22.574-48.386
				c0-22.6,18.387-41.008,40.986-41.008c22.598,0,40.985,18.374,40.985,40.973c0,15.214-8.895,37.81-23.4,49.078l34.004,58.981
				H139.051z"/>
			<path fill="#3847D1" d="M191.843,95.131c21.299,0,38.565,17.267,38.565,38.565c0,16.207-9.998,38.645-24.16,48.416l32.994,57.236
				h-95.998l33.339-57.837c-13.707-10.063-23.306-31.891-23.306-47.769C153.278,112.444,170.543,95.131,191.843,95.131
				 M191.843,90.292c-23.934,0-43.406,19.472-43.406,43.405c0,15.058,8.117,36.551,21.895,48.871l-31.279,54.268l-4.191,7.354h8.384
				h95.994h8.385l-4.191-7.354l-30.881-53.531c14.115-12.108,22.699-34.375,22.699-49.583
				C235.25,109.786,215.775,90.292,191.843,90.292L191.843,90.292z"/>
		</g>
		<g>
			<path fill="#353535" d="M218.695,142.978c-6.65,7.596-19.57,7.162-19.57,7.162s-2.131-12.743,4.52-20.341
				c6.652-7.6,19.572-7.166,19.572-7.166S225.348,135.38,218.695,142.978z"/>
		</g>
		<g>
			<path fill="#353535" d="M164.987,142.978c6.652,7.596,19.568,7.162,19.568,7.162s2.134-12.743-4.516-20.341
				c-6.653-7.6-19.571-7.166-19.571-7.166S158.334,135.38,164.987,142.978z"/>
		</g>
	</g>
	<circle fill="#F275C5" stroke="#3847D1" stroke-width="4" stroke-miterlimit="10" cx="56.04" cy="264.006" r="16.375"/>
	<circle fill="#F275C5" stroke="#3847D1" stroke-width="4" stroke-miterlimit="10" cx="328.213" cy="264.006" r="16.375"/>
	<circle fill="#F275C5" stroke="#3847D1" stroke-width="4" stroke-miterlimit="10" cx="194.387" cy="299.581" r="16.375"/>
	<g>
		
			<path fill="#88BDED" stroke="#3847D1" stroke-width="4" stroke-linecap="round" stroke-linejoin="round" stroke-miterlimit="10" d="
			M405.004,223.724c0-9.822-7.963-15.837-17.787-15.837H0.986c-9.824,0-17.787,5.908-17.787,15.73c0,7.841,5.079,12.1,12.121,15.729
			h394.825C398.574,238.137,405.004,232.548,405.004,223.724z"/>
		
			<path fill="#558CB5" stroke="#3847D1" stroke-width="4" stroke-linecap="round" stroke-linejoin="round" stroke-miterlimit="10" d="
			M-4.68,239.347c1.782,0,132.706,60.564,198.923,60.564c66.218,0,194.949-60.564,195.902-60.564H-4.68L-4.68,239.347z"/>
	</g>
	<path fill="#E3F6FF" d="M310.512,160.095c5.033,15.968,6.377,28.255-9.592,33.288c-15.965,5.037-21.953-19.953-28.752-35.25
		c-7.316-16.463-24.418-40.604-8.451-45.639C279.684,107.461,305.475,144.127,310.512,160.095z"/>
</g>
</svg>
