<?xml version="1.0" encoding="utf-8"?>
<!-- Generator: Adobe Illustrator 16.0.0, SVG Export Plug-In . SVG Version: 6.00 Build 0)  -->
<!DOCTYPE svg PUBLIC "-//W3C//DTD SVG 1.1//EN" "http://www.w3.org/Graphics/SVG/1.1/DTD/svg11.dtd">
<svg version="1.1" id="Layer_1" xmlns="http://www.w3.org/2000/svg" xmlns:xlink="http://www.w3.org/1999/xlink" x="0px" y="0px"
	 width="300px" height="300px" viewBox="0 0 300 300" enable-background="new 0 0 300 300" xml:space="preserve">
<g>
	<g>
		<g>
			<g>
				<path fill="#FFFFFF" d="M149.927,263.262c-62.44,0-113.239-50.799-113.239-113.24c0-62.44,50.799-113.238,113.239-113.238
					c62.441,0,113.24,50.798,113.24,113.238C263.167,212.463,212.368,263.262,149.927,263.262z"/>
				<path fill="#E214CF" d="M149.927,40.284c60.512,0,109.74,49.229,109.74,109.738c0,60.51-49.229,109.74-109.74,109.74
					c-60.509,0-109.739-49.229-109.739-109.74C40.188,89.513,89.417,40.284,149.927,40.284 M149.927,33.284
					c-64.37,0-116.739,52.369-116.739,116.738c0,64.371,52.369,116.74,116.739,116.74c64.371,0,116.74-52.369,116.74-116.74
					C266.667,85.652,214.298,33.284,149.927,33.284L149.927,33.284z"/>
			</g>
			<path fill="#3847D1" stroke="#E214CF" stroke-width="7" stroke-miterlimit="10" d="M149.927,41.994
				c59.665,0,108.029,48.365,108.029,108.028c0,59.662-48.364,108.03-108.029,108.03c-59.662,0-108.029-48.366-108.029-108.03
				C41.898,90.36,90.264,41.994,149.927,41.994 M149.927,38.573c-29.769,0-57.755,11.593-78.806,32.643
				c-21.05,21.05-32.643,49.037-32.643,78.805c0,29.768,11.593,57.756,32.643,78.807c21.05,21.051,49.038,32.645,78.806,32.645
				c29.769,0,57.756-11.594,78.807-32.645s32.643-49.037,32.643-78.807c0-29.769-11.592-57.756-32.643-78.805
				C207.684,50.167,179.696,38.573,149.927,38.573L149.927,38.573z"/>
		</g>
		<g>
			<g>
				<path fill="#E240B0" d="M149.927,261.552c-61.497,0-111.529-50.032-111.529-111.53S88.43,38.493,149.927,38.493
					c61.498,0,111.529,50.032,111.529,111.529S211.425,261.552,149.927,261.552z"/>
				<path fill="#E214CF" d="M149.927,41.993c59.663,0,108.029,48.366,108.029,108.029c0,59.662-48.366,108.03-108.029,108.03
					S41.898,209.684,41.898,150.022C41.898,90.359,90.265,41.993,149.927,41.993 M149.927,34.993
					c-30.725,0-59.611,11.965-81.337,33.691c-21.727,21.726-33.691,50.612-33.691,81.338c0,30.725,11.965,59.611,33.691,81.337
					c21.727,21.727,50.613,33.692,81.338,33.692s59.612-11.966,81.337-33.692c21.727-21.727,33.691-50.612,33.691-81.337
					c0-30.726-11.965-59.612-33.691-81.338C209.539,46.958,180.652,34.993,149.927,34.993L149.927,34.993z"/>
			</g>
		</g>
		<g>
			<g>
				<path fill="#88BDED" d="M149.927,229.141c-43.627,0-79.12-35.492-79.12-79.119c0-43.627,35.493-79.121,79.12-79.121
					c43.627,0,79.122,35.493,79.122,79.121C229.049,193.648,193.555,229.141,149.927,229.141z"/>
				<path fill="#E214CF" d="M149.927,74.401c41.764,0,75.622,33.856,75.622,75.621s-33.857,75.619-75.622,75.619
					c-41.764,0-75.62-33.854-75.62-75.619S108.164,74.401,149.927,74.401 M149.927,67.401c-45.557,0-82.62,37.063-82.62,82.621
					c0,45.556,37.063,82.619,82.62,82.619c45.558,0,82.622-37.063,82.622-82.619C232.549,104.465,195.485,67.401,149.927,67.401
					L149.927,67.401z"/>
			</g>
		</g>
		<g>
			<g>
				<path fill="#88BDED" d="M149.927,229.141c-43.627,0-79.12-35.492-79.12-79.119c0-43.627,35.493-79.121,79.12-79.121
					c43.627,0,79.122,35.493,79.122,79.121C229.049,193.648,193.555,229.141,149.927,229.141z"/>
				<path fill="#E214CF" d="M149.927,74.401c41.764,0,75.622,33.856,75.622,75.621s-33.857,75.619-75.622,75.619
					c-41.764,0-75.62-33.854-75.62-75.619S108.164,74.401,149.927,74.401 M149.927,67.401c-45.557,0-82.62,37.063-82.62,82.621
					c0,45.556,37.063,82.619,82.62,82.619c45.558,0,82.622-37.063,82.622-82.619C232.549,104.465,195.485,67.401,149.927,67.401
					L149.927,67.401z"/>
			</g>
		</g>
		<g>
			<g>
				<path fill="#E240B0" d="M149.928,198.895c-26.948,0-48.873-21.924-48.873-48.873s21.924-48.873,48.873-48.873
					c26.949,0,48.873,21.924,48.873,48.873S176.877,198.895,149.928,198.895z"/>
				<path fill="#E214CF" d="M149.928,104.649c25.058,0,45.373,20.314,45.373,45.373c0,25.058-20.314,45.373-45.373,45.373
					c-25.059,0-45.373-20.314-45.373-45.373C104.556,124.963,124.87,104.649,149.928,104.649 M149.928,97.649
					c-28.878,0-52.373,23.495-52.373,52.373s23.494,52.373,52.373,52.373s52.373-23.494,52.373-52.373
					S178.807,97.649,149.928,97.649L149.928,97.649z"/>
			</g>
		</g>
		<g>
			<path fill="#3847D1" d="M146.636,170.623c-3.357,0-6.193-2.72-6.193-5.938v-6.032h-4.58c-3.091,0-6.535-2.438-6.535-5.938v-5.985
				c0-3.487,3.513-6.192,6.535-6.192h4.58v-4.581c0-3.131,2.778-5.679,6.193-5.679h5.985c3.328,0,5.936,2.495,5.936,5.679v4.581
				h6.034c3.218,0,5.937,2.836,5.937,6.192v5.985c0,3.274-2.663,5.938-5.937,5.938h-6.034v6.032c0,3.274-2.663,5.938-5.936,5.938
				H146.636z"/>
			<path fill="#E214CF" d="M152.621,133.778c1.321,0,2.436,0.858,2.436,2.179v8.081h9.534c1.321,0,2.437,1.372,2.437,2.692v5.985
				c0,1.324-1.115,2.438-2.437,2.438h-9.534v9.532c0,1.323-1.114,2.438-2.436,2.438h-5.985c-1.321,0-2.693-1.115-2.693-2.438v-9.532
				h-8.08c-1.322,0-3.035-1.113-3.035-2.438v-5.985c0-1.321,1.712-2.692,3.035-2.692h8.08v-8.081c0-1.321,1.372-2.179,2.693-2.179
				H152.621 M152.621,126.778h-5.985c-5.345,0-9.693,4.118-9.693,9.179v1.081h-1.08c-4.737,0-10.035,4.145-10.035,9.692v5.985
				c0,5.646,5.188,9.438,10.035,9.438h1.08v2.532c0,5.116,4.439,9.438,9.693,9.438h5.985c5.203,0,9.436-4.234,9.436-9.438v-2.532
				h2.534c5.203,0,9.437-4.233,9.437-9.438v-5.985c0-5.254-4.321-9.692-9.437-9.692h-2.534v-1.081
				C162.057,130.81,157.912,126.778,152.621,126.778L152.621,126.778z"/>
		</g>
	</g>
	<g>
		<g>
			<path fill="#FFFFFF" d="M149.927,259.762c-60.509,0-109.739-49.229-109.739-109.74c0-60.509,49.229-109.738,109.739-109.738
				c60.512,0,109.74,49.229,109.74,109.738C259.667,210.532,210.438,259.762,149.927,259.762z"/>
			<path fill="#3847D1" d="M149.927,41.994c59.665,0,108.029,48.365,108.029,108.028c0,59.662-48.364,108.03-108.029,108.03
				c-59.662,0-108.029-48.366-108.029-108.03C41.898,90.36,90.264,41.994,149.927,41.994 M149.927,38.573
				c-29.769,0-57.755,11.593-78.806,32.643c-21.05,21.05-32.643,49.037-32.643,78.805c0,29.768,11.593,57.756,32.643,78.807
				c21.05,21.051,49.038,32.645,78.806,32.645c29.769,0,57.756-11.594,78.807-32.645s32.643-49.037,32.643-78.807
				c0-29.769-11.592-57.756-32.643-78.805C207.684,50.167,179.696,38.573,149.927,38.573L149.927,38.573z"/>
		</g>
		<g>
			<circle fill="#E240B0" cx="149.927" cy="150.022" r="108.03"/>
		</g>
		<g>
			<circle fill="#88BDED" cx="149.927" cy="150.021" r="75.62"/>
		</g>
		<g>
			<circle fill="#88BDED" cx="149.927" cy="150.021" r="75.62"/>
		</g>
		<g>
			<circle fill="#E240B0" cx="149.928" cy="150.022" r="45.373"/>
		</g>
		<path fill="#3847D1" d="M164.591,144.038h-9.534v-8.081c0-1.321-1.114-2.179-2.436-2.179h-5.985c-1.321,0-2.693,0.858-2.693,2.179
			v8.081h-8.08c-1.322,0-3.035,1.372-3.035,2.692v5.985c0,1.324,1.712,2.438,3.035,2.438h8.08v9.532
			c0,1.323,1.372,2.438,2.693,2.438h5.985c1.321,0,2.436-1.115,2.436-2.438v-9.532h9.534c1.321,0,2.437-1.113,2.437-2.438v-5.985
			C167.027,145.409,165.912,144.038,164.591,144.038z"/>
	</g>
</g>
</svg>
