<?xml version="1.0" encoding="utf-8"?>
<!-- Generator: Adobe Illustrator 16.0.0, SVG Export Plug-In . SVG Version: 6.00 Build 0)  -->
<!DOCTYPE svg PUBLIC "-//W3C//DTD SVG 1.1//EN" "http://www.w3.org/Graphics/SVG/1.1/DTD/svg11.dtd">
<svg version="1.1" id="Layer_1" xmlns="http://www.w3.org/2000/svg" xmlns:xlink="http://www.w3.org/1999/xlink" x="0px" y="0px"
	 width="447px" height="450px" viewBox="0 0 447 450" enable-background="new 0 0 447 450" xml:space="preserve">
<g>
	<circle fill="#C0E4FF" cx="225.072" cy="226.619" r="199.953"/>
	<g>
		<g>
			<path fill="#1B2C77" d="M303.312,299.236c5.093,8.514,2.552,19.404-5.674,24.324l-27.437,16.412
				c-8.226,4.92-19.022,2.008-24.114-6.505l-60.659-101.409c-5.095-8.513-2.554-19.402,5.672-24.324l27.438-16.412
				c8.225-4.92,19.021-2.008,24.114,6.505L303.312,299.236z"/>
			<path fill="#3847D1" d="M392.312,188.931C378.689,161.785,278.999,102.428,225.15,103c-37.689,0.4-125.197,6.851-153.549,62.443
				c-9.438,28.661,2.504,64.084,30.854,75.413c5.617,2.245,19.584-9.624,38.2-15.454c35.381-11.08,82.944-21.428,89.523-19.654
				c24.383,6.576,86.905,26.439,125,20.568C393.274,220.444,401.142,206.528,392.312,188.931z"/>
			<g>
				<path fill="#3847D1" d="M173.604,224.867c2.373,3.401,0.589,8.743-3.982,11.934c0,0-63.021,42.344-64.192,43.42
					c-0.89,0.82-4.271,8.094-4.271,8.094c-2.221,1.549-5.574-1.617-5.574-1.617l6.879-8.418c-3.543-3.474-13.288,3.738-13.288,3.738
					s-2.621-1.428-2.795-4.129c-0.174-2.7,3.555-3.615,4.265-4.111l70.385-49.291C165.6,221.296,171.229,221.466,173.604,224.867
					L173.604,224.867z"/>
				<polygon fill="#3847D1" points="97.209,279.009 95.603,279.154 91.83,282.543 90.677,283.355 88.072,280.115 95.014,275.264 
									"/>
				<polygon fill="#3847D1" points="97.769,284.264 96.547,287.284 93.914,286.313 96.856,283.801 				"/>
			</g>
			<path fill="#1B2C77" d="M184.635,207.262c26.174-1.124,5.162,11.566,0.684,20.225l-26.163,50.596
				c-4.478,8.658-12.043,13.641-16.899,11.129l-0.161-0.083c-21.055-9.001-5.166-11.565-0.688-20.224l26.165-50.596
				c4.477-8.658,12.041-13.641,16.897-11.13L184.635,207.262z"/>
			<path fill="#1B2C77" d="M169.661,214.836c2.469,4.686,6.653,10.533,1.967,13.001l-28.688,1.371l-35.659,19.284
				c-4.686,2.47-9.231-7.301-11.7-11.987l0,0c-4.196-9.369,8.329,2.523,13.017,0.055l45.469-24.194
				c4.686-2.469,12.97-2.688,15.438,1.999L169.661,214.836z"/>
			<path fill="#3847D1" d="M339.5,273.75c34.25,28.25,41.635,45.281,38.834,54.021c-6.976,21.768-42.868,52.873-59.667,60.896
				c-15.273,7.293-68.666,20.666-68.666,20.666s-44.987-30.896-52.465-63.667s11.762-82.626,35.305-93.871
				C256.385,240.551,305.25,245.5,339.5,273.75z"/>
			<polygon fill="#1B2C77" points="121.626,246.45 118.619,246.336 110.816,251.703 108.491,252.93 104.446,246.305 
				118.465,238.989 			"/>
			<polygon fill="#1B2C77" points="137.042,275.854 133.182,280.895 128.741,277.703 135.573,274.513 			"/>
			<path fill="#1B2C77" d="M162.646,254.234c0.371,1.983-1.316,3.963-3.772,4.424l0,0c-2.452,0.459-4.744-0.775-5.117-2.76
				l-6.895-36.811c-0.372-1.984,1.317-3.964,3.771-4.424l0,0c2.453-0.46,4.745,0.775,5.116,2.759L162.646,254.234z"/>
			<path fill="#1B2C77" d="M152.416,259.52c0.371,1.984-0.458,3.803-1.854,4.064l0,0c-1.394,0.262-2.826-1.135-3.198-3.117
				l-6.896-36.813c-0.372-1.983,0.458-3.803,1.854-4.064l0,0c1.396-0.261,2.828,1.135,3.199,3.119L152.416,259.52z"/>
			<path fill="#1B2C77" d="M304.62,178.826c3.045,35.311-44.286,8.369-89.953,10.105S107.032,235,98.553,217.059
				c-17.787-37.634,19.006-72.124,58.78-79.12C229,125.334,302.915,159.056,304.62,178.826z"/>
			<path fill="#5A70ED" d="M108,182.242c0,16.103,8.142,28.398-6.623,28.398c-14.763,0-23.32-13.054-23.32-29.157
				c0-16.103,19.291-43.544,34.054-43.544C126.875,137.939,108,166.139,108,182.242z"/>
		</g>
		<path fill="#1B2C77" d="M341.509,364.945c4.194,6.492,0.448,16.371-8.365,22.064l-9.24,5.971
			c-8.813,5.693-19.358,5.047-23.553-1.445l-47.163-73.002c-4.193-6.492-0.447-16.371,8.365-22.064l9.24-5.97
			c8.814-5.694,19.359-5.048,23.553,1.444L341.509,364.945z"/>
		<circle fill="#1B2C77" cx="266.547" cy="300.453" r="41.88"/>
	</g>
	<path fill="#F275C5" stroke="#E240B0" stroke-width="4" stroke-miterlimit="10" d="M224.867,14.21
		C108.043,14.21,13,109.253,13,226.076c0,116.824,95.043,211.867,211.867,211.867S436.734,342.9,436.734,226.076
		C436.734,109.253,341.691,14.21,224.867,14.21z M43,226.076C43,125.795,124.585,44.21,224.867,44.21
		c39.625,0,76.325,12.747,106.232,34.344L98.047,356.295C64.113,323.238,43,277.08,43,226.076z M224.867,407.943
		c-38.51,0-74.255-12.041-103.689-32.543L353.903,98.047c32.637,32.89,52.831,78.144,52.831,128.029
		C406.734,326.358,325.149,407.943,224.867,407.943z"/>
</g>
</svg>
