<?xml version="1.0" encoding="utf-8"?>
<!-- Generator: Adobe Illustrator 16.0.0, SVG Export Plug-In . SVG Version: 6.00 Build 0)  -->
<!DOCTYPE svg PUBLIC "-//W3C//DTD SVG 1.1//EN" "http://www.w3.org/Graphics/SVG/1.1/DTD/svg11.dtd">
<svg version="1.1" id="Layer_1" xmlns="http://www.w3.org/2000/svg" xmlns:xlink="http://www.w3.org/1999/xlink" x="0px" y="0px"
	 width="300px" height="300px" viewBox="0 0 300 300" enable-background="new 0 0 300 300" xml:space="preserve">
<g>
	<g>
		<g>
			<g>
				<path fill="#F275C5" d="M148.697,271.147c-9.158-6.896-38.949-31.739-66.46-63.469c-37.054-42.735-55.841-80.896-55.841-113.425
					c0-36.617,29.723-66.407,66.257-66.407c27.2,0,51.021,24.561,57.248,31.549c6.227-6.988,30.048-31.549,57.246-31.549
					c36.535,0,66.258,29.79,66.258,66.407c0,32.528-18.788,70.689-55.841,113.425c-27.51,31.728-57.302,56.572-66.46,63.469
					l-1.203,0.906L148.697,271.147z"/>
				<path fill="#F038D4" d="M207.146,29.847c35.57,0,64.258,28.835,64.258,64.407c0,76.087-107.104,164.453-121.504,175.296
					C135.5,258.707,28.396,170.341,28.396,94.254c0-35.572,28.687-64.407,64.257-64.407c30.447,0,57.248,32.609,57.248,32.609
					S176.701,29.847,207.146,29.847 M207.146,25.847c-26.147,0-49.121,21.861-57.246,30.583
					c-8.125-8.722-31.099-30.583-57.248-30.583c-18.265,0-35.418,7.117-48.3,20.04C31.483,58.797,24.396,75.975,24.396,94.254
					c0,18.132,5.866,38.27,17.435,59.854c9.334,17.415,22.421,35.88,38.896,54.881c27.625,31.861,57.564,56.825,66.769,63.756
					l2.406,1.812l2.406-1.812c9.205-6.932,39.145-31.897,66.768-63.756c16.475-19.001,29.561-37.466,38.896-54.881
					c11.568-21.584,17.435-41.722,17.435-59.854c0-18.279-7.088-35.457-19.957-48.367C242.565,32.964,225.412,25.847,207.146,25.847
					L207.146,25.847z"/>
			</g>
			<g>
				<path fill="#3847D1" d="M147.255,273.065c-1.236-0.932-123.26-95.323-123.26-178.812c0-37.94,30.799-68.808,68.657-68.808
					c26.013,0,48.903,21.504,57.248,30.396c8.344-8.892,31.231-30.396,57.246-30.396c37.858,0,68.658,30.867,68.658,68.808
					c0,83.488-122.023,177.88-123.257,178.81l-2.647,1.99L147.255,273.065z M92.652,34.247c-33.005,0-59.857,26.919-59.857,60.007
					c0,30.509,18.769,68.281,54.277,109.232c23.86,27.519,50.112,50.487,62.829,60.504c12.718-10.019,38.972-32.989,62.828-60.504
					c35.508-40.951,54.276-78.723,54.276-109.232c0-33.088-26.853-60.007-59.858-60.007c-27.916,0-53.594,30.696-53.85,31.006
					l-3.394,4.129l-3.401-4.129C146.245,64.94,120.618,34.247,92.652,34.247z"/>
				<path fill="#F038D4" d="M207.146,27.446c36.756,0,66.658,29.97,66.658,66.808c0,82.706-121.236,176.289-122.461,177.213
					l-1.443,1.085l-1.444-1.085c-1.225-0.924-122.461-94.507-122.461-177.213c0-36.838,29.903-66.808,66.657-66.808
					c26.94,0,50.555,23.913,57.248,31.351C156.593,51.359,180.207,27.446,207.146,27.446 M149.901,66.234l-1.855-2.253
					c-0.261-0.318-26.455-31.734-55.394-31.734c-34.107,0-61.857,27.815-61.857,62.007c0,30.996,18.938,69.223,54.766,110.543
					c25.957,29.937,53.905,53.644,64.34,61.731c10.434-8.088,38.382-31.795,64.339-61.731
					c35.828-41.32,54.766-79.547,54.766-110.543c0-34.191-27.75-62.007-61.858-62.007c-28.977,0-55.131,31.416-55.393,31.733
					L149.901,66.234 M207.146,23.446c-25.39,0-47.729,19.715-57.246,29.502c-9.52-9.787-31.86-29.502-57.248-29.502
					c-38.96,0-70.657,31.764-70.657,70.808c0,19.563,6.55,41.23,19.469,64.399c10.227,18.342,24.469,37.704,42.329,57.551
					c30.824,34.252,61.954,58.229,62.254,58.456l1.451,1.09l2.403,1.806l2.402-1.807l1.443-1.085
					c0.306-0.23,31.436-24.208,62.26-58.46c17.86-19.847,32.103-39.209,42.329-57.551c12.919-23.169,19.469-44.836,19.469-64.399
					C277.805,55.21,246.107,23.446,207.146,23.446L207.146,23.446z M149.904,72.53l3.087-3.756l1.853-2.254
					c0.245-0.295,25.389-30.273,52.303-30.273c31.903,0,57.858,26.022,57.858,58.007c0,30.021-18.6,67.34-53.788,107.923
					c-23.012,26.539-48.252,48.826-61.316,59.261c-13.064-10.433-38.303-32.718-61.318-59.261
					c-35.188-40.583-53.788-77.902-53.788-107.923c0-31.985,25.955-58.007,57.857-58.007c26.93,0,52.055,29.975,52.306,30.277
					l1.855,2.253L149.904,72.53L149.904,72.53z"/>
			</g>
		</g>
		<g>
			<g>
				<path fill="#FFBBED" d="M148.618,247.049c-0.98-0.737-98-75.62-98-141.833c0-29.515,23.958-53.526,53.405-53.526
					c21.505,0,40.358,19.011,45.798,25.042c5.439-6.031,24.293-25.042,45.797-25.042c29.448,0,53.405,24.012,53.405,53.526
					c0,66.208-97.02,141.096-97.999,141.833l-1.203,0.905L148.618,247.049z"/>
				<path fill="#F038D4" d="M195.617,53.689c28.458,0,51.405,23.068,51.405,51.526c0,60.871-85.683,131.563-97.202,140.235
					c-11.521-8.672-97.203-79.364-97.203-140.235c0-28.458,22.948-51.526,51.405-51.526c24.357,0,45.798,26.089,45.798,26.089
					S171.261,53.689,195.617,53.689 M195.617,49.689c-20.619,0-38.754,16.684-45.797,24.102
					c-7.043-7.418-25.178-24.102-45.798-24.102c-30.551,0-55.405,24.909-55.405,55.526c0,26.618,15.228,57.676,45.259,92.313
					c22.154,25.551,46.158,45.563,53.538,51.119l2.406,1.811l2.405-1.812c0.988-0.743,98.797-76.252,98.797-143.431
					C251.022,74.599,226.168,49.689,195.617,49.689L195.617,49.689z"/>
			</g>
		</g>
		<g>
			<g>
				<path fill="#F275C5" d="M148.513,227.891c-0.786-0.591-78.56-60.619-78.56-113.786c0-23.832,19.345-43.221,43.124-43.221
					c16.988,0,31.896,14.654,36.639,19.838c4.743-5.185,19.652-19.838,36.639-19.838c23.778,0,43.124,19.389,43.124,43.221
					c0,53.167-77.774,113.195-78.56,113.786l-1.203,0.905L148.513,227.891z"/>
				<path fill="#F038D4" d="M186.354,72.884c22.765,0,41.124,18.455,41.124,41.221c0,48.696-68.546,105.251-77.763,112.188
					c-9.217-6.938-77.763-63.492-77.763-112.188c0-22.766,18.359-41.221,41.124-41.221c19.486,0,36.639,20.87,36.639,20.87
					S166.869,72.884,186.354,72.884 M186.354,68.884c-16.247,0-30.552,12.66-36.639,18.928
					c-6.086-6.268-20.391-18.928-36.639-18.928c-24.881,0-45.124,20.286-45.124,45.221c0,54.138,78.563,114.787,79.357,115.385
					l2.406,1.811l2.405-1.811c0.794-0.598,79.357-61.247,79.357-115.385C231.479,89.17,211.236,68.884,186.354,68.884
					L186.354,68.884z"/>
			</g>
		</g>
		<g>
			<g>
				<path fill="#FFBBED" d="M148.549,212.605c-0.63-0.475-63.007-48.629-63.007-91.351c0-19.286,15.656-34.977,34.899-34.977
					c13.409,0,25.187,11.247,29.311,15.682c4.124-4.436,15.903-15.682,29.312-15.682c19.243,0,34.899,15.69,34.899,34.977
					c0,42.727-62.378,90.877-63.008,91.351l-1.203,0.905L148.549,212.605z"/>
				<path fill="#F038D4" d="M179.063,88.278c18.212,0,32.899,14.764,32.899,32.977c0,38.959-54.837,84.202-62.211,89.753
					c-7.373-5.551-62.21-50.794-62.21-89.753c0-18.213,14.688-32.977,32.899-32.977c15.59,0,29.311,16.697,29.311,16.697
					S163.475,88.278,179.063,88.278 M179.063,84.278c-12.795,0-24.071,9.547-29.312,14.806
					c-5.239-5.258-16.515-14.806-29.311-14.806c-20.346,0-36.899,16.587-36.899,36.977c0,43.691,63.166,92.468,63.804,92.948
					l2.406,1.812l2.405-1.812c0.639-0.479,63.806-49.251,63.806-92.948C215.963,100.866,199.41,84.278,179.063,84.278
					L179.063,84.278z"/>
			</g>
		</g>
		<g>
			<g>
				<g>
					<g>
						<path fill="#F275C5" d="M149.301,172.903c-15.746,0-28.556-12.81-28.556-28.555c0.001-15.745,12.811-28.555,28.556-28.555
							c15.745,0,28.555,12.81,28.555,28.555c0.001,7.627-2.969,14.797-8.362,20.191C164.1,169.933,156.929,172.903,149.301,172.903z
							"/>
						<path fill="#F038D4" d="M149.301,117.794c14.666,0,26.555,11.89,26.555,26.555c0.002,14.665-11.889,26.555-26.555,26.555
							s-26.556-11.89-26.556-26.555C122.746,129.683,134.635,117.794,149.301,117.794 M149.301,113.794
							c-16.847,0-30.555,13.707-30.556,30.554c0,16.848,13.707,30.555,30.556,30.555c8.162,0,15.835-3.179,21.606-8.949
							c5.771-5.771,8.949-13.444,8.948-21.606C179.855,127.5,166.148,113.794,149.301,113.794L149.301,113.794z"/>
					</g>
				</g>
				<g>
					<g>
						<path fill="#3847D1" d="M149.301,175.304c-17.069,0-30.955-13.887-30.955-30.955c0.001-17.069,13.887-30.955,30.955-30.955
							c17.068,0,30.955,13.886,30.955,30.955c0.001,8.269-3.219,16.042-9.066,21.887
							C165.344,172.083,157.57,175.304,149.301,175.304z M149.301,122.193c-12.215,0-22.154,9.939-22.155,22.155
							c0,12.217,9.939,22.155,22.155,22.155c5.919,0,11.482-2.305,15.666-6.49c4.186-4.184,6.49-9.746,6.489-15.665
							C171.456,132.132,161.518,122.193,149.301,122.193z"/>
						<path fill="#F038D4" d="M149.301,115.394c15.966,0,28.955,12.989,28.955,28.955c0.001,7.734-3.011,15.005-8.48,20.473
							c-5.469,5.471-12.74,8.482-20.475,8.482c-15.967,0-28.955-12.989-28.955-28.955
							C120.347,128.383,133.336,115.394,149.301,115.394 M149.301,168.504c6.453,0,12.519-2.513,17.08-7.076
							c4.563-4.561,7.076-10.627,7.075-17.079c0-13.32-10.837-24.155-24.155-24.155s-24.154,10.837-24.155,24.155
							C125.146,157.666,135.981,168.504,149.301,168.504 M149.301,111.394c-18.17,0-32.954,14.784-32.955,32.955
							c0,18.172,14.784,32.955,32.955,32.955c8.804,0,17.08-3.429,23.304-9.654c6.225-6.223,9.652-14.498,9.651-23.301
							C182.256,126.177,167.473,111.394,149.301,111.394L149.301,111.394z M149.301,164.504c-11.114,0-20.155-9.042-20.155-20.155
							c0.001-11.113,9.042-20.155,20.155-20.155c11.113,0,20.155,9.042,20.155,20.155c0.001,5.385-2.096,10.445-5.902,14.25
							C159.746,162.407,154.686,164.504,149.301,164.504L149.301,164.504z"/>
					</g>
				</g>
			</g>
			<g>
				<g>
					<g>
						<path fill="#E240B0" d="M149.382,167.956c-8.835,0-21.126-9.463-21.126-18.779c0.001-8.77,10.322-8.77,15.282-8.77
							c1.037,0,2.075,0.017,3.088,0.033c0.947,0.016,1.872,0.031,2.755,0.031c0.806,0,1.647-0.011,2.508-0.022
							c0.919-0.012,1.859-0.024,2.803-0.024c5.135,0,15.818,0,15.818,8.886C170.51,158.56,158.217,167.956,149.382,167.956z"/>
						<path fill="#F038D4" d="M143.538,142.407c2.006,0,4.014,0.064,5.844,0.064c1.667,0,3.483-0.047,5.311-0.047
							c6.829,0,13.818,0.657,13.818,6.886c-0.001,7.899-11.232,16.646-19.129,16.646c-7.896,0-19.126-8.883-19.126-16.779
							C130.257,143.11,136.885,142.407,143.538,142.407 M143.538,138.407c-3.414,0-7.336,0.162-10.541,1.365
							c-4.347,1.631-6.741,4.971-6.741,9.404c0,10.506,13.242,20.78,23.126,20.78s23.128-10.207,23.129-20.646
							c0-10.886-12.944-10.886-17.817-10.886c-0.953,0-1.902,0.012-2.83,0.024c-0.852,0.011-1.684,0.022-2.481,0.022
							c-0.873,0-1.788-0.015-2.723-0.03C145.635,138.424,144.586,138.407,143.538,138.407L143.538,138.407z"/>
					</g>
				</g>
			</g>
			<g>
				<g>
					<g>
						<path fill="#350F2C" d="M149.301,155.902c-6.62,0-12.005-5.387-12.005-12.009c0-3.206,1.248-6.221,3.516-8.49
							c2.268-2.268,5.283-3.517,8.489-3.517c6.619,0,12.006,5.386,12.007,12.006C161.308,150.516,155.921,155.902,149.301,155.902z"
							/>
						<path fill="#F038D4" d="M149.301,133.887c5.525,0,10.006,4.481,10.007,10.007c0,5.527-4.481,10.009-10.007,10.009
							s-10.005-4.481-10.005-10.009C139.295,138.368,143.775,133.887,149.301,133.887 M149.301,129.887
							c-3.741,0-7.258,1.457-9.903,4.103s-4.102,6.164-4.102,9.904c0,7.724,6.283,14.008,14.005,14.008
							c7.724,0,14.007-6.284,14.007-14.009C163.307,136.17,157.022,129.887,149.301,129.887L149.301,129.887z"/>
					</g>
				</g>
			</g>
			<g>
				<g>
					<g>
						<path fill="#FFBBED" d="M161.496,145.136c-3.328,0-6.793-1.523-9.506-4.18c-2.314-2.267-3.825-5.107-4.255-7.998
							c-0.46-3.096,0.354-5.89,2.29-7.867c1.604-1.64,3.877-2.543,6.397-2.543c3.329,0,6.794,1.523,9.505,4.18
							c4.925,4.826,5.807,11.943,1.966,15.865C166.287,144.233,164.016,145.136,161.496,145.136z"/>
						<path fill="#F038D4" d="M156.423,124.548c2.689,0,5.688,1.241,8.105,3.608c4.144,4.061,5.011,9.897,1.937,13.037
							c-1.282,1.309-3.047,1.942-4.969,1.942c-2.689,0-5.688-1.241-8.106-3.608c-4.145-4.06-5.013-9.896-1.936-13.036
							C152.735,125.182,154.5,124.548,156.423,124.548 M156.423,120.548L156.423,120.548c-3.063,0-5.843,1.117-7.828,3.146
							c-2.349,2.397-3.384,5.882-2.838,9.559c0.493,3.319,2.209,6.563,4.833,9.132c3.083,3.02,7.058,4.751,10.905,4.751
							c3.062,0,5.841-1.116,7.826-3.144c4.69-4.79,3.814-13-1.994-18.693C164.246,122.28,160.271,120.548,156.423,120.548
							L156.423,120.548z"/>
					</g>
				</g>
			</g>
		</g>
	</g>
	<g>
		<g>
			<path fill="#F275C5" d="M207.146,29.847c-30.445,0-57.246,32.609-57.246,32.609S123.1,29.847,92.652,29.847
				c-35.57,0-64.257,28.835-64.257,64.407c0,76.087,107.104,164.453,121.505,175.296c14.399-10.843,121.504-99.209,121.504-175.296
				C271.404,58.682,242.717,29.847,207.146,29.847z"/>
			<path fill="#3847D1" d="M149.9,272.552l-1.444-1.085c-1.225-0.924-122.461-94.507-122.461-177.213
				c0-36.838,29.903-66.808,66.657-66.808c26.94,0,50.555,23.913,57.248,31.351c6.692-7.438,30.307-31.351,57.246-31.351
				c36.756,0,66.658,29.97,66.658,66.808c0,82.706-121.236,176.289-122.461,177.213L149.9,272.552z M92.652,32.247
				c-34.107,0-61.857,27.815-61.857,62.007c0,30.996,18.938,69.223,54.766,110.543c25.957,29.937,53.905,53.644,64.34,61.731
				c10.434-8.088,38.382-31.795,64.339-61.731c35.828-41.32,54.766-79.547,54.766-110.543c0-34.191-27.75-62.007-61.858-62.007
				c-28.977,0-55.131,31.416-55.393,31.733l-1.853,2.254l-1.855-2.253C147.785,63.663,121.591,32.247,92.652,32.247z"/>
		</g>
		<g>
			<path fill="#FFBBED" d="M195.617,53.689c-24.356,0-45.797,26.089-45.797,26.089s-21.44-26.089-45.798-26.089
				c-28.457,0-51.405,23.068-51.405,51.526c0,60.871,85.683,131.563,97.203,140.235c11.52-8.672,97.202-79.364,97.202-140.235
				C247.022,76.758,224.075,53.689,195.617,53.689z"/>
		</g>
		<g>
			<path fill="#F275C5" d="M186.354,72.884c-19.485,0-36.639,20.87-36.639,20.87s-17.152-20.87-36.639-20.87
				c-22.765,0-41.124,18.455-41.124,41.221c0,48.696,68.546,105.251,77.763,112.188c9.217-6.938,77.763-63.492,77.763-112.188
				C227.479,91.339,209.119,72.884,186.354,72.884z"/>
		</g>
		<g>
			<path fill="#FFBBED" d="M179.063,88.278c-15.589,0-29.312,16.697-29.312,16.697s-13.721-16.697-29.311-16.697
				c-18.212,0-32.899,14.764-32.899,32.977c0,38.959,54.837,84.202,62.21,89.753c7.374-5.551,62.211-50.794,62.211-89.753
				C211.963,103.042,197.275,88.278,179.063,88.278z"/>
		</g>
		<g>
			<g>
				<g>
					<circle fill="#F275C5" cx="149.3" cy="144.349" r="26.555"/>
				</g>
				<g>
					<path fill="#3847D1" d="M149.301,173.304L149.301,173.304c-15.967,0-28.955-12.989-28.955-28.955
						c0.001-15.966,12.99-28.955,28.955-28.955c15.966,0,28.955,12.989,28.955,28.955c0.001,7.734-3.011,15.005-8.48,20.473
						C164.307,170.292,157.035,173.304,149.301,173.304z M149.301,120.193c-13.318,0-24.154,10.837-24.155,24.155
						c0,13.317,10.836,24.155,24.155,24.155c6.453,0,12.519-2.513,17.08-7.076c4.563-4.561,7.076-10.627,7.075-17.079
						C173.456,131.028,162.619,120.193,149.301,120.193z"/>
				</g>
			</g>
			<g>
				<g>
					<path fill="#E240B0" d="M168.511,149.31c-0.001,7.899-11.232,16.646-19.129,16.646c-7.896,0-19.126-8.883-19.126-16.779
						c0.001-7.896,11.229-6.706,19.126-6.706C157.278,142.471,168.511,141.414,168.511,149.31z"/>
				</g>
			</g>
			<g>
				<g>
					<circle fill="#350F2C" cx="149.302" cy="143.894" r="10.006"/>
				</g>
			</g>
			<g>
				<g>
					
						<ellipse transform="matrix(0.6998 -0.7144 0.7144 0.6998 -47.888 153.7391)" fill="#FFBBED" cx="158.959" cy="133.842" rx="7.959" ry="10.506"/>
				</g>
			</g>
		</g>
	</g>
</g>
</svg>
