<?xml version="1.0" encoding="utf-8"?>
<!-- Generator: Adobe Illustrator 16.0.0, SVG Export Plug-In . SVG Version: 6.00 Build 0)  -->
<!DOCTYPE svg PUBLIC "-//W3C//DTD SVG 1.1//EN" "http://www.w3.org/Graphics/SVG/1.1/DTD/svg11.dtd">
<svg version="1.1" id="Layer_1" xmlns="http://www.w3.org/2000/svg" xmlns:xlink="http://www.w3.org/1999/xlink" x="0px" y="0px"
	 width="300px" height="300px" viewBox="0 0 300 300" enable-background="new 0 0 300 300" xml:space="preserve">
<g>
	<g>
		<g>
			<path fill="#88BDED" d="M220.329,284.5c-35.797,0-36.829-0.674-36.829-36.637v-30.627c0-8.008-1.84-9.736-10.363-9.736h-41.251
				c-4.548,0-19.386,0.702-19.386,9.736v30.627c0,35.963-1.033,36.637-36.829,36.637h-1.149c-35.706,0-43.022-14.247-43.022-36.185
				v-90.202c0-2.859,2.344-13.173,9.878-21.224c15.105-21.218,60.949-75.188,83-101.148c6.437-7.578,11.088-13.053,11.855-14.048
				c3.239-4.612,8.667-6.85,12.854-7.272l0.002,0.078h0.821c0.168,0,0.334-0.01,0.497-0.01c0.159,0,0.315,0.01,0.469,0.01h2.585
				c0.152,0,0.307-0.009,0.464-0.009c0.152,0,0.306,0.009,0.462,0.009h0.896l0.004-0.07c4.04,0.441,9.104,2.732,12.389,7.404
				c0.637,0.822,4.07,5.006,9.267,11.391c19.928,24.484,66.55,81.75,82.157,103.684c6.861,7.363,5.908,16.268,5.5,20.084
				c-0.05,0.462-0.101,0.93-0.101,1.121v90.202c0,21.938-7.316,36.185-43.021,36.185H220.329z"/>
			<path fill="#E214CF" d="M153.926,16.35c3.723,0,8.88,2.032,12.115,6.633c3.438,4.455,72.021,87.791,91.508,115.21
				c7.382,7.822,4.951,17.821,4.951,19.92v90.202c0,19.425-5.217,34.185-41.021,34.185c-0.389,0-0.769,0-1.149,0
				c-34.654,0-34.829,0.174-34.829-34.637c0-27.425,0-30.627,0-30.627c0-9.321-3.042-11.736-12.363-11.736h-20.625h-20.626
				c-9.32,0-21.386,2.415-21.386,11.736c0,0,0,3.202,0,30.627c0,34.813-0.168,34.637-34.829,34.637c-0.378,0-0.763,0-1.149,0
				c-35.805,0-41.022-14.76-41.022-34.185v-90.202c0-2.099,2.047-12.131,9.429-19.953c19.485-27.42,91.45-110.789,94.888-115.244
				c3.234-4.602,8.825-6.7,12.591-6.7c0.191,0,0.379,0.005,0.561,0.016c0.021-0.001,0.034-0.002,0.045-0.003
				c0.053,0.005,0.306,0.147,1.224,0.153c0.755-0.005,1.038,0.118,1.125,0.118c0.002,0,0.004,0,0.006,0
				C153.55,16.5,153.735,16.35,153.926,16.35 M153.339,16.226c0.037,0,0.094,0.002,0.023,0.006
				C153.288,16.227,153.308,16.226,153.339,16.226 M151.023,16.226c0.013,0,0.021,0.001-0.01,0.003
				C150.988,16.227,151.009,16.226,151.023,16.226 M151.018,12.351l-0.128-0.057c-0.158-0.006-0.318,0.095-0.481,0.095
				c-0.17,0-0.343,0.112-0.517,0.112h-2.692l-0.016,0.183c-4.375,0.857-9.33,3.35-12.578,7.917
				c-0.877,1.115-5.689,6.745-11.751,13.882c-22.032,25.937-67.795,79.794-83.028,101.158c-7.873,8.478-10.326,19.414-10.326,22.474
				v90.202c0,20.021,5.454,38.185,45.022,38.185h1.149c18.412,0,27.654,0.182,33.248-5.443c5.581-5.61,5.581-14.708,5.581-33.193
				v-30.627c0-7.363,14.482-7.736,17.386-7.736h20.626h20.625c3.725,0,6.005,0.432,6.971,1.318c0.938,0.86,1.393,2.96,1.393,6.418
				v30.627c0,18.484,0,27.58,5.583,33.193c5.596,5.625,14.837,5.443,33.246,5.443h1.149c39.567,0,45.021-18.164,45.021-38.185
				v-90.202c0.004-0.121,0.051-0.563,0.089-0.917c0.398-3.723,1.449-13.555-5.934-21.57c-15.719-22.063-62.252-79.238-82.16-103.698
				c-4.892-6.01-8.455-10.388-9.239-11.394c-3.339-4.702-8.003-7.082-11.96-7.938l-0.19-0.369l-2.605,0.135V12.5h-0.058
				c-0.176,0-0.348-0.01-0.517-0.01c-0.17,0-0.338,0.01-0.504,0.01h-0.083h-2.188L151.018,12.351L151.018,12.351z"/>
		</g>
		<g>
			<path fill="#3847D1" d="M223.099,290.5c-36.934,0-41.599-4.781-41.599-42.637v-30.627c0-6.651-1.173-7.736-8.363-7.736h-41.251
				c-2.903,0-17.386,0.373-17.386,7.736v30.627l0.006,4.504c0.035,17.214,0.053,26.695-5.396,32.156
				c-5.072,5.082-14.061,5.977-31.072,5.977h-1.147c-32.11,0-48.391-14.193-48.391-42.185v-90.202
				c0-0.112,1.31-12.573,10.736-22.743c12.856-18.029,47.72-59.497,70.806-86.956c4.677-5.563,8.941-10.634,12.543-14.94
				c3.778-4.516,7.006-8.195,9.143-10.63c1.131-1.29,2.025-2.309,2.262-2.616c4.171-5.941,11.504-7.397,14.461-7.744l0.117-0.014
				l7.407,0.005l0.119,0.014c2.768,0.333,9.689,1.796,14.175,8.174c0.194,0.247,1.086,1.314,2.319,2.791
				c1.77,2.12,4.369,5.232,7.456,8.993l1.634,1.991c21.243,25.876,65.409,79.674,80.612,101.003
				c7.359,7.992,6.938,17.825,6.779,21.536l-0.023,0.583c-0.012,0.896-0.541,90.858-0.546,91.767
				c0,21.379-5.361,41.173-44.253,41.173H223.099z M173.137,200.5c12.008,0,17.363,5.162,17.363,16.736v30.627
				c0,10.602,0.439,25.141,4.234,28.979c3.101,3.135,12.378,4.658,28.364,4.658h1.148c33.48,0,36.253-15.224,36.253-32.185
				c0.034-21.402,0.146-91.249,0.157-91.596c0.104-2.946,0.369-10.556-5.042-16.29l-0.224-0.236l-0.236-0.51
				c-15.835-22.24-65.549-82.799-81.91-102.729c-5.381-6.554-9.224-11.275-10.03-12.32c-2.185-3.102-5.969-4.459-8.772-4.459
				c-0.163,0-0.321,0.005-0.475,0.015l-0.137,0.004l-3.04-0.017c-0.131-0.008-0.266-0.012-0.403-0.012
				c-2.845,0-6.825,1.565-8.928,4.557c-0.54,0.704-1.877,2.286-4.093,4.908c-1.879,2.223-4.339,5.134-7.264,8.63l-1.326,1.584
				c-21.517,25.714-66.289,79.222-81.005,99.932l-0.502,0.707l-1.792,0.243c-6.241,6.948-7.819,15.562-7.979,16.531v90.058
				c0,15.45,4.477,33.185,39.391,33.185h1.147c15.052,0,22.527-1.35,25.8-4.658c2.193-2.218,2.037-8.939,1.82-18.242
				c-0.074-3.193-0.158-6.812-0.158-10.736v-30.627c0-11.562,13.252-16.736,26.386-16.736H173.137z"/>
			<path fill="#E214CF" d="M148.684,14.471l7.171,0.005c4.245,0.511,9.476,2.643,12.778,7.339c0.643,0.829,4.521,5.393,9.865,11.902
				c19.983,24.344,66.736,81.215,82.237,102.989c7.292,7.835,6.423,17.565,6.312,20.785c-0.009,0.271-0.547,91.824-0.547,91.824
				c0,22.178-6.298,39.185-42.253,39.185h-1.148c-36.089,0-39.599-4.285-39.599-40.637v-30.627c0-7.801-2.088-9.736-10.363-9.736
				h-41.251c-8.104,0-19.386,1.88-19.386,9.736v30.627c0,36.352,1.628,40.637-34.462,40.637h-1.147
				c-35.955,0-46.391-18.007-46.391-40.185v-90.202c0-0.495,1.635-12.203,10.289-21.477c15.264-21.44,61.47-75.75,83.33-101.879
				c5.997-7.168,10.715-12.348,11.455-13.309C138.813,16.838,144.422,14.971,148.684,14.471 M76.5,283.5h1.538
				c16.098,0,23.53-1.52,27.222-5.252c3.674-3.715,2.24-14.166,2.24-30.385v-30.627c0-10.975,13.955-14.736,24.386-14.736h41.251
				c10.876,0,15.363,4.314,15.363,14.736v30.627c0,16.216,1.135,26.666,4.813,30.385c3.691,3.732,13.691,5.252,29.786,5.252h1.148
				c35.575,0,38.253-17.243,38.253-34.185c0,0,0.145-91.187,0.156-91.526c0.105-3.031,0.451-11.334-5.587-17.731l-0.178-0.383
				c-15.307-21.539-62.108-78.636-82.101-102.989c-5.57-6.785-9.241-11.299-9.992-12.272c-2.632-3.741-7.168-5.237-10.356-5.237
				c-0.206,0-0.407,0.006-0.602,0.019l-2.93-0.014c-0.17-0.01-0.345-0.015-0.523-0.015c-3.277,0-7.973,1.719-10.564,5.407
				c-0.864,1.122-4.998,5.926-11.254,13.405c-21.867,26.135-67.367,80.447-82.427,101.641l-1.646,0.224
				c-7.475,7.921-8.996,18.169-8.996,18.271v90.202c0,16.941,5.619,35.185,41.195,35.185 M148.451,10.5l-0.234,0.013
				c-3.208,0.376-11.153,1.956-15.85,8.55c-0.265,0.329-1.179,1.368-2.144,2.467c-2.142,2.441-5.379,6.129-9.172,10.663
				c-3.602,4.305-7.864,9.374-12.541,14.936c-24.44,29.069-57.878,68.84-70.83,86.978c-9.091,9.878-11.181,22.44-11.181,24.007
				v90.202c0,13.332,3.65,23.831,10.851,31.203c8.411,8.614,21.714,12.981,39.54,12.981h1.147c17.573,0,26.917-0.982,32.487-6.564
				c6.036-6.047,6.016-15.824,5.98-33.572c-0.003-1.442-0.006-2.941-0.006-4.5v-30.627c0-4.528,9.671-5.736,15.386-5.736h41.251
				c4.029,0,5.206,0.539,5.549,0.861c0.305,0.285,0.814,1.297,0.814,4.875v30.627c0,19.669,1.104,30.18,7.38,36.72
				c6.423,6.692,17.236,7.917,36.219,7.917h1.148c40.758,0,46.253-21.83,46.253-43.185c0.005-0.876,0.524-89.275,0.546-91.726
				l0.021-0.526c0.168-3.925,0.613-14.3-7.221-22.883c-15.311-21.454-59.4-75.16-80.624-101.013l-1.633-1.989
				c-3.094-3.769-5.727-6.921-7.468-9.007c-1.105-1.324-1.992-2.386-2.281-2.749c-4.949-6.958-12.488-8.543-15.509-8.906
				l-0.236-0.017h-0.238h-7.171H148.451L148.451,10.5z M46.492,143.607l0.189-0.026l1.718-0.233l1.004-1.414
				c14.67-20.645,59.408-74.111,80.908-99.806l1.326-1.585c2.922-3.494,5.38-6.402,7.257-8.623c2.234-2.644,3.583-4.24,4.098-4.909
				l0.053-0.069l0.05-0.071c1.692-2.408,5.02-3.708,7.292-3.707c0.096,0,0.19,0.163,0.283,0.167l0.11,0.167h0.111h2.93h0.136
				l0.137-0.161c0.112-0.007,0.229-0.087,0.348-0.087c2.213,0,5.374,1.069,7.085,3.501l0.051,0.053l0.054,0.06
				c0.818,1.062,4.676,5.795,10.067,12.363c16.314,19.873,65.812,80.167,81.72,102.468l0.022,0.046l0.273,0.588l0.445,0.472
				c4.838,5.126,4.603,11.88,4.501,14.765l-0.003,0.082c-0.009,0.27-0.063,31.108-0.158,91.659c0,16.521-2.577,30.19-34.253,30.19
				h-1.148c-18.945,0-25.108-2.21-26.942-4.064c-2.426-2.453-3.656-11.73-3.656-27.572v-30.627c0-12.607-6.334-18.736-19.363-18.736
				h-41.251c-14.129,0-28.386,5.793-28.386,18.736v30.627c0,3.948,0.084,7.579,0.159,10.782c0.173,7.461,0.353,15.176-1.243,16.79
				c-2.818,2.849-10.109,4.064-24.378,4.064h-1.147c-14.799,0-25.242-3.327-31.039-9.888c-4.333-4.904-6.352-11.672-6.352-21.297
				v-89.884C39.735,157.152,41.286,149.736,46.492,143.607L46.492,143.607z"/>
		</g>
	</g>
	<g>
		<g>
			<g>
				<path fill="#F275C5" d="M151.77,178.582c-15.746-0.001-28.556-12.812-28.556-28.556c0.001-15.745,12.811-28.555,28.556-28.555
					c15.745,0,28.555,12.81,28.555,28.555c0.001,7.627-2.969,14.798-8.362,20.191S159.397,178.581,151.77,178.582L151.77,178.582z"
					/>
				<path fill="#E214CF" d="M151.77,123.472c14.666,0,26.555,11.89,26.555,26.555c0.002,14.666-11.889,26.555-26.555,26.556
					c-14.666-0.001-26.556-11.89-26.556-26.556C125.215,135.36,137.104,123.472,151.77,123.472 M151.77,119.472
					c-16.847,0-30.555,13.707-30.556,30.554c0,16.848,13.707,30.555,30.556,30.556c8.162-0.001,15.835-3.179,21.606-8.95
					s8.949-13.444,8.948-21.606C182.324,133.178,168.617,119.472,151.77,119.472L151.77,119.472z"/>
			</g>
			<g>
				<path fill="#3847D1" d="M151.77,180.982c-17.069-0.001-30.955-13.888-30.955-30.956c0.001-17.068,13.887-30.954,30.955-30.954
					c17.068,0,30.955,13.886,30.955,30.954c0.001,8.268-3.219,16.041-9.066,21.888C167.813,177.761,160.039,180.981,151.77,180.982
					L151.77,180.982z M151.77,127.872c-12.215,0-22.154,9.938-22.155,22.154c0,12.216,9.939,22.155,22.155,22.156
					c5.918,0,11.481-2.305,15.666-6.49c4.186-4.185,6.49-9.747,6.489-15.666C173.925,137.811,163.986,127.872,151.77,127.872z"/>
				<path fill="#E214CF" d="M151.77,121.072c15.966,0,28.955,12.988,28.955,28.954c0.001,7.734-3.011,15.005-8.48,20.474
					c-5.469,5.47-12.74,8.481-20.475,8.482c-15.967-0.001-28.955-12.99-28.955-28.956
					C122.815,134.061,135.806,121.072,151.77,121.072 M151.77,174.183c6.453,0,12.519-2.514,17.08-7.076
					c4.563-4.562,7.076-10.628,7.075-17.08c0-13.319-10.837-24.154-24.155-24.154s-24.154,10.836-24.155,24.154
					C127.614,163.345,138.45,174.182,151.77,174.183 M151.77,117.072c-18.17,0-32.954,14.783-32.955,32.954
					c0,18.171,14.784,32.956,32.955,32.957c8.804-0.001,17.08-3.43,23.304-9.654c6.225-6.224,9.652-14.5,9.651-23.302
					C184.725,131.855,169.941,117.072,151.77,117.072L151.77,117.072z M151.77,170.183c-11.113-0.001-20.155-9.043-20.155-20.156
					c0.001-11.113,9.042-20.154,20.155-20.154c11.113,0,20.155,9.041,20.155,20.154c0.001,5.385-2.096,10.445-5.903,14.251
					C162.214,168.086,157.153,170.183,151.77,170.183L151.77,170.183L151.77,170.183z"/>
			</g>
		</g>
		<g>
			<g>
				<path fill="#E240B0" d="M151.851,173.635c-8.835,0-21.126-9.464-21.126-18.78c0.001-8.769,10.322-8.769,15.282-8.769
					c1.037,0,2.075,0.017,3.088,0.033c0.947,0.016,1.872,0.031,2.756,0.031c0.807,0,1.648-0.011,2.509-0.022
					c0.92-0.012,1.861-0.025,2.806-0.025c5.133,0,15.814,0,15.814,8.886C172.979,164.238,160.686,173.635,151.851,173.635z"/>
				<path fill="#E214CF" d="M146.006,148.085c2.006,0,4.015,0.064,5.844,0.064c1.668,0,3.486-0.047,5.314-0.047
					c6.827,0,13.814,0.658,13.814,6.886c-0.001,7.898-11.232,16.646-19.129,16.646c-7.896,0-19.126-8.883-19.126-16.78
					C132.726,148.788,139.354,148.085,146.006,148.085 M146.006,144.085c-3.414,0-7.336,0.162-10.541,1.365
					c-4.346,1.631-6.74,4.971-6.741,9.403c0,10.508,13.242,20.781,23.126,20.781s23.128-10.207,23.129-20.646
					c0-10.886-12.941-10.886-17.813-10.886c-0.954,0-1.904,0.013-2.832,0.025c-0.853,0.011-1.686,0.022-2.483,0.022
					c-0.873,0-1.788-0.015-2.723-0.03C148.103,144.103,147.054,144.085,146.006,144.085L146.006,144.085z"/>
			</g>
		</g>
		<g>
			<g>
				<path fill="#350F2C" d="M151.77,161.58c-6.62,0-12.005-5.387-12.005-12.008c0-3.206,1.248-6.221,3.516-8.49
					c2.268-2.268,5.283-3.517,8.489-3.517c6.619,0,12.006,5.386,12.007,12.006C163.776,156.193,158.39,161.58,151.77,161.58z"/>
				<path fill="#E214CF" d="M151.77,139.565c5.525,0,10.006,4.481,10.007,10.007c0,5.527-4.481,10.008-10.007,10.008
					s-10.005-4.48-10.005-10.008C141.764,144.047,146.244,139.565,151.77,139.565 M151.77,135.565c-3.741,0-7.258,1.457-9.903,4.103
					s-4.102,6.164-4.102,9.904c0,7.723,6.283,14.007,14.005,14.007c7.724,0,14.007-6.284,14.007-14.008
					C165.775,141.849,159.491,135.565,151.77,135.565L151.77,135.565z"/>
			</g>
		</g>
		<g>
			<g>
				<path fill="#FFBBED" d="M163.966,150.814c-3.329,0-6.794-1.524-9.507-4.181c-2.314-2.266-3.825-5.106-4.255-7.997
					c-0.46-3.096,0.354-5.89,2.29-7.867c1.604-1.64,3.877-2.543,6.397-2.543c3.329,0,6.794,1.523,9.505,4.18
					c4.925,4.826,5.807,11.943,1.966,15.865C168.757,149.911,166.484,150.814,163.966,150.814z"/>
				<path fill="#E214CF" d="M158.892,130.227c2.689,0,5.688,1.241,8.105,3.608c4.144,4.061,5.011,9.897,1.937,13.037
					c-1.282,1.309-3.046,1.942-4.968,1.942c-2.69,0-5.689-1.241-8.107-3.609c-4.145-4.059-5.013-9.895-1.936-13.035
					C155.204,130.861,156.969,130.227,158.892,130.227 M158.892,126.227L158.892,126.227c-3.063,0-5.843,1.117-7.828,3.146
					c-2.349,2.397-3.384,5.882-2.837,9.559c0.493,3.319,2.209,6.562,4.833,9.132c3.084,3.019,7.059,4.751,10.906,4.751
					c3.061,0,5.84-1.116,7.825-3.144c4.69-4.79,3.814-13-1.994-18.693C166.715,127.958,162.74,126.227,158.892,126.227
					L158.892,126.227z"/>
			</g>
		</g>
	</g>
</g>
<g>
	<g>
		<path fill="#88BDED" d="M258.549,138.16c-19.486-27.42-88.57-110.789-92.008-115.244c-3.4-4.836-9.173-6.907-12.923-6.684
			c-0.295-0.019,0.619,0.004-1.256,0.016c-1.875-0.012-1.036-0.034-1.331-0.016c-3.75-0.224-9.784,1.848-13.183,6.684
			C134.41,27.371,63.43,110.74,43.945,138.16c-7.382,7.822-8.445,17.854-8.445,19.953v90.202c0,19.425,5.217,34.548,41.022,34.548
			s35.978,0.192,35.978-35c0-27.425,0-30.627,0-30.627c0-9.321,10.065-13.736,19.386-13.736h20.626h20.625
			c9.321,0,14.363,4.415,14.363,13.736c0,0,0,3.202,0,30.627c0,35.192,0.174,35,35.979,35S264.5,267.74,264.5,248.315v-90.202
			C264.5,156.015,265.931,145.982,258.549,138.16z"/>
		<path fill="#3847D1" d="M223.099,286.5c-36.089,0-37.599-2.285-37.599-38.637v-30.627c0-7.801-4.088-11.736-12.363-11.736h-41.251
			c-8.104,0-17.386,3.88-17.386,11.736v30.627c0,36.352-0.372,38.637-36.462,38.637h-1.147c-35.955,0-44.391-16.007-44.391-38.185
			v-90.202c0-0.495,0.635-12.203,9.289-21.477c15.264-21.44,60.97-75.75,82.83-101.879c5.997-7.168,10.465-12.348,11.205-13.309
			c3.239-4.611,8.723-6.479,12.984-6.979l7.108,0.005c4.245,0.511,9.444,2.643,12.747,7.339c0.643,0.829,4.506,5.393,9.85,11.902
			c19.983,24.344,66.729,81.215,82.229,102.989c7.292,7.835,6.419,17.565,6.308,20.785c-0.009,0.271-0.551,90.824-0.551,90.824
			c0,22.178-6.298,38.185-42.253,38.185H223.099z M131.886,200.5h41.251c10.876,0,17.363,6.314,17.363,16.736v30.627
			c0,16.216,0.135,25.666,3.813,29.385c3.691,3.732,12.691,4.252,28.786,4.252h1.148c35.575,0,38.253-16.243,38.253-33.185
			c0,0,0.145-90.687,0.156-91.026c0.105-3.031,0.451-11.084-5.587-17.481l-0.178-0.258c-15.307-21.539-62.108-78.573-82.101-102.927
			c-5.57-6.785-9.241-11.268-9.992-12.241c-2.803-3.983-7.764-5.406-10.958-5.203l-2.93-0.006
			c-3.281-0.197-8.354,1.507-11.088,5.396c-0.864,1.122-4.998,5.928-11.254,13.407c-21.867,26.135-67.367,80.449-82.427,101.643
			l-0.646,0.224c-7.475,7.921-7.996,18.169-7.996,18.271v90.202c0,16.941,3.814,33.185,39.391,33.185h1.147
			c16.098,0,24.53-0.52,28.222-4.252c3.674-3.715,3.24-13.166,3.24-29.385v-30.627C109.5,206.262,121.455,200.5,131.886,200.5z"/>
	</g>
	<g>
		<g>
			<circle fill="#F275C5" cx="151.769" cy="150.026" r="26.555"/>
			<path fill="#3847D1" d="M151.77,178.982L151.77,178.982c-15.967-0.001-28.955-12.99-28.955-28.956
				c0.001-15.966,12.991-28.954,28.955-28.954c15.966,0,28.955,12.988,28.955,28.954c0.001,7.734-3.011,15.005-8.48,20.474
				C166.775,175.97,159.504,178.981,151.77,178.982z M151.77,125.872c-13.318,0-24.154,10.836-24.155,24.154
				c0,13.318,10.836,24.155,24.155,24.156c6.453,0,12.519-2.514,17.08-7.076c4.563-4.562,7.076-10.628,7.075-17.08
				C175.925,136.707,165.088,125.872,151.77,125.872z"/>
		</g>
		<g>
			<path fill="#E240B0" d="M170.979,154.988c-0.001,7.898-11.232,16.646-19.129,16.646c-7.896,0-19.126-8.883-19.126-16.78
				c0.001-7.896,11.229-6.705,19.126-6.705C159.747,148.149,170.979,147.092,170.979,154.988z"/>
		</g>
		<g>
			<circle fill="#350F2C" cx="151.771" cy="149.572" r="10.006"/>
		</g>
		<g>
			
				<ellipse transform="matrix(0.6998 -0.7143 0.7143 0.6998 -51.2039 157.1983)" fill="#FFBBED" cx="161.428" cy="139.52" rx="7.958" ry="10.507"/>
		</g>
	</g>
</g>
</svg>
