<?xml version="1.0" encoding="utf-8"?>
<!-- Generator: Adobe Illustrator 16.0.0, SVG Export Plug-In . SVG Version: 6.00 Build 0)  -->
<!DOCTYPE svg PUBLIC "-//W3C//DTD SVG 1.1//EN" "http://www.w3.org/Graphics/SVG/1.1/DTD/svg11.dtd">
<svg version="1.1" id="Layer_1" xmlns="http://www.w3.org/2000/svg" xmlns:xlink="http://www.w3.org/1999/xlink" x="0px" y="0px"
	 width="1920px" height="5113px" viewBox="0 0 1920 5113" enable-background="new 0 0 1920 5113" xml:space="preserve">
<rect fill="#32659B" width="1920" height="5113"/>
<polygon fill="#FFFFFF" points="358.896,1676.628 360.012,1681.973 365.048,1684.085 360.309,1686.798 359.857,1692.24 
	355.813,1688.57 350.496,1689.821 352.736,1684.842 349.904,1680.175 355.331,1680.765 "/>
<polygon fill="#FFFFFF" points="86.896,1747.628 88.012,1752.973 93.048,1755.085 88.309,1757.798 87.857,1763.24 83.813,1759.57 
	78.496,1760.821 80.736,1755.842 77.904,1751.175 83.331,1751.765 "/>
<polygon fill="#FFFFFF" points="1778.896,5035.628 1780.012,5040.973 1785.048,5043.085 1780.309,5045.798 1779.857,5051.24 
	1775.813,5047.57 1770.496,5048.821 1772.736,5043.842 1769.904,5039.175 1775.331,5039.765 "/>
<polygon fill="#FFFFFF" points="529.896,69.628 531.012,74.973 536.048,77.085 531.309,79.798 530.857,85.24 526.813,81.57 
	521.496,82.821 523.736,77.842 520.904,73.175 526.331,73.765 "/>
<polygon fill="#FFFFFF" points="913.896,4531.628 915.012,4536.973 920.048,4539.085 915.309,4541.798 914.857,4547.24 
	910.813,4543.57 905.496,4544.821 907.736,4539.842 904.904,4535.175 910.331,4535.765 "/>
<polygon fill="#FFFFFF" points="1863.896,4557.628 1865.012,4562.973 1870.048,4565.085 1865.309,4567.798 1864.857,4573.24 
	1860.813,4569.57 1855.496,4570.821 1857.736,4565.842 1854.904,4561.175 1860.331,4561.765 "/>
<polygon fill="#FFFFFF" points="1632.896,268.628 1634.012,273.973 1639.048,276.085 1634.309,278.798 1633.857,284.24 
	1629.813,280.57 1624.496,281.821 1626.736,276.842 1623.904,272.175 1629.331,272.765 "/>
<polygon fill="#FFFFFF" points="1670.896,1766.628 1672.012,1771.973 1677.048,1774.085 1672.309,1776.798 1671.857,1782.24 
	1667.813,1778.57 1662.496,1779.821 1664.736,1774.842 1661.904,1770.175 1667.331,1770.765 "/>
<polygon fill="#FFFFFF" points="1828.896,1942.628 1830.012,1947.973 1835.048,1950.085 1830.309,1952.798 1829.857,1958.24 
	1825.813,1954.57 1820.496,1955.821 1822.736,1950.842 1819.904,1946.175 1825.331,1946.765 "/>
<polygon fill="#FFFFFF" points="941.896,77.628 943.012,82.973 948.048,85.085 943.309,87.798 942.857,93.24 938.813,89.57 
	933.496,90.821 935.736,85.842 932.904,81.175 938.331,81.765 "/>
<polygon fill="#FFFFFF" points="1731.896,414.628 1733.012,419.973 1738.048,422.085 1733.309,424.798 1732.857,430.24 
	1728.813,426.57 1723.496,427.821 1725.736,422.842 1722.904,418.175 1728.331,418.765 "/>
<polygon fill="#FFFFFF" points="1561.896,137.628 1563.012,142.973 1568.048,145.085 1563.309,147.798 1562.857,153.24 
	1558.813,149.57 1553.496,150.821 1555.736,145.842 1552.904,141.175 1558.331,141.765 "/>
<polygon fill="#FFFFFF" points="1726.896,4685.628 1728.012,4690.973 1733.048,4693.085 1728.309,4695.798 1727.857,4701.24 
	1723.813,4697.57 1718.496,4698.821 1720.736,4693.842 1717.904,4689.175 1723.331,4689.765 "/>
<polygon fill="#FFFFFF" points="261.896,917.628 263.012,922.973 268.048,925.085 263.309,927.798 262.857,933.24 258.813,929.57 
	253.496,930.821 255.736,925.842 252.904,921.175 258.331,921.765 "/>
<polygon fill="#FFFFFF" points="1775.896,3288.628 1777.012,3293.973 1782.048,3296.085 1777.309,3298.798 1776.857,3304.24 
	1772.813,3300.57 1767.496,3301.821 1769.736,3296.842 1766.904,3292.175 1772.331,3292.765 "/>
<polygon fill="#FFFFFF" points="1673.896,2684.628 1675.012,2689.973 1680.048,2692.085 1675.309,2694.798 1674.857,2700.24 
	1670.813,2696.57 1665.496,2697.821 1667.736,2692.842 1664.904,2688.175 1670.331,2688.765 "/>
<polygon fill="#FFFFFF" points="225.896,1401.628 227.012,1406.973 232.048,1409.085 227.309,1411.798 226.857,1417.24 
	222.813,1413.57 217.496,1414.821 219.736,1409.842 216.904,1405.175 222.331,1405.765 "/>
<polygon fill="#FFFFFF" points="962.896,257.628 964.012,262.973 969.048,265.085 964.309,267.798 963.857,273.24 959.813,269.57 
	954.496,270.821 956.736,265.842 953.904,261.175 959.331,261.765 "/>
<polygon fill="#FFFFFF" points="1721.896,1351.628 1723.012,1356.973 1728.048,1359.085 1723.309,1361.798 1722.857,1367.24 
	1718.813,1363.57 1713.496,1364.821 1715.736,1359.842 1712.904,1355.175 1718.331,1355.765 "/>
<polygon fill="#FFFFFF" points="1762.896,1046.628 1764.012,1051.973 1769.048,1054.085 1764.309,1056.798 1763.857,1062.24 
	1759.813,1058.57 1754.496,1059.821 1756.736,1054.842 1753.904,1050.175 1759.331,1050.765 "/>
<polygon fill="#FFFFFF" points="738.896,164.628 740.012,169.973 745.048,172.085 740.309,174.798 739.857,180.24 735.813,176.57 
	730.496,177.821 732.736,172.842 729.904,168.175 735.331,168.765 "/>
<polygon fill="#FFFFFF" points="158.896,105.628 160.012,110.973 165.048,113.085 160.309,115.798 159.857,121.24 155.813,117.57 
	150.496,118.821 152.736,113.842 149.904,109.175 155.331,109.765 "/>
<polygon fill="#FFFFFF" points="130.896,485.628 132.012,490.973 137.048,493.085 132.309,495.798 131.857,501.24 127.813,497.57 
	122.496,498.821 124.736,493.842 121.904,489.175 127.331,489.765 "/>
<polygon fill="#FFFFFF" points="117.896,1094.628 119.012,1099.973 124.048,1102.085 119.309,1104.798 118.857,1110.24 
	114.813,1106.57 109.496,1107.821 111.736,1102.842 108.904,1098.175 114.331,1098.765 "/>
<polygon fill="#FFFFFF" points="1407.896,21.628 1409.012,26.973 1414.048,29.085 1409.309,31.798 1408.857,37.24 1404.813,33.57 
	1399.496,34.821 1401.736,29.842 1398.904,25.175 1404.331,25.765 "/>
<polygon fill="#FFFFFF" points="929.896,5053.628 931.012,5058.973 936.048,5061.085 931.309,5063.798 930.857,5069.24 
	926.813,5065.57 921.496,5066.821 923.736,5061.842 920.904,5057.175 926.331,5057.765 "/>
<polygon fill="#FFFFFF" points="174.896,4593.628 176.012,4598.973 181.048,4601.085 176.309,4603.798 175.857,4609.24 
	171.813,4605.57 166.496,4606.821 168.736,4601.842 165.904,4597.175 171.331,4597.765 "/>
<polygon fill="#FFFFFF" points="1665.896,4811.628 1667.012,4816.973 1672.048,4819.085 1667.309,4821.798 1666.857,4827.24 
	1662.813,4823.57 1657.496,4824.821 1659.736,4819.842 1656.904,4815.175 1662.331,4815.765 "/>
<polygon fill="#FFFFFF" points="237.896,4433.628 239.012,4438.973 244.048,4441.085 239.309,4443.798 238.857,4449.24 
	234.813,4445.57 229.496,4446.821 231.736,4441.842 228.904,4437.175 234.331,4437.765 "/>
<polygon fill="#FFFFFF" points="155.896,4819.628 157.012,4824.973 162.048,4827.085 157.309,4829.798 156.857,4835.24 
	152.813,4831.57 147.496,4832.821 149.736,4827.842 146.904,4823.175 152.331,4823.765 "/>
<polygon fill="#FFFFFF" points="101.896,4309.628 103.012,4314.973 108.048,4317.085 103.309,4319.798 102.857,4325.24 
	98.813,4321.57 93.496,4322.821 95.736,4317.842 92.904,4313.175 98.331,4313.765 "/>
<polygon fill="#FFFFFF" points="474.896,4389.628 476.012,4394.973 481.048,4397.085 476.309,4399.798 475.857,4405.24 
	471.813,4401.57 466.496,4402.821 468.736,4397.842 465.904,4393.175 471.331,4393.765 "/>
<polygon fill="#FFFFFF" points="1803.896,4893.628 1805.012,4898.973 1810.048,4901.085 1805.309,4903.798 1804.857,4909.24 
	1800.813,4905.57 1795.496,4906.821 1797.736,4901.842 1794.904,4897.175 1800.331,4897.765 "/>
<g>
	<circle fill="#FCFFC2" cx="136.943" cy="4981.428" r="10.737"/>
	<circle fill="none" stroke="#FCFFC2" stroke-miterlimit="10" cx="136.882" cy="4981.428" r="22.783"/>
</g>
<g>
	<polygon fill="#F9CE62" points="1805.511,3011.28 1797.746,2999.092 1783.304,2998.576 1792.496,2987.425 1788.523,2973.53 
		1801.969,2978.828 1813.957,2970.756 1813.072,2985.18 1824.454,2994.085 1810.463,2997.703 	"/>
	<polygon fill="#F9CE62" points="1822.479,2979.898 1813.681,2991.362 1818.135,3005.11 1804.514,3000.286 1792.815,3008.771 
		1793.195,2994.324 1781.51,2985.822 1795.366,2981.719 1799.842,2967.977 1808.027,2979.886 	"/>
</g>
<g>
	<polygon fill="#F9CE62" points="834.511,4729.28 826.746,4717.092 812.304,4716.576 821.496,4705.425 817.523,4691.53 
		830.969,4696.828 842.957,4688.756 842.072,4703.18 853.454,4712.085 839.463,4715.703 	"/>
	<polygon fill="#F9CE62" points="851.479,4697.898 842.681,4709.362 847.135,4723.11 833.514,4718.286 821.815,4726.771 
		822.195,4712.324 810.51,4703.822 824.366,4699.719 828.842,4685.977 837.027,4697.886 	"/>
</g>
<g>
	<polygon fill="#F9CE62" points="186.464,316.691 178.7,304.502 164.257,303.987 173.45,292.836 169.477,278.941 182.922,284.239 
		194.91,276.167 194.025,290.59 205.407,299.496 191.417,303.114 	"/>
	<polygon fill="#F9CE62" points="203.432,285.31 194.635,296.773 199.088,310.521 185.468,305.697 173.769,314.182 174.149,299.735 
		162.463,291.233 176.32,287.129 180.796,273.388 188.98,285.297 	"/>
</g>
<g>
	<polygon fill="#F9CE62" points="1809.856,109.577 1802.093,97.388 1787.649,96.873 1796.843,85.722 1792.869,71.827 
		1806.314,77.125 1818.303,69.052 1817.418,83.476 1828.8,92.382 1814.81,96 	"/>
	<polygon fill="#F9CE62" points="1826.825,78.195 1818.027,89.659 1822.48,103.407 1808.86,98.582 1797.161,107.067 
		1797.542,92.621 1785.855,84.119 1799.713,80.015 1804.188,66.273 1812.373,78.182 	"/>
</g>
<g>
	<circle fill="#FCFFC2" cx="187.943" cy="4186.428" r="10.737"/>
	<circle fill="none" stroke="#FCFFC2" stroke-miterlimit="10" cx="187.882" cy="4186.428" r="22.783"/>
</g>
<g>
	<circle fill="#FCFFC2" cx="323.943" cy="1908.428" r="10.737"/>
	<circle fill="none" stroke="#FCFFC2" stroke-miterlimit="10" cx="323.882" cy="1908.428" r="22.783"/>
</g>
<g>
	<circle fill="#FCFFC2" cx="1816.943" cy="1460.428" r="10.737"/>
	<circle fill="none" stroke="#FCFFC2" stroke-miterlimit="10" cx="1816.882" cy="1460.428" r="22.783"/>
</g>
<g>
	<circle fill="#FCFFC2" cx="104.943" cy="1297.428" r="10.737"/>
	<circle fill="none" stroke="#FCFFC2" stroke-miterlimit="10" cx="104.882" cy="1297.428" r="22.783"/>
</g>
<path fill="#FFFFFF" d="M1850,2645.667c0,0,1.351,29.807,5.772,34.228s34.228,5.772,34.228,5.772s-30.826,2.372-34.228,5.772
	s-5.772,34.228-5.772,34.228s-0.603-29.057-5.772-34.228s-34.228-5.772-34.228-5.772s29.67-1.214,34.228-5.772
	S1850,2645.667,1850,2645.667z"/>
<polygon fill="#FFFFFF" points="1844.896,4169.628 1846.012,4174.973 1851.048,4177.085 1846.309,4179.798 1845.857,4185.24 
	1841.813,4181.57 1836.496,4182.821 1838.736,4177.842 1835.904,4173.175 1841.331,4173.765 "/>
<polygon fill="#FFFFFF" points="1794.896,4375.628 1796.012,4380.973 1801.048,4383.085 1796.309,4385.798 1795.857,4391.24 
	1791.813,4387.57 1786.496,4388.821 1788.736,4383.842 1785.904,4379.175 1791.331,4379.765 "/>
<path fill="#FFFFFF" d="M499,4899.667c0,0,1.351,29.807,5.772,34.228s34.228,5.772,34.228,5.772s-30.826,2.372-34.228,5.772
	S499,4979.667,499,4979.667s-0.603-29.057-5.772-34.228S459,4939.667,459,4939.667s29.67-1.214,34.228-5.772
	S499,4899.667,499,4899.667z"/>
<path fill="#FFFFFF" d="M319,4679.667c0,0,1.351,29.807,5.772,34.228s34.228,5.772,34.228,5.772s-30.826,2.372-34.228,5.772
	S319,4759.667,319,4759.667s-0.603-29.057-5.772-34.228S279,4719.667,279,4719.667s29.67-1.214,34.228-5.772
	S319,4679.667,319,4679.667z"/>
<path fill="#FFFFFF" d="M1783,3842.667c0,0,1.351,29.807,5.772,34.228s34.228,5.772,34.228,5.772s-30.826,2.372-34.228,5.772
	s-5.772,34.228-5.772,34.228s-0.603-29.057-5.772-34.228s-34.228-5.772-34.228-5.772s29.67-1.214,34.228-5.772
	S1783,3842.667,1783,3842.667z"/>
<polygon fill="#FFFFFF" points="339.896,186.628 341.012,191.973 346.048,194.085 341.309,196.798 340.857,202.24 336.813,198.57 
	331.496,199.821 333.736,194.842 330.904,190.175 336.331,190.765 "/>
<polygon fill="#FFFFFF" points="1855.896,828.628 1857.012,833.973 1862.048,836.085 1857.309,838.798 1856.857,844.24 
	1852.813,840.57 1847.496,841.821 1849.736,836.842 1846.904,832.175 1852.331,832.765 "/>
<polygon fill="#FFFFFF" points="1674.896,777.628 1676.012,782.973 1681.048,785.085 1676.309,787.798 1675.857,793.24 
	1671.813,789.57 1666.496,790.821 1668.736,785.842 1665.904,781.175 1671.331,781.765 "/>
<polygon fill="#FFFFFF" points="1207.896,99.628 1209.012,104.973 1214.048,107.085 1209.309,109.798 1208.857,115.24 
	1204.813,111.57 1199.496,112.821 1201.736,107.842 1198.904,103.175 1204.331,103.765 "/>
<polygon fill="#FFFFFF" points="266.896,2513.628 268.012,2518.973 273.048,2521.085 268.309,2523.798 267.857,2529.24 
	263.813,2525.57 258.496,2526.821 260.736,2521.842 257.904,2517.175 263.331,2517.765 "/>
<polygon fill="#FFFFFF" points="1610.896,2269.628 1612.012,2274.973 1617.048,2277.085 1612.309,2279.798 1611.857,2285.24 
	1607.813,2281.57 1602.496,2282.821 1604.736,2277.842 1601.904,2273.175 1607.331,2273.765 "/>
<path fill="#FFFFFF" d="M1803,2123.667c0,0,1.351,29.807,5.772,34.228s34.228,5.772,34.228,5.772s-30.826,2.372-34.228,5.772
	s-5.772,34.228-5.772,34.228s-0.603-29.057-5.772-34.228s-34.228-5.772-34.228-5.772s29.67-1.214,34.228-5.772
	S1803,2123.667,1803,2123.667z"/>
<path fill="#FFFFFF" d="M123,2234.667c0,0,1.351,29.807,5.772,34.228s34.228,5.772,34.228,5.772s-30.826,2.372-34.228,5.772
	S123,2314.667,123,2314.667s-0.603-29.057-5.772-34.228S83,2274.667,83,2274.667s29.67-1.214,34.228-5.772
	S123,2234.667,123,2234.667z"/>
<path fill="#FFFFFF" d="M1543,4963.667c0,0,1.351,29.807,5.772,34.228s34.228,5.772,34.228,5.772s-30.826,2.372-34.228,5.772
	s-5.772,34.228-5.772,34.228s-0.603-29.057-5.772-34.228s-34.228-5.772-34.228-5.772s29.67-1.214,34.228-5.772
	S1543,4963.667,1543,4963.667z"/>
<path fill="#FFFFFF" d="M156,668.667c0,0,1.351,29.807,5.772,34.228S196,708.667,196,708.667s-30.826,2.372-34.228,5.772
	S156,748.667,156,748.667s-0.603-29.057-5.772-34.228S116,708.667,116,708.667s29.67-1.214,34.228-5.772S156,668.667,156,668.667z"
	/>
<path fill="#FFFFFF" d="M1835,530.667c0,0,1.351,29.807,5.772,34.228s34.228,5.772,34.228,5.772s-30.826,2.372-34.228,5.772
	S1835,610.667,1835,610.667s-0.603-29.057-5.772-34.228S1795,570.667,1795,570.667s29.67-1.214,34.228-5.772
	S1835,530.667,1835,530.667z"/>
<polygon fill="#FFFFFF" points="1436.896,2861.628 1438.012,2866.973 1443.048,2869.085 1438.309,2871.798 1437.857,2877.24 
	1433.813,2873.57 1428.496,2874.821 1430.736,2869.842 1427.904,2865.175 1433.331,2865.765 "/>
<path fill="#FFFFFF" d="M1564,2996.667c0,0,1.351,29.807,5.772,34.228s34.228,5.772,34.228,5.772s-30.826,2.372-34.228,5.772
	s-5.772,34.228-5.772,34.228s-0.603-29.057-5.772-34.228s-34.228-5.772-34.228-5.772s29.67-1.214,34.228-5.772
	S1564,2996.667,1564,2996.667z"/>
<path fill="#FFFFFF" d="M1782,1198.667c0,0,1.351,29.807,5.772,34.228s34.228,5.772,34.228,5.772s-30.826,2.372-34.228,5.772
	s-5.772,34.228-5.772,34.228s-0.603-29.057-5.772-34.228s-34.228-5.772-34.228-5.772s29.67-1.214,34.228-5.772
	S1782,1198.667,1782,1198.667z"/>
<polygon fill="#FFFFFF" points="979.896,4725.628 981.012,4730.973 986.048,4733.085 981.309,4735.798 980.857,4741.24 
	976.813,4737.57 971.496,4738.821 973.736,4733.842 970.904,4729.175 976.331,4729.765 "/>
<polygon fill="#FFFFFF" points="187.388,723.12 189.332,734.762 200.974,736.704 189.332,738.648 187.388,750.29 185.446,738.648 
	173.804,736.704 185.446,734.762 "/>
<polygon fill="#FFFFFF" points="163.389,3127.12 165.332,3138.762 176.975,3140.704 165.332,3142.648 163.389,3154.29 
	161.445,3142.648 149.805,3140.704 161.445,3138.762 "/>
<polygon fill="#FFFFFF" points="148.389,4031.12 150.332,4042.762 161.975,4044.704 150.332,4046.648 148.389,4058.29 
	146.445,4046.648 134.805,4044.704 146.445,4042.762 "/>
<polygon fill="#FFFFFF" points="1846.896,3500.628 1848.012,3505.973 1853.048,3508.085 1848.309,3510.798 1847.857,3516.24 
	1843.813,3512.57 1838.496,3513.821 1840.736,3508.842 1837.904,3504.175 1843.331,3504.765 "/>
<polygon fill="#FFFFFF" points="1726.896,2411.628 1728.012,2416.973 1733.048,2419.085 1728.309,2421.798 1727.857,2427.24 
	1723.813,2423.57 1718.496,2424.821 1720.736,2419.842 1717.904,2415.175 1723.331,2415.765 "/>
<polygon fill="#FFFFFF" points="1842.896,2344.628 1844.012,2349.973 1849.048,2352.085 1844.309,2354.798 1843.857,2360.24 
	1839.813,2356.57 1834.496,2357.821 1836.736,2352.842 1833.904,2348.175 1839.331,2348.765 "/>
<polygon fill="#FFFFFF" points="1502.896,3341.628 1504.012,3346.973 1509.048,3349.085 1504.309,3351.798 1503.857,3357.24 
	1499.813,3353.57 1494.496,3354.821 1496.736,3349.842 1493.904,3345.175 1499.331,3345.765 "/>
<polygon fill="#FFFFFF" points="1609.896,1875.628 1611.012,1880.973 1616.048,1883.085 1611.309,1885.798 1610.857,1891.24 
	1606.813,1887.57 1601.496,1888.821 1603.736,1883.842 1600.904,1879.175 1606.331,1879.765 "/>
<polygon fill="#FFFFFF" points="175.896,1944.628 177.012,1949.973 182.048,1952.085 177.309,1954.798 176.857,1960.24 
	172.813,1956.57 167.496,1957.821 169.736,1952.842 166.904,1948.175 172.331,1948.765 "/>
<polygon fill="#FFFFFF" points="1683.389,1994.12 1685.332,2005.762 1696.975,2007.704 1685.332,2009.648 1683.389,2021.29 
	1681.445,2009.648 1669.805,2007.704 1681.445,2005.762 "/>
<polygon fill="#FFFFFF" points="76.896,3062.628 78.012,3067.973 83.048,3070.085 78.309,3072.798 77.857,3078.24 73.813,3074.57 
	68.496,3075.821 70.736,3070.842 67.904,3066.175 73.331,3066.765 "/>
<polygon fill="#FFFFFF" points="1860.896,4751.628 1862.012,4756.973 1867.048,4759.085 1862.309,4761.798 1861.857,4767.24 
	1857.813,4763.57 1852.496,4764.821 1854.736,4759.842 1851.904,4755.175 1857.331,4755.765 "/>
<polygon fill="#FFFFFF" points="1566.896,3511.628 1568.012,3516.973 1573.048,3519.085 1568.309,3521.798 1567.857,3527.24 
	1563.813,3523.57 1558.496,3524.821 1560.736,3519.842 1557.904,3515.175 1563.331,3515.765 "/>
<polygon fill="#FFFFFF" points="127.896,1549.628 129.012,1554.973 134.048,1557.085 129.309,1559.798 128.857,1565.24 
	124.813,1561.57 119.496,1562.821 121.736,1557.842 118.904,1553.175 124.331,1553.765 "/>
<polygon fill="#FFFFFF" points="204.896,2774.628 206.012,2779.973 211.048,2782.085 206.309,2784.798 205.857,2790.24 
	201.813,2786.57 196.496,2787.821 198.736,2782.842 195.904,2778.175 201.331,2778.765 "/>
<g>
	<circle fill="#FCFFC2" cx="796.943" cy="4965.428" r="10.737"/>
	<circle fill="none" stroke="#FCFFC2" stroke-miterlimit="10" cx="796.882" cy="4965.428" r="22.783"/>
</g>
<polygon fill="#FFFFFF" points="312.389,2944.12 314.332,2955.762 325.975,2957.704 314.332,2959.648 312.389,2971.29 
	310.445,2959.648 298.805,2957.704 310.445,2955.762 "/>
<polygon fill="#FFFFFF" points="535.896,4643.628 537.012,4648.973 542.048,4651.085 537.309,4653.798 536.857,4659.24 
	532.813,4655.57 527.496,4656.821 529.736,4651.842 526.904,4647.175 532.331,4647.765 "/>
<polygon fill="#FFFFFF" points="143.896,3501.628 145.012,3506.973 150.048,3509.085 145.309,3511.798 144.857,3517.24 
	140.813,3513.57 135.496,3514.821 137.736,3509.842 134.904,3505.175 140.331,3505.765 "/>
<polygon fill="#FFFFFF" points="204.896,3755.628 206.012,3760.973 211.048,3763.085 206.309,3765.798 205.857,3771.24 
	201.813,3767.57 196.496,3768.821 198.736,3763.842 195.904,3759.175 201.331,3759.765 "/>
<polygon fill="#FFFFFF" points="1657.896,4549.628 1659.012,4554.973 1664.048,4557.085 1659.309,4559.798 1658.857,4565.24 
	1654.813,4561.57 1649.496,4562.821 1651.736,4557.842 1648.904,4553.175 1654.331,4553.765 "/>
<polygon fill="#FFFFFF" points="1515.896,4500.628 1517.012,4505.973 1522.048,4508.085 1517.309,4510.798 1516.857,4516.24 
	1512.813,4512.57 1507.496,4513.821 1509.736,4508.842 1506.904,4504.175 1512.331,4504.765 "/>
<polygon fill="#FFFFFF" points="1287.896,5036.628 1289.012,5041.973 1294.048,5044.085 1289.309,5046.798 1288.857,5052.24 
	1284.813,5048.57 1279.496,5049.821 1281.736,5044.842 1278.904,5040.175 1284.331,5040.765 "/>
<polygon fill="#FFFFFF" points="1114.896,4909.628 1116.012,4914.973 1121.048,4917.085 1116.309,4919.798 1115.857,4925.24 
	1111.813,4921.57 1106.496,4922.821 1108.736,4917.842 1105.904,4913.175 1111.331,4913.765 "/>
<polygon fill="#FFFFFF" points="1317.896,4457.628 1319.012,4462.973 1324.048,4465.085 1319.309,4467.798 1318.857,4473.24 
	1314.813,4469.57 1309.496,4470.821 1311.736,4465.842 1308.904,4461.175 1314.331,4461.765 "/>
<polygon fill="#FFFFFF" points="1438.896,4934.628 1440.012,4939.973 1445.048,4942.085 1440.309,4944.798 1439.857,4950.24 
	1435.813,4946.57 1430.496,4947.821 1432.736,4942.842 1429.904,4938.175 1435.331,4938.765 "/>
<polygon fill="#FFFFFF" points="1235.896,4732.628 1237.012,4737.973 1242.048,4740.085 1237.309,4742.798 1236.857,4748.24 
	1232.813,4744.57 1227.496,4745.821 1229.736,4740.842 1226.904,4736.175 1232.331,4736.765 "/>
<polygon fill="#FFFFFF" points="1136.896,4640.628 1138.012,4645.973 1143.048,4648.085 1138.309,4650.798 1137.857,4656.24 
	1133.813,4652.57 1128.496,4653.821 1130.736,4648.842 1127.904,4644.175 1133.331,4644.765 "/>
<polygon fill="#FFFFFF" points="267.389,4226.12 269.332,4237.762 280.975,4239.704 269.332,4241.648 267.389,4253.29 
	265.445,4241.648 253.805,4239.704 265.445,4237.762 "/>
<polygon fill="#FFFFFF" points="315.896,3900.628 317.012,3905.973 322.048,3908.085 317.309,3910.798 316.857,3916.24 
	312.813,3912.57 307.496,3913.821 309.736,3908.842 306.904,3904.175 312.331,3904.765 "/>
<g>
	<circle fill="#FCFFC2" cx="265.943" cy="3653.428" r="10.737"/>
	<circle fill="none" stroke="#FCFFC2" stroke-miterlimit="10" cx="265.882" cy="3653.428" r="22.783"/>
</g>
<polygon fill="#FFFFFF" points="345.389,3693.12 347.332,3704.762 358.975,3706.704 347.332,3708.648 345.389,3720.29 
	343.445,3708.648 331.805,3706.704 343.445,3704.762 "/>
<polygon fill="#FFFFFF" points="1770.896,3190.628 1772.012,3195.973 1777.048,3198.085 1772.309,3200.798 1771.857,3206.24 
	1767.813,3202.57 1762.496,3203.821 1764.736,3198.842 1761.904,3194.175 1767.331,3194.765 "/>
<polygon fill="#FFFFFF" points="1491.389,4667.12 1493.332,4678.762 1504.975,4680.704 1493.332,4682.648 1491.389,4694.29 
	1489.445,4682.648 1477.805,4680.704 1489.445,4678.762 "/>
<polygon fill="#FFFFFF" points="1141.389,4366.12 1143.332,4377.762 1154.975,4379.704 1143.332,4381.648 1141.389,4393.29 
	1139.445,4381.648 1127.805,4379.704 1139.445,4377.762 "/>
<polygon fill="#FFFFFF" points="1725.389,4274.12 1727.332,4285.762 1738.975,4287.704 1727.332,4289.648 1725.389,4301.29 
	1723.445,4289.648 1711.805,4287.704 1723.445,4285.762 "/>
<polygon fill="#FFFFFF" points="1872.896,3820.628 1874.012,3825.973 1879.048,3828.085 1874.309,3830.798 1873.857,3836.24 
	1869.813,3832.57 1864.496,3833.821 1866.736,3828.842 1863.904,3824.175 1869.331,3824.765 "/>
<polygon fill="#FFFFFF" points="1803.896,3638.628 1805.012,3643.973 1810.048,3646.085 1805.309,3648.798 1804.857,3654.24 
	1800.813,3650.57 1795.496,3651.821 1797.736,3646.842 1794.904,3642.175 1800.331,3642.765 "/>
<polygon fill="#FFFFFF" points="1666.896,3812.628 1668.012,3817.973 1673.048,3820.085 1668.309,3822.798 1667.857,3828.24 
	1663.813,3824.57 1658.496,3825.821 1660.736,3820.842 1657.904,3816.175 1663.331,3816.765 "/>
<polygon fill="#FFFFFF" points="1734.389,3537.12 1736.332,3548.762 1747.975,3550.704 1736.332,3552.648 1734.389,3564.29 
	1732.445,3552.648 1720.805,3550.704 1732.445,3548.762 "/>
</svg>
