<?xml version="1.0" encoding="utf-8"?>
<!-- Generator: Adobe Illustrator 16.0.0, SVG Export Plug-In . SVG Version: 6.00 Build 0)  -->
<!DOCTYPE svg PUBLIC "-//W3C//DTD SVG 1.1//EN" "http://www.w3.org/Graphics/SVG/1.1/DTD/svg11.dtd">
<svg version="1.1" id="Layer_1" xmlns="http://www.w3.org/2000/svg" xmlns:xlink="http://www.w3.org/1999/xlink" x="0px" y="0px"
	 width="1920px" height="1560px" viewBox="0 0 1920 1560" enable-background="new 0 0 1920 1560" xml:space="preserve">
<rect fill="#0D1B3D" width="1920" height="1560"/>
<g>
	<path fill="#FFFFFF" d="M504.168,1337.643l171.625-115.791l-177.662,82.623l63.681-38.422l-195.929,99.923l0.012,0.022
		c-12.06,6.973-17.614,23.784-10.438,36.715c7.177,12.935,24.494,17.051,36.241,10.811l15.667-10.57l172.75-103.919
		L504.168,1337.643z"/>
	<path fill="#97C1FF" d="M575.155,1280.231c0,0-162.667,117.985-177.719,126.338c-15.057,8.356-32.532,5.638-39.029-6.068
		c-6.496-11.708,0.445-27.974,15.505-36.328C388.964,1355.82,575.155,1280.231,575.155,1280.231z"/>
	<path fill="#3BF4F4" d="M400.806,1376.975c6.498,11.708,2.271,26.465-9.433,32.96c-11.71,6.498-26.469,2.272-32.966-9.434
		c-6.496-11.708-2.27-26.466,9.439-32.963C379.552,1361.042,394.31,1365.267,400.806,1376.975z"/>
</g>
<g>
	<linearGradient id="SVGID_1_" gradientUnits="userSpaceOnUse" x1="1618.5488" y1="386.4014" x2="1618.5488" y2="260.4575">
		<stop  offset="0" style="stop-color:#15FFE1"/>
		<stop  offset="0.7685" style="stop-color:#A5FF7F"/>
	</linearGradient>
	<circle fill="url(#SVGID_1_)" cx="1618.549" cy="323.428" r="62.972"/>
	<polygon fill="#FFFFFF" points="1712.847,337.276 1714.822,349.119 1726.664,351.093 1714.822,353.07 1712.847,364.912 
		1710.869,353.07 1699.026,351.093 1710.869,349.119 	"/>
	<polygon fill="#FFFFFF" points="1516.742,300.96 1518.719,312.803 1530.559,314.778 1518.719,316.754 1516.742,328.597 
		1514.766,316.754 1502.923,314.778 1514.766,312.803 	"/>
	<circle fill="#FFFFFF" cx="1615.598" cy="236.094" r="6.053"/>
	<circle fill="#FFFFFF" cx="1549.827" cy="276.847" r="3.229"/>
	<circle fill="#FFFFFF" cx="1671.08" cy="231.051" r="3.43"/>
	<path fill="#FFFFFF" d="M1749.562,352.103c0,1.894-1.535,3.428-3.431,3.428c-1.891,0-3.428-1.534-3.428-3.428
		c0-1.896,1.537-3.431,3.428-3.431C1748.026,348.672,1749.562,350.207,1749.562,352.103z"/>
	<path fill="#FFFFFF" d="M1679.352,395.682c0,1.893-1.535,3.428-3.432,3.428c-1.891,0-3.428-1.535-3.428-3.428
		c0-1.896,1.537-3.431,3.428-3.431C1677.816,392.251,1679.352,393.785,1679.352,395.682z"/>
	<path fill="#FFFFFF" d="M1592.193,412.629c0,1.894-1.533,3.428-3.43,3.428c-1.892,0-3.429-1.535-3.429-3.428
		c0-1.896,1.537-3.431,3.429-3.431C1590.66,409.198,1592.193,410.732,1592.193,412.629z"/>
	<circle fill="#FFFFFF" cx="1685.605" cy="274.629" r="3.43"/>
	<circle fill="#FFFFFF" cx="1522.186" cy="244.366" r="2.219"/>
	<path fill="#FFFFFF" d="M1560.72,378.734c0,1.893-1.534,3.428-3.431,3.428c-1.891,0-3.428-1.535-3.428-3.428
		c0-1.896,1.537-3.431,3.428-3.431C1559.186,375.304,1560.72,376.838,1560.72,378.734z"/>
</g>
<g>
	<linearGradient id="SVGID_2_" gradientUnits="userSpaceOnUse" x1="1069.209" y1="693" x2="1069.209" y2="623.9067">
		<stop  offset="0" style="stop-color:#C0C4FF"/>
		<stop  offset="0.7685" style="stop-color:#FFD966"/>
	</linearGradient>
	<circle fill="url(#SVGID_2_)" stroke="#FFCA55" stroke-miterlimit="10" cx="1069.208" cy="658.453" r="34.546"/>
	<g>
		<path fill="none" d="M992.353,671.96c1.577,0.375,4.679,1.04,10.601,1.04c0.002,0,0.003,0,0.003,0
			c8.448,0,19.909-0.865,32.989-2.489c-1.347-3.66-2.123-7.59-2.184-11.703C1011.128,664.054,996.709,669.054,992.353,671.96z"/>
		<path fill="none" d="M1104.676,658.517c22.621-5.256,37.034-10.273,41.389-13.179c-1.578-0.374-4.68-0.883-10.602-0.883
			c-8.39,0-19.75,0.874-32.717,2.424c1.236,3.605,1.938,7.457,1.938,11.479C1104.684,658.411,1104.676,658.464,1104.676,658.517z"/>
		<path fill="#B9A3E8" d="M1152.563,644.032c-0.633-3.662-5.428-5.069-17.1-5.069c-8.934,0-21.124,0.936-35,2.615
			c0.907,1.686,1.656,3.465,2.283,5.3c12.967-1.55,24.327-2.424,32.717-2.424c5.922,0,9.023,0.509,10.602,0.883
			c-4.354,2.906-18.768,7.923-41.389,13.179c-9.915,2.304-21.398,4.653-34.316,6.891c-12.061,2.09-23.771,3.781-34.414,5.104
			c-13.08,1.624-24.541,2.489-32.989,2.489c0,0-0.001,0-0.003,0c-5.922,0-9.023-0.665-10.601-1.04
			c4.356-2.906,18.775-7.866,41.409-13.112c-0.004-0.179-0.027-0.332-0.027-0.511c0-1.786,0.175-3.518,0.429-5.233
			c-8.831,2.024-16.933,4.119-23.909,6.175c-23.514,6.931-24.925,11.094-24.4,14.123c0.635,3.66,5.429,5.598,17.1,5.598
			c0.002,0,0.002,0,0.003,0c9.013,0,21.344-1.237,35.375-3.021c10.279-1.308,21.469-3.106,32.958-5.097
			c11.57-2.004,22.718-4.362,32.892-6.753c8.86-2.083,16.985-4.251,23.981-6.314C1151.68,650.882,1153.088,647.058,1152.563,644.032
			z"/>
	</g>
</g>
<g>
	<g>
		<polygon fill="#E86262" points="1314.491,390.941 1321.35,425.522 1355.93,432.378 1321.35,439.236 1314.491,473.817 
			1307.636,439.236 1273.055,432.378 1307.636,425.522 		"/>
		<polygon fill="#E86262" points="1293.555,469.088 1304.904,435.712 1278.388,412.483 1311.763,423.835 1334.992,397.316 
			1323.642,430.692 1350.159,453.922 1316.782,442.57 		"/>
		<polygon fill="#E86262" points="1350.759,411.881 1324.243,435.108 1335.593,468.485 1312.362,441.967 1278.987,453.318 
			1305.506,430.089 1294.155,396.714 1317.384,423.231 		"/>
	</g>
	<circle fill="#FF8ABF" cx="1314.718" cy="431.778" r="9.759"/>
</g>
<polygon fill="#FFFFFF" points="1250.896,893.628 1252.012,898.973 1257.048,901.085 1252.309,903.798 1251.857,909.24 
	1247.813,905.57 1242.496,906.821 1244.736,901.842 1241.904,897.175 1247.331,897.765 "/>
<polygon fill="#FFFFFF" points="1333.896,598.628 1335.012,603.973 1340.048,606.085 1335.309,608.798 1334.857,614.24 
	1330.813,610.57 1325.496,611.821 1327.736,606.842 1324.904,602.175 1330.331,602.765 "/>
<polygon fill="#FFFFFF" points="1087.896,827.628 1089.012,832.973 1094.048,835.085 1089.309,837.798 1088.857,843.24 
	1084.813,839.57 1079.496,840.821 1081.736,835.842 1078.904,831.175 1084.331,831.765 "/>
<polygon fill="#FFFFFF" points="1121.896,1100.628 1123.012,1105.973 1128.048,1108.085 1123.309,1110.798 1122.857,1116.24 
	1118.813,1112.57 1113.496,1113.821 1115.736,1108.842 1112.904,1104.175 1118.331,1104.765 "/>
<polygon fill="#FFFFFF" points="892.896,511.628 894.012,516.973 899.048,519.085 894.309,521.798 893.857,527.24 889.813,523.57 
	884.496,524.821 886.736,519.842 883.904,515.175 889.331,515.765 "/>
<polygon fill="#FFFFFF" points="757.896,905.628 759.012,910.973 764.048,913.085 759.309,915.798 758.857,921.24 754.813,917.57 
	749.496,918.821 751.736,913.842 748.904,909.175 754.331,909.765 "/>
<polygon fill="#FFFFFF" points="940.896,1049.628 942.012,1054.973 947.048,1057.085 942.309,1059.798 941.857,1065.24 
	937.813,1061.57 932.496,1062.821 934.736,1057.842 931.904,1053.175 937.331,1053.765 "/>
<polygon fill="#FFFFFF" points="875.896,1268.628 877.012,1273.973 882.048,1276.085 877.309,1278.798 876.857,1284.24 
	872.813,1280.57 867.496,1281.821 869.736,1276.842 866.904,1272.175 872.331,1272.765 "/>
<polygon fill="#FFFFFF" points="1033.896,1444.628 1035.012,1449.973 1040.048,1452.085 1035.309,1454.798 1034.857,1460.24 
	1030.813,1456.57 1025.496,1457.821 1027.736,1452.842 1024.904,1448.175 1030.331,1448.765 "/>
<polygon fill="#FFFFFF" points="941.896,77.628 943.012,82.973 948.048,85.085 943.309,87.798 942.857,93.24 938.813,89.57 
	933.496,90.821 935.736,85.842 932.904,81.175 938.331,81.765 "/>
<polygon fill="#FFFFFF" points="1723.896,727.628 1725.012,732.973 1730.048,735.085 1725.309,737.798 1724.857,743.24 
	1720.813,739.57 1715.496,740.821 1717.736,735.842 1714.904,731.175 1720.331,731.765 "/>
<polygon fill="#FFFFFF" points="1561.896,137.628 1563.012,142.973 1568.048,145.085 1563.309,147.798 1562.857,153.24 
	1558.813,149.57 1553.496,150.821 1555.736,145.842 1552.904,141.175 1558.331,141.765 "/>
<polygon fill="#FFFFFF" points="1113.896,493.628 1115.012,498.973 1120.048,501.085 1115.309,503.798 1114.857,509.24 
	1110.813,505.57 1105.496,506.821 1107.736,501.842 1104.904,497.175 1110.331,497.765 "/>
<polygon fill="#FFFFFF" points="261.896,917.628 263.012,922.973 268.048,925.085 263.309,927.798 262.857,933.24 258.813,929.57 
	253.496,930.821 255.736,925.842 252.904,921.175 258.331,921.765 "/>
<polygon fill="#FFFFFF" points="453.896,1135.628 455.012,1140.973 460.048,1143.085 455.309,1145.798 454.857,1151.24 
	450.813,1147.57 445.496,1148.821 447.736,1143.842 444.904,1139.175 450.331,1139.765 "/>
<polygon fill="#FFFFFF" points="669.896,1160.628 671.012,1165.973 676.048,1168.085 671.309,1170.798 670.857,1176.24 
	666.813,1172.57 661.496,1173.821 663.736,1168.842 660.904,1164.175 666.331,1164.765 "/>
<polygon fill="#FFFFFF" points="225.896,1401.628 227.012,1406.973 232.048,1409.085 227.309,1411.798 226.857,1417.24 
	222.813,1413.57 217.496,1414.821 219.736,1409.842 216.904,1405.175 222.331,1405.765 "/>
<polygon fill="#FFFFFF" points="595.896,1395.628 597.012,1400.973 602.048,1403.085 597.309,1405.798 596.857,1411.24 
	592.813,1407.57 587.496,1408.821 589.736,1403.842 586.904,1399.175 592.331,1399.765 "/>
<polygon fill="#FFFFFF" points="1721.896,1351.628 1723.012,1356.973 1728.048,1359.085 1723.309,1361.798 1722.857,1367.24 
	1718.813,1363.57 1713.496,1364.821 1715.736,1359.842 1712.904,1355.175 1718.331,1355.765 "/>
<polygon fill="#FFFFFF" points="1762.896,1046.628 1764.012,1051.973 1769.048,1054.085 1764.309,1056.798 1763.857,1062.24 
	1759.813,1058.57 1754.496,1059.821 1756.736,1054.842 1753.904,1050.175 1759.331,1050.765 "/>
<polygon fill="#FFFFFF" points="738.896,164.628 740.012,169.973 745.048,172.085 740.309,174.798 739.857,180.24 735.813,176.57 
	730.496,177.821 732.736,172.842 729.904,168.175 735.331,168.765 "/>
<polygon fill="#FFFFFF" points="158.896,105.628 160.012,110.973 165.048,113.085 160.309,115.798 159.857,121.24 155.813,117.57 
	150.496,118.821 152.736,113.842 149.904,109.175 155.331,109.765 "/>
<polygon fill="#FFFFFF" points="130.896,485.628 132.012,490.973 137.048,493.085 132.309,495.798 131.857,501.24 127.813,497.57 
	122.496,498.821 124.736,493.842 121.904,489.175 127.331,489.765 "/>
<polygon fill="#FFFFFF" points="117.896,1094.628 119.012,1099.973 124.048,1102.085 119.309,1104.798 118.857,1110.24 
	114.813,1106.57 109.496,1107.821 111.736,1102.842 108.904,1098.175 114.331,1098.765 "/>
<polygon fill="#FFFFFF" points="1316.896,78.628 1318.012,83.973 1323.048,86.085 1318.309,88.798 1317.857,94.24 1313.813,90.57 
	1308.496,91.821 1310.736,86.842 1307.904,82.175 1313.331,82.765 "/>
<polygon fill="#FFFFFF" points="1841.896,237.628 1843.012,242.973 1848.048,245.085 1843.309,247.798 1842.857,253.24 
	1838.813,249.57 1833.496,250.821 1835.736,245.842 1832.904,241.175 1838.331,241.765 "/>
<polygon fill="#FFFFFF" points="1403.896,1330.628 1405.012,1335.973 1410.048,1338.085 1405.309,1340.798 1404.857,1346.24 
	1400.813,1342.57 1395.496,1343.821 1397.736,1338.842 1394.904,1334.175 1400.331,1334.765 "/>
<g>
	<path fill="#FCF797" d="M1534.449,1192.374l160.745-119.041l-167.978,87.282l59.836-39.785l-184.876,104.754l0.013,0.021
		c-11.346,7.241-15.994,23.701-8.518,35.88c7.475,12.181,24.363,15.421,35.438,8.897l14.674-10.865l162.333-107.629
		L1534.449,1192.374z"/>
	<path fill="#FFB594" d="M1600.531,1133.949c0,0-152.004,120.778-166.179,129.478c-14.179,8.704-31.161,6.822-37.929-4.202
		c-6.765-11.025-0.755-27.019,13.425-35.722C1424.023,1214.804,1600.531,1133.949,1600.531,1133.949z"/>
	<path fill="#F25F1D" d="M1436.351,1234.719c6.768,11.025,3.313,25.448-7.707,32.213c-11.028,6.769-25.452,3.317-32.22-7.707
		c-6.765-11.025-3.312-25.448,7.714-32.217C1415.16,1220.243,1429.584,1223.693,1436.351,1234.719z"/>
</g>
<g>
	<circle fill="#FCFFC2" cx="784.943" cy="641.428" r="10.737"/>
	<circle fill="none" stroke="#FCFFC2" stroke-miterlimit="10" cx="784.882" cy="641.428" r="22.783"/>
</g>
<g>
	<polygon fill="#F9CE62" points="801.511,1487.28 793.746,1475.092 779.304,1474.576 788.496,1463.425 784.523,1449.53 
		797.969,1454.828 809.957,1446.756 809.072,1461.18 820.454,1470.085 806.463,1473.703 	"/>
	<polygon fill="#F9CE62" points="818.479,1455.898 809.681,1467.362 814.135,1481.11 800.514,1476.286 788.815,1484.771 
		789.195,1470.324 777.51,1461.822 791.366,1457.719 795.842,1443.977 804.027,1455.886 	"/>
</g>
<g>
	<polygon fill="#F9CE62" points="1443.464,1063.691 1435.7,1051.502 1421.257,1050.987 1430.45,1039.836 1426.477,1025.941 
		1439.922,1031.239 1451.91,1023.167 1451.025,1037.59 1462.407,1046.496 1448.417,1050.114 	"/>
	<polygon fill="#F9CE62" points="1460.432,1032.31 1451.635,1043.773 1456.088,1057.521 1442.468,1052.697 1430.769,1061.182 
		1431.149,1046.735 1419.463,1038.233 1433.32,1034.129 1437.796,1020.388 1445.98,1032.297 	"/>
</g>
<g>
	<polygon fill="#F9CE62" points="1809.856,109.577 1802.093,97.388 1787.649,96.873 1796.843,85.722 1792.869,71.827 
		1806.314,77.125 1818.303,69.052 1817.418,83.476 1828.8,92.382 1814.81,96 	"/>
	<polygon fill="#F9CE62" points="1826.825,78.195 1818.027,89.659 1822.48,103.407 1808.86,98.582 1797.161,107.067 
		1797.542,92.621 1785.855,84.119 1799.713,80.015 1804.188,66.273 1812.373,78.182 	"/>
</g>
<g>
	<g>
		<polygon fill="#E86262" points="1564.743,1369.941 1571.478,1403.898 1605.434,1410.63 1571.478,1417.364 1564.743,1451.32 
			1558.012,1417.364 1524.055,1410.63 1558.012,1403.898 		"/>
		<polygon fill="#E86262" points="1544.185,1446.677 1555.329,1413.904 1529.291,1391.094 1562.063,1402.24 1584.874,1376.2 
			1573.729,1408.975 1599.768,1431.785 1566.993,1420.639 		"/>
		<polygon fill="#E86262" points="1600.355,1390.504 1574.319,1413.312 1585.464,1446.086 1562.652,1420.045 1529.88,1431.192 
			1555.92,1408.383 1544.774,1375.609 1567.584,1401.647 		"/>
	</g>
	<circle fill="#FF8ABF" cx="1564.965" cy="1410.041" r="9.583"/>
</g>
<g>
	<linearGradient id="SVGID_3_" gradientUnits="userSpaceOnUse" x1="1100.8281" y1="1373.0039" x2="1100.8281" y2="1240.1406">
		<stop  offset="0" style="stop-color:#8000E9"/>
		<stop  offset="0.7685" style="stop-color:#15A6FF"/>
	</linearGradient>
	<path fill="url(#SVGID_3_)" stroke="#4255A5" stroke-miterlimit="10" d="M1069.904,1368.016c-0.298,0.091-0.572,0.163-0.865,0.25
		c7.62,3.047,15.927,4.738,24.635,4.738c14.551,0,27.999-4.69,38.943-12.625C1115.702,1356.107,1098.449,1359.188,1069.904,1368.016
		z"/>
	<linearGradient id="SVGID_4_" gradientUnits="userSpaceOnUse" x1="1094.623" y1="1373.0049" x2="1094.623" y2="1240.1349">
		<stop  offset="0" style="stop-color:#8000E9"/>
		<stop  offset="0.7685" style="stop-color:#15A6FF"/>
	</linearGradient>
	<path fill="url(#SVGID_4_)" stroke="#4255A5" stroke-miterlimit="10" d="M1069.904,1339.506
		c-14.625,4.522-24.859,4.766-32.033,3.092c3.77,5.828,8.417,11.034,13.771,15.415c6.923-1.884,15.565-4.513,26.407-8.098
		c28.952-9.578,49.314-4.39,62.654,3.573c4.148-4.158,7.734-8.873,10.67-14.007
		C1126.719,1326.119,1108.779,1327.482,1069.904,1339.506z"/>
	<linearGradient id="SVGID_5_" gradientUnits="userSpaceOnUse" x1="1093.6748" y1="1373.0049" x2="1093.6748" y2="1240.1611">
		<stop  offset="0" style="stop-color:#8000E9"/>
		<stop  offset="0.7685" style="stop-color:#15A6FF"/>
	</linearGradient>
	<path fill="url(#SVGID_5_)" stroke="#4255A5" stroke-miterlimit="10" d="M1159.943,1302.129
		c-15.576,1.466-36.766,1.824-62.888-1.54c-37.684-4.854-58.135-9.66-67.957-9.602c-1.203,5.001-1.856,10.214-1.856,15.583
		c0,9.576,2.041,18.67,5.688,26.895c7.461-0.765,20.771-4.006,45.12-12.06c40.733-13.475,64.466,2.274,75.553,13.862
		c4.169-8.687,6.505-18.419,6.505-28.697C1160.107,1305.076,1160.039,1303.598,1159.943,1302.129z"/>
	<linearGradient id="SVGID_6_" gradientUnits="userSpaceOnUse" x1="1094.9316" y1="1373.0049" x2="1094.9316" y2="1240.1387">
		<stop  offset="0" style="stop-color:#8000E9"/>
		<stop  offset="0.7685" style="stop-color:#15A6FF"/>
	</linearGradient>
	<path fill="url(#SVGID_6_)" stroke="#4255A5" stroke-miterlimit="10" d="M1102.034,1289.275c25.874,3.45,44.22,5.557,57.239,6.798
		c-0.681-4.284-1.762-8.433-3.22-12.401c-7.907,2.813-18.441,3.919-32.3,0.882c-57.526-16.049-50.457-23.579-77.928-24.044
		c-6.822,7.086-12.083,15.678-15.235,25.235C1040.744,1283.902,1061.264,1283.84,1102.034,1289.275z"/>
	<linearGradient id="SVGID_7_" gradientUnits="userSpaceOnUse" x1="1106.5254" y1="1373.002" x2="1106.5254" y2="1240.1373">
		<stop  offset="0" style="stop-color:#8000E9"/>
		<stop  offset="0.7685" style="stop-color:#15A6FF"/>
	</linearGradient>
	<path fill="url(#SVGID_7_)" stroke="#4255A5" stroke-miterlimit="10" d="M1150.252,1271.75
		c-11.697-18.966-32.658-31.612-56.578-31.612c-11.15,0-21.648,2.759-30.875,7.612c14.682,0.111,33.755,4.043,57.787,15.777
		C1132.09,1269.145,1142.037,1271.341,1150.252,1271.75z"/>
	<path fill="#2D407A" stroke="#4255A5" stroke-miterlimit="10" d="M1156.054,1283.672c-1.539-4.189-3.493-8.176-5.802-11.922
		c-8.215-0.409-18.162-2.605-29.666-8.223c-24.032-11.734-43.105-15.666-57.787-15.777c-6.332,3.33-12.053,7.651-16.973,12.76
		c27.471,0.465,20.401,7.995,77.928,24.044C1137.612,1287.591,1148.146,1286.485,1156.054,1283.672z"/>
	<path fill="#2D407A" stroke="#4255A5" stroke-miterlimit="10" d="M1078.05,1321.405c-24.349,8.054-37.659,11.295-45.12,12.06
		c1.412,3.185,3.066,6.234,4.941,9.133c7.174,1.674,17.408,1.431,32.033-3.092c38.875-12.023,56.814-13.387,81.47-0.024
		c0.787-1.378,1.54-2.776,2.229-4.214C1142.516,1323.68,1118.783,1307.931,1078.05,1321.405z"/>
	<path fill="#2D407A" stroke="#4255A5" stroke-miterlimit="10" d="M1078.05,1349.915c-10.842,3.585-19.484,6.214-26.407,8.098
		c5.199,4.252,11.06,7.721,17.396,10.253c0.293-0.087,0.567-0.159,0.865-0.25c28.545-8.828,45.798-11.908,62.713-7.637
		c2.876-2.086,5.586-4.382,8.087-6.891C1127.364,1345.525,1107.002,1340.337,1078.05,1349.915z"/>
	<path fill="#2D407A" stroke="#4255A5" stroke-miterlimit="10" d="M1159.943,1302.129c-0.136-2.046-0.354-4.066-0.67-6.056
		c-13.02-1.241-31.365-3.348-57.239-6.798c-40.771-5.436-61.29-5.373-71.443-3.53c-0.567,1.718-1.065,3.466-1.492,5.242
		c9.822-0.059,30.273,4.747,67.957,9.602C1123.178,1303.953,1144.367,1303.595,1159.943,1302.129z"/>
</g>
<g>
	<circle fill="#FCFFC2" cx="1838.943" cy="578.428" r="10.737"/>
	<circle fill="none" stroke="#FCFFC2" stroke-miterlimit="10" cx="1838.882" cy="578.428" r="22.783"/>
</g>
<g>
	<circle fill="#FCFFC2" cx="1106.943" cy="975.428" r="10.737"/>
	<circle fill="none" stroke="#FCFFC2" stroke-miterlimit="10" cx="1106.882" cy="975.428" r="22.783"/>
</g>
<g>
	<circle fill="#FCFFC2" cx="1816.943" cy="1460.428" r="10.737"/>
	<circle fill="none" stroke="#FCFFC2" stroke-miterlimit="10" cx="1816.882" cy="1460.428" r="22.783"/>
</g>
<g>
	<circle fill="#FCFFC2" cx="104.943" cy="1297.428" r="10.737"/>
	<circle fill="none" stroke="#FCFFC2" stroke-miterlimit="10" cx="104.882" cy="1297.428" r="22.783"/>
</g>
<path fill="#FFFFFF" d="M846,1121.667c0,0,1.351,29.807,5.772,34.228s34.228,5.772,34.228,5.772s-30.826,2.372-34.228,5.772
	S846,1201.667,846,1201.667s-0.603-29.057-5.772-34.228S806,1161.667,806,1161.667s29.67-1.214,34.228-5.772
	S846,1121.667,846,1121.667z"/>
<path fill="#FFFFFF" d="M1330,1431.667c0,0,1.351,29.807,5.772,34.228s34.228,5.772,34.228,5.772s-30.826,2.372-34.228,5.772
	s-5.772,34.228-5.772,34.228s-0.603-29.057-5.772-34.228s-34.228-5.772-34.228-5.772s29.67-1.214,34.228-5.772
	S1330,1431.667,1330,1431.667z"/>
<path fill="#FFFFFF" d="M1827,843.667c0,0,1.351,29.807,5.772,34.228s34.228,5.772,34.228,5.772s-30.826,2.372-34.228,5.772
	S1827,923.667,1827,923.667s-0.603-29.057-5.772-34.228S1787,883.667,1787,883.667s29.67-1.214,34.228-5.772
	S1827,843.667,1827,843.667z"/>
<path fill="#FFFFFF" d="M1782,1198.667c0,0,1.351,29.807,5.772,34.228s34.228,5.772,34.228,5.772s-30.826,2.372-34.228,5.772
	s-5.772,34.228-5.772,34.228s-0.603-29.057-5.772-34.228s-34.228-5.772-34.228-5.772s29.67-1.214,34.228-5.772
	S1782,1198.667,1782,1198.667z"/>
<polygon fill="#FFFFFF" points="1570.896,516.628 1572.012,521.973 1577.048,524.085 1572.309,526.798 1571.857,532.24 
	1567.813,528.57 1562.496,529.821 1564.736,524.842 1561.904,520.175 1567.331,520.765 "/>
<polygon fill="#FFFFFF" points="1285.389,1157.12 1287.332,1168.762 1298.975,1170.704 1287.332,1172.648 1285.389,1184.29 
	1283.445,1172.648 1271.805,1170.704 1283.445,1168.762 "/>
<polygon fill="#FFFFFF" points="1799.389,423.12 1801.332,434.762 1812.975,436.704 1801.332,438.648 1799.389,450.29 
	1797.445,438.648 1785.805,436.704 1797.445,434.762 "/>
</svg>
