<?xml version="1.0" encoding="utf-8"?>
<!-- Generator: Adobe Illustrator 16.0.0, SVG Export Plug-In . SVG Version: 6.00 Build 0)  -->
<!DOCTYPE svg PUBLIC "-//W3C//DTD SVG 1.1//EN" "http://www.w3.org/Graphics/SVG/1.1/DTD/svg11.dtd">
<svg version="1.1" id="Layer_1" xmlns="http://www.w3.org/2000/svg" xmlns:xlink="http://www.w3.org/1999/xlink" x="0px" y="0px"
	 width="1920px" height="2582.998px" viewBox="0 0 1920 2582.998" enable-background="new 0 0 1920 2582.998" xml:space="preserve">
<rect fill="#2D4E7F" width="1920" height="2586"/>
<g>
	<path fill="#FCF797" d="M264.021,295.869l171.826-89.105l-173.87,57.652l63.268-28.844L132.55,307.331l0.009,0.022
		c-11.949,5.181-18.912,20.195-13.637,32.977c5.276,12.783,20.916,18.467,32.497,13.932l15.685-8.132l171.596-77.958
		L264.021,295.869z"/>
	<path fill="#FFB594" d="M336.112,250.173c0,0-163.742,92.105-178.618,98.245c-14.882,6.144-30.819,1.743-35.595-9.827
		c-4.775-11.572,3.418-25.931,18.3-32.073C155.076,300.377,336.112,250.173,336.112,250.173z"/>
	<path fill="#F25F1D" d="M163.802,321.295c4.776,11.571-0.733,24.822-12.3,29.598c-11.573,4.776-24.827-0.732-29.603-12.302
		c-4.775-11.572,0.734-24.822,12.306-29.6C145.773,304.217,159.026,309.724,163.802,321.295z"/>
</g>
<g>
	<path fill="#FFFFFF" d="M384.168,1124.643l171.625-115.791l-177.662,82.623l63.681-38.422l-195.929,99.923l0.012,0.022
		c-12.06,6.973-17.614,23.784-10.438,36.715c7.177,12.935,24.494,17.051,36.241,10.811l15.667-10.57l172.75-103.919
		L384.168,1124.643z"/>
	<path fill="#97C1FF" d="M455.155,1067.231c0,0-162.667,117.985-177.719,126.338c-15.057,8.356-32.532,5.638-39.029-6.068
		c-6.496-11.708,0.445-27.974,15.505-36.328C268.964,1142.82,455.155,1067.231,455.155,1067.231z"/>
	<path fill="#3BF4F4" d="M280.806,1163.975c6.498,11.708,2.271,26.465-9.433,32.96c-11.71,6.498-26.469,2.272-32.966-9.434
		c-6.496-11.708-2.27-26.466,9.439-32.963C259.552,1148.042,274.31,1152.267,280.806,1163.975z"/>
</g>
<g>
	<path fill="#FFFFFF" d="M441.168,2249.643l171.625-115.791l-177.662,82.623l63.681-38.422l-195.929,99.923l0.012,0.022
		c-12.06,6.973-17.614,23.784-10.438,36.715c7.177,12.935,24.494,17.051,36.241,10.811l15.667-10.57l172.75-103.919
		L441.168,2249.643z"/>
	<path fill="#97C1FF" d="M512.155,2192.231c0,0-162.667,117.985-177.719,126.338c-15.057,8.356-32.532,5.638-39.029-6.068
		c-6.496-11.708,0.445-27.974,15.505-36.328C325.964,2267.82,512.155,2192.231,512.155,2192.231z"/>
	<path fill="#3BF4F4" d="M337.806,2288.975c6.498,11.708,2.271,26.465-9.433,32.96c-11.71,6.498-26.469,2.272-32.966-9.434
		c-6.496-11.708-2.27-26.466,9.439-32.963C316.552,2273.042,331.31,2277.267,337.806,2288.975z"/>
</g>
<polygon fill="#FFFFFF" points="358.896,1676.628 360.012,1681.973 365.048,1684.085 360.309,1686.798 359.857,1692.24 
	355.813,1688.57 350.496,1689.821 352.736,1684.842 349.904,1680.175 355.331,1680.765 "/>
<polygon fill="#FFFFFF" points="86.896,1747.628 88.012,1752.973 93.048,1755.085 88.309,1757.798 87.857,1763.24 83.813,1759.57 
	78.496,1760.821 80.736,1755.842 77.904,1751.175 83.331,1751.765 "/>
<polygon fill="#FFFFFF" points="615.896,1268.628 617.012,1273.973 622.048,1276.085 617.309,1278.798 616.857,1284.24 
	612.813,1280.57 607.496,1281.821 609.736,1276.842 606.904,1272.175 612.331,1272.765 "/>
<polygon fill="#FFFFFF" points="1813.896,319.628 1815.012,324.973 1820.048,327.085 1815.309,329.798 1814.857,335.24 
	1810.813,331.57 1805.496,332.821 1807.736,327.842 1804.904,323.175 1810.331,323.765 "/>
<polygon fill="#FFFFFF" points="584.896,2274.628 586.012,2279.973 591.048,2282.085 586.309,2284.798 585.857,2290.24 
	581.813,2286.57 576.496,2287.821 578.736,2282.842 575.904,2278.175 581.331,2278.765 "/>
<polygon fill="#FFFFFF" points="1552.896,1403.628 1554.012,1408.973 1559.048,1411.085 1554.309,1413.798 1553.857,1419.24 
	1549.813,1415.57 1544.496,1416.821 1546.736,1411.842 1543.904,1407.175 1549.331,1407.765 "/>
<polygon fill="#FFFFFF" points="1632.896,268.628 1634.012,273.973 1639.048,276.085 1634.309,278.798 1633.857,284.24 
	1629.813,280.57 1624.496,281.821 1626.736,276.842 1623.904,272.175 1629.331,272.765 "/>
<polygon fill="#FFFFFF" points="1670.896,1766.628 1672.012,1771.973 1677.048,1774.085 1672.309,1776.798 1671.857,1782.24 
	1667.813,1778.57 1662.496,1779.821 1664.736,1774.842 1661.904,1770.175 1667.331,1770.765 "/>
<polygon fill="#FFFFFF" points="1828.896,1942.628 1830.012,1947.973 1835.048,1950.085 1830.309,1952.798 1829.857,1958.24 
	1825.813,1954.57 1820.496,1955.821 1822.736,1950.842 1819.904,1946.175 1825.331,1946.765 "/>
<polygon fill="#FFFFFF" points="941.896,77.628 943.012,82.973 948.048,85.085 943.309,87.798 942.857,93.24 938.813,89.57 
	933.496,90.821 935.736,85.842 932.904,81.175 938.331,81.765 "/>
<polygon fill="#FFFFFF" points="1723.896,727.628 1725.012,732.973 1730.048,735.085 1725.309,737.798 1724.857,743.24 
	1720.813,739.57 1715.496,740.821 1717.736,735.842 1714.904,731.175 1720.331,731.765 "/>
<polygon fill="#FFFFFF" points="1561.896,137.628 1563.012,142.973 1568.048,145.085 1563.309,147.798 1562.857,153.24 
	1558.813,149.57 1553.496,150.821 1555.736,145.842 1552.904,141.175 1558.331,141.765 "/>
<polygon fill="#FFFFFF" points="805.896,2256.628 807.012,2261.973 812.048,2264.085 807.309,2266.798 806.857,2272.24 
	802.813,2268.57 797.496,2269.821 799.736,2264.842 796.904,2260.175 802.331,2260.765 "/>
<polygon fill="#FFFFFF" points="261.896,917.628 263.012,922.973 268.048,925.085 263.309,927.798 262.857,933.24 258.813,929.57 
	253.496,930.821 255.736,925.842 252.904,921.175 258.331,921.765 "/>
<polygon fill="#FFFFFF" points="993.896,1003.628 995.012,1008.973 1000.048,1011.085 995.309,1013.798 994.857,1019.24 
	990.813,1015.57 985.496,1016.821 987.736,1011.842 984.904,1007.175 990.331,1007.765 "/>
<polygon fill="#FFFFFF" points="1464.896,1658.628 1466.012,1663.973 1471.048,1666.085 1466.309,1668.798 1465.857,1674.24 
	1461.813,1670.57 1456.496,1671.821 1458.736,1666.842 1455.904,1662.175 1461.331,1662.765 "/>
<polygon fill="#FFFFFF" points="225.896,1401.628 227.012,1406.973 232.048,1409.085 227.309,1411.798 226.857,1417.24 
	222.813,1413.57 217.496,1414.821 219.736,1409.842 216.904,1405.175 222.331,1405.765 "/>
<polygon fill="#FFFFFF" points="875.896,254.628 877.012,259.973 882.048,262.085 877.309,264.798 876.857,270.24 872.813,266.57 
	867.496,267.821 869.736,262.842 866.904,258.175 872.331,258.765 "/>
<polygon fill="#FFFFFF" points="1721.896,1351.628 1723.012,1356.973 1728.048,1359.085 1723.309,1361.798 1722.857,1367.24 
	1718.813,1363.57 1713.496,1364.821 1715.736,1359.842 1712.904,1355.175 1718.331,1355.765 "/>
<polygon fill="#FFFFFF" points="1762.896,1046.628 1764.012,1051.973 1769.048,1054.085 1764.309,1056.798 1763.857,1062.24 
	1759.813,1058.57 1754.496,1059.821 1756.736,1054.842 1753.904,1050.175 1759.331,1050.765 "/>
<polygon fill="#FFFFFF" points="738.896,164.628 740.012,169.973 745.048,172.085 740.309,174.798 739.857,180.24 735.813,176.57 
	730.496,177.821 732.736,172.842 729.904,168.175 735.331,168.765 "/>
<polygon fill="#FFFFFF" points="158.896,105.628 160.012,110.973 165.048,113.085 160.309,115.798 159.857,121.24 155.813,117.57 
	150.496,118.821 152.736,113.842 149.904,109.175 155.331,109.765 "/>
<polygon fill="#FFFFFF" points="130.896,485.628 132.012,490.973 137.048,493.085 132.309,495.798 131.857,501.24 127.813,497.57 
	122.496,498.821 124.736,493.842 121.904,489.175 127.331,489.765 "/>
<polygon fill="#FFFFFF" points="117.896,1094.628 119.012,1099.973 124.048,1102.085 119.309,1104.798 118.857,1110.24 
	114.813,1106.57 109.496,1107.821 111.736,1102.842 108.904,1098.175 114.331,1098.765 "/>
<polygon fill="#FFFFFF" points="1316.896,78.628 1318.012,83.973 1323.048,86.085 1318.309,88.798 1317.857,94.24 1313.813,90.57 
	1308.496,91.821 1310.736,86.842 1307.904,82.175 1313.331,82.765 "/>
<polygon fill="#FFFFFF" points="921.896,2189.628 923.012,2194.973 928.048,2197.085 923.309,2199.798 922.857,2205.24 
	918.813,2201.57 913.496,2202.821 915.736,2197.842 912.904,2193.175 918.331,2193.765 "/>
<polygon fill="#FFFFFF" points="1068.896,1272.628 1070.012,1277.973 1075.048,1280.085 1070.309,1282.798 1069.857,1288.24 
	1065.813,1284.57 1060.496,1285.821 1062.736,1280.842 1059.904,1276.175 1065.331,1276.765 "/>
<g>
	<path fill="#FCF797" d="M1669.449,1210.374l160.745-119.041l-167.978,87.282l59.836-39.785l-184.876,104.754l0.013,0.021
		c-11.346,7.241-15.994,23.701-8.518,35.88c7.475,12.181,24.363,15.421,35.438,8.897l14.674-10.865l162.333-107.629
		L1669.449,1210.374z"/>
	<path fill="#FFB594" d="M1735.531,1151.949c0,0-152.004,120.778-166.179,129.478c-14.179,8.704-31.161,6.822-37.929-4.202
		c-6.765-11.025-0.755-27.019,13.425-35.722C1559.023,1232.804,1735.531,1151.949,1735.531,1151.949z"/>
	<path fill="#F25F1D" d="M1571.351,1252.719c6.768,11.025,3.313,25.448-7.707,32.213c-11.028,6.769-25.452,3.317-32.22-7.707
		c-6.765-11.025-3.312-25.448,7.714-32.217C1550.16,1238.243,1564.584,1241.693,1571.351,1252.719z"/>
</g>
<g>
	<path fill="#FCF797" d="M1711.449,2233.374l160.745-119.041l-167.978,87.282l59.836-39.785l-184.876,104.754l0.013,0.021
		c-11.346,7.241-15.994,23.701-8.518,35.88c7.475,12.181,24.363,15.421,35.438,8.897l14.674-10.865l162.333-107.629
		L1711.449,2233.374z"/>
	<path fill="#FFB594" d="M1777.531,2174.949c0,0-152.004,120.778-166.179,129.478c-14.179,8.704-31.161,6.822-37.929-4.202
		c-6.765-11.025-0.755-27.019,13.425-35.722C1601.023,2255.804,1777.531,2174.949,1777.531,2174.949z"/>
	<path fill="#F25F1D" d="M1613.351,2275.719c6.768,11.025,3.313,25.448-7.707,32.213c-11.028,6.769-25.452,3.317-32.22-7.707
		c-6.765-11.025-3.312-25.448,7.714-32.217C1592.16,2261.243,1606.584,2264.693,1613.351,2275.719z"/>
</g>
<polygon fill="#FFFFFF" points="1485.896,1550.628 1487.012,1555.973 1492.048,1558.085 1487.309,1560.798 1486.857,1566.24 
	1482.813,1562.57 1477.496,1563.821 1479.736,1558.842 1476.904,1554.175 1482.331,1554.765 "/>
<polygon fill="#FFFFFF" points="1391.896,1312.628 1393.012,1317.973 1398.048,1320.085 1393.309,1322.798 1392.857,1328.24 
	1388.813,1324.57 1383.496,1325.821 1385.736,1320.842 1382.904,1316.175 1388.331,1316.765 "/>
<polygon fill="#FFFFFF" points="1180.896,1391.628 1182.012,1396.973 1187.048,1399.085 1182.309,1401.798 1181.857,1407.24 
	1177.813,1403.57 1172.496,1404.821 1174.736,1399.842 1171.904,1395.175 1177.331,1395.765 "/>
<polygon fill="#FFFFFF" points="1255.896,1188.628 1257.012,1193.973 1262.048,1196.085 1257.309,1198.798 1256.857,1204.24 
	1252.813,1200.57 1247.496,1201.821 1249.736,1196.842 1246.904,1192.175 1252.331,1192.765 "/>
<polygon fill="#FFFFFF" points="823.896,1158.628 825.012,1163.973 830.048,1166.085 825.309,1168.798 824.857,1174.24 
	820.813,1170.57 815.496,1171.821 817.736,1166.842 814.904,1162.175 820.331,1162.765 "/>
<polygon fill="#FFFFFF" points="1322.896,1484.628 1324.012,1489.973 1329.048,1492.085 1324.309,1494.798 1323.857,1500.24 
	1319.813,1496.57 1314.496,1497.821 1316.736,1492.842 1313.904,1488.175 1319.331,1488.765 "/>
<g>
	<circle fill="#FCFFC2" cx="1161.943" cy="1553.428" r="10.737"/>
	<circle fill="none" stroke="#FCFFC2" stroke-miterlimit="10" cx="1161.882" cy="1553.428" r="22.783"/>
</g>
<g>
	<polygon fill="#F9CE62" points="1596.511,1985.28 1588.746,1973.092 1574.304,1972.576 1583.496,1961.425 1579.523,1947.53 
		1592.969,1952.828 1604.957,1944.756 1604.072,1959.18 1615.454,1968.085 1601.463,1971.703 	"/>
	<polygon fill="#F9CE62" points="1613.479,1953.898 1604.681,1965.362 1609.135,1979.11 1595.514,1974.286 1583.815,1982.771 
		1584.195,1968.324 1572.51,1959.822 1586.366,1955.719 1590.842,1941.977 1599.027,1953.886 	"/>
</g>
<g>
	<polygon fill="#F9CE62" points="505.511,2472.28 497.746,2460.092 483.304,2459.576 492.496,2448.425 488.523,2434.53 
		501.969,2439.828 513.957,2431.756 513.072,2446.18 524.454,2455.085 510.463,2458.703 	"/>
	<polygon fill="#F9CE62" points="522.479,2440.898 513.681,2452.362 518.135,2466.11 504.514,2461.286 492.815,2469.771 
		493.195,2455.324 481.51,2446.822 495.366,2442.719 499.842,2428.977 508.027,2440.886 	"/>
</g>
<g>
	<polygon fill="#F9CE62" points="1443.464,1063.691 1435.7,1051.502 1421.257,1050.987 1430.45,1039.836 1426.477,1025.941 
		1439.922,1031.239 1451.91,1023.167 1451.025,1037.59 1462.407,1046.496 1448.417,1050.114 	"/>
	<polygon fill="#F9CE62" points="1460.432,1032.31 1451.635,1043.773 1456.088,1057.521 1442.468,1052.697 1430.769,1061.182 
		1431.149,1046.735 1419.463,1038.233 1433.32,1034.129 1437.796,1020.388 1445.98,1032.297 	"/>
</g>
<g>
	<polygon fill="#F9CE62" points="1824.464,584.691 1816.7,572.502 1802.257,571.987 1811.45,560.836 1807.477,546.941 
		1820.922,552.239 1832.91,544.167 1832.025,558.59 1843.407,567.496 1829.417,571.114 	"/>
	<polygon fill="#F9CE62" points="1841.432,553.31 1832.635,564.773 1837.088,578.521 1823.468,573.697 1811.769,582.182 
		1812.149,567.735 1800.463,559.233 1814.32,555.129 1818.796,541.388 1826.98,553.297 	"/>
</g>
<g>
	<polygon fill="#F9CE62" points="1809.856,109.577 1802.093,97.388 1787.649,96.873 1796.843,85.722 1792.869,71.827 
		1806.314,77.125 1818.303,69.052 1817.418,83.476 1828.8,92.382 1814.81,96 	"/>
	<polygon fill="#F9CE62" points="1826.825,78.195 1818.027,89.659 1822.48,103.407 1808.86,98.582 1797.161,107.067 
		1797.542,92.621 1785.855,84.119 1799.713,80.015 1804.188,66.273 1812.373,78.182 	"/>
</g>
<g>
	<circle fill="#FCFFC2" cx="918.943" cy="2530.428" r="10.737"/>
	<circle fill="none" stroke="#FCFFC2" stroke-miterlimit="10" cx="918.882" cy="2530.428" r="22.783"/>
</g>
<g>
	<circle fill="#FCFFC2" cx="323.943" cy="1908.428" r="10.737"/>
	<circle fill="none" stroke="#FCFFC2" stroke-miterlimit="10" cx="323.882" cy="1908.428" r="22.783"/>
</g>
<g>
	<circle fill="#FCFFC2" cx="1816.943" cy="1460.428" r="10.737"/>
	<circle fill="none" stroke="#FCFFC2" stroke-miterlimit="10" cx="1816.882" cy="1460.428" r="22.783"/>
</g>
<g>
	<circle fill="#FCFFC2" cx="104.943" cy="1297.428" r="10.737"/>
	<circle fill="none" stroke="#FCFFC2" stroke-miterlimit="10" cx="104.882" cy="1297.428" r="22.783"/>
</g>
<path fill="#FFFFFF" d="M1641,1619.667c0,0,1.351,29.807,5.772,34.228s34.228,5.772,34.228,5.772s-30.826,2.372-34.228,5.772
	s-5.772,34.228-5.772,34.228s-0.603-29.057-5.772-34.228s-34.228-5.772-34.228-5.772s29.67-1.214,34.228-5.772
	S1641,1619.667,1641,1619.667z"/>
<polygon fill="#FFFFFF" points="1026.896,1482.628 1028.012,1487.973 1033.048,1490.085 1028.309,1492.798 1027.857,1498.24 
	1023.813,1494.57 1018.496,1495.821 1020.736,1490.842 1017.904,1486.175 1023.331,1486.765 "/>
<polygon fill="#FFFFFF" points="820.896,1374.628 822.012,1379.973 827.048,1382.085 822.309,1384.798 821.857,1390.24 
	817.813,1386.57 812.496,1387.821 814.736,1382.842 811.904,1378.175 817.331,1378.765 "/>
<path fill="#FFFFFF" d="M919,1583.667c0,0,1.351,29.807,5.772,34.228s34.228,5.772,34.228,5.772s-30.826,2.372-34.228,5.772
	S919,1663.667,919,1663.667s-0.603-29.057-5.772-34.228S879,1623.667,879,1623.667s29.67-1.214,34.228-5.772
	S919,1583.667,919,1583.667z"/>
<polygon fill="#FFFFFF" points="1623.896,436.628 1625.012,441.973 1630.048,444.085 1625.309,446.798 1624.857,452.24 
	1620.813,448.57 1615.496,449.821 1617.736,444.842 1614.904,440.175 1620.331,440.765 "/>
<polygon fill="#FFFFFF" points="1415.896,283.628 1417.012,288.973 1422.048,291.085 1417.309,293.798 1416.857,299.24 
	1412.813,295.57 1407.496,296.821 1409.736,291.842 1406.904,287.175 1412.331,287.765 "/>
<polygon fill="#FFFFFF" points="1234.896,232.628 1236.012,237.973 1241.048,240.085 1236.309,242.798 1235.857,248.24 
	1231.813,244.57 1226.496,245.821 1228.736,240.842 1225.904,236.175 1231.331,236.765 "/>
<polygon fill="#FFFFFF" points="1163.896,101.628 1165.012,106.973 1170.048,109.085 1165.309,111.798 1164.857,117.24 
	1160.813,113.57 1155.496,114.821 1157.736,109.842 1154.904,105.175 1160.331,105.765 "/>
<polygon fill="#FFFFFF" points="266.896,2513.628 268.012,2518.973 273.048,2521.085 268.309,2523.798 267.857,2529.24 
	263.813,2525.57 258.496,2526.821 260.736,2521.842 257.904,2517.175 263.331,2517.765 "/>
<polygon fill="#FFFFFF" points="60.896,2405.628 62.012,2410.973 67.048,2413.085 62.309,2415.798 61.857,2421.24 57.813,2417.57 
	52.496,2418.821 54.736,2413.842 51.904,2409.175 57.331,2409.765 "/>
<path fill="#FFFFFF" d="M237,2366.667c0,0,1.351,29.807,5.772,34.228s34.228,5.772,34.228,5.772s-30.826,2.372-34.228,5.772
	S237,2446.667,237,2446.667s-0.603-29.057-5.772-34.228S197,2406.667,197,2406.667s29.67-1.214,34.228-5.772
	S237,2366.667,237,2366.667z"/>
<path fill="#FFFFFF" d="M1378,2304.667c0,0,1.351,29.807,5.772,34.228s34.228,5.772,34.228,5.772s-30.826,2.372-34.228,5.772
	s-5.772,34.228-5.772,34.228s-0.603-29.057-5.772-34.228s-34.228-5.772-34.228-5.772s29.67-1.214,34.228-5.772
	S1378,2304.667,1378,2304.667z"/>
<path fill="#FFFFFF" d="M156,668.667c0,0,1.351,29.807,5.772,34.228S196,708.667,196,708.667s-30.826,2.372-34.228,5.772
	S156,748.667,156,748.667s-0.603-29.057-5.772-34.228S116,708.667,116,708.667s29.67-1.214,34.228-5.772S156,668.667,156,668.667z"
	/>
<path fill="#FFFFFF" d="M1827,843.667c0,0,1.351,29.807,5.772,34.228s34.228,5.772,34.228,5.772s-30.826,2.372-34.228,5.772
	S1827,923.667,1827,923.667s-0.603-29.057-5.772-34.228S1787,883.667,1787,883.667s29.67-1.214,34.228-5.772
	S1827,843.667,1827,843.667z"/>
<polygon fill="#FFFFFF" points="1227.896,1835.628 1229.012,1840.973 1234.048,1843.085 1229.309,1845.798 1228.857,1851.24 
	1224.813,1847.57 1219.496,1848.821 1221.736,1843.842 1218.904,1839.175 1224.331,1839.765 "/>
<path fill="#FFFFFF" d="M1355,1970.667c0,0,1.351,29.807,5.772,34.228s34.228,5.772,34.228,5.772s-30.826,2.372-34.228,5.772
	s-5.772,34.228-5.772,34.228s-0.603-29.057-5.772-34.228s-34.228-5.772-34.228-5.772s29.67-1.214,34.228-5.772
	S1355,1970.667,1355,1970.667z"/>
<path fill="#FFFFFF" d="M1782,1198.667c0,0,1.351,29.807,5.772,34.228s34.228,5.772,34.228,5.772s-30.826,2.372-34.228,5.772
	s-5.772,34.228-5.772,34.228s-0.603-29.057-5.772-34.228s-34.228-5.772-34.228-5.772s29.67-1.214,34.228-5.772
	S1782,1198.667,1782,1198.667z"/>
<polygon fill="#FFFFFF" points="650.896,2468.628 652.012,2473.973 657.048,2476.085 652.309,2478.798 651.857,2484.24 
	647.813,2480.57 642.496,2481.821 644.736,2476.842 641.904,2472.175 647.331,2472.765 "/>
<polygon fill="#FFFFFF" points="187.388,723.12 189.332,734.762 200.974,736.704 189.332,738.648 187.388,750.29 185.446,738.648 
	173.804,736.704 185.446,734.762 "/>
<polygon fill="#FFFFFF" points="502.389,2090.12 504.332,2101.762 515.975,2103.704 504.332,2105.648 502.389,2117.29 
	500.445,2105.648 488.805,2103.704 500.445,2101.762 "/>
<polygon fill="#FFFFFF" points="879.389,2375.12 881.332,2386.762 892.975,2388.704 881.332,2390.648 879.389,2402.29 
	877.445,2390.648 865.805,2388.704 877.445,2386.762 "/>
<polygon fill="#FFFFFF" points="1505.896,2429.628 1507.012,2434.973 1512.048,2437.085 1507.309,2439.798 1506.857,2445.24 
	1502.813,2441.57 1497.496,2442.821 1499.736,2437.842 1496.904,2433.175 1502.331,2433.765 "/>
<polygon fill="#FFFFFF" points="1726.896,2411.628 1728.012,2416.973 1733.048,2419.085 1728.309,2421.798 1727.857,2427.24 
	1723.813,2423.57 1718.496,2424.821 1720.736,2419.842 1717.904,2415.175 1723.331,2415.765 "/>
<polygon fill="#FFFFFF" points="1842.896,2344.628 1844.012,2349.973 1849.048,2352.085 1844.309,2354.798 1843.857,2360.24 
	1839.813,2356.57 1834.496,2357.821 1836.736,2352.842 1833.904,2348.175 1839.331,2348.765 "/>
<polygon fill="#FFFFFF" points="1161.896,2270.628 1163.012,2275.973 1168.048,2278.085 1163.309,2280.798 1162.857,2286.24 
	1158.813,2282.57 1153.496,2283.821 1155.736,2278.842 1152.904,2274.175 1158.331,2274.765 "/>
<polygon fill="#FFFFFF" points="59.896,2011.628 61.012,2016.973 66.048,2019.085 61.309,2021.798 60.857,2027.24 56.813,2023.57 
	51.496,2024.821 53.736,2019.842 50.904,2015.175 56.331,2015.765 "/>
<polygon fill="#FFFFFF" points="175.896,1944.628 177.012,1949.973 182.048,1952.085 177.309,1954.798 176.857,1960.24 
	172.813,1956.57 167.496,1957.821 169.736,1952.842 166.904,1948.175 172.331,1948.765 "/>
<polygon fill="#FFFFFF" points="133.389,2130.12 135.332,2141.762 146.975,2143.704 135.332,2145.648 133.389,2157.29 
	131.445,2145.648 119.805,2143.704 131.445,2141.762 "/>
<polygon fill="#FFFFFF" points="415.896,2025.628 417.012,2030.973 422.048,2033.085 417.309,2035.798 416.857,2041.24 
	412.813,2037.57 407.496,2038.821 409.736,2033.842 406.904,2029.175 412.331,2029.765 "/>
<polygon fill="#FFFFFF" points="1109.896,2507.628 1111.012,2512.973 1116.048,2515.085 1111.309,2517.798 1110.857,2523.24 
	1106.813,2519.57 1101.496,2520.821 1103.736,2515.842 1100.904,2511.175 1106.331,2511.765 "/>
<polygon fill="#FFFFFF" points="1225.896,2440.628 1227.012,2445.973 1232.048,2448.085 1227.309,2450.798 1226.857,2456.24 
	1222.813,2452.57 1217.496,2453.821 1219.736,2448.842 1216.904,2444.175 1222.331,2444.765 "/>
<polygon fill="#FFFFFF" points="127.896,1549.628 129.012,1554.973 134.048,1557.085 129.309,1559.798 128.857,1565.24 
	124.813,1561.57 119.496,1562.821 121.736,1557.842 118.904,1553.175 124.331,1553.765 "/>
<polygon fill="#FFFFFF" points="543.896,1737.628 545.012,1742.973 550.048,1745.085 545.309,1747.798 544.857,1753.24 
	540.813,1749.57 535.496,1750.821 537.736,1745.842 534.904,1741.175 540.331,1741.765 "/>
<g>
	<circle fill="#FCFFC2" cx="788.943" cy="2101.428" r="10.737"/>
	<circle fill="none" stroke="#FCFFC2" stroke-miterlimit="10" cx="788.882" cy="2101.428" r="22.783"/>
</g>
<polygon fill="#FFFFFF" points="651.389,1907.12 653.332,1918.762 664.975,1920.704 653.332,1922.648 651.389,1934.29 
	649.445,1922.648 637.805,1920.704 649.445,1918.762 "/>
<polygon fill="#FFFFFF" points="933.896,1802.628 935.012,1807.973 940.048,1810.085 935.309,1812.798 934.857,1818.24 
	930.813,1814.57 925.496,1815.821 927.736,1810.842 924.904,1806.175 930.331,1806.765 "/>
<polygon fill="#FFFFFF" points="683.896,1548.628 685.012,1553.973 690.048,1556.085 685.309,1558.798 684.857,1564.24 
	680.813,1560.57 675.496,1561.821 677.736,1556.842 674.904,1552.175 680.331,1552.765 "/>
<polygon fill="#FFFFFF" points="490.896,1428.628 492.012,1433.973 497.048,1436.085 492.309,1438.798 491.857,1444.24 
	487.813,1440.57 482.496,1441.821 484.736,1436.842 481.904,1432.175 487.331,1432.765 "/>
<polygon fill="#FFFFFF" points="1183.389,2626.12 1185.332,2637.762 1196.975,2639.704 1185.332,2641.648 1183.389,2653.29 
	1181.445,2641.648 1169.805,2639.704 1181.445,2637.762 "/>
<polygon fill="#FFFFFF" points="1465.896,2521.628 1467.012,2526.973 1472.048,2529.085 1467.309,2531.798 1466.857,2537.24 
	1462.813,2533.57 1457.496,2534.821 1459.736,2529.842 1456.904,2525.175 1462.331,2525.765 "/>
<polygon fill="#FFFFFF" points="1390.389,2177.12 1392.332,2188.762 1403.975,2190.704 1392.332,2192.648 1390.389,2204.29 
	1388.445,2192.648 1376.805,2190.704 1388.445,2188.762 "/>
<polygon fill="#FFFFFF" points="1067.389,1981.12 1069.332,1992.762 1080.975,1994.704 1069.332,1996.648 1067.389,2008.29 
	1065.445,1996.648 1053.805,1994.704 1065.445,1992.762 "/>
<polygon fill="#FFFFFF" points="751.389,1273.12 753.332,1284.762 764.975,1286.704 753.332,1288.648 751.389,1300.29 
	749.445,1288.648 737.805,1286.704 749.445,1284.762 "/>
</svg>
