<?xml version="1.0" encoding="utf-8"?>
<!-- Generator: Adobe Illustrator 16.0.0, SVG Export Plug-In . SVG Version: 6.00 Build 0)  -->
<!DOCTYPE svg PUBLIC "-//W3C//DTD SVG 1.1//EN" "http://www.w3.org/Graphics/SVG/1.1/DTD/svg11.dtd">
<svg version="1.1" id="Layer_1" xmlns="http://www.w3.org/2000/svg" xmlns:xlink="http://www.w3.org/1999/xlink" x="0px" y="0px"
	 width="2535.253px" height="837.083px" viewBox="0 0 2535.253 837.083" enable-background="new 0 0 2535.253 837.083"
	 xml:space="preserve">
<g>
	<path fill="#BF4343" stroke="#752A2A" stroke-miterlimit="10" d="M1881.726,627.72l-286.027,71.74
		c0,0,286.027,57.826,286.027,120.632s636.436-192.372,636.436-192.372H1881.726z"/>
	<path fill="#BF4343" stroke="#752A2A" stroke-miterlimit="10" d="M1881.726,210.72l-286.027-71.455
		c0,0,286.027-57.969,286.027-120.775c0-62.805,636.436,192.229,636.436,192.229H1881.726z"/>
	<path fill="#F7A6A6" d="M1975.212,108.187c-324.125-9.045-85.058-17.587-85.058-80.393c0-62.805,574.354,164.493,586.515,175.356
		C2491.39,216.303,2231.617,115.342,1975.212,108.187z"/>
	<path fill="#DD8585" d="M1975.212,727.35c-324.125,9.045-85.058,17.587-85.058,80.393c0,62.805,574.354-164.492,586.515-175.356
		C2491.39,619.233,2231.617,720.195,1975.212,727.35z"/>
	<g>
		<path fill="#BF4343" stroke="#752A2A" stroke-miterlimit="10" d="M15.14,402.041c0,75.933,181.668,145.832,394.668,199.217
			V218.085C196.808,263.717,15.14,326.107,15.14,402.041z"/>
		<path fill="#F7A6A6" d="M32.088,391.683c0,25.131,158.22-54.275,371.22-0.89V229.802
			C190.308,275.435,32.088,366.554,32.088,391.683z"/>
		<linearGradient id="SVGID_1_" gradientUnits="userSpaceOnUse" x1="1221.8584" y1="713.9575" x2="1221.8584" y2="122.2051">
			<stop  offset="0.1084" style="stop-color:#A7A7A7"/>
			<stop  offset="0.2431" style="stop-color:#C6C6C6"/>
			<stop  offset="0.406" style="stop-color:#E5E5E5"/>
			<stop  offset="0.5443" style="stop-color:#F8F8F8"/>
			<stop  offset="0.6404" style="stop-color:#FFFFFF"/>
		</linearGradient>
		<path fill="url(#SVGID_1_)" d="M409.308,218.085v383.172c228,57.292,492.63,95.563,606.492,101.861
			c223.081,12.34,1028.884,69.1,1018.509-285.037c-10.376-354.139-798.859-297.378-1018.481-285.039
			C901.975,139.44,637.308,169.112,409.308,218.085z"/>
	</g>
	<path fill="#AFAFAF" stroke="#191919" stroke-miterlimit="10" d="M2220.808,534.019c0,6.813-7.23,11.701-16.777,11.701h-51.858
		c-9.547,0-17.364-4.889-17.364-11.701V305.834c0-6.812,7.817-12.114,17.364-12.114h51.858c9.547,0,16.777,5.302,16.777,12.114
		V534.019z"/>
	<path fill="#FFFFFF" d="M2203.826,368.22c9.547,0,17.482,1.283,17.482,2.994v57.313c0,1.711-7.936,2.693-17.482,2.693h-51.858
		c-9.547,0-16.659-0.982-16.659-2.693v-57.313c0-1.711,7.112-2.994,16.659-2.994H2203.826z"/>
	<path fill="#6D6B6B" d="M2203.826,388.22c9.547,0,17.482,2.252,17.482,3.963v57.313c0,1.711-7.936,2.725-17.482,2.725h-51.858
		c-9.547,0-16.659-1.014-16.659-2.725v-57.313c0-1.711,7.112-3.963,16.659-3.963H2203.826z"/>
	<path fill="#BF4343" stroke="#752A2A" stroke-miterlimit="10" d="M2135.532,210.72c7.527,0,14.276,4.93,14.276,10.3v197.558
		v199.825c0,5.37-6.749,9.317-14.276,9.317h-252.724v-417H2135.532z"/>
	<path fill="#F7A6A6" stroke="#752A2A" stroke-width="3" stroke-miterlimit="10" d="M2135.574,211.72
		c7.504,0,13.234,3.93,13.234,9.3v197.558v-99.9c0,5.371-5.73,10.042-13.234,10.042h-251.766v-117H2135.574z"/>
</g>
</svg>
