<?xml version="1.0" encoding="utf-8"?>
<!-- Generator: Adobe Illustrator 16.0.0, SVG Export Plug-In . SVG Version: 6.00 Build 0)  -->
<!DOCTYPE svg PUBLIC "-//W3C//DTD SVG 1.1//EN" "http://www.w3.org/Graphics/SVG/1.1/DTD/svg11.dtd">
<svg version="1.1" id="Layer_1" xmlns="http://www.w3.org/2000/svg" xmlns:xlink="http://www.w3.org/1999/xlink" x="0px" y="0px"
	 width="205px" height="203px" viewBox="0 0 205 203" style="enable-background:new 0 0 205 203;" xml:space="preserve">
<style type="text/css">
<![CDATA[
	.st0{fill:#2D407A;stroke:#4255A5;stroke-miterlimit:10;}
	.st1{fill:url(#SVGID_1_);stroke:#4255A5;stroke-miterlimit:10;}
	.st2{fill:url(#SVGID_2_);stroke:#4255A5;stroke-miterlimit:10;}
	.st3{fill:url(#SVGID_3_);stroke:#4255A5;stroke-miterlimit:10;}
	.st4{fill:url(#SVGID_4_);stroke:#4255A5;stroke-miterlimit:10;}
	.st5{fill:url(#SVGID_5_);stroke:#4255A5;stroke-miterlimit:10;}
]]>
</style>
<g>
	<linearGradient id="SVGID_1_" gradientUnits="userSpaceOnUse" x1="111.6895" y1="196.0762" x2="111.6894" y2="10.0711">
		<stop  offset="0" style="stop-color:#8000E9"/>
		<stop  offset="0.7685" style="stop-color:#15A6FF"/>
	</linearGradient>
	<path class="st1" d="M68.396,189.094c-0.417,0.127-0.802,0.229-1.212,0.35c10.669,4.266,22.298,6.633,34.489,6.633
		c20.371,0,39.198-6.566,54.521-17.674C132.514,172.422,108.359,176.734,68.396,189.094z"/>
	<linearGradient id="SVGID_2_" gradientUnits="userSpaceOnUse" x1="103.002" y1="196.0791" x2="103.0019" y2="10.0593">
		<stop  offset="0" style="stop-color:#8000E9"/>
		<stop  offset="0.7685" style="stop-color:#15A6FF"/>
	</linearGradient>
	<path class="st2" d="M68.396,149.18c-20.476,6.332-34.804,6.672-44.847,4.328c5.277,8.16,11.784,15.447,19.28,21.582
		c9.691-2.639,21.791-6.318,36.97-11.338c40.533-13.408,69.04-6.145,87.716,5.004c5.809-5.822,10.828-12.424,14.938-19.611
		C147.937,130.438,122.821,132.348,68.396,149.18z"/>
	<linearGradient id="SVGID_3_" gradientUnits="userSpaceOnUse" x1="101.6753" y1="196.0781" x2="101.6753" y2="10.0986">
		<stop  offset="0" style="stop-color:#8000E9"/>
		<stop  offset="0.7685" style="stop-color:#15A6FF"/>
	</linearGradient>
	<path class="st3" d="M194.451,96.852c-21.807,2.052-51.472,2.554-88.043-2.156C53.651,87.9,25.02,81.171,11.269,81.253
		c-1.685,7.002-2.6,14.3-2.6,21.816c0,13.407,2.857,26.137,7.963,37.653c10.445-1.07,29.08-5.609,63.168-16.885
		c57.027-18.863,90.252,3.186,105.774,19.408c5.836-12.162,9.106-25.787,9.106-40.176
		C194.681,100.978,194.585,98.908,194.451,96.852z"/>
	<linearGradient id="SVGID_4_" gradientUnits="userSpaceOnUse" x1="103.4346" y1="196.0762" x2="103.4346" y2="10.0664">
		<stop  offset="0" style="stop-color:#8000E9"/>
		<stop  offset="0.7685" style="stop-color:#15A6FF"/>
	</linearGradient>
	<path class="st4" d="M113.378,78.857c36.224,4.83,61.908,7.779,80.135,9.517c-0.952-5.997-2.466-11.806-4.507-17.361
		c-11.07,3.938-25.818,5.486-45.22,1.234c-80.537-22.469-70.641-33.011-109.1-33.661c-9.551,9.92-16.916,21.948-21.329,35.329
		C27.572,71.334,56.3,71.248,113.378,78.857z"/>
	<linearGradient id="SVGID_5_" gradientUnits="userSpaceOnUse" x1="119.665" y1="196.0771" x2="119.665" y2="10.0642">
		<stop  offset="0" style="stop-color:#8000E9"/>
		<stop  offset="0.7685" style="stop-color:#15A6FF"/>
	</linearGradient>
	<path class="st5" d="M180.883,54.322c-16.376-26.553-45.722-44.258-79.209-44.258c-15.61,0-30.308,3.862-43.226,10.657
		c20.555,0.156,47.257,5.66,80.902,22.089C155.456,50.673,169.382,53.749,180.883,54.322z"/>
	<path class="st0" d="M189.006,71.012c-2.155-5.865-4.891-11.446-8.123-16.69c-11.501-0.573-25.427-3.648-41.532-11.512
		c-33.646-16.429-60.348-21.933-80.902-22.089c-8.864,4.662-16.873,10.712-23.762,17.864c38.459,0.65,28.563,11.192,109.1,33.661
		C163.188,76.499,177.936,74.951,189.006,71.012z"/>
	<path class="st0" d="M79.8,123.838c-34.088,11.275-52.723,15.814-63.168,16.885c1.977,4.457,4.293,8.729,6.918,12.785
		c10.043,2.344,24.371,2.004,44.847-4.328c54.425-16.832,79.54-18.742,114.058-0.035c1.102-1.928,2.156-3.887,3.12-5.898
		C170.052,127.023,136.827,104.975,79.8,123.838z"/>
	<path class="st0" d="M79.8,163.752c-15.179,5.02-27.278,8.699-36.97,11.338c7.278,5.951,15.483,10.809,24.354,14.354
		c0.41-0.121,0.795-0.223,1.212-0.35c39.963-12.359,64.117-16.672,87.798-10.691c4.026-2.92,7.82-6.135,11.321-9.646
		C148.84,157.607,120.333,150.344,79.8,163.752z"/>
	<path class="st0" d="M194.451,96.852c-0.19-2.864-0.495-5.693-0.938-8.479c-18.227-1.737-43.911-4.687-80.135-9.517
		C56.3,71.248,27.572,71.334,13.357,73.915c-0.794,2.405-1.491,4.853-2.089,7.339c13.751-0.082,42.383,6.646,95.14,13.442
		C142.979,99.406,172.645,98.904,194.451,96.852z"/>
</g>
</svg>
