<?xml version="1.0" encoding="utf-8"?>
<!-- Generator: Adobe Illustrator 16.0.0, SVG Export Plug-In . SVG Version: 6.00 Build 0)  -->
<!DOCTYPE svg PUBLIC "-//W3C//DTD SVG 1.1//EN" "http://www.w3.org/Graphics/SVG/1.1/DTD/svg11.dtd">
<svg version="1.1" id="Layer_1" xmlns="http://www.w3.org/2000/svg" xmlns:xlink="http://www.w3.org/1999/xlink" x="0px" y="0px"
	 width="300px" height="300px" viewBox="0 0 300 300" enable-background="new 0 0 300 300" xml:space="preserve">
<g>
	<g>
		<path fill="#F038D4" d="M150.001,36.722c-62.505,0-113.357,50.852-113.357,113.356c0,62.505,50.852,113.357,113.357,113.357
			s113.356-50.852,113.356-113.357C263.357,87.574,212.506,36.722,150.001,36.722z"/>
	</g>
	<g>
		<g>
			<circle fill="#88BDED" cx="150.001" cy="150.099" r="106.839"/>
		</g>
		<g>
			<path fill="#E240B0" d="M242.662,101.222c0,12.098-19.177-2.041-29.822,3.36c-10.018,5.083,15.961,10.921,2.103,26.041
				c-8.132,8.868-36.892,4.901-60.901-5.881c-23.202-10.419-28.56-32.759-22.26-44.519c4.667-8.708-24.729-21.455-18.949-27.72
				c7.96-8.63,32.121-8.895,45.829-8.895C182.32,43.609,242.662,77.736,242.662,101.222z"/>
		</g>
		<g>
			<path fill="#E240B0" d="M136.909,131.46c1.995,7.245-30.881,15.236-21.506,18.639c13.441,4.882,43.418,17.061-0.42,18.743
				c-22.14,0.846-8.473-25.358-30.089-31.361c-16.943-4.703-17.187-38.723-6.871-41.72c9.633-2.799,29.075,25.257,36.224,25.409
				C129.052,121.485,134.914,124.215,136.909,131.46z"/>
		</g>
		<g>
			<path fill="#E240B0" d="M249.381,181.34c-16.103,50.772-65.1,78.282-102.096,75.355c-71.665-5.674-92.888-63.704-92.888-63.704
				s40.256,10.575,48.496,3.675c12.238-10.256,33.588,17.536,55.77,17.536c14.896,0-14.94,37.125,2.102,29.397
				c14.064-6.377,63.655-45.011,38.848-53.443C177.369,182.595,251.205,175.597,249.381,181.34z"/>
		</g>
		<g>
			<path fill="#3847D1" d="M150.001,258.738c-59.903,0-108.639-48.736-108.639-108.639c0-59.904,48.735-108.639,108.639-108.639
				s108.64,48.735,108.64,108.639C258.641,210.002,209.904,258.738,150.001,258.738z M150.001,45.06
				c-57.918,0-105.039,47.12-105.039,105.039c0,57.918,47.121,105.039,105.039,105.039c57.919,0,105.039-47.12,105.039-105.039
				C255.04,92.18,207.92,45.06,150.001,45.06z"/>
		</g>
	</g>
	<g>
		<g>
			<circle fill="#88BDED" cx="150.001" cy="150.099" r="106.839"/>
		</g>
		<g>
			<path fill="#E240B0" d="M242.662,101.222c0,12.098-19.177-2.041-29.822,3.36c-10.018,5.083,15.961,10.921,2.103,26.041
				c-8.132,8.868-36.892,4.901-60.901-5.881c-23.202-10.419-28.56-32.759-22.26-44.519c4.667-8.708-24.729-21.455-18.949-27.72
				c7.96-8.63,32.121-8.895,45.829-8.895C182.32,43.609,242.662,77.736,242.662,101.222z"/>
		</g>
		<g>
			<path fill="#E240B0" d="M136.909,131.46c1.995,7.245-30.881,15.236-21.506,18.639c13.441,4.882,43.418,17.061-0.42,18.743
				c-22.14,0.846-8.473-25.358-30.089-31.361c-16.943-4.703-17.187-38.723-6.871-41.72c9.633-2.799,29.075,25.257,36.224,25.409
				C129.052,121.485,134.914,124.215,136.909,131.46z"/>
		</g>
		<g>
			<path fill="#E240B0" d="M249.381,181.34c-16.103,50.772-65.1,78.282-102.096,75.355c-71.665-5.674-92.888-63.704-92.888-63.704
				s40.256,10.575,48.496,3.675c12.238-10.256,33.588,17.536,55.77,17.536c14.896,0-14.94,37.125,2.102,29.397
				c14.064-6.377,63.655-45.011,38.848-53.443C177.369,182.595,251.205,175.597,249.381,181.34z"/>
		</g>
		<g>
			<path fill="#3847D1" d="M150.001,258.738c-59.903,0-108.639-48.736-108.639-108.639c0-59.904,48.735-108.639,108.639-108.639
				s108.64,48.735,108.64,108.639C258.641,210.002,209.904,258.738,150.001,258.738z M150.001,45.06
				c-57.918,0-105.039,47.12-105.039,105.039c0,57.918,47.121,105.039,105.039,105.039c57.919,0,105.039-47.12,105.039-105.039
				C255.04,92.18,207.92,45.06,150.001,45.06z"/>
		</g>
	</g>
</g>
</svg>
