<?xml version="1.0" encoding="utf-8"?>
<!-- Generator: Adobe Illustrator 16.0.0, SVG Export Plug-In . SVG Version: 6.00 Build 0)  -->
<!DOCTYPE svg PUBLIC "-//W3C//DTD SVG 1.1//EN" "http://www.w3.org/Graphics/SVG/1.1/DTD/svg11.dtd">
<svg version="1.1" id="Layer_1" xmlns="http://www.w3.org/2000/svg" xmlns:xlink="http://www.w3.org/1999/xlink" x="0px" y="0px"
	 width="300px" height="300px" viewBox="0 0 300 300" enable-background="new 0 0 300 300" xml:space="preserve">
<g>
	<g>
		<g>
			<g>
				<path fill="#88BDED" d="M65.805,230C53.578,230,44,220.491,44,208.352V92.639C44,80.156,53.782,70,65.805,70h168.827
					C246.614,70,256,79.944,256,92.639v115.712c0,12.342-9.187,21.648-21.368,21.648H65.805z"/>
				<path fill="#E214CF" d="M234.632,72C245.35,72,254,81.021,254,92.639v115.712c0,11.619-8.65,19.648-19.368,19.648H65.805
					C55.088,228,46,219.971,46,208.352V92.639C46,81.021,55.088,72,65.805,72H234.632 M234.632,68H65.805
					C52.679,68,42,79.053,42,92.639v115.712C42,221.612,52.457,232,65.805,232h168.827C247.954,232,258,221.833,258,208.352V92.639
					C258,78.823,247.735,68,234.632,68L234.632,68z"/>
			</g>
			<g>
				<path fill="#3847D1" d="M65.805,232C52.457,232,42,221.612,42,208.352V92.639C42,79.053,52.679,68,65.805,68h168.827
					C247.735,68,258,78.823,258,92.639v115.712C258,221.833,247.954,232,234.632,232H65.805z M65.805,76
					C57.09,76,50,83.464,50,92.639v115.712C50,217.272,56.795,224,65.805,224h168.827c8.905,0,15.368-6.581,15.368-15.648V92.639
					C250,83.309,243.249,76,234.632,76H65.805z"/>
				<path fill="#E214CF" d="M234.632,70C246.614,70,256,79.944,256,92.639v115.712c0,12.342-9.187,21.648-21.368,21.648H65.805
					C53.578,230,44,220.491,44,208.352V92.639C44,80.156,53.782,70,65.805,70H234.632 M65.805,226h168.827
					c10.063,0,17.368-7.422,17.368-17.648V92.639C252,82.188,244.371,74,234.632,74H65.805C55.987,74,48,82.361,48,92.639v115.712
					C48,218.413,55.655,226,65.805,226 M234.632,66H65.805C51.576,66,40,77.95,40,92.639v115.712C40,222.733,51.335,234,65.805,234
					h168.827C249.094,234,260,222.974,260,208.352V92.639C260,77.701,248.857,66,234.632,66L234.632,66z M65.805,222
					C57.806,222,52,216.26,52,208.352V92.639C52,84.567,58.193,78,65.805,78h168.827C242.128,78,248,84.43,248,92.639v115.712
					c0,8.036-5.497,13.648-13.368,13.648H65.805L65.805,222z"/>
			</g>
		</g>
		<g>
			<g>
				<path fill="#3847D1" d="M149.82,176.031c-5.777,0-12.459-4.291-13.203-4.78l-0.112-0.079l-0.272-0.207L45.316,91.371
					c-1.66-1.453-1.828-3.985-0.375-5.645c0.761-0.868,1.858-1.365,3.011-1.365c0.969,0,1.904,0.351,2.633,0.989l90.645,79.356
					c2.083,1.318,6.143,3.324,8.589,3.324c2.377,0,6.259-1.706,8.398-2.906l92.153-76.966c0.718-0.6,1.628-0.93,2.563-0.93
					c1.189,0,2.309,0.523,3.071,1.436c1.413,1.693,1.187,4.221-0.506,5.635l-92.68,77.406l-0.288,0.169
					C161.809,172.299,155.284,176.031,149.82,176.031z"/>
				<path fill="#E214CF" d="M47.952,86.361c0.468,0,0.937,0.163,1.316,0.495l90.758,79.456c1.712,1.102,6.483,3.72,9.793,3.72
					c3.177,0,7.829-2.275,9.542-3.255l92.292-77.083c0.374-0.313,0.829-0.465,1.281-0.465c0.572,0,1.141,0.245,1.536,0.718
					c0.708,0.848,0.595,2.109-0.253,2.817l-92.552,77.299l-0.144,0.084c-0.271,0.159-6.692,3.884-11.703,3.884
					c-5.281,0-11.827-4.269-12.103-4.45l-0.218-0.166L46.634,89.866c-0.831-0.728-0.915-1.991-0.188-2.822
					C46.842,86.592,47.396,86.361,47.952,86.361 M47.952,82.361c-1.729,0-3.375,0.746-4.514,2.045
					c-1.057,1.208-1.58,2.752-1.474,4.352c0.106,1.599,0.829,3.061,2.035,4.117l90.866,79.549l0.102,0.089l0.108,0.083l0.218,0.166
					l0.11,0.083l0.115,0.076c0.794,0.522,7.943,5.109,14.302,5.109c5.993,0,12.952-3.979,13.726-4.434l0.14-0.082l0.288-0.168
					l0.257-0.214l92.552-77.3c2.538-2.12,2.879-5.911,0.759-8.451c-1.144-1.37-2.822-2.155-4.606-2.155
					c-1.403,0-2.77,0.496-3.847,1.396l-92.007,76.845c-2.293,1.262-5.612,2.562-7.261,2.562c-1.693,0-5.084-1.494-7.391-2.933
					L51.903,83.846C50.808,82.888,49.405,82.361,47.952,82.361L47.952,82.361z"/>
			</g>
		</g>
	</g>
	<g>
		<g>
			<g>
				<path fill="#F275C5" d="M151.117,189.66c-17.893-0.002-32.45-14.56-32.45-32.452c0.001-17.893,14.558-32.45,32.45-32.45
					c17.893,0.003,32.449,14.56,32.449,32.45C183.568,175.1,169.012,189.658,151.117,189.66L151.117,189.66z"/>
				<path fill="#E214CF" d="M151.117,126.758c16.818,0.003,30.449,13.637,30.449,30.45c0.002,16.819-13.633,30.45-30.449,30.452
					c-16.816-0.002-30.45-13.633-30.45-30.452C120.668,140.395,134.302,126.758,151.117,126.758 M151.118,122.758L151.118,122.758
					c-18.996,0-34.45,15.454-34.451,34.45c0,18.995,15.454,34.45,34.45,34.452c9.202-0.001,17.854-3.585,24.36-10.091
					c6.507-6.508,10.09-15.159,10.089-24.361C185.566,138.215,170.113,122.761,151.118,122.758L151.118,122.758z"/>
			</g>
			<g>
				<path fill="#3847D1" d="M151.117,191.66c-18.996-0.002-34.45-15.457-34.45-34.452c0.001-18.996,15.456-34.45,34.45-34.45
					c18.995,0.003,34.449,15.458,34.449,34.45c0.001,9.188-3.586,17.835-10.1,24.349
					C168.954,188.071,160.306,191.659,151.117,191.66L151.117,191.66z M151.117,130.758c-14.584,0-26.449,11.866-26.45,26.45
					c0,14.584,11.866,26.45,26.45,26.452c7.054-0.001,13.692-2.756,18.694-7.759c5.002-5.002,7.756-11.641,7.755-18.693
					C177.566,142.626,165.701,130.761,151.117,130.758L151.117,130.758z"/>
				<path fill="#E214CF" d="M151.117,124.758c17.893,0.003,32.449,14.56,32.449,32.45c0.002,17.892-14.555,32.45-32.449,32.452
					c-17.893-0.002-32.45-14.56-32.45-32.452C118.668,139.315,133.225,124.758,151.117,124.758 M151.117,185.66
					c15.688-0.002,28.451-12.766,28.449-28.452c0-15.685-12.763-28.447-28.449-28.45c-15.687,0-28.449,12.763-28.45,28.45
					C122.667,172.895,135.43,185.658,151.117,185.66 M151.118,120.758L151.118,120.758c-20.099,0-36.45,16.352-36.451,36.45
					c0,20.098,16.351,36.45,36.45,36.452c9.724-0.001,18.873-3.797,25.765-10.689c6.891-6.892,10.686-16.041,10.685-25.763
					C187.566,137.113,171.216,120.761,151.118,120.758L151.118,120.758z M151.117,181.66c-13.481-0.002-24.45-10.971-24.45-24.452
					c0.001-13.482,10.969-24.45,24.45-24.45c13.481,0.002,24.449,10.971,24.449,24.45c0.001,6.519-2.545,12.655-7.169,17.279
					C163.773,179.112,157.636,181.659,151.117,181.66L151.117,181.66L151.117,181.66z"/>
			</g>
		</g>
		<g>
			<g>
				<path fill="#E240B0" d="M151.211,183.986c-9.886,0-23.933-10.985-23.933-21.241c0.002-9.762,11.639-9.762,17.23-9.762
					c1.188,0,2.376,0.02,3.538,0.038c1.087,0.018,2.15,0.035,3.165,0.035c0.925,0,1.891-0.013,2.878-0.025
					c1.053-0.015,2.129-0.028,3.21-0.028c5.792,0,17.846,0,17.846,9.896C175.145,173.359,161.22,183.986,151.211,183.986z"/>
				<path fill="#E214CF" d="M144.508,154.983c2.301,0,4.604,0.073,6.703,0.073c1.911,0,3.992-0.054,6.087-0.054
					c7.831,0,15.847,0.754,15.847,7.896c0,9.056-12.879,19.088-21.934,19.088s-21.933-10.187-21.933-19.241
					C129.279,155.79,136.88,154.983,144.508,154.983 M144.508,150.983c-5.259,0-19.228,0-19.23,11.761
					c0,11.53,15.088,23.242,25.933,23.242c5.301,0,11.629-2.646,16.929-7.08c5.723-4.787,9.005-10.621,9.005-16.008
					c0-4.916-2.707-8.604-7.624-10.387c-3.668-1.33-8.237-1.509-12.222-1.509c-1.09,0-2.176,0.014-3.236,0.028
					c-0.979,0.013-1.935,0.025-2.852,0.025c-1.004,0-2.056-0.018-3.132-0.035C146.907,151.003,145.708,150.983,144.508,150.983
					L144.508,150.983z"/>
			</g>
		</g>
		<g>
			<g>
				<path fill="#350F2C" d="M151.118,170.162c-7.43,0-13.474-6.045-13.474-13.475c0-7.429,6.044-13.474,13.474-13.474
					s13.474,6.044,13.474,13.474C164.592,164.117,158.548,170.162,151.118,170.162z"/>
				<path fill="#E214CF" d="M151.118,145.214c6.337,0,11.474,5.137,11.474,11.474c0,6.338-5.137,11.475-11.474,11.475
					s-11.474-5.137-11.474-11.475C139.644,150.351,144.781,145.214,151.118,145.214 M151.118,141.214
					c-8.532,0-15.474,6.941-15.474,15.474c0,8.533,6.942,15.475,15.474,15.475s15.474-6.941,15.474-15.475
					C166.592,148.155,159.65,141.214,151.118,141.214L151.118,141.214z"/>
			</g>
		</g>
		<g>
			<g>
				<path fill="#FFBBED" d="M165.097,157.829c-3.742,0-7.641-1.718-10.695-4.711c-2.608-2.555-4.31-5.753-4.793-9.005
					c-0.513-3.458,0.391-6.573,2.545-8.771c1.785-1.823,4.315-2.827,7.124-2.827c3.741,0,7.64,1.717,10.694,4.71
					c5.532,5.42,6.541,13.395,2.249,17.776C170.435,156.825,167.905,157.829,165.097,157.829z"/>
				<path fill="#E214CF" d="M159.277,134.515c3.084,0,6.523,1.423,9.295,4.139c4.752,4.656,5.746,11.349,2.22,14.948
					c-1.469,1.5-3.492,2.227-5.695,2.227c-3.085,0-6.523-1.423-9.296-4.14c-4.752-4.655-5.746-11.348-2.219-14.948
					C155.051,135.242,157.074,134.515,159.277,134.515 M159.277,130.515L159.277,130.515c-3.352,0-6.389,1.218-8.554,3.428
					c-2.564,2.617-3.692,6.432-3.094,10.464c0.546,3.681,2.454,7.281,5.372,10.14c3.425,3.356,7.834,5.282,12.095,5.282
					c3.351,0,6.388-1.218,8.553-3.428c5.064-5.169,4.042-14.412-2.277-20.604C167.946,132.44,163.538,130.515,159.277,130.515
					L159.277,130.515z"/>
			</g>
		</g>
	</g>
</g>
<g>
	<g>
		<g>
			<path fill="#88BDED" d="M254,208.352c0,11.619-8.65,19.648-19.368,19.648H65.805C55.088,228,46,219.971,46,208.352V92.639
				C46,81.021,55.088,72,65.805,72h168.827C245.35,72,254,81.021,254,92.639V208.352z"/>
			<path fill="#3847D1" d="M234.632,230H65.805C53.578,230,44,220.491,44,208.352V92.639C44,80.156,53.782,70,65.805,70h168.827
				C246.614,70,256,79.944,256,92.639v115.712C256,220.693,246.813,230,234.632,230z M65.805,74C55.987,74,48,82.361,48,92.639
				v115.712C48,218.413,55.655,226,65.805,226h168.827c10.063,0,17.368-7.422,17.368-17.648V92.639
				C252,82.188,244.371,74,234.632,74H65.805z"/>
		</g>
		<g>
			<path fill="#3847D1" d="M149.82,174.031c-5.281,0-11.827-4.269-12.103-4.45l-0.218-0.166L46.634,89.866
				c-0.831-0.728-0.915-1.991-0.188-2.822c0.728-0.831,1.991-0.915,2.822-0.188l90.758,79.456c1.712,1.102,6.483,3.72,9.793,3.72
				c3.177,0,7.829-2.275,9.542-3.255l92.292-77.083c0.848-0.708,2.109-0.595,2.817,0.253c0.708,0.848,0.595,2.109-0.253,2.817
				l-92.552,77.299l-0.144,0.084C161.251,170.307,154.83,174.031,149.82,174.031z"/>
		</g>
	</g>
	<g>
		<g>
			<path fill="#F275C5" d="M181.566,157.208c0.002,16.819-13.633,30.45-30.449,30.452c-16.816-0.002-30.45-13.633-30.45-30.452
				c0.001-16.813,13.635-30.45,30.45-30.45C167.936,126.761,181.566,140.395,181.566,157.208z"/>
			<path fill="#3847D1" d="M151.117,189.66L151.117,189.66c-17.893-0.002-32.45-14.56-32.45-32.452
				c0.001-17.893,14.558-32.45,32.45-32.45c17.893,0.003,32.449,14.56,32.449,32.45C183.568,175.1,169.012,189.658,151.117,189.66z
				 M151.117,128.758c-15.687,0-28.449,12.763-28.45,28.45c0,15.687,12.763,28.45,28.45,28.452
				c15.688-0.002,28.451-12.766,28.449-28.452C179.566,141.523,166.804,128.761,151.117,128.758z"/>
		</g>
		<g>
			<path fill="#E240B0" d="M173.145,162.898c0,9.056-12.879,19.088-21.934,19.088s-21.933-10.187-21.933-19.241
				c0.002-9.054,12.877-7.688,21.933-7.688C160.266,155.057,173.145,153.846,173.145,162.898z"/>
		</g>
		<g>
			<circle fill="#350F2C" cx="151.118" cy="156.688" r="11.474"/>
		</g>
		<g>
			
				<ellipse transform="matrix(-0.7143 -0.6998 0.6998 -0.7143 176.4446 362.3732)" fill="#FFBBED" cx="162.187" cy="145.172" rx="12.046" ry="9.124"/>
		</g>
	</g>
</g>
</svg>
