<?xml version="1.0" encoding="utf-8"?>
<!-- Generator: Adobe Illustrator 16.0.0, SVG Export Plug-In . SVG Version: 6.00 Build 0)  -->
<!DOCTYPE svg PUBLIC "-//W3C//DTD SVG 1.1//EN" "http://www.w3.org/Graphics/SVG/1.1/DTD/svg11.dtd">
<svg version="1.1" id="Layer_1" xmlns="http://www.w3.org/2000/svg" xmlns:xlink="http://www.w3.org/1999/xlink" x="0px" y="0px"
	 width="300px" height="300px" viewBox="0 0 300 300" enable-background="new 0 0 300 300" xml:space="preserve">
<g>
	<g>
		<g>
			<path fill="#88BDED" d="M133.628,277.499c-4.091,0-10.128-4.841-10.128-9.19v-16.83c-10.265-2.535-18.122-6.403-26.471-11.393
				l-10.471,11.638c-1.52,1.523-3.464,2.33-5.53,2.33c-2.032,0-3.941-0.788-5.374-2.219l-26.174-26.07
				c-2.983-2.981-2.983-7.652-0.002-10.636l11.478-11.076c-5.214-8.396-9.373-15.389-12.042-27.552h-16.48
				c-4.012,0-9.933-4.944-9.933-9.386v-37.021c0-3.555,3.621-5.594,9.933-5.594h16.212c2.581-11.17,6.718-21.498,12.31-30.73
				L48.781,80.652c-1.411-1.408-2.222-3.328-2.247-5.364c-0.025-2.06,0.76-3.992,2.209-5.441l26.021-26.174
				c1.454-1.453,3.326-2.251,5.275-2.251s3.821,0.798,5.271,2.248l11.687,12.263c8.401-5.023,16.28-8.912,26.502-11.437V27.666
				c0-5.166,7.358-5.166,10.128-5.166h37.021c1.68,0,3.13,0,4.052,1.032c0.801,0.896,0.801,2.053,0.8,3.97v16.88
				c11.19,2.596,21.51,6.729,30.708,12.299l13.486-12.13c1.372-1.375,3.276-2.161,5.304-2.161c2.068,0,4.018,0.81,5.487,2.281
				l26.182,26.312c3.005,3.008,3.005,8.094-0.002,11.105L244.37,94.867c5.471,9.26,9.302,18.977,11.684,29.633h17.022
				c1.7,0,2.838,0.157,3.627,0.96c0.861,0.878,0.839,2.05,0.811,3.535c-0.006,0.328-0.013,0.692-0.013,1.095v37.021
				c0,0.365,0.006,0.743,0.012,1.126c0.038,2.571,0.082,5.485-1.529,7.121c-0.745,0.756-1.723,1.14-2.906,1.14h-17.336
				c-2.542,10.281-6.404,18.125-11.38,26.45l11.597,10.845c1.486,1.483,2.269,3.417,2.24,5.479
				c-0.028,2.035-0.841,3.954-2.289,5.404l-26.359,26.181c-1.424,1.425-3.465,2.244-5.595,2.244c-2.131,0-4.172-0.819-5.6-2.248
				l-12.171-11.513c-9.147,5.532-19.458,9.649-30.684,12.25v16.879c0,1.773,0.001,3.784-0.477,5.446
				c-0.895,3.117-3.126,3.583-4.376,3.583H133.628z M152.346,75.031c-40.229,0-72.957,32.728-72.957,72.956
				s32.728,72.957,72.957,72.957c40.227,0,72.954-32.729,72.954-72.957S192.572,75.031,152.346,75.031z"/>
			<path fill="#E214CF" d="M170.648,24c3.408,0,3.352,0.258,3.352,3.666V45.58c12,2.654,22.939,7.096,32.378,12.965l14.319-12.879
				c1.19-1.189,2.743-1.776,4.301-1.776c1.6,0,3.205,0.619,4.426,1.841l26.18,26.31c2.408,2.41,2.408,6.576,0,8.987l-13.109,13.625
				c5.611,9.266,9.807,19.347,12.352,31.347h18.23c3.408,0,2.924,0.687,2.925,4.091v37.021c0,3.41,0.485,7.887-2.924,7.887h-18.519
				c-2.567,11-6.711,19.303-12.108,28.217l12.483,11.674c2.412,2.409,2.323,6.316-0.086,8.728l-26.354,26.177
				c-1.205,1.205-2.872,1.809-4.538,1.809c-1.667,0-3.334-0.604-4.538-1.809l-13.037-12.332c-9.44,5.87-20.379,10.279-32.379,12.932
				v17.916c0,3.408,0.056,7.69-3.353,7.69h-37.021c-3.41,0-8.628-4.282-8.628-7.69v-18.013c-11-2.563-19.225-6.664-28.259-12.133
				l-11.298,12.558c-1.218,1.218-2.818,1.833-4.415,1.833c-1.563,0-3.122-0.589-4.314-1.78l-26.176-26.071
				c-2.412-2.411-2.41-6.101,0-8.513l12.331-11.899c-5.724-9.203-10.067-16.289-12.741-29.289H32.433
				c-3.409,0-8.433-4.476-8.433-7.886v-37.021c0-3.407,5.025-4.094,8.433-4.094h17.411c2.642-12,7.044-22.866,12.985-32.416
				L49.881,79.632c-2.412-2.41-2.487-6.314-0.077-8.725L75.828,44.73c1.206-1.206,2.709-1.808,4.211-1.808
				c1.502,0,3.005,0.603,4.21,1.808L96.74,57.837c9.034-5.469,17.259-9.598,28.259-12.159V27.666c0-3.408,5.218-3.666,8.628-3.666
				H170.648 M152.346,222.443c41.053,0,74.454-33.402,74.454-74.457c0-41.056-33.399-74.456-74.454-74.456
				c-41.057,0-74.457,33.4-74.457,74.456C77.889,189.041,111.289,222.443,152.346,222.443 M170.648,21h-37.021
				c-2.876,0-11.628,0-11.628,6.666v15.662c-9.435,2.463-16.916,6.091-24.741,10.704L86.421,42.66l-0.025-0.026l-0.025-0.025
				c-1.732-1.733-3.981-2.687-6.331-2.687c-2.351,0-4.599,0.954-6.333,2.687l-26.03,26.184c-1.731,1.732-2.672,4.047-2.642,6.514
				c0.029,2.41,0.981,4.682,2.682,6.404L59.09,93.966c-5.189,8.795-9.094,18.542-11.632,29.034H32.433
				C22.114,123,21,127.961,21,130.094v37.021c0,5.4,6.652,10.886,11.433,10.886h15.283c2.625,11.196,6.661,18.263,11.327,25.813
				L48.455,214.03l-0.02,0.02l-0.019,0.02c-3.575,3.577-3.575,9.181,0.001,12.755l26.18,26.075c1.713,1.711,3.999,2.654,6.431,2.654
				c2.466,0,4.788-0.963,6.537-2.712l0.056-0.056l0.053-0.059l9.648-10.724c7.767,4.572,15.221,8.176,24.679,10.642v15.663
				c0,5.304,6.765,10.69,11.628,10.69h37.021c2.846,0,4.967-1.702,5.818-4.669c0.535-1.866,0.535-3.988,0.534-5.86v-0.161v-15.531
				c10.533-2.552,20.26-6.435,28.978-11.567l11.35,10.737c1.705,1.688,4.117,2.654,6.627,2.654c2.525,0,4.952-0.979,6.66-2.688
				l26.347-26.169c1.733-1.735,2.703-4.024,2.736-6.452c0.034-2.472-0.905-4.789-2.645-6.527l-0.035-0.034l-0.036-0.034
				l-10.716-10.021c4.062-6.894,8.02-14.698,10.639-24.679h16.172c1.993,0,3.262-0.863,3.975-1.587
				c2.053-2.083,2.004-5.331,1.961-8.196c-0.006-0.376-0.012-0.746-0.012-1.104v-37.021c0-0.393,0.007-0.748,0.013-1.067
				c0.03-1.616,0.063-3.286-1.24-4.613c-1.276-1.301-3.021-1.41-4.697-1.41h-15.827c-2.344-9.979-5.963-19.151-11.012-27.91
				l11.511-11.964c3.56-3.588,3.552-9.628-0.022-13.205l-26.175-26.306c-1.758-1.758-4.083-2.725-6.552-2.725
				c-2.399,0-4.655,0.92-6.361,2.594l-12.61,11.342c-8.769-5.174-18.513-9.078-29.027-11.629v-15.53v-0.164
				c0.001-2.038,0.001-3.647-1.181-4.97C174.449,21,172.431,21,170.648,21L170.648,21z M152.346,219.443
				c-39.401,0-71.457-32.056-71.457-71.457s32.055-71.456,71.457-71.456c39.4,0,71.454,32.055,71.454,71.456
				S191.746,219.443,152.346,219.443L152.346,219.443z"/>
		</g>
		<g>
			<path fill="#3847D1" d="M133.628,279.499c-5.072,0-12.128-5.639-12.128-11.19V253.03c-9.945-2.642-17.47-6.51-24.081-10.388
				l-9.447,10.496c-1.896,1.9-4.344,2.915-6.944,2.915c-2.566,0-4.977-0.996-6.788-2.804l-26.172-26.068
				c-3.777-3.775-3.779-9.69-0.005-13.467l10.343-9.981c-4.864-7.892-8.559-14.617-11.087-25.232H32.433
				c-4.99,0-11.933-5.737-11.933-11.386v-37.021c0-4.755,4.461-7.594,11.933-7.594h14.632c2.519-10.261,6.351-19.826,11.405-28.467
				L47.315,82.013c-1.748-1.742-2.75-4.137-2.781-6.701c-0.031-2.603,0.961-5.046,2.794-6.879l26.017-26.17
				c1.834-1.833,4.21-2.841,6.694-2.841c2.484,0,4.858,1.006,6.685,2.834L97.347,53.4c6.662-3.914,14.229-7.816,24.152-10.457
				V27.666c0-7.166,9.128-7.166,12.128-7.166h37.021c1.887,0,4.024,0,5.543,1.699c1.311,1.466,1.31,3.16,1.309,5.304v15.301
				c10.284,2.533,19.85,6.365,28.465,11.405l12.355-11.112c1.751-1.729,4.141-2.707,6.678-2.707c2.603,0,5.054,1.019,6.901,2.867
				l26.186,26.315c3.77,3.772,3.769,10.152-0.005,13.929l-11.223,11.665c4.918,8.602,8.457,17.567,10.787,27.334h15.432
				c1.783,0,3.643,0.121,5.055,1.56c1.449,1.476,1.414,3.333,1.383,4.973c-0.007,0.35-0.013,0.687-0.013,1.058v37.021
				c0,0.351,0.006,0.715,0.012,1.083c0.042,2.829,0.095,6.334-2.104,8.567c-0.78,0.792-2.165,1.736-4.331,1.736H257.29
				c-2.681,10.028-6.687,17.773-10.389,24.087l10.423,9.747c1.901,1.897,2.91,4.359,2.874,6.968c-0.036,2.56-1.057,4.971-2.874,6.79
				l-26.365,26.187c-1.793,1.794-4.347,2.825-7.004,2.825s-5.214-1.033-7.014-2.834l-11.034-10.437
				c-8.563,4.997-18.108,8.808-28.406,11.338v15.301c0.001,1.902,0.002,4.06-0.553,5.997c-1.304,4.542-4.84,5.032-6.3,5.032H133.628
				z M98.554,235.169c8.659,5.241,16.605,9.24,27.24,11.718l2.706,0.631v20.791c0,1.1,3.237,4.19,5.128,4.19h36.601
				c0.272-0.986,0.272-2.595,0.272-4.015v-20.903l2.744-0.606c11.535-2.549,22.061-6.75,31.287-12.485l2.292-1.426l14.998,14.187
				c0.56,0.56,1.307,0.852,2.133,0.852c0.813,0,1.565-0.285,2.063-0.783l26.363-26.186c0.516-0.517,0.808-1.203,0.817-1.93
				c0.01-0.7-0.253-1.353-0.738-1.838l-14.477-13.533l1.472-2.431c5.221-8.621,9.208-16.546,11.694-27.198l0.631-2.705h20.64
				c0.126-0.914,0.102-2.56,0.092-3.182c-0.006-0.425-0.012-0.822-0.012-1.205v-37.021c0-0.206,0.002-0.403,0.004-0.591H252.01
				l-0.588-2.774c-2.322-10.95-6.223-20.849-11.922-30.26l-1.393-2.301l14.974-15.563c1.09-1.091,1.103-3.029,0.047-4.086
				L226.942,48.2c-0.521-0.521-1.213-0.81-1.944-0.81c-0.692,0-1.341,0.267-1.827,0.752l-0.104,0.099l-16.305,14.666l-2.233-1.39
				c-9.274-5.767-19.801-9.979-31.285-12.519l-2.744-0.607c0,0,0-20.89,0-20.891h-36.873c-3.404,0-4.695,0.392-5.128,0.589v20.368
				l-2.707,0.63c-10.573,2.462-18.537,6.476-27.24,11.745l-2.406,1.456L81.715,47.145c-0.451-0.45-1.071-0.723-1.676-0.723
				c-0.615,0-1.231,0.278-1.737,0.784l-26.016,26.17c-0.495,0.495-0.761,1.151-0.752,1.853c0.009,0.723,0.3,1.408,0.821,1.928
				l14.858,16.006l-1.413,2.271c-5.796,9.317-10.015,19.855-12.539,31.319l-0.605,2.748H32.433c-2.721,0-4.443,0.504-4.933,0.833
				v36.782c0,1.274,3.237,4.386,4.933,4.386h20.548l0.575,2.794c2.58,12.543,6.862,19.429,12.285,28.146l1.494,2.402l-14.367,13.864
				c-0.998,1-0.988,2.487,0.044,3.52l26.171,26.066c0.491,0.49,1.145,0.76,1.844,0.76c0.719,0,1.4-0.279,1.917-0.786l13.131-14.599
				L98.554,235.169z M152.346,225.943c-42.985,0-77.957-34.971-77.957-77.957c0-42.985,34.971-77.956,77.957-77.956
				c42.984,0,77.954,34.971,77.954,77.956C230.3,190.973,195.33,225.943,152.346,225.943z M152.346,77.031
				c-39.125,0-70.957,31.831-70.957,70.956c0,39.125,31.831,70.957,70.957,70.957c39.124,0,70.954-31.831,70.954-70.957
				C223.3,108.862,191.47,77.031,152.346,77.031z"/>
			<path fill="#E214CF" d="M170.648,22c1.725,0,3.354,0,4.425,1.199c0.928,1.038,0.928,2.337,0.927,4.303v16.483
				c10.964,2.583,21.093,6.639,30.148,12.076l13.175-11.849c1.52-1.498,3.533-2.322,5.675-2.322c2.202,0,4.276,0.862,5.841,2.428
				l26.183,26.313c3.196,3.199,3.196,8.609-0.003,11.811L244.993,94.94c5.328,9.093,9.09,18.63,11.461,29.06h16.622
				c1.525,0,2.978,0.085,3.983,1.11c1.009,1.027,0.983,2.356,0.954,3.894c-0.006,0.326-0.013,0.687-0.013,1.086v37.021
				c0,0.362,0.006,0.738,0.012,1.118c0.04,2.669,0.085,5.694-1.673,7.479c-0.579,0.588-1.615,1.289-3.263,1.289h-16.946
				c-2.672,10.562-6.868,18.692-11.134,25.86l11.303,10.569c1.594,1.591,2.429,3.652,2.398,5.852
				c-0.03,2.166-0.895,4.208-2.436,5.751l-26.36,26.182c-1.516,1.517-3.686,2.39-5.947,2.39c-2.263,0-4.433-0.873-5.953-2.395
				l-11.886-11.242c-9.005,5.398-19.121,9.437-30.115,12.022v16.482c0.001,1.807,0.001,3.854-0.495,5.584
				c-0.985,3.433-3.467,3.945-4.857,3.945h-37.021c-4.39,0-10.628-5.012-10.628-9.69v-16.439
				c-9.994-2.514-17.721-6.294-25.875-11.143l-10.268,11.408c-1.56,1.561-3.63,2.419-5.83,2.419c-2.166,0-4.2-0.84-5.728-2.365
				l-26.174-26.069c-3.182-3.181-3.182-8.162-0.003-11.344l11.194-10.803c-5.084-8.194-9.153-15.135-11.806-26.972H32.433
				c-4.31,0-10.433-5.112-10.433-9.886v-37.021c0-3.873,3.803-6.094,10.433-6.094h15.815c2.568-10.944,6.627-21.077,12.084-30.166
				L48.415,80.992c-1.491-1.487-2.354-3.53-2.38-5.698c-0.026-2.195,0.81-4.255,2.355-5.801L74.41,43.32
				c1.549-1.548,3.546-2.398,5.63-2.398c2.083,0,4.081,0.851,5.624,2.395l11.42,11.982c8.208-4.885,15.957-8.688,25.916-11.194
				V27.666C122.999,22,130.72,22,133.627,22H170.648 M96.401,60.38l-13.6-14.27c-0.755-0.754-1.748-1.188-2.762-1.188
				c-1.015,0-2.009,0.435-2.797,1.223l-26.02,26.173c-0.781,0.781-1.202,1.82-1.188,2.928c0.014,1.118,0.461,2.173,1.26,2.972
				l14.04,15.126l-0.807,1.297c-5.886,9.462-10.169,20.157-12.73,31.79L51.452,128H32.433c-3.099,0-6.433,0.655-6.433,2.094v37.021
				c0,2.2,4.028,5.886,6.433,5.886h19.325l0.329,1.597c2.633,12.804,6.979,19.791,12.48,28.636l0.854,1.373l-13.495,13.022
				c-1.594,1.596-1.595,4.04,0.025,5.659l26.173,26.068c0.774,0.773,1.804,1.197,2.902,1.197c1.115,0,2.167-0.431,2.967-1.214
				l12.367-13.745l1.416,0.857c8.78,5.314,16.846,9.372,27.677,11.896l1.546,0.36v19.601c0,2.127,4.15,5.69,6.628,5.69h37.021
				c0.382,0,0.711,0,1.012-1.049c0.342-1.188,0.341-2.937,0.341-4.479v-19.685l1.568-0.347c11.702-2.586,22.386-6.852,31.755-12.677
				l1.31-0.814l14.157,13.392c0.816,0.816,1.955,1.262,3.164,1.262c1.208,0,2.347-0.445,3.124-1.223l26.359-26.182
				c0.795-0.796,1.245-1.854,1.261-2.974c0.015-1.108-0.403-2.146-1.179-2.92l-13.622-12.736l0.841-1.389
				c5.296-8.745,9.341-16.791,11.872-27.635l0.36-1.546h20.105c0.211,0,0.351-0.032,0.413-0.096
				c0.583-0.593,0.545-3.109,0.522-4.612c-0.006-0.401-0.012-0.797-0.012-1.179v-37.021c0-0.427,0.007-0.813,0.014-1.162
				c0.006-0.294,0.012-0.629,0.008-0.899c-0.21-0.017-0.513-0.03-0.946-0.03h-19.851l-0.336-1.585
				c-2.358-11.117-6.318-21.168-12.106-30.726l-0.796-1.315l14.175-14.733c1.666-1.667,1.666-4.546,0.026-6.187l-26.183-26.313
				c-0.806-0.806-1.874-1.252-3.008-1.252c-1.093,0-2.118,0.423-2.887,1.191l-0.076,0.072l-15.438,13.884l-1.275-0.794
				c-9.42-5.857-20.104-10.134-31.754-12.71L172,47.186V27.501c0-0.517,0-1.079-0.021-1.469C171.533,26,170.905,26,170.648,26
				h-37.021c-5.982,0-6.628,1.165-6.628,1.666v19.6l-1.546,0.36c-10.767,2.507-18.851,6.58-27.677,11.922L96.401,60.38
				 M152.346,71.531c42.157,0,76.454,34.298,76.454,76.456c0,42.159-34.297,76.457-76.454,76.457
				c-42.158,0-76.457-34.298-76.457-76.457C75.889,105.829,110.188,71.531,152.346,71.531 M152.346,220.443
				c39.951,0,72.454-32.504,72.454-72.457c0-39.952-32.503-72.456-72.454-72.456c-39.953,0-72.457,32.503-72.457,72.456
				C79.889,187.939,112.393,220.443,152.346,220.443 M170.648,19h-37.021c-1.595,0-4.563,0-7.289,0.842
				c-5.515,1.703-6.339,5.633-6.339,7.824v14.132c-9.049,2.535-16.132,6.092-22.384,9.709l-9.779-10.261l-0.025-0.026l-0.025-0.025
				c-2.11-2.111-4.861-3.273-7.746-3.273c-2.884,0-5.636,1.164-7.75,3.276l-26.027,26.18c-2.115,2.116-3.264,4.942-3.228,7.952
				c0.035,2.938,1.178,5.685,3.218,7.743l10.365,11.169c-4.667,8.187-8.266,17.167-10.723,26.758H32.433
				C19.969,121,19,127.96,19,130.094v37.021c0,6.637,7.568,12.886,13.433,12.886h13.709c2.452,9.713,5.9,16.195,10.354,23.489
				l-9.457,9.127l-0.02,0.019l-0.019,0.02c-4.368,4.371-4.366,11.217,0.004,15.586l26.178,26.073
				c2.091,2.088,4.878,3.239,7.845,3.239c3.001,0,5.825-1.171,7.951-3.298l0.056-0.056l0.053-0.059l8.631-9.59
				c6.197,3.577,13.235,7.096,22.281,9.625v14.132c0,6.536,7.677,12.69,13.628,12.69h37.021c3.747,0,6.642-2.287,7.741-6.117
				c0.613-2.142,0.612-4.511,0.611-6.414V254.34c9.616-2.464,18.572-6.039,26.687-10.651l10.225,9.671
				c2.077,2.062,5.006,3.242,8.043,3.242c3.052,0,5.993-1.191,8.069-3.27l26.353-26.173c2.104-2.106,3.279-4.887,3.321-7.838
				c0.041-3.019-1.123-5.865-3.279-8.017l-0.034-0.035l-0.036-0.033l-9.55-8.931c3.442-5.969,7.067-13.184,9.636-22.308h14.643
				c2.095,0,4.013-0.775,5.4-2.184c2.639-2.681,2.581-6.534,2.535-9.63c-0.006-0.368-0.012-0.728-0.012-1.073V130.09
				c0-0.361,0.006-0.689,0.012-0.986c0.033-1.784,0.079-4.169-1.813-6.096C277.229,121,274.527,121,273.076,121h-14.254
				c-2.271-9.095-5.596-17.51-10.109-25.599l10.449-10.86c4.326-4.354,4.32-11.688-0.019-16.031l-26.178-26.309
				c-2.136-2.137-4.964-3.312-7.968-3.312c-2.909,0-5.65,1.112-7.729,3.134l-11.498,10.341c-8.168-4.659-17.154-8.261-26.771-10.73
				V27.502c0.001-2.267,0.002-4.409-1.689-6.302C175.345,19,172.63,19,170.648,19L170.648,19z M129.999,29.232
				c0.676-0.116,1.808-0.232,3.628-0.232H169v18.186v2.409l2.353,0.52l1.568,0.347c11.317,2.503,21.687,6.651,30.817,12.329
				l1.274,0.793l1.914,1.192l1.677-1.508l15.438-13.884l0.03-0.027l0.029-0.027l0.076-0.072l0.027-0.026l0.027-0.027
				c0.205-0.205,0.471-0.313,0.767-0.313c0.336,0,0.643,0.129,0.886,0.373l26.178,26.309c0.479,0.479,0.467,1.461-0.021,1.95
				l-0.021,0.02L252,77.561l-14.175,14.733l-1.598,1.661l1.193,1.972l0.796,1.315c5.611,9.266,9.45,19.012,11.738,29.795
				l0.336,1.584l0.504,2.378h2.431h17.775v36.111c0,0.393,0.006,0.8,0.012,1.213c0.006,0.367,0.016,1.032,0.003,1.674h-18.044
				h-2.381l-0.541,2.319l-0.36,1.546c-2.441,10.459-6.369,18.263-11.517,26.762l-0.841,1.389l-1.261,2.082l1.778,1.663
				l13.574,12.692c0.187,0.197,0.279,0.444,0.275,0.732c-0.005,0.338-0.137,0.647-0.384,0.894l-26.351,26.173
				c-0.174,0.174-0.524,0.352-1.01,0.352c-0.419,0-0.8-0.14-1.043-0.383l-0.029-0.029l-0.03-0.029l-14.157-13.392l-1.681-1.59
				l-1.965,1.222l-1.31,0.814c-9.082,5.646-19.45,9.783-30.818,12.295l-1.568,0.347l-2.353,0.521v2.409v19.685
				c0,0.779,0,1.736-0.059,2.528h-35.314c-0.918-0.069-3.219-1.896-3.628-2.867v-19.424v-2.381l-2.319-0.541l-1.546-0.36
				c-10.443-2.433-18.268-6.373-26.805-11.54l-1.415-0.857l-2.124-1.286l-1.661,1.846l-12.285,13.654
				c-0.23,0.204-0.512,0.312-0.818,0.312c-0.302,0-0.573-0.11-0.782-0.319l-26.177-26.072c-0.436-0.435-0.45-0.971-0.035-1.397
				l13.471-12.999l1.745-1.685l-1.281-2.06l-0.854-1.373c-5.343-8.59-9.564-15.375-12.089-27.655l-0.329-1.597l-0.493-2.396h-2.445
				H32.433c-0.917-0.116-3.101-2.023-3.433-3.012V131.36c0.699-0.177,1.871-0.36,3.433-0.36h19.019h2.411l0.519-2.355l0.346-1.57
				c2.487-11.298,6.641-21.677,12.348-30.85l0.807-1.297l1.21-1.946l-1.559-1.68l-14.04-15.126l-0.038-0.041l-0.04-0.04
				c-0.245-0.245-0.377-0.552-0.381-0.886c-0.004-0.302,0.101-0.561,0.31-0.77L79.37,48.26c0.213-0.213,0.459-0.338,0.67-0.338
				c0.2,0,0.431,0.109,0.622,0.292L94.229,62.45l1.663,1.745l2.063-1.249l1.375-0.832c8.581-5.194,16.422-9.149,26.803-11.567
				l1.546-0.36l2.32-0.54v-2.382V29.232L129.999,29.232z M152.346,68.531c-43.813,0-79.457,35.644-79.457,79.456
				s35.644,79.457,79.457,79.457c43.812,0,79.454-35.645,79.454-79.457S196.157,68.531,152.346,68.531L152.346,68.531z
				 M152.346,217.443c-38.298,0-69.457-31.158-69.457-69.457c0-38.298,31.158-69.456,69.457-69.456
				c38.297,0,69.454,31.158,69.454,69.456C221.8,186.285,190.643,217.443,152.346,217.443L152.346,217.443z"/>
		</g>
	</g>
	<g>
		<g>
			<g>
				<path fill="#F275C5" d="M152.771,176.842c-16.138,0-29.267-13.129-29.267-29.268c0.002-16.139,13.131-29.268,29.267-29.268
					c16.139,0.004,29.269,13.134,29.269,29.268c0.001,7.818-3.044,15.169-8.571,20.696
					C167.94,173.798,160.591,176.842,152.771,176.842z"/>
				<path fill="#E214CF" d="M152.771,119.806c15.336,0.004,27.769,12.434,27.769,27.768c0.001,15.338-12.431,27.768-27.769,27.768
					c-15.334,0-27.767-12.43-27.767-27.768C125.007,132.24,137.439,119.806,152.771,119.806 M152.772,116.806L152.772,116.806
					c-16.963,0-30.766,13.802-30.768,30.768c0,16.965,13.802,30.768,30.767,30.768c8.22,0,15.946-3.2,21.758-9.011
					s9.012-13.538,9.011-21.757C183.54,130.613,169.737,116.811,152.772,116.806L152.772,116.806z"/>
			</g>
			<g>
				<path fill="#3847D1" d="M152.771,178.842c-17.24,0-31.267-14.026-31.267-31.268c0.002-17.241,14.028-31.268,31.267-31.268
					c17.242,0.004,31.269,14.031,31.269,31.268c0.001,8.352-3.251,16.204-9.157,22.11
					C168.978,175.59,161.125,178.842,152.771,178.842z M152.771,123.306c-13.378,0-24.264,10.887-24.266,24.269
					c0,13.381,10.886,24.267,24.267,24.267c6.483,0,12.578-2.523,17.162-7.106c4.583-4.584,7.106-10.679,7.106-17.161
					C177.04,134.196,166.152,123.31,152.771,123.306L152.771,123.306z"/>
				<path fill="#E214CF" d="M152.771,117.806c16.415,0.004,29.769,13.358,29.769,29.768c0.001,7.952-3.096,15.428-8.718,21.05
					s-13.099,8.718-21.051,8.718c-16.414,0-29.767-13.354-29.767-29.768C123.007,131.16,136.36,117.806,152.771,117.806
					 M152.771,173.342c6.884,0,13.355-2.68,18.223-7.546c4.866-4.867,7.546-11.338,7.546-18.222c0-14.205-11.56-25.765-25.77-25.768
					c-14.205,0-25.764,11.56-25.766,25.769C127.005,161.782,138.564,173.342,152.771,173.342 M152.772,114.806L152.772,114.806
					c-18.066,0-32.766,14.7-32.768,32.768c0,18.069,14.699,32.768,32.767,32.768c8.755,0,16.983-3.408,23.172-9.597
					c6.189-6.189,9.598-14.418,9.597-23.171C185.54,129.511,170.841,114.811,152.772,114.806L152.772,114.806z M152.771,170.342
					c-12.554,0-22.767-10.213-22.767-22.767c0.002-12.554,10.214-22.769,22.766-22.769c12.555,0.003,22.77,10.217,22.77,22.768
					c0,6.082-2.368,11.8-6.667,16.101C164.572,167.974,158.854,170.342,152.771,170.342L152.771,170.342z"/>
			</g>
		</g>
		<g>
			<g>
				<path fill="#E240B0" d="M152.857,171.669c-8.88,0-21.499-9.849-21.499-19.044c0.001-8.581,10.397-8.581,15.393-8.581
					c1.081,0,2.161,0.017,3.217,0.035c0.993,0.016,1.962,0.032,2.888,0.032c0.845,0,1.726-0.012,2.628-0.023
					c0.957-0.013,1.938-0.026,2.921-0.026c5.178,0,15.953,0,15.953,8.704C174.359,161.893,161.739,171.669,152.857,171.669z"/>
				<path fill="#E214CF" d="M146.752,145.544c2.096,0,4.193,0.066,6.105,0.066c1.742,0,3.64-0.049,5.549-0.049
					c7.142,0,14.453,0.688,14.453,7.204c0,8.258-11.744,17.403-20.002,17.403c-8.256,0-19.999-9.289-19.999-17.544
					C132.86,146.279,139.794,145.544,146.752,145.544 M146.752,142.544c-5.055,0-16.892,0-16.893,10.081
					c0,10.191,13.381,20.544,22.999,20.544c9.619,0,23.002-10.281,23.002-20.403c0-10.204-12.23-10.204-17.453-10.204
					c-0.99,0-1.977,0.013-2.941,0.026c-0.895,0.012-1.77,0.023-2.607,0.023c-0.918,0-1.88-0.016-2.864-0.032
					C148.93,142.562,147.841,142.544,146.752,142.544L146.752,142.544z"/>
			</g>
		</g>
		<g>
			<g>
				<path fill="#350F2C" d="M152.773,159.061c-6.596,0-11.961-5.366-11.961-11.961c0-6.596,5.366-11.962,11.961-11.962
					c6.597,0,11.963,5.366,11.963,11.962C164.736,153.694,159.37,159.061,152.773,159.061z"/>
				<path fill="#E214CF" d="M152.773,136.637c5.778,0,10.463,4.684,10.463,10.462c0,5.778-4.685,10.461-10.463,10.461
					c-5.777,0-10.461-4.684-10.461-10.461C142.312,141.321,146.996,136.637,152.773,136.637 M152.773,133.637
					c-7.423,0-13.461,6.039-13.461,13.462c0,7.422,6.039,13.461,13.461,13.461c7.424,0,13.463-6.039,13.463-13.461
					C166.236,139.676,160.197,133.637,152.773,133.637L152.773,133.637z"/>
			</g>
		</g>
		<g>
			<g>
				<path fill="#FFBBED" d="M165.524,147.808c-3.328,0-6.8-1.531-9.525-4.201c-2.329-2.281-3.849-5.133-4.278-8.029
					c-0.453-3.051,0.34-5.794,2.233-7.725c1.565-1.6,3.791-2.481,6.266-2.481c3.327,0,6.798,1.532,9.523,4.203
					c2.328,2.279,3.848,5.13,4.278,8.027c0.453,3.052-0.339,5.795-2.231,7.726C170.224,146.926,167.998,147.808,165.524,147.808z"/>
				<path fill="#E214CF" d="M160.22,126.872c2.812,0,5.946,1.297,8.474,3.774c4.334,4.243,5.242,10.35,2.025,13.631
					c-1.34,1.368-3.186,2.031-5.194,2.031c-2.813,0-5.948-1.297-8.476-3.772c-4.335-4.246-5.242-10.35-2.023-13.631
					C156.364,127.535,158.21,126.872,160.22,126.872 M160.22,123.872L160.22,123.872c-2.882,0-5.488,1.042-7.339,2.934
					c-2.195,2.238-3.16,5.517-2.644,8.993c0.478,3.218,2.152,6.372,4.712,8.88c3.004,2.942,6.858,4.629,10.575,4.629
					c2.88,0,5.486-1.041,7.338-2.932c2.195-2.24,3.159-5.519,2.643-8.995c-0.479-3.219-2.152-6.372-4.713-8.879
					C167.79,125.56,163.936,123.872,160.22,123.872L160.22,123.872z"/>
			</g>
		</g>
	</g>
</g>
<g>
	<g>
		<path fill="#88BDED" d="M273.076,126h-18.23c-2.545-12-6.74-22.081-12.352-31.347l13.109-13.625c2.408-2.411,2.408-6.577,0-8.987
			l-26.18-26.31c-2.41-2.412-6.314-2.475-8.727-0.065l-14.319,12.879C196.939,52.676,186,48.234,174,45.58V27.666
			c0-3.408,0.057-3.666-3.352-3.666h-37.021c-3.41,0-8.628,0.258-8.628,3.666v18.012c-11,2.562-19.225,6.69-28.259,12.159
			L84.249,44.73c-2.41-2.411-6.009-2.411-8.421,0L49.804,70.907c-2.41,2.411-2.335,6.315,0.077,8.725l12.948,13.952
			C56.888,103.134,52.486,114,49.844,126H32.433c-3.408,0-8.433,0.687-8.433,4.094v37.021c0,3.41,5.024,7.886,8.433,7.886h17.695
			c2.674,13,7.017,20.086,12.741,29.289l-12.331,11.899c-2.41,2.412-2.412,6.102,0,8.513l26.176,26.071
			c2.411,2.408,6.319,2.357,8.729-0.053l11.298-12.558c9.034,5.469,17.259,9.569,28.259,12.133v18.013
			c0,3.408,5.218,7.69,8.628,7.69h37.021c3.408,0,3.353-4.282,3.353-7.69v-17.916c12-2.652,22.938-7.062,32.379-12.932
			l13.037,12.332c2.409,2.411,6.666,2.411,9.076,0l26.354-26.177c2.409-2.411,2.498-6.318,0.086-8.728l-12.483-11.674
			c5.397-8.914,9.541-17.217,12.108-28.217h18.519c3.409,0,2.924-4.477,2.924-7.887v-37.021C276,126.687,276.484,126,273.076,126z
			 M152.346,222.443c-41.057,0-74.457-33.402-74.457-74.457c0-41.056,33.4-74.456,74.457-74.456c41.055,0,74.454,33.4,74.454,74.456
			C226.8,189.041,193.398,222.443,152.346,222.443z"/>
		<path fill="#3847D1" d="M170.648,277.999h-37.021c-4.39,0-10.628-5.012-10.628-9.69v-16.439
			c-9.994-2.514-17.721-6.294-25.875-11.143l-10.268,11.408c-1.56,1.561-3.63,2.419-5.83,2.419c-2.166,0-4.2-0.84-5.728-2.365
			l-26.174-26.069c-3.182-3.181-3.182-8.162-0.003-11.344l11.194-10.803c-5.084-8.194-9.153-15.135-11.806-26.972H32.433
			c-4.31,0-10.433-5.112-10.433-9.886v-37.021c0-3.873,3.803-6.094,10.433-6.094h15.815c2.568-10.944,6.627-21.077,12.084-30.166
			L48.415,80.992c-1.491-1.487-2.354-3.53-2.38-5.698c-0.026-2.195,0.81-4.255,2.355-5.801L74.41,43.32
			c1.549-1.548,3.546-2.398,5.63-2.398c2.083,0,4.081,0.851,5.624,2.395l11.42,11.982c8.208-4.885,15.957-8.688,25.916-11.194
			V27.666C122.999,22,130.72,22,133.627,22h37.021c1.725,0,3.354,0,4.425,1.199c0.928,1.038,0.928,2.337,0.927,4.303v16.483
			c10.964,2.583,21.093,6.639,30.148,12.076l13.175-11.849c1.52-1.498,3.533-2.322,5.675-2.322c2.202,0,4.276,0.862,5.841,2.428
			l26.183,26.313c3.196,3.199,3.196,8.609-0.003,11.811L244.993,94.94c5.328,9.093,9.09,18.63,11.461,29.06h16.622
			c1.525,0,2.978,0.085,3.983,1.11c1.009,1.027,0.983,2.356,0.954,3.894c-0.006,0.326-0.013,0.687-0.013,1.086v37.021
			c0,0.362,0.006,0.738,0.012,1.118c0.04,2.669,0.085,5.694-1.673,7.479c-0.579,0.588-1.615,1.289-3.263,1.289h-16.946
			c-2.672,10.562-6.868,18.692-11.134,25.86l11.303,10.569c1.594,1.591,2.429,3.652,2.398,5.852
			c-0.03,2.166-0.895,4.208-2.436,5.751l-26.36,26.182c-1.516,1.517-3.686,2.39-5.947,2.39c-2.263,0-4.433-0.873-5.953-2.395
			l-11.886-11.242c-9.005,5.398-19.121,9.437-30.115,12.022v16.482c0.001,1.807,0.001,3.854-0.495,5.584
			C174.521,277.486,172.039,277.999,170.648,277.999z M96.361,235.595l1.416,0.857c8.78,5.314,16.846,9.372,27.677,11.896
			l1.546,0.36v19.601c0,2.127,4.15,5.69,6.628,5.69h37.021c0.382,0,0.711,0,1.012-1.049c0.342-1.188,0.341-2.937,0.341-4.479
			v-19.685l1.568-0.347c11.702-2.586,22.386-6.852,31.755-12.677l1.31-0.814l14.157,13.392c0.816,0.816,1.955,1.262,3.164,1.262
			c1.208,0,2.347-0.445,3.124-1.223l26.359-26.182c0.795-0.796,1.245-1.854,1.261-2.974c0.015-1.108-0.403-2.146-1.179-2.92
			l-13.622-12.736l0.841-1.389c5.296-8.745,9.341-16.791,11.872-27.635l0.36-1.546h20.105c0.211,0,0.351-0.032,0.413-0.096
			c0.583-0.593,0.545-3.109,0.522-4.612c-0.006-0.401-0.012-0.797-0.012-1.179v-37.021c0-0.427,0.007-0.813,0.014-1.162
			c0.006-0.294,0.012-0.629,0.008-0.899c-0.21-0.017-0.513-0.03-0.946-0.03h-19.851l-0.336-1.585
			c-2.358-11.117-6.318-21.168-12.106-30.726l-0.796-1.315l14.175-14.733c1.666-1.667,1.666-4.546,0.026-6.187l-26.183-26.313
			c-0.806-0.806-1.874-1.252-3.008-1.252c-1.093,0-2.118,0.423-2.887,1.191l-0.076,0.072l-15.438,13.884l-1.275-0.794
			c-9.42-5.857-20.104-10.134-31.754-12.71L172,47.186V27.501c0-0.517,0-1.079-0.021-1.469C171.533,26,170.905,26,170.648,26
			h-37.021c-5.982,0-6.628,1.165-6.628,1.666v19.6l-1.546,0.36c-10.767,2.507-18.851,6.58-27.677,11.922l-1.375,0.832l-13.6-14.27
			c-0.755-0.754-1.748-1.188-2.762-1.188c-1.015,0-2.009,0.435-2.797,1.223l-26.02,26.173c-0.781,0.781-1.202,1.82-1.188,2.928
			c0.014,1.118,0.461,2.173,1.26,2.972l14.04,15.126l-0.807,1.297c-5.886,9.462-10.169,20.157-12.73,31.79L51.452,128H32.433
			c-3.099,0-6.433,0.655-6.433,2.094v37.021c0,2.2,4.028,5.886,6.433,5.886h19.325l0.329,1.597
			c2.633,12.804,6.979,19.791,12.48,28.636l0.854,1.373l-13.495,13.022c-1.594,1.596-1.595,4.04,0.025,5.659l26.173,26.068
			c0.774,0.773,1.804,1.197,2.902,1.197c1.115,0,2.167-0.431,2.967-1.214L96.361,235.595z M152.346,224.443
			c-42.158,0-76.457-34.298-76.457-76.457c0-42.158,34.298-76.456,76.457-76.456c42.157,0,76.454,34.298,76.454,76.456
			C228.8,190.146,194.503,224.443,152.346,224.443z M152.346,75.531c-39.953,0-72.457,32.503-72.457,72.456
			c0,39.953,32.504,72.457,72.457,72.457c39.951,0,72.454-32.504,72.454-72.457C224.8,108.035,192.297,75.531,152.346,75.531z"/>
	</g>
	<g>
		<g>
			<path fill="#F275C5" d="M180.54,147.574c0.001,15.338-12.431,27.768-27.769,27.768c-15.334,0-27.767-12.43-27.767-27.768
				c0.002-15.334,12.434-27.768,27.767-27.768C168.107,119.81,180.54,132.24,180.54,147.574z"/>
			<path fill="#3847D1" d="M152.771,177.342c-16.414,0-29.767-13.354-29.767-29.768c0.002-16.414,13.355-29.768,29.767-29.768
				c16.415,0.004,29.769,13.358,29.769,29.768c0.001,7.952-3.096,15.428-8.718,21.05S160.724,177.342,152.771,177.342z
				 M152.771,121.806c-14.205,0-25.764,11.56-25.766,25.769c0,14.208,11.559,25.767,25.767,25.767c6.884,0,13.355-2.68,18.223-7.546
				c4.866-4.867,7.546-11.338,7.546-18.222C178.54,133.369,166.98,121.81,152.771,121.806z"/>
		</g>
		<g>
			<path fill="#E240B0" d="M172.859,152.766c0,8.258-11.744,17.403-20.002,17.403c-8.256,0-19.999-9.289-19.999-17.544
				c0.001-8.258,11.741-7.014,19.999-7.014C161.115,145.611,172.859,144.507,172.859,152.766z"/>
		</g>
		<g>
			<circle fill="#350F2C" cx="152.773" cy="147.099" r="10.462"/>
		</g>
		<g>
			<path fill="#FFBBED" d="M168.693,130.646c4.334,4.243,5.242,10.35,2.025,13.631c-3.216,3.283-9.337,2.502-13.67-1.742
				c-4.335-4.246-5.242-10.35-2.023-13.631C158.238,125.62,164.359,126.399,168.693,130.646z"/>
		</g>
	</g>
</g>
</svg>
