<?xml version="1.0" encoding="utf-8"?>
<!-- Generator: Adobe Illustrator 16.0.0, SVG Export Plug-In . SVG Version: 6.00 Build 0)  -->
<!DOCTYPE svg PUBLIC "-//W3C//DTD SVG 1.1//EN" "http://www.w3.org/Graphics/SVG/1.1/DTD/svg11.dtd">
<svg version="1.1" id="Layer_1" xmlns="http://www.w3.org/2000/svg" xmlns:xlink="http://www.w3.org/1999/xlink" x="0px" y="0px"
	 width="300px" height="300px" viewBox="0 0 300 300" enable-background="new 0 0 300 300" xml:space="preserve">
<g>
	<g>
		<g>
			<path fill="#F9DB85" d="M56.608,254.344c-5.217,0-9.869-2.766-12.764-7.588c-3.388-5.644-3.554-12.789-0.433-18.647l0.396-0.742
				c20.727-38.906,88.612-166.297,91.96-172.08c3.217-6.108,8.824-9.797,14.961-9.797c6.229,0,11.705,3.704,14.306,9.67
				c2.042,4.035,17.637,33.504,35.681,67.602c25.667,48.5,54.757,103.47,56.623,107.499c1.875,4.045,2.326,10.896-1.114,16.379
				c-2.107,3.359-6.44,7.393-15.112,7.53L56.61,254.344H56.608z"/>
			<path fill="#E214CF" d="M150.729,47.49c5.155,0,10.119,3.02,12.494,8.52c4.659,9.237,89.141,168.271,92.301,175.092
				c3.161,6.819,1.15,20.82-14.444,21.068l-184.471,0.174c-10.473,0-16.897-13.034-11.432-23.295
				c5.466-10.26,88.662-166.439,92.321-172.76C140.672,50.265,145.788,47.49,150.729,47.49 M150.729,43.49L150.729,43.49
				c-6.871,0-13.121,4.061-16.734,10.866c-3.836,6.702-71.3,133.302-91.952,172.067l-0.397,0.745
				c-3.449,6.476-3.264,14.375,0.483,20.617c3.217,5.359,8.63,8.559,14.479,8.559l184.475-0.174h0.03l0.029-0.001
				c9.569-0.151,14.404-4.688,16.775-8.466c3.857-6.147,3.399-13.613,1.234-18.284c-1.888-4.075-30.991-59.069-56.669-107.591
				c-17.972-33.96-33.512-63.326-35.64-67.521C163.911,47.631,157.748,43.49,150.729,43.49L150.729,43.49z"/>
		</g>
		<g>
			<path fill="#3847D1" d="M56.61,256.144c-5.866,0-11.081-3.084-14.309-8.461c-3.712-6.182-3.896-14.007-0.479-20.422l0.596-1.116
				c14.718-27.628,88.317-165.759,91.791-171.76c3.512-6.67,9.702-10.695,16.52-10.695c6.936,0,13.036,4.099,15.935,10.703
				c2.104,4.149,17.422,33.095,35.148,66.591l0.535,1.012c25.653,48.476,54.729,103.419,56.624,107.509
				c2.073,4.471,2.575,12.04-1.222,18.092c-2.346,3.736-7.131,8.223-16.61,8.373l-184.526,0.174H56.61z M150.729,51.29
				c-4.004,0-7.602,2.468-9.869,6.771c-3.456,5.975-77.022,144.041-91.734,171.658l-0.596,1.117
				c-2.168,4.07-2.058,9.027,0.288,12.935c1.821,3.033,4.66,4.772,7.79,4.772l184.467-0.174c3.309-0.052,7.798-0.93,10.235-4.813
				c2.167-3.451,2.012-8.169,0.766-10.854c-1.783-3.853-31.718-60.419-55.77-105.871l-0.677-1.279
				c-18.157-34.311-33.839-63.942-35.8-67.83l-0.076-0.163C158.077,53.675,154.626,51.29,150.729,51.29z"/>
			<path fill="#E214CF" d="M150.729,45.69c6.15,0,11.558,3.66,14.125,9.556c2.033,4.021,17.652,33.534,35.726,67.686
				c25.646,48.463,54.714,103.393,56.577,107.414c1.854,3.997,2.3,10.768-1.102,16.188c-2.081,3.316-6.365,7.301-14.947,7.437
				L56.61,254.144h-0.002c-5.145,0-9.734-2.729-12.592-7.49c-3.352-5.583-3.517-12.654-0.429-18.452l0.595-1.115
				c20.686-38.83,88.437-165.964,91.757-171.699C139.125,49.338,144.667,45.69,150.729,45.69 M56.608,250.543l184.469-0.174
				c5.489-0.086,9.622-2.076,11.928-5.75c2.568-4.092,2.391-9.516,0.886-12.76c-1.822-3.936-32.137-61.217-56.493-107.244
				c-18.153-34.303-33.831-63.929-35.782-67.795l-0.045-0.098c-1.979-4.585-6.134-7.433-10.842-7.433
				c-4.771,0-9.013,2.857-11.638,7.838c-3.325,5.747-71.052,132.835-91.73,171.65l-0.595,1.116
				c-2.497,4.688-2.368,10.399,0.338,14.905C49.294,248.45,52.758,250.543,56.608,250.543 M150.729,41.69
				c-7.55,0-14.383,4.396-18.292,11.764c-3.987,6.968-77.117,144.218-91.784,171.751l-0.594,1.112
				c-3.746,7.034-3.543,15.614,0.528,22.395c3.597,5.994,9.437,9.432,16.021,9.432l184.503-0.174h0.029l0.03-0.001
				c10.924-0.172,16.137-5.906,18.272-9.31c4.216-6.719,3.712-14.885,1.342-19.996c-1.917-4.138-31.006-59.105-56.671-107.603
				l-0.527-0.997c-17.66-33.372-32.931-62.228-35.115-66.527C165.239,46.226,158.451,41.69,150.729,41.69L150.729,41.69z
				 M56.606,246.543c-2.445-0.001-4.602-1.351-6.073-3.802c-1.987-3.31-2.078-7.511-0.237-10.966l0.594-1.115
				c42.585-79.938,89.028-166.976,91.663-171.529l0.04-0.068l0.037-0.07c1.938-3.677,4.814-5.703,8.1-5.703
				c3.087,0,5.834,1.923,7.169,5.018l0.019,0.043l0.021,0.043l0.045,0.098l0.03,0.065l0.032,0.065
				c1.972,3.906,17.656,33.545,35.818,67.864l0.671,1.268c24.044,45.436,53.967,101.982,55.728,105.785
				c1.04,2.242,1.083,6.202-0.644,8.952c-1.57,2.503-4.455,3.807-8.574,3.877l-184.439,0.174H56.606L56.606,246.543z"/>
		</g>
	</g>
	<g>
		<g>
			<path fill="#3847D1" d="M143.138,218.018c-2.013,0-3.65-1.638-3.65-3.65v-14.602c0-2.012,1.638-3.648,3.65-3.648h14.601
				c2.013,0,3.649,1.637,3.649,3.648v14.602c0,2.013-1.637,3.65-3.649,3.65H143.138z"/>
			<path fill="#E214CF" d="M157.739,197.617c1.187,0,2.149,0.962,2.149,2.148v14.602c0,1.188-0.961,2.15-2.149,2.15h-14.601
				c-1.188,0-2.15-0.961-2.15-2.15v-14.602c0-1.187,0.962-2.148,2.15-2.148H157.739 M157.739,194.617h-14.601
				c-2.84,0-5.15,2.31-5.15,5.148v14.602c0,2.84,2.311,5.15,5.15,5.15h14.601c2.84,0,5.149-2.311,5.149-5.15v-14.602
				C162.889,196.927,160.579,194.617,157.739,194.617L157.739,194.617z"/>
		</g>
		<g>
			<path fill="#3847D1" d="M142.932,192.817c-2.013,0-3.65-1.62-3.65-3.612l-3.58-73.34c-0.002-2.51,1.937-4.347,4.507-4.347h19.561
				c2.57,0,4.509,1.837,4.509,4.274l-3.728,73.49c0.002,1.916-1.636,3.536-3.648,3.536H142.932z"/>
			<path fill="#E214CF" d="M159.77,113.018c1.663,0,3.009,1.11,3.009,2.774l-3.726,73.414c0,1.188-0.963,2.112-2.15,2.112h-13.97
				c-1.188,0-2.15-0.923-2.15-2.112l-3.582-73.414c0-1.664,1.348-2.774,3.009-2.774H159.77 M159.77,110.018h-19.561
				c-3.37,0-6.009,2.536-6.009,5.774v0.073l0.003,0.073l3.58,73.356c0.048,2.778,2.339,5.023,5.149,5.023h13.97
				c2.809,0,5.1-2.243,5.149-5.02l3.723-73.354l0.004-0.076v-0.076C165.778,112.554,163.139,110.018,159.77,110.018L159.77,110.018z
				"/>
		</g>
	</g>
</g>
<path fill="#3847D1" d="M257.152,230.345c-1.863-4.022-30.934-58.951-56.58-107.414c-18.073-34.152-33.691-63.666-35.725-67.686
	c-2.568-5.896-7.975-9.556-14.125-9.556c-6.062,0-11.603,3.648-14.789,9.697c-3.32,5.735-71.071,132.87-91.757,171.698l-0.595,1.117
	c-3.088,5.797-2.924,12.867,0.428,18.451c2.858,4.76,7.447,7.49,12.592,7.49h0.001l184.497-0.174
	c8.583-0.137,12.865-4.119,14.947-7.437C259.45,241.113,259.004,234.342,257.152,230.345z"/>
<g>
	<g>
		<path fill="#F9DB85" d="M255.523,231.102c3.161,6.819,1.15,20.82-14.444,21.068l-184.471,0.174
			c-10.473,0-16.897-13.034-11.432-23.295c5.466-10.26,88.662-166.439,92.321-172.76c6.486-12.309,21.074-11.051,25.725-0.279
			C167.882,65.247,252.363,224.28,255.523,231.102z"/>
		<path fill="#3847D1" d="M257.156,230.346c-1.863-4.021-30.931-58.951-56.577-107.414c-18.073-34.152-33.692-63.666-35.726-67.686
			c-2.567-5.896-7.975-9.556-14.125-9.556c-6.062,0-11.603,3.648-14.789,9.697c-3.32,5.735-71.071,132.869-91.757,171.699
			l-0.595,1.115c-3.088,5.798-2.923,12.869,0.429,18.452c2.857,4.761,7.447,7.49,12.592,7.49h0.002l184.497-0.174
			c8.582-0.136,12.866-4.12,14.947-7.437C259.456,241.113,259.01,234.343,257.156,230.346z M253.005,244.619
			c-2.306,3.674-6.438,5.664-11.928,5.75l-184.469,0.174c-3.85,0-7.313-2.093-9.505-5.743c-2.706-4.506-2.835-10.218-0.338-14.905
			l0.595-1.116c20.678-38.815,88.405-165.904,91.73-171.65c2.625-4.981,6.867-7.838,11.638-7.838c4.708,0,8.863,2.848,10.842,7.433
			l0.045,0.098c1.951,3.866,17.629,33.492,35.782,67.795c24.356,46.027,54.671,103.308,56.493,107.244
			C255.396,235.104,255.573,240.527,253.005,244.619z"/>
	</g>
	<g>
		<path fill="#3847D1" d="M159.889,214.367c0,1.188-0.961,2.15-2.149,2.15h-14.601c-1.188,0-2.15-0.961-2.15-2.15v-14.602
			c0-1.187,0.962-2.148,2.15-2.148h14.601c1.187,0,2.149,0.962,2.149,2.148V214.367z"/>
		<path fill="#3847D1" d="M159.053,189.205c0,1.188-0.963,2.112-2.15,2.112h-13.97c-1.188,0-2.15-0.923-2.15-2.112l-3.582-73.414
			c0-1.664,1.348-2.774,3.009-2.774h19.561c1.663,0,3.009,1.11,3.009,2.774L159.053,189.205z"/>
	</g>
</g>
</svg>
