<?xml version="1.0" encoding="utf-8"?>
<!-- Generator: Adobe Illustrator 16.0.0, SVG Export Plug-In . SVG Version: 6.00 Build 0)  -->
<!DOCTYPE svg PUBLIC "-//W3C//DTD SVG 1.1//EN" "http://www.w3.org/Graphics/SVG/1.1/DTD/svg11.dtd">
<svg version="1.1" id="Layer_1" xmlns="http://www.w3.org/2000/svg" xmlns:xlink="http://www.w3.org/1999/xlink" x="0px" y="0px"
	 width="300px" height="300px" viewBox="0 0 300 300" enable-background="new 0 0 300 300" xml:space="preserve">
<g>
	<g>
		<g>
			<path fill="#88BDED" d="M236.514,261.3c-2.178,0-4.347-0.92-5.95-2.523l-68.248-68.246
				c-16.044,10.577-34.065,15.938-53.585,15.938c-54.364,0-98.583-44.111-98.583-98.332c0-54.269,44.15-98.42,98.419-98.42
				c54.249,0,98.383,44.197,98.383,98.523c0,19.521-5.368,37.551-15.96,53.613l68.248,68.247c3.254,3.258,3.425,8.188,0.388,11.227
				L241.86,259.09C240.435,260.515,238.536,261.3,236.514,261.3C236.515,261.3,236.515,261.3,236.514,261.3z M108.634,39.958
				c-37.574,0-68.143,30.569-68.143,68.143c0,37.574,30.569,68.143,68.143,68.144c37.573,0,68.142-30.569,68.144-68.144
				C176.775,70.527,146.207,39.958,108.634,39.958z"/>
			<path fill="#E214CF" d="M108.566,11.216c53.458,0,96.883,43.562,96.883,97.023c0,19.832-5.672,37.969-16.391,53.804
				l69.118,69.117c2.56,2.563,2.946,6.546,0.388,9.105L240.8,258.029c-1.202,1.202-2.734,1.771-4.285,1.771
				c-1.754,0-3.533-0.726-4.891-2.084L162.506,188.6c-15.834,10.716-33.95,16.368-53.775,16.368c-0.002,0-0.008,0-0.01,0
				c-53.46,0-97.073-43.372-97.073-96.832C11.647,54.675,55.107,11.216,108.566,11.216 M108.634,177.745
				c38.401,0,69.642-31.244,69.644-69.644c-0.002-38.401-31.244-69.643-69.644-69.643c-38.401,0-69.643,31.243-69.643,69.643
				S70.233,177.744,108.634,177.745 M108.566,8.216c-55.096,0-99.919,44.824-99.919,99.92c0,55.048,44.893,99.832,100.073,99.832
				c19.414,0,37.36-5.219,53.394-15.517l67.389,67.386c1.883,1.883,4.438,2.963,7.011,2.963c2.423,0,4.698-0.94,6.407-2.648
				l17.765-17.765c3.631-3.632,3.461-9.495-0.387-13.347l-67.389-67.388c10.313-16.051,15.539-34.009,15.539-53.413
				C208.449,53.086,163.642,8.216,108.566,8.216L108.566,8.216z M108.634,174.745c-36.747-0.001-66.643-29.897-66.643-66.644
				c0-36.747,29.896-66.643,66.643-66.643c36.746,0,66.642,29.896,66.644,66.643C175.275,144.849,145.379,174.745,108.634,174.745
				L108.634,174.745L108.634,174.745z"/>
		</g>
		<g>
			<path fill="#3847D1" d="M236.515,263.3c-2.705,0-5.39-1.133-7.365-3.109l-67.104-67.102
				c-16.028,10.205-33.959,15.379-53.315,15.379c-55.462,0-100.583-45.009-100.583-100.332c0-55.372,45.048-100.42,100.419-100.42
				c55.351,0,100.383,45.095,100.383,100.523c0,19.357-5.181,37.297-15.401,53.344l67.104,67.103
				c4.047,4.051,4.217,10.225,0.388,14.055l-17.765,17.764C241.472,262.307,239.071,263.3,236.515,263.3z M234.099,255.241
				c0.673,0.673,1.554,1.059,2.416,1.059c0.706,0,1.315-0.251,1.811-0.746l17.765-17.763c1.38-1.381,0.523-3.243-0.39-4.158
				l-71.16-71.159l1.62-2.393c10.477-15.479,15.789-32.92,15.789-51.842c0-51.569-41.892-93.523-93.383-93.523
				c-51.511,0-93.419,41.908-93.419,93.42c0,51.464,41.977,93.332,93.573,93.332c18.928,0,36.364-5.305,51.824-15.767l2.394-1.62
				L234.099,255.241z M108.634,181.245c-40.331-0.001-73.143-32.813-73.143-73.144c0-40.331,32.812-73.143,73.143-73.143
				c40.33,0,73.142,32.812,73.144,73.143C181.775,148.433,148.963,181.245,108.634,181.245L108.634,181.245z M108.634,41.958
				c-36.471,0-66.143,29.671-66.143,66.143c0,36.471,29.671,66.143,66.143,66.144c36.47,0,66.142-29.672,66.144-66.144
				C174.775,71.63,145.104,41.958,108.634,41.958z"/>
			<path fill="#E214CF" d="M108.566,9.216c54.525,0,98.883,44.422,98.883,99.023c0,19.482-5.321,37.489-15.818,53.548l67.96,67.959
				c3.452,3.456,3.623,8.697,0.388,11.934l-17.765,17.764c-1.52,1.52-3.544,2.356-5.699,2.356c0,0,0,0-0.001,0
				c-2.31,0-4.607-0.974-6.304-2.67l-67.96-67.958c-16.042,10.483-34.038,15.796-53.52,15.796c-54.64,0-99.083-44.336-99.083-98.832
				C9.647,53.591,54.022,9.216,108.566,9.216 M108.72,202.968c19.237,0,36.953-5.392,52.665-16.024l1.368-0.926l70.285,70.284
				c0.952,0.952,2.219,1.498,3.477,1.498c0.769,0,1.892-0.206,2.871-1.185l17.765-17.764c1.911-1.912,1.226-4.661-0.389-6.278
				l-70.285-70.284l0.926-1.367c10.647-15.73,16.047-33.456,16.047-52.683c0-52.396-42.564-95.023-94.883-95.023
				c-52.338,0-94.919,42.581-94.919,94.92C13.647,160.427,56.297,202.968,108.72,202.968 M108.634,36.458
				c39.502,0,71.642,32.139,71.644,71.643c-0.002,39.505-32.141,71.644-71.644,71.644c-39.504-0.001-71.643-32.14-71.643-71.644
				S69.13,36.458,108.634,36.458 M108.634,175.745c37.297,0,67.642-30.345,67.644-67.644c-0.002-37.298-30.347-67.643-67.644-67.643
				c-37.298,0-67.643,30.345-67.643,67.643S71.335,175.744,108.634,175.745 M108.566,6.216c-56.198,0-101.919,45.721-101.919,101.92
				c0,56.15,45.794,101.832,102.083,101.832c19.238,0,37.089-5.035,53.101-14.973l66.258,66.256
				c2.255,2.256,5.326,3.549,8.425,3.549c2.958,0,5.735-1.148,7.821-3.235l17.765-17.764c4.424-4.425,4.254-11.529-0.387-16.175
				l-66.258-66.258c9.951-16.03,14.994-33.89,14.994-53.129C210.449,51.983,164.744,6.216,108.566,6.216L108.566,6.216z
				 M108.72,199.968c-50.77,0-92.073-41.195-92.073-91.832c0-50.685,41.235-91.92,91.919-91.92
				c50.665,0,91.883,41.282,91.883,92.023c0,18.616-5.226,35.775-15.531,51.001l-0.926,1.367l-1.389,2.051l1.752,1.752
				l70.285,70.284c0.01,0.011,1.175,1.249,0.388,2.036l-17.764,17.764c-0.143,0.142-0.356,0.306-0.75,0.306
				c-0.461,0-0.968-0.231-1.355-0.619l-70.285-70.284l-1.751-1.752l-2.052,1.389l-1.368,0.926
				C144.497,194.75,127.343,199.968,108.72,199.968L108.72,199.968z M108.634,33.458c-41.158,0-74.643,33.485-74.643,74.643
				c0,41.158,33.484,74.643,74.643,74.644c41.157,0,74.642-33.485,74.644-74.644C183.275,66.943,149.791,33.458,108.634,33.458
				L108.634,33.458z M108.634,172.745c-35.644-0.001-64.643-29-64.643-64.644c0-35.645,28.999-64.643,64.643-64.643
				c35.643,0,64.642,28.999,64.644,64.643C173.275,143.746,144.276,172.745,108.634,172.745L108.634,172.745L108.634,172.745z"/>
		</g>
	</g>
	<g>
		<g>
			<path fill="#F275C5" d="M109.741,139.185c-17.911-0.003-32.482-14.574-32.482-32.482c0.002-17.91,14.574-32.48,32.482-32.48
				c17.91,0,32.48,14.57,32.48,32.48C142.222,124.611,127.652,139.182,109.741,139.185L109.741,139.185z"/>
			<path fill="#E214CF" d="M109.741,75.723c17.11,0,30.98,13.871,30.98,30.98c0.001,17.11-13.87,30.979-30.98,30.982
				c-17.11-0.003-30.982-13.872-30.982-30.982C78.761,89.593,92.631,75.723,109.741,75.723 M109.741,72.723
				c-18.735,0-33.98,15.243-33.982,33.979c0,18.735,15.244,33.979,33.982,33.982c18.738-0.003,33.981-15.248,33.98-33.982
				C143.721,87.966,128.478,72.723,109.741,72.723L109.741,72.723z"/>
		</g>
		<g>
			<path fill="#3847D1" d="M109.742,141.185c-19.014-0.003-34.483-15.472-34.483-34.482c0.002-19.012,15.471-34.48,34.482-34.48
				c19.012,0,34.48,15.468,34.48,34.48C144.222,125.713,128.755,141.182,109.742,141.185L109.742,141.185z M109.741,79.223
				c-15.151,0-27.48,12.328-27.482,27.48c0,15.15,12.329,27.479,27.483,27.481c15.152-0.003,27.48-12.331,27.479-27.482
				C137.221,91.551,124.894,79.223,109.741,79.223z"/>
			<path fill="#E214CF" d="M109.741,73.723c18.185,0,32.98,14.795,32.98,32.98c0.001,18.183-14.793,32.979-32.979,32.982h-0.001
				c-18.186-0.003-32.982-14.799-32.982-32.982C76.761,88.518,91.557,73.723,109.741,73.723 M109.742,135.685
				c15.98-0.003,28.98-13.004,28.979-28.982c0-15.979-13-28.98-28.98-28.98c-15.979,0-28.98,13-28.982,28.98
				C80.759,122.681,93.76,135.682,109.742,135.685 M109.741,70.723c-19.838,0-35.98,16.14-35.982,35.979
				c0,19.838,16.141,35.979,35.981,35.982c19.841-0.003,35.982-16.145,35.981-35.982C145.721,86.864,129.581,70.723,109.741,70.723
				L109.741,70.723z M109.742,132.685c-14.327-0.002-25.983-11.658-25.983-25.981c0.002-14.326,11.658-25.98,25.982-25.98
				c14.325,0,25.98,11.655,25.98,25.98C135.722,121.027,124.067,132.683,109.742,132.685L109.742,132.685L109.742,132.685z"/>
		</g>
	</g>
	<g>
		<g>
			<path fill="#E240B0" d="M109.835,133.413c-9.836,0-23.813-10.901-23.813-21.077c0.001-9.397,11.479-9.397,16.995-9.397
				c1.206,0,2.412,0.02,3.59,0.039c1.109,0.018,2.193,0.036,3.229,0.036c0.944,0,1.93-0.013,2.939-0.026
				c1.07-0.014,2.165-0.029,3.262-0.029c5.718,0,17.615,0,17.615,9.533C133.65,122.593,119.672,133.413,109.835,133.413z"/>
			<path fill="#E214CF" d="M103.017,104.438c2.341,0,4.684,0.075,6.818,0.075c1.946,0,4.068-0.055,6.201-0.055
				c7.964,0,16.115,0.768,16.115,8.033c-0.001,9.215-13.104,19.422-22.316,19.422s-22.313-10.363-22.313-19.577
				C87.523,105.259,95.256,104.438,103.017,104.438 M103.017,101.438c-5.534,0-18.494,0-18.495,10.897
				c0,11.201,14.727,22.578,25.313,22.578s25.315-11.299,25.316-22.421c0-11.034-13.394-11.034-19.113-11.034
				c-1.106,0-2.207,0.015-3.283,0.029c-1.002,0.013-1.981,0.026-2.919,0.026c-1.027,0-2.103-0.018-3.204-0.036
				C105.445,101.458,104.23,101.438,103.017,101.438L103.017,101.438z"/>
		</g>
	</g>
	<g>
		<g>
			<path fill="#350F2C" d="M109.741,119.347c-7.264,0-13.174-5.91-13.174-13.174s5.91-13.174,13.174-13.174
				s13.174,5.91,13.174,13.174S117.005,119.347,109.741,119.347z"/>
			<path fill="#E214CF" d="M109.741,94.499c6.447,0,11.674,5.227,11.674,11.674s-5.227,11.674-11.674,11.674
				c-6.448,0-11.674-5.227-11.674-11.674S103.293,94.499,109.741,94.499 M109.741,91.499c-8.091,0-14.674,6.583-14.674,14.674
				s6.583,14.674,14.674,14.674s14.674-6.583,14.674-14.674S117.833,91.499,109.741,91.499L109.741,91.499z"/>
		</g>
	</g>
	<g>
		<g>
			<path fill="#FFBBED" d="M123.974,106.784c-3.667,0-7.498-1.691-10.507-4.639c-2.571-2.519-4.248-5.665-4.723-8.859
				c-0.497-3.349,0.37-6.357,2.442-8.473c1.716-1.751,4.155-2.716,6.868-2.716c3.667,0,7.498,1.691,10.507,4.639
				c5.419,5.308,6.442,13.083,2.281,17.332C129.126,105.819,126.687,106.784,123.974,106.784z"/>
			<path fill="#E214CF" d="M118.054,83.597c3.139,0,6.637,1.447,9.458,4.21c4.836,4.737,5.847,11.547,2.259,15.21
				c-1.496,1.527-3.555,2.266-5.797,2.266c-3.139,0-6.637-1.447-9.458-4.21c-4.836-4.737-5.847-11.547-2.259-15.21
				C113.753,84.336,115.812,83.597,118.054,83.597 M118.055,80.597L118.055,80.597c-3.12,0-5.94,1.125-7.94,3.167
				c-2.374,2.423-3.414,5.974-2.854,9.742c0.522,3.516,2.354,6.964,5.157,9.71c3.288,3.221,7.5,5.067,11.557,5.067
				c3.12,0,5.939-1.125,7.94-3.167c4.74-4.839,3.708-13.566-2.303-19.453C126.323,82.444,122.111,80.597,118.055,80.597
				L118.055,80.597z"/>
		</g>
	</g>
	<g>
		<g>
			<g>
				<path fill="#F275C5" d="M231.279,173.406c-6.595,0-12.012-2.196-16.101-6.527c-15.06-15.955,0.64-42.031,12.289-54.923
					c12.231-13.533,32.752-30.938,32.958-31.112c0.372-0.355,0.827-0.798,1.299-1.257c3.226-3.14,6.881-6.699,10.486-6.699
					c1.458,0,2.739,0.574,3.808,1.707c3.188,3.378,3.787,10.989,2.479,16.724c0.619-0.241,1.259-0.384,1.912-0.384
					c1.203,0,2.311,0.5,3.203,1.445c2.224,2.355,2.485,11.6,2.508,12.646c0.062,2.881-0.046,7.365-1.081,10.53
					c0.687,0.2,1.332,0.618,1.926,1.248l0.157,0.167c4.265,4.518,3.147,16.289-0.622,23.021
					c-1.741,3.11-12.186,14.085-20.686,19.987C259.996,164.016,244.984,173.406,231.279,173.406z"/>
				<path fill="#E214CF" d="M272.211,74.388c0.977,0,1.896,0.365,2.717,1.236c3.758,3.983,3.53,15.696,0.125,20.137
					c1.486-1.539,3.492-3.326,5.356-3.326c0.74,0,1.459,0.283,2.112,0.975c2.301,2.437,3.34,20.652-0.131,23.925l-1.655,1.562
					c-0.151,0.142-0.303,0.285-0.454,0.428l-0.088,0.083c0.029-0.028,0.059-0.055,0.088-0.083l0.454-0.428
					c1.108-1.039,2.204-1.979,3.327-1.979c0.594,0,1.196,0.264,1.811,0.916l0.157,0.167c3.759,3.982,2.575,15.162-0.839,21.26
					c-1.623,2.898-11.934,13.726-20.232,19.487c-5.919,4.107-20.629,13.16-33.68,13.16c-5.578,0-10.854-1.655-15.01-6.057
					c-13.877-14.703,0.183-39.466,12.312-52.888c12.306-13.615,32.813-30.973,32.813-30.973
					C264.505,79.053,268.723,74.388,272.211,74.388 M272.211,71.388c-4.215,0-8.103,3.785-11.532,7.124
					c-0.445,0.434-0.875,0.852-1.286,1.241c-1.491,1.265-20.958,17.833-33.037,31.197c-11.995,13.274-28.077,40.208-12.268,56.959
					c4.383,4.643,10.167,6.997,17.191,6.997c14.129,0,29.456-9.578,35.39-13.695c8.425-5.85,19.135-16.906,21.14-20.486
					c3.613-6.453,5.566-19.315,0.403-24.785l-0.154-0.165c-0.412-0.437-0.83-0.775-1.241-1.037c0.731-3,0.87-6.652,0.804-9.745
					c-0.07-3.248-0.495-11.078-2.917-13.644c-1.184-1.252-2.668-1.915-4.293-1.915c-0.001,0-0.001,0-0.002,0l0,0
					c0.831-5.79-0.101-12.48-3.299-15.87C275.766,72.141,274.072,71.388,272.211,71.388L272.211,71.388z"/>
			</g>
			<g>
				<path fill="#3847D1" d="M231.279,175.406c-7.167,0-13.073-2.407-17.555-7.154c-16.061-17.017,0.149-44.236,12.26-57.637
					c12.097-13.383,32.252-30.536,33.104-31.26c0.352-0.336,0.784-0.756,1.231-1.192c3.507-3.415,7.471-7.275,11.891-7.275
					c2.002,0,3.822,0.807,5.263,2.334c3.365,3.567,4.146,10.284,3.487,15.736c1.551,0.134,2.96,0.835,4.105,2.048
					c2.538,2.689,2.98,10.67,3.054,13.976c0.058,2.689-0.036,6.392-0.739,9.532c0.362,0.261,0.709,0.567,1.039,0.917l0.158,0.168
					c5.314,5.63,3.354,18.787-0.333,25.369c-2.026,3.619-12.815,14.769-21.29,20.652
					C260.981,165.766,245.548,175.406,231.279,175.406z M272.211,77.888c-1.574,0-5.103,3.435-6.998,5.28
					c-0.49,0.479-0.965,0.94-1.416,1.366l-0.112,0.101c-0.232,0.198-20.533,17.426-32.507,30.674
					c-9.778,10.821-24.945,34.807-12.363,48.138c3.107,3.29,7.301,4.959,12.465,4.959c12.64,0,27.446-9.595,31.684-12.536
					c7.962-5.527,17.918-16.077,19.175-18.321c2.979-5.323,3.442-13.882,1.676-16.716c-0.18,0.154-0.404,0.353-0.68,0.611
					l-1.63,1.541l-4.803-5.095l3.287-3.101c1.521-1.656,1.504-15.476,0.096-18.706c-0.413,0.223-1.223,0.773-2.514,2.109
					l-0.984,1.02l-5.173-4.456l0.862-1.125c2.424-3.161,2.491-13.078,0.106-15.605c-0.11-0.117-0.168-0.146-0.169-0.146
					L272.211,77.888z"/>
				<path fill="#E214CF" d="M272.211,72.388c1.579,0,3.021,0.644,4.172,1.863c3.192,3.384,3.928,10.565,2.808,16.328
					c0.398-0.093,0.806-0.145,1.219-0.145c1.344,0,2.577,0.554,3.566,1.602c2.303,2.439,2.606,11.24,2.645,12.979
					c0.06,2.775-0.041,7.015-0.973,10.228c0.597,0.256,1.158,0.663,1.681,1.217l0.158,0.168c4.779,5.063,2.835,17.563-0.55,23.608
					c-1.761,3.144-12.285,14.215-20.837,20.153c-5.857,4.064-20.974,13.518-34.82,13.518c-6.738,0-12.277-2.249-16.464-6.684
					c-15.31-16.221,0.517-42.583,12.282-55.602c11.984-13.259,31.899-30.22,32.962-31.122c0.42-0.397,0.86-0.826,1.316-1.27
					C264.669,76.022,268.402,72.388,272.211,72.388 M231.279,169.906c13.073,0,28.211-9.8,32.539-12.804
					c8.275-5.745,18.287-16.425,19.628-18.821c3.302-5.897,3.903-15.971,1.13-18.91l-0.159-0.169
					c-0.236-0.25-0.36-0.287-0.362-0.288c-0.274,0.001-0.932,0.483-1.946,1.434l-0.543,0.513l-2.744-2.911l2.196-2.072
					c2.354-2.22,1.877-18.709,0.028-21.121c-0.307-0.324-0.521-0.324-0.637-0.324c-0.483,0-1.637,0.353-3.918,2.715l-3.025-2.606
					c2.915-3.802,2.919-14.461,0.007-17.547c-0.506-0.536-0.921-0.608-1.262-0.608c-2.184,0-5.571,3.298-8.045,5.707
					c-0.484,0.472-0.953,0.928-1.398,1.349l-0.081,0.072c-0.204,0.173-20.549,17.43-32.622,30.788
					c-10.099,11.176-25.676,36.045-12.341,50.173C221.125,168.079,225.686,169.906,231.279,169.906 M272.211,69.388
					c-5.029,0-9.226,4.086-12.928,7.691c-0.429,0.417-0.838,0.815-1.229,1.186c-1.501,1.277-21.236,18.126-33.183,31.344
					c-12.456,13.783-29.05,41.86-12.238,59.673c4.776,5.059,11.05,7.624,18.646,7.624c14.692,0,30.441-9.827,36.53-14.053
					c8.627-5.989,19.654-17.419,21.744-21.152c3.438-6.139,6.416-20.457,0.114-27.133l-0.156-0.166
					c-0.156-0.167-0.317-0.325-0.481-0.476c0.566-3.067,0.644-6.457,0.589-8.977c-0.115-5.281-0.81-12.165-3.462-14.974
					c-1.013-1.072-2.235-1.83-3.565-2.225c0.437-5.613-0.59-11.916-4.026-15.559C276.858,70.384,274.602,69.388,272.211,69.388
					L272.211,69.388z M231.279,166.906c-4.735,0-8.562-1.511-11.374-4.489c-10.973-11.625,1.395-33.94,12.385-46.103
					c11.904-13.17,32.133-30.338,32.335-30.51l0.029-0.024l0.028-0.025l0.081-0.072l0.032-0.028l0.031-0.029
					c0.456-0.431,0.937-0.898,1.433-1.382c1.233-1.201,3.9-3.797,5.417-4.618c1.381,2.684,1.365,10.541-0.592,13.093l-1.725,2.249
					l2.147,1.85l3.025,2.606l2.147,1.85l1.969-2.039c0.173-0.18,0.336-0.342,0.487-0.49c0.645,4.405,0.688,13.027-0.332,15.098
					l-2.042,1.927l-2.182,2.058l2.058,2.182l2.744,2.911l2.061,2.186l1.696-1.604c0.524,3.203,0.051,9.095-2.312,13.314
					c-0.923,1.649-10.502,12.116-18.721,17.822C257.961,157.516,243.482,166.906,231.279,166.906L231.279,166.906z"/>
			</g>
		</g>
		<g>
			<g>
				<path fill="#3847D1" d="M246.058,126.57c-0.973,0-1.91-0.409-2.57-1.123c-0.636-0.687-0.965-1.58-0.928-2.514
					c0.036-0.935,0.435-1.798,1.122-2.433c13.028-12.048,27.657-25.758,28.872-27.179c0.644-0.926,1.69-1.477,2.82-1.477
					c0.687,0,1.357,0.202,1.941,0.583c1.615,1.058,2.057,3.249,0.986,4.886c-0.78,1.192-10.829,10.722-29.869,28.327
					C247.784,126.239,246.94,126.57,246.058,126.57z"/>
				<path fill="#E214CF" d="M275.375,93.344c0.382,0,0.771,0.111,1.121,0.339c0.924,0.605,1.154,1.885,0.55,2.809
					c-0.967,1.478-21.044,20.105-29.632,28.046c-0.385,0.356-0.871,0.532-1.356,0.532c-0.539,0-1.075-0.216-1.47-0.642
					c-0.75-0.811-0.7-2.077,0.111-2.826c10.613-9.814,27.887-25.926,29.057-27.38C274.132,93.646,274.743,93.344,275.375,93.344
					 M275.375,90.344L275.375,90.344c-1.595,0-3.073,0.761-4,2.046c-1.455,1.626-15.945,15.202-28.713,27.008
					c-0.979,0.905-1.549,2.14-1.602,3.475s0.418,2.61,1.325,3.591c0.944,1.021,2.282,1.605,3.672,1.605
					c1.262,0,2.467-0.472,3.394-1.33c28.829-26.656,29.756-28.072,30.105-28.605c1.523-2.33,0.888-5.452-1.417-6.961
					C277.307,90.63,276.352,90.344,275.375,90.344L275.375,90.344z"/>
			</g>
		</g>
		<g>
			<g>
				<path fill="#3847D1" d="M253.771,147.849c-0.958,0-1.886-0.4-2.544-1.097c-0.643-0.68-0.981-1.569-0.954-2.504
					c0.026-0.934,0.415-1.802,1.095-2.444l26.394-24.913c0.652-0.616,1.505-0.955,2.401-0.955c0.958,0,1.886,0.399,2.545,1.096
					c0.643,0.681,0.981,1.57,0.954,2.505c-0.026,0.934-0.415,1.802-1.095,2.444l-26.394,24.913
					C255.521,147.51,254.668,147.849,253.771,147.849z"/>
				<path fill="#E214CF" d="M280.163,117.437c0.531,0,1.061,0.21,1.455,0.627c0.759,0.803,0.722,2.069-0.081,2.828l-26.393,24.912
					c-0.387,0.365-0.88,0.545-1.373,0.545c-0.531,0-1.061-0.21-1.454-0.627c-0.759-0.803-0.722-2.069,0.081-2.828l26.393-24.912
					C279.178,117.618,279.671,117.437,280.163,117.437 M280.163,114.437L280.163,114.437c-1.28,0-2.498,0.484-3.43,1.363
					l-26.395,24.913c-0.971,0.917-1.526,2.158-1.565,3.492c-0.038,1.335,0.445,2.606,1.363,3.577
					c0.94,0.996,2.266,1.567,3.635,1.567c1.281,0,2.5-0.484,3.432-1.363l26.394-24.913c0.971-0.917,1.526-2.158,1.565-3.492
					c0.038-1.335-0.445-2.606-1.363-3.577C282.855,115.007,281.531,114.437,280.163,114.437L280.163,114.437z"/>
			</g>
		</g>
	</g>
	<g>
		<g>
			<g>
				<path fill="#F275C5" d="M125.759,290.274c-2.884,0.001-6.823-0.474-9.215-2.731l-0.153-0.141
					c-0.686-0.647-1.082-1.299-1.268-1.937c-2.653,0.867-6.267,1.09-9.274,1.09c-3.883,0-11.784-0.527-13.895-2.522
					c-0.938-0.885-1.438-1.983-1.445-3.178c-0.003-0.642,0.136-1.275,0.374-1.89c-1.786,0.411-3.785,0.633-5.873,0.633
					c-4.764,0-8.715-1.151-10.842-3.158c-1.101-1.038-1.674-2.279-1.705-3.689c-0.078-3.64,3.52-7.337,6.694-10.599
					c0.461-0.474,0.905-0.931,1.316-1.365c0.12-0.146,17.525-20.666,31.058-32.896c9.872-8.92,25.252-18.453,38.813-18.453
					c6.356,0,11.776,2.074,16.108,6.165c15.837,14.949-1.278,42.536-6.9,50.635c-5.897,8.497-16.875,18.943-19.988,20.688
					C135.873,288.991,130.583,290.274,125.759,290.274z"/>
				<path fill="#E214CF" d="M150.345,210.938c5.535,0,10.744,1.663,15.079,5.756c14.701,13.877-1.238,40.24-7.104,48.688
					c-5.76,8.3-16.587,18.609-19.488,20.234c-3.466,1.939-8.577,3.159-13.073,3.159c-3.411,0-6.468-0.702-8.185-2.323l-0.169-0.155
					c-1.919-1.813-0.466-3.511,1.162-5.239l0.231-0.245c0.062-0.065,0.123-0.13,0.184-0.195l-0.184,0.195
					c-0.078,0.081-0.155,0.163-0.231,0.245l-1.657,1.755c-1.511,1.602-6.205,2.243-11.06,2.243c-5.667,0-11.554-0.873-12.864-2.112
					c-2.436-2.297,0.199-5.393,2.35-7.467c-2.236,1.714-6.316,2.622-10.325,2.622c-3.953,0-7.835-0.883-9.812-2.749
					c-3.981-3.754,2.609-9.551,6.367-13.533c0,0,17.358-20.508,30.973-32.813C122.002,220.451,137.106,210.938,150.345,210.938
					 M150.345,207.938L150.345,207.938c-13.987,0.001-29.74,9.733-39.818,18.841c-13.365,12.078-29.936,31.547-31.198,33.037
					c-0.39,0.412-0.811,0.844-1.246,1.29c-3.38,3.474-7.21,7.409-7.119,11.678c0.039,1.801,0.791,3.443,2.176,4.749
					c3.41,3.219,9.437,3.566,11.87,3.566c1.375,0,2.719-0.093,3.999-0.271c0,0.013,0,0.024,0,0.037
					c0.009,1.614,0.672,3.088,1.917,4.262c2.95,2.788,12.948,2.93,14.922,2.93c3.41,0,6.231-0.271,8.448-0.807
					c0.271,0.41,0.616,0.82,1.048,1.229l0.202,0.187c2.717,2.565,7.056,3.111,10.212,3.111c5.065,0,10.635-1.357,14.538-3.541
					c3.585-2.009,14.643-12.721,20.488-21.143c5.795-8.347,23.405-36.81,6.698-52.58
					C162.862,210.149,157.097,207.938,150.345,207.938L150.345,207.938z"/>
			</g>
			<g>
				<path fill="#3847D1" d="M125.75,292.274c-3.243,0-7.71-0.568-10.579-3.277l-0.129-0.118c-0.368-0.347-0.685-0.704-0.953-1.071
					c-2.216,0.497-4.98,0.748-8.24,0.748c-2.008,0-12.179-0.148-15.269-3.069c-1.208-1.14-1.91-2.546-2.047-4.092
					c-1.144,0.136-2.322,0.204-3.523,0.204c-2.493,0-8.673-0.361-12.215-3.704c-1.482-1.397-2.289-3.161-2.331-5.101
					c-0.096-4.478,3.812-8.492,7.259-12.034c0.442-0.455,0.867-0.892,1.261-1.309c0.673-0.795,17.872-20.992,31.208-33.044
					c10.148-9.17,26.025-18.97,40.153-18.97c6.884,0,12.766,2.258,17.482,6.711c16.998,16.046-0.778,44.799-6.632,53.229
					c-5.88,8.473-17.031,19.264-20.653,21.292c-3.973,2.224-9.638,3.604-14.783,3.604H125.75z M120.419,284.225
					c0.939,0.559,2.693,1.05,5.333,1.05c3.965,0,8.426-1.064,11.371-2.712c2.248-1.26,12.801-11.22,18.321-19.177
					c3.594-5.175,20.849-31.62,7.577-44.147c-3.375-3.186-7.64-4.801-12.677-4.801c-12.14,0-26.278,8.866-35.46,17.163
					c-13.244,11.97-30.476,32.273-30.649,32.478l-0.093,0.105c-0.458,0.486-0.919,0.961-1.397,1.451
					c-1.596,1.641-5.315,5.463-5.282,7.009l0-0.001c-0.003,0,0.027,0.058,0.137,0.16c0.947,0.895,3.606,1.796,7.411,1.796
					c3.949,0,6.961-0.954,8.195-1.9l1.125-0.862l4.454,5.176l-1.021,0.984c-1.272,1.227-1.831,2.019-2.074,2.455
					c1.22,0.371,4.774,1.104,10.159,1.104c5.791,0,8.231-0.942,8.568-1.195l3.05-3.235l5.091,4.801l-1.444,1.533
					C120.814,283.775,120.589,284.026,120.419,284.225z"/>
				<path fill="#E214CF" d="M150.345,208.938c6.488,0,12.023,2.12,16.452,6.302c16.127,15.223-1.153,43.102-6.834,51.283
					c-5.933,8.549-17.006,19.076-20.153,20.839c-3.763,2.105-9.146,3.413-14.05,3.413c-0.003,0-0.006,0-0.009,0
					c-2.973,0-7.041-0.499-9.549-2.868l-0.147-0.135c-0.599-0.565-1-1.134-1.247-1.694c-2.672,0.773-6.088,0.979-8.958,0.979
					c-0.467,0-11.458-0.03-14.238-2.659c-1.04-0.98-1.594-2.204-1.602-3.538c-0.002-0.417,0.047-0.827,0.14-1.229
					c-1.6,0.307-3.338,0.47-5.139,0.47c-2.313,0-8.035-0.321-11.185-3.295c-1.185-1.116-1.828-2.515-1.861-4.042
					c-0.083-3.85,3.593-7.626,6.836-10.958c0.446-0.458,0.876-0.9,1.274-1.322c0.9-1.06,17.862-20.978,31.123-32.961
					C121.138,218.537,136.642,208.938,150.345,208.938 M85.01,276.099c3.782,0,7.356-0.867,9.108-2.21l2.605,3.027
					c-2.368,2.283-2.717,3.437-2.714,3.92c0,0.114,0.002,0.326,0.348,0.652c0.721,0.55,5.204,1.567,11.492,1.567
					c5.929,0,8.993-0.967,9.605-1.615l1.656-1.755c0,0,0,0,0,0l0.417-0.441l2.91,2.744l-0.416,0.441
					c-0.378,0.401-1.536,1.631-1.53,2.058c0.001,0,0.042,0.124,0.287,0.355l0.147,0.135c1.217,1.148,3.698,1.797,6.827,1.797
					c0.002,0,0.004,0,0.007,0c4.196,0,8.944-1.14,12.096-2.903c2.397-1.343,13.081-11.356,18.821-19.63
					c3.717-5.352,21.534-32.728,7.374-46.094c-3.662-3.457-8.273-5.21-13.706-5.21c-12.567,0-27.077,9.066-36.466,17.55
					c-13.361,12.076-30.615,32.417-30.788,32.621l-0.072,0.081c-0.422,0.447-0.879,0.917-1.353,1.403
					c-2.29,2.354-5.75,5.908-5.703,8.083c0.006,0.307,0.082,0.724,0.607,1.219C78.011,275.254,81.245,276.099,85.01,276.099
					 M150.345,205.938c-14.554,0-30.804,9.999-41.159,19.357c-13.178,11.908-30.077,31.691-31.346,33.183
					c-0.374,0.395-0.775,0.807-1.19,1.233c-3.655,3.756-7.795,8.01-7.686,13.115c0.051,2.317,1.046,4.505,2.803,6.161
					c3.79,3.577,9.924,4.111,13.243,4.111c0.782,0,1.555-0.027,2.317-0.083c0.396,1.329,1.153,2.553,2.225,3.563
					c3.319,3.138,12.503,3.477,16.297,3.477c2.939,0,5.503-0.201,7.656-0.599c0.154,0.168,0.317,0.333,0.489,0.495l0.184,0.169
					c3.192,3.014,8.059,3.653,11.573,3.653c5.396,0,11.341-1.454,15.524-3.795c3.736-2.093,15.168-13.122,21.153-21.747
					c6.025-8.678,24.298-38.307,6.429-55.175C163.853,208.333,157.624,205.938,150.345,205.938L150.345,205.938z M79.217,272.087
					c0.859-1.558,3.507-4.278,4.596-5.398c0.492-0.506,0.958-0.984,1.389-1.44l0.032-0.034l0.031-0.035l0.072-0.081l0.022-0.025
					l0.021-0.025c0.171-0.202,17.326-20.418,30.51-32.334c8.975-8.109,22.739-16.775,34.454-16.775c4.642,0,8.56,1.478,11.646,4.392
					c12.641,11.932-5.651,39.138-7.778,42.201c-5.699,8.214-16.171,17.798-17.824,18.724c-2.694,1.507-6.966,2.521-10.63,2.521
					c-1.063,0-1.957-0.088-2.677-0.219l1.595-1.692l-2.182-2.058l-2.91-2.744l-2.182-2.058l-2.059,2.182l-0.417,0.441l-1.443,1.528
					c-0.686,0.288-3.079,0.9-7.637,0.9c-3.156,0-5.717-0.271-7.468-0.56c0.13-0.132,0.271-0.272,0.425-0.421l2.041-1.968
					l-1.849-2.148l-2.605-3.027l-1.849-2.148l-2.25,1.725c-1.031,0.791-3.864,1.591-7.283,1.591
					C82.195,273.099,80.211,272.572,79.217,272.087L79.217,272.087z"/>
			</g>
		</g>
		<g>
			<g>
				<path fill="#3847D1" d="M94.975,279.296c-1.187,0-2.283-0.593-2.932-1.585c-1.037-1.591-0.614-3.716,0.933-4.789
					c1.376-1.193,15.03-15.763,27.102-28.819c0.66-0.714,1.597-1.124,2.57-1.124c0.883,0,1.727,0.33,2.375,0.93
					c0.688,0.635,1.085,1.499,1.122,2.434c0.036,0.935-0.293,1.827-0.928,2.513c-17.606,19.043-27.138,29.094-28.331,29.872
					C96.314,279.1,95.654,279.296,94.975,279.296z"/>
				<path fill="#E214CF" d="M122.648,244.479c0.486,0,0.973,0.176,1.358,0.531c0.811,0.75,0.86,2.016,0.11,2.826
					c-7.941,8.589-26.571,28.669-28.05,29.635c-0.337,0.22-0.716,0.325-1.091,0.325c-0.653,0-1.293-0.319-1.677-0.906
					c-0.604-0.926-0.343-2.165,0.582-2.769c1.375-1.113,17.486-18.387,27.3-29C121.574,244.694,122.11,244.479,122.648,244.479
					 M122.648,241.479L122.648,241.479c-1.391,0-2.729,0.586-3.673,1.607c-11.789,12.75-25.276,27.147-26.941,28.665
					c-2.139,1.553-2.708,4.538-1.249,6.777c0.93,1.421,2.495,2.268,4.19,2.268c0.97,0,1.914-0.28,2.729-0.812
					c0.537-0.351,1.956-1.277,28.615-30.112c0.906-0.979,1.377-2.254,1.325-3.589c-0.052-1.335-0.621-2.569-1.602-3.476
					C125.114,241.95,123.909,241.479,122.648,241.479L122.648,241.479z"/>
			</g>
		</g>
		<g>
			<g>
				<path fill="#3847D1" d="M119.011,284.089c-0.897,0-1.751-0.34-2.403-0.956c-0.679-0.64-1.068-1.508-1.095-2.443
					c-0.027-0.934,0.312-1.822,0.953-2.503l24.914-26.396c0.658-0.698,1.586-1.099,2.546-1.099c0.897,0,1.751,0.34,2.403,0.957
					c0.678,0.64,1.068,1.508,1.095,2.443c0.027,0.934-0.312,1.822-0.953,2.503l-24.914,26.396
					C120.898,283.688,119.971,284.089,119.011,284.089z"/>
				<path fill="#E214CF" d="M143.925,252.192c0.493,0,0.986,0.182,1.372,0.547c0.804,0.758,0.84,2.023,0.082,2.827l-24.914,26.396
					c-0.394,0.417-0.924,0.627-1.455,0.627c-0.492,0-0.986-0.181-1.372-0.546c-0.804-0.758-0.84-2.023-0.082-2.827l24.914-26.396
					C142.864,252.403,143.394,252.192,143.925,252.192 M143.925,249.192L143.925,249.192c-1.371,0-2.696,0.572-3.637,1.569
					l-24.913,26.395c-0.917,0.973-1.4,2.242-1.362,3.577s0.595,2.576,1.567,3.492c0.929,0.878,2.148,1.363,3.43,1.363
					c1.371,0,2.696-0.571,3.637-1.567l24.914-26.396c0.917-0.973,1.4-2.242,1.362-3.577s-0.595-2.576-1.567-3.492
					C146.428,249.679,145.208,249.192,143.925,249.192L143.925,249.192z"/>
			</g>
		</g>
	</g>
</g>
<g>
	<path fill="#88BDED" stroke="#3847D1" stroke-width="4" stroke-miterlimit="10" d="M258.177,231.16l-69.118-69.117
		c10.719-15.835,16.391-33.972,16.391-53.804c0-53.461-43.426-97.023-96.883-97.023c-53.459,0-96.919,43.459-96.919,96.92
		c0,53.46,43.613,96.832,97.073,96.832c19.829,0.002,37.95-5.651,53.786-16.368l69.118,69.116c2.56,2.56,6.614,2.874,9.176,0.313
		l17.765-17.764C261.123,237.706,260.736,233.723,258.177,231.16z M38.991,108.101c0-38.4,31.242-69.643,69.643-69.643
		c38.399,0,69.642,31.242,69.644,69.643c-0.002,38.4-31.242,69.644-69.644,69.644C70.233,177.744,38.991,146.501,38.991,108.101z"/>
	<path fill="#F275C5" stroke="#3847D1" stroke-width="4" stroke-miterlimit="10" d="M140.721,106.703
		c0.001,17.11-13.87,30.979-30.98,30.982c-17.11-0.003-30.982-13.872-30.982-30.982c0.002-17.11,13.872-30.98,30.982-30.98
		C126.851,75.723,140.721,89.594,140.721,106.703z"/>
	<path fill="#E240B0" d="M132.151,112.491c-0.001,9.215-13.104,19.422-22.316,19.422s-22.313-10.363-22.313-19.577
		c0.001-9.212,13.101-7.823,22.313-7.823C119.046,104.513,132.151,103.279,132.151,112.491z"/>
	<circle fill="#350F2C" cx="109.741" cy="106.173" r="11.674"/>
	
		<ellipse transform="matrix(-0.7144 -0.6998 0.6998 -0.7144 141.3779 246.5877)" fill="#FFBBED" cx="121.014" cy="94.441" rx="12.258" ry="9.285"/>
	<g>
		<path fill="#F275C5" stroke="#3847D1" stroke-width="4" stroke-miterlimit="10" d="M261.395,81.989
			c0,0-20.508,17.358-32.813,30.973c-12.129,13.422-26.188,38.185-12.312,52.888c13.877,14.7,40.24-1.24,48.689-7.104
			c8.299-5.762,18.609-16.589,20.232-19.487c3.414-6.098,4.598-17.278,0.839-21.26l-0.157-0.167
			c-1.965-2.084-3.797-0.199-5.68,1.575l2.197-2.073c3.471-3.273,2.432-21.488,0.131-23.925c-2.299-2.434-5.393,0.202-7.469,2.352
			c3.405-4.441,3.633-16.154-0.125-20.137C271.171,71.642,265.375,78.231,261.395,81.989z"/>
		<path fill="none" stroke="#3847D1" stroke-width="4" stroke-linecap="round" stroke-miterlimit="10" d="M246.057,123.07
			c0,0,28.379-26.242,29.315-27.673"/>
		
			<line fill="none" stroke="#3847D1" stroke-width="4" stroke-linecap="round" stroke-miterlimit="10" x1="253.771" y1="144.349" x2="280.164" y2="119.437"/>
	</g>
	<g>
		<path fill="#F275C5" stroke="#3847D1" stroke-width="4" stroke-miterlimit="10" d="M81.565,261.816
			c0,0,17.358-20.508,30.973-32.813c13.422-12.129,38.185-26.189,52.886-12.311c14.701,13.877-1.238,40.24-7.104,48.688
			c-5.76,8.3-16.587,18.609-19.488,20.234c-6.095,3.411-17.278,4.594-21.258,0.836l-0.169-0.155
			c-2.082-1.966-0.196-3.798,1.577-5.68l-2.073,2.195c-3.274,3.471-21.49,2.432-23.924,0.131c-2.436-2.297,0.199-5.393,2.35-7.467
			c-4.441,3.403-16.156,3.631-20.137-0.127C71.217,271.596,77.807,265.799,81.565,261.816z"/>
		<path fill="none" stroke="#3847D1" stroke-width="4" stroke-linecap="round" stroke-miterlimit="10" d="M122.648,246.479
			c0,0-26.243,28.383-27.675,29.317"/>
		
			<line fill="none" stroke="#3847D1" stroke-width="4" stroke-linecap="round" stroke-miterlimit="10" x1="143.925" y1="254.193" x2="119.011" y2="280.589"/>
	</g>
</g>
</svg>
