<?xml version="1.0" encoding="utf-8"?>
<!-- Generator: Adobe Illustrator 16.0.0, SVG Export Plug-In . SVG Version: 6.00 Build 0)  -->
<!DOCTYPE svg PUBLIC "-//W3C//DTD SVG 1.1//EN" "http://www.w3.org/Graphics/SVG/1.1/DTD/svg11.dtd">
<svg version="1.1" id="Layer_1" xmlns="http://www.w3.org/2000/svg" xmlns:xlink="http://www.w3.org/1999/xlink" x="0px" y="0px"
	 width="388px" height="385.333px" viewBox="0 0 388 385.333" enable-background="new 0 0 388 385.333" xml:space="preserve">
<g>
	<g>
		<g>
			<g>
				<path fill="#66AADD" d="M55,304c-12.604,0-12.75-24.584-12.75-24.832v-0.699l32.502-102.197
					C75.132,168.438,81.478,163,90.318,163h54.89c7.925,0,14.487,6.116,15.459,14h120.426c0.632,0,1.103-0.034,1.451-0.059
					c0.422-0.03,0.723-0.046,0.958-0.046c1.488,0,2.773,0.533,3.715,1.542c1.464,1.577,1.332,3.41,1.261,4.396
					c-0.027,0.396-0.061,0.865-0.061,1.492v24.354c0,0.543,0.022,1.162,0.045,1.816c0.14,4.028,0.298,8.589-2.472,11.458
					c-1.277,1.32-3.016,2.047-4.896,2.047h-81.484c-0.252,0.408-0.511,0.846-0.753,1.256c0,0-0.519,0.874-0.699,1.17
					c-11.136,18.322-17.243,22.05-23.462,22.074l-32.375,1.5c-1.603,0-3.074-0.245-4.37-0.572l-12.497,37.989
					c-0.38,8.081-6.63,16.581-15.564,16.581L55,304z M154.483,230.5c-0.559-0.707-0.991-1.504-1.253-2.398L151.99,224h-5.639
					l-2.217,6.498L154.483,230.5z M173.952,227.585l0.028,0.097c0.143,0.489,0.227,0.977,0.254,1.455
					c0.912-1.036,2.22-2.647,4.055-5.139h-5.713L173.952,227.585z"/>
				<path fill="#E214CF" d="M145.208,165.5c7.214,0,13.083,6.068,13.083,13.527v0.317l-0.051,0.156h122.853
					c0.735,0,1.275-0.04,1.671-0.068c0.307-0.022,0.549-0.037,0.738-0.037c0.79,0,1.424,0.252,1.887,0.748
					c0.721,0.776,0.654,1.697,0.596,2.511c-0.027,0.395-0.067,0.936-0.067,1.671v24.354c0,0.569,0.022,1.219,0.047,1.905
					c0.122,3.527,0.261,7.526-1.772,9.633c-0.813,0.84-1.883,1.283-3.098,1.283H198.26c-0.482,0.672-1.025,1.588-1.555,2.482
					c-0.227,0.381-0.453,0.766-0.684,1.145C185.493,242.45,179.857,246,174.635,246l-32.314,1.5h-0.082
					c-2.135,0-4.101-0.547-5.897-1.181l-13.373,40.653c-0.166,6.939-5.491,14.525-13.079,14.525H55v0.002
					c-8.367,0-10.25-16.539-10.25-22.332v-0.312l32.488-102.152c0.162-6.716,5.377-11.205,13.08-11.205H145.208 M166.794,232.941
					c-3.224,0-10.034-1.673-11.164-5.54l-1.784-5.9h-9.283l-3.955,11.592c0.018,0,0.036-0.002,0.054-0.004
					c0.485-0.045,0.986-0.09,1.526-0.09l31.639,0.006c0.961-0.651,3.408-3.029,9.326-11.506H168.94l2.642,6.889l0.023,0.078
					c0.303,1.037,0.139,2.051-0.462,2.854C170.336,232.395,168.873,232.941,166.794,232.941 M145.208,160.5h-54.89
					c-10.132,0-17.442,6.258-18.044,15.315L39.985,277.341l-0.235,0.739v0.776v0.312c0,3.567,0.58,9.592,2.214,14.828
					C45.19,304.332,50.833,306.5,55,306.5h5v-0.002h49.89c10.239,0,17.438-9.476,18.042-18.611l11.703-35.575
					c0.826,0.118,1.697,0.188,2.604,0.188h0.082h0.116l0.116-0.006L174.761,251c8.336-0.063,15.272-6.394,25.533-23.276
					c0.184-0.302,0.366-0.608,0.548-0.915l0.16-0.27c0.008-0.014,0.016-0.026,0.023-0.039h80.068c2.563,0,4.94-0.997,6.691-2.807
					c3.51-3.636,3.324-8.983,3.176-13.28c-0.021-0.611-0.044-1.236-0.044-1.734v-24.354c0-0.529,0.027-0.923,0.052-1.271
					l0.004-0.055c0.083-1.155,0.279-3.891-1.921-6.259c-1.413-1.515-3.382-2.345-5.55-2.345c-0.368,0-0.743,0.024-1.096,0.05
					c-0.386,0.027-0.781,0.055-1.313,0.055H162.745C160.768,166.465,153.655,160.5,145.208,160.5L145.208,160.5z M148.14,226.5
					h1.994l0.453,1.5L147.628,228L148.14,226.5L148.14,226.5z"/>
			</g>
		</g>
		<g>
			<path fill="#3847D1" stroke="#E214CF" stroke-width="5" stroke-miterlimit="10" d="M145.208,167.5
				c6.121,0,11.083,5.162,11.083,11.527l-0.804,2.473h125.605c1.26,0,1.991-0.105,2.409-0.105c0.833,0,0.414,0.419,0.414,2.93
				v24.354c0,3.769,0.944,10.821-2.823,10.821h-83.781c-0.947,1-1.953,2.867-2.999,4.588C183.409,242.027,178.428,244,174.635,244
				l-32.36,1.5h-0.035c-2.564,0-4.972-0.953-7.148-1.777l-14.118,42.918c0,6.365-4.962,12.859-11.083,12.859H55
				c-6.121,0-8.25-13.967-8.25-20.332l32.484-102.142c0-6.365,4.963-9.527,11.084-9.527H145.208 M166.793,230.941
				c-3.387,0-8.555-1.743-9.245-4.103l-2.219-7.34H143.13l-5.238,15.359c0.53,0.23,1.083,0.301,1.651,0.301
				c0.86,0,1.753-0.16,2.645-0.16c0.006,0,0.013,0,0.02,0l32.137,0.006c2.301-1.041,7.182-7.506,12.612-15.506H166.03l3.655,9.527
				C170.079,230.374,168.727,230.941,166.793,230.941 M145.208,163.5h-54.89c-8.773,0-14.747,5.14-15.07,12.863l-32.31,101.593
				l-0.188,0.592v0.621c0,0.242,0.14,24.332,12.25,24.332h54.89c7.831,0,14.725-7.483,15.069-16.178l12.665-38.501
				c1.425,0.394,2.972,0.679,4.615,0.679h0.093l0.127-0.004L174.734,248c6.031-0.041,12.006-3.754,22.997-21.836
				c0.233-0.386,0.465-0.775,0.694-1.164c0.285-0.481,0.604-1.02,0.905-1.5h81.762c1.77,0,3.338-0.655,4.535-1.896
				c2.623-2.716,2.471-7.164,2.334-11.09c-0.023-0.676-0.046-1.314-0.046-1.838v-24.353c0-0.654,0.035-1.138,0.063-1.527
				c0.069-0.974,0.188-2.604-1.127-4.017c-0.588-0.632-1.647-1.386-3.352-1.386c-0.227,0-0.516,0.016-0.883,0.042
				c-0.389,0.028-0.872,0.063-1.526,0.063H160.219C159.471,169.652,153.024,163.5,145.208,163.5L145.208,163.5z M171.849,223.5
				h7.425c-2.927,4.022-4.655,6.017-5.626,6.998c0.169-0.834,0.132-1.722-0.123-2.595l-0.046-0.157l-0.059-0.151L171.849,223.5
				L171.849,223.5z M145.993,223.5h6.368l1.359,4.496c0.342,1.17,1.019,2.166,1.901,3.006L143.435,231L145.993,223.5L145.993,223.5z
				"/>
		</g>
	</g>
	<g>
		<g>
			<path fill="#D1D1D1" d="M316.739,165.334c-2.919,0-6.739-5.891-6.739-8.045v-5.714c0-1.504,1.101-3.027,3.203-3.027
				c0.91,0,1.895,0.291,2.763,0.546c0.278,0.082,0.687,0.203,0.87,0.239h23.048c0.533-0.517,1.24-0.786,1.926-0.786
				c0.742,0,1.453,0.303,2.009,0.786H344v0.169c0.563,0.565,0.926,1.325,0.926,2.121c0,0.782-0.342,1.522-0.926,2.028v3.637
				c0.016,0.239,0.221,1.083,0.357,1.641c0.544,2.234,0.975,3.999-0.084,5.346c-0.527,0.672-1.322,1.058-2.181,1.058H316.739z"/>
			<path fill="#E214CF" d="M341.81,151.048c0.407,0,0.993,0.786,0.283,0.786H341.5v-0.259
				C341.5,151.186,341.639,151.048,341.81,151.048 M313.203,151.048c1.01,0,2.826,0.786,3.536,0.786H341.5v5.455
				c0,1.322,1.6,5.545,0.593,5.545h-25.354c-1.007,0-4.239-4.223-4.239-5.545v-5.714C312.5,151.186,312.781,151.048,313.203,151.048
				 M341.81,146.048c-1.021,0-1.966,0.285-2.768,0.786h-21.896c-0.146-0.041-0.332-0.096-0.472-0.137
				c-0.98-0.289-2.199-0.649-3.471-0.649c-3.251,0-5.703,2.376-5.703,5.527v5.714c0,0.734,0,2.684,2.771,6.306
				c2.242,2.932,4.237,4.239,6.469,4.239h25.354c1.631,0,3.143-0.734,4.147-2.013c1.809-2.303,1.167-4.937,0.546-7.483
				c-0.096-0.393-0.235-0.965-0.286-1.244v-2.514c0.594-0.857,0.926-1.887,0.926-2.956c0-1.103-0.343-2.144-0.926-3.02v-1.77h-1.861
				C343.802,146.336,342.832,146.048,341.81,146.048L341.81,146.048z"/>
		</g>
		<g>
			<path fill="#3847D1" d="M316.739,167.834c-4.602,0-9.239-7.23-9.239-10.545v-5.714c0-2.679,1.999-5.527,5.703-5.527
				c1.27,0,2.487,0.359,3.466,0.647c0.148,0.044,0.324,0.097,0.473,0.139h21.915c0.81-0.49,1.748-0.753,2.731-0.753
				c0.995,0,1.965,0.263,2.812,0.753h1.9v1.798c0.597,0.901,0.926,1.947,0.926,2.992c0,1.068-0.328,2.098-0.926,2.958v2.526
				c0.04,0.203,0.136,0.615,0.285,1.228c0.622,2.552,1.263,5.184-0.546,7.485c-1.003,1.279-2.515,2.013-4.146,2.013H316.739z
				 M336.521,157.834c-0.014-0.183-0.021-0.365-0.021-0.545v-0.455h-18.78c0.213,0.314,0.482,0.679,0.74,1H336.521z"/>
			<path fill="#E214CF" d="M313.203,148.548c0.91,0,1.895,0.291,2.763,0.546c0.278,0.082,0.687,0.203,0.87,0.239h23.048
				c0.534-0.519,1.219-0.753,1.904-0.753c0.737,0,1.477,0.272,2.03,0.753H344v0.169c0.563,0.565,0.926,1.325,0.926,2.121
				c0,0.782-0.342,1.522-0.926,2.028v3.637c0.016,0.239,0.221,1.083,0.357,1.641c0.544,2.234,0.975,3.999-0.084,5.346
				c-0.527,0.672-1.322,1.058-2.181,1.058h-25.354c-2.919,0-6.739-5.891-6.739-8.045v-5.714
				C310,150.071,311.101,148.548,313.203,148.548 M317.356,160.334h22.196c-0.019-0.077-0.037-0.15-0.054-0.219
				c-0.268-1.099-0.499-2.048-0.499-2.826v-2.955h-22.261c-0.555,0-1.117-0.135-1.739-0.313v3.063
				C315.285,157.841,316.599,159.634,317.356,160.334 M313.203,143.548c-4.6,0-8.203,3.526-8.203,8.027v5.714
				c0,4.295,5.434,13.045,11.739,13.045h25.354c2.405,0,4.634-1.083,6.115-2.972c2.557-3.253,1.662-6.928,1.009-9.61
				c-0.099-0.403-0.171-0.706-0.217-0.908v-1.561c0.601-1.111,0.926-2.365,0.926-3.658c0-1.267-0.326-2.531-0.926-3.668v-3.622
				h-3.795c-1.061-0.492-2.227-0.753-3.417-0.753c-1.185,0-2.327,0.26-3.358,0.753h-20.932c-0.036-0.011-0.072-0.021-0.105-0.031
				C316.303,143.981,314.833,143.548,313.203,143.548L313.203,143.548z"/>
		</g>
	</g>
	<g>
		<g>
			<path fill="#F4CC69" d="M306.303,173.499c-2.271,0-4.803-1.775-4.803-4.322v-25.354c0-2.679,3.076-4.323,5.281-4.323h0.228
				l10.928,2.01c1.817,0.125,3.563,1.473,3.563,4.313l0.003,21.646c0.014,0.826,0.034,2.074-0.951,3.076
				c-0.397,0.404-1.087,0.88-2.161,0.946l-11.878,2.008H306.303z"/>
			<path fill="#E214CF" d="M306.781,142l10.875,2c1.006,0,1.344,0.816,1.344,1.823v21.354c0,1.006,0.142,1.822-0.865,1.822
				l-11.832,2c-1.008,0-2.303-0.816-2.303-1.822v-25.354C304,142.816,305.774,142,306.781,142 M307.237,137h-0.456
				c-3.262,0-7.781,2.371-7.781,6.823v25.354c0,4.081,3.776,6.822,7.303,6.822h0.42l0.413-0.07l11.563-1.955
				c1.407-0.124,2.682-0.708,3.634-1.676c1.721-1.749,1.686-3.936,1.67-4.87L324,167.177v-21.354c0-4.186-2.786-6.506-5.724-6.793
				l-10.591-1.948L307.237,137L307.237,137z"/>
		</g>
		<g>
			<path fill="#3847D1" d="M306.303,175.499c-3.285,0-6.803-2.541-6.803-6.322v-25.354c0-4.126,4.229-6.323,7.281-6.323h0.114
				l0.588,0.054l10.72,1.971c2.583,0.242,5.297,2.287,5.297,6.298l0.003,21.654c0.015,0.905,0.047,2.872-1.524,4.47
				c-0.623,0.632-1.702,1.398-3.348,1.532l-11.95,2.02H306.303z M308.5,166.064l6-1.014v-17.055l-6-1.104V166.064z"/>
			<path fill="#E214CF" d="M306.781,140l0.361,0.033l10.733,1.974c1.589,0.1,3.124,1.292,3.124,3.816l0.003,21.654
				c0.013,0.787,0.03,1.865-0.808,2.717c-0.338,0.343-0.929,0.748-1.86,0.799l-11.864,2.005h-0.168c-2.035,0-4.303-1.57-4.303-3.822
				v-25.354C302,141.278,305.065,140,306.781,140 M306.225,168.984L317,167.163v-21.25l-10.33-1.9
				c-0.197,0.037-0.478,0.147-0.67,0.258v24.611C306.068,168.924,306.153,168.963,306.225,168.984 M307.011,135h-0.229
				c-4.101,0-9.781,3.066-9.781,8.823v25.354c0,5.277,4.811,8.822,9.303,8.822h0.168h0.42l0.413-0.07l11.65-1.969
				c1.843-0.179,3.537-0.972,4.802-2.255c2.283-2.323,2.265-5.157,2.247-6.269L326,145.823c0-5.286-3.685-8.363-7.442-8.774
				l-10.511-1.933l-0.222-0.041l-0.226-0.021l-0.361-0.033L307.011,135L307.011,135z M311,163.106v-13.212l1,0.184v12.86
				L311,163.106L311,163.106z"/>
		</g>
	</g>
	<g>
		<g>
			<path fill="#FFEEB6" d="M305.303,158.833c-4.179,0-4.803-1.895-4.803-3.024v-7.285c0-2.006,1.777-3.023,5.281-3.023l0.132,0.003
				l10.815,0.571c3.665,0.035,3.771,2.716,3.771,3.023v6.136c0.048,0.801-0.2,1.518-0.737,2.086
				c-0.852,0.902-2.015,0.936-2.566,0.937l-11.833,0.575H305.303z"/>
			<path fill="#E214CF" d="M305.781,148.001l10.875,0.574c1.006,0,1.344,0.235,1.344,0.524v6.136c0,0.289,0.142,0.523-0.865,0.523
				l-11.832,0.575c-1.008,0-2.303-0.234-2.303-0.524v-7.285C303,148.235,304.774,148.001,305.781,148.001 M305.913,143.001h-0.132
				c-7.023,0-7.781,3.862-7.781,5.523v7.285c0,0.922,0.353,5.524,7.303,5.524h0.121l0.122-0.006l11.716-0.57
				c0.802-0.005,2.782-0.094,4.318-1.719c0.695-0.736,1.5-2.007,1.42-3.901v-6.038c0-1.891-1.299-5.45-6.19-5.523l-10.765-0.568
				L305.913,143.001L305.913,143.001z"/>
		</g>
	</g>
	<g>
		<g>
			<path fill="#F275C5" d="M358.833,177.917c-11.81,0-21.417-9.607-21.417-21.417s9.607-21.417,21.417-21.417
				s21.417,9.607,21.417,21.417S370.643,177.917,358.833,177.917z"/>
			<path fill="#E214CF" d="M358.833,137.583c10.447,0,18.917,8.469,18.917,18.917s-8.47,18.917-18.917,18.917
				s-18.917-8.469-18.917-18.917S348.386,137.583,358.833,137.583 M358.833,132.583c-13.188,0-23.917,10.729-23.917,23.917
				s10.729,23.917,23.917,23.917s23.917-10.729,23.917-23.917S372.021,132.583,358.833,132.583L358.833,132.583z"/>
		</g>
		<g>
			<path fill="#3847D1" d="M358.833,179.917c-12.912,0-23.417-10.505-23.417-23.417s10.505-23.417,23.417-23.417
				s23.417,10.505,23.417,23.417S371.745,179.917,358.833,179.917z M358.833,142.083c-7.949,0-14.417,6.467-14.417,14.417
				s6.468,14.417,14.417,14.417s14.417-6.467,14.417-14.417S366.782,142.083,358.833,142.083z"/>
			<path fill="#E214CF" d="M358.833,135.583c11.533,0,20.917,9.383,20.917,20.917s-9.384,20.917-20.917,20.917
				s-20.917-9.383-20.917-20.917S347.3,135.583,358.833,135.583 M358.833,173.417c9.328,0,16.917-7.589,16.917-16.917
				s-7.589-16.917-16.917-16.917s-16.917,7.589-16.917,16.917S349.505,173.417,358.833,173.417 M358.833,130.583
				c-14.291,0-25.917,11.626-25.917,25.917s11.626,25.917,25.917,25.917s25.917-11.626,25.917-25.917
				S373.124,130.583,358.833,130.583L358.833,130.583z M358.833,168.417c-6.571,0-11.917-5.346-11.917-11.917
				s5.346-11.917,11.917-11.917s11.917,5.346,11.917,11.917S365.404,168.417,358.833,168.417L358.833,168.417z"/>
		</g>
	</g>
	<g>
		<g>
			<g>
				<path fill="#F9DB85" d="M107.337,139.833c-16.094,0-24.254-3.97-24.254-11.8c0-9.545-22.399-28.556-38.304-39.006l-14.233-9.464
					l17.012,1.138c9.716,0.684,95.273,6.857,109.841,13.276c11.81,5.204,16.018,15.05,16.018,22.528
					c0,9.525-4.019,13.619-4.824,14.342l-0.584,0.525l-1.092,0.645l-0.402,0.085c-3.728,0.797-36.819,7.73-59.175,7.73H107.337z"/>
				<path fill="#E214CF" d="M39.756,82.685l7.635,0.511c3.853,0.271,94.514,6.686,109,13.069
					c10.71,4.72,14.526,13.547,14.526,20.241c0,8.641-3.586,12.115-3.995,12.483l-0.399,0.358l-0.525,0.31
					c-0.354,0.075-35.607,7.676-58.658,7.676c-0.002,0-0.002,0-0.003,0c-5.381,0-21.754-0.2-21.754-9.3
					c0-12.377-28.464-33.889-39.431-41.095L39.756,82.685 M21.336,76.442l15.651,10.407l6.396,4.253
					c5.719,3.758,15.209,10.746,23.208,18.121c12.983,11.972,13.992,17.425,13.992,18.811c0,3.646,1.644,10.171,12.65,12.914
					c4.985,1.242,10.437,1.386,14.104,1.386c22.616,0,55.946-6.983,59.672-7.779l0.796-0.17l0.735-0.421l0.525-0.31l0.429-0.253
					l0.37-0.333l0.399-0.358c0.944-0.849,5.653-5.616,5.653-16.202c0-8.267-4.6-19.127-17.51-24.816
					c-14.645-6.454-94.755-12.363-110.666-13.482l-7.652-0.512L21.336,76.442L21.336,76.442z"/>
			</g>
		</g>
		<g>
			<path fill="#3847D1" stroke="#E214CF" stroke-width="5" stroke-miterlimit="10" d="M47.25,85.167c0,0,94,6.601,108.333,12.916
				c9.833,4.333,13.333,12.342,13.333,18.417c0,8-3.333,11-3.333,11s-35.138,7.433-58.246,7.433c-11.32,0-19.754-1.785-19.754-7.1
				C87.583,111.667,47.25,85.167,47.25,85.167 M32.269,80.105l12.784,8.405c14.896,9.793,38.53,29.129,38.53,39.323
				c0,11.1,17.879,11.1,23.754,11.1c23.259,0,57.622-7.213,59.073-7.52l1.05-0.222l0.798-0.718
				c0.477-0.429,4.657-4.466,4.657-13.973c0-7.324-4.13-16.97-15.72-22.077c-14.55-6.412-99.973-12.565-109.666-13.246
				L32.269,80.105L32.269,80.105z"/>
		</g>
	</g>
	<g>
		<g>
			<g>
				<path fill="#88BDED" d="M76.155,201.279c-24.8,0-66.405-5.292-66.405-40.737c0-36.845,49.879-39.708,65.166-39.708h221.236
					c6.07,0,12.348,0,12.348,9.556v52.601c0,13.156-6.462,17.843-12.51,17.843H86.667l-0.145,0.019
					c-0.296,0.041-0.682,0.093-1.151,0.114c-0.37,0.017-0.801,0.039-1.292,0.065C82.236,201.13,79.451,201.279,76.155,201.279z"/>
				<path fill="#E214CF" d="M296.152,123.334c6.501,0,9.848,0.167,9.848,7.056v52.601c0,9.713-3.795,15.343-10.01,15.343H86.583
					c-0.226,0-0.678,0.105-1.328,0.136c-1.748,0.077-5.001,0.309-9.1,0.309c-23.866,0-63.905-5.04-63.905-38.237
					c0-34.447,47.966-37.208,62.666-37.208H296.152 M296.152,118.334H74.916c-8.209,0-24.133,0.777-38.544,5.984
					C17.32,131.201,7.25,143.727,7.25,160.542c0,16.567,9.019,29.079,26.081,36.183c14.002,5.83,31.017,7.054,42.824,7.054
					c3.363,0,6.188-0.15,8.058-0.249c0.482-0.026,0.905-0.049,1.263-0.064c0.593-0.027,1.063-0.091,1.356-0.131H295.99
					c7.256,0,15.01-5.344,15.01-20.343V130.39C311,118.334,302.064,118.334,296.152,118.334L296.152,118.334z"/>
			</g>
		</g>
		<g>
			<path fill="#3847D1" stroke="#E214CF" stroke-width="5" stroke-miterlimit="10" d="M296.118,125.417
				c6.571,0,7.882,0.104,7.882,4.973v52.601c0,4.91-1.296,13.343-8.01,13.343H86.583c-0.857,0-4.794,0.362-10.428,0.362
				c-20.134,0-61.905-3.606-61.905-36.196c0-30.625,41.129-35.167,60.666-35.167c0.404,0,221.074,0,221.074,0c0.055,0,0.01,0,0.01,0
				 M296.152,121.333h-0.162H74.916c-8.514,0-24.916,0.908-39.11,6.434c-16.719,6.508-25.556,17.883-25.556,32.817
				c0,15.755,8.98,27.545,25.972,34.053c13.204,5.059,29.005,6.131,39.934,6.131c4.144,0,7.427-0.227,9.19-0.307
				c0.605-0.027,1.026-0.129,1.237-0.129H295.99c7.355,0,12.01-6.543,12.01-17.344v-52.601c0-8.889-5.493-9.056-11.807-9.056
				L296.152,121.333L296.152,121.333z"/>
		</g>
	</g>
	<g>
		<g>
			<g>
				<path fill="#3847D1" d="M72.907,200.14c-1.43,0-2.449-0.112-2.93-0.18c-1.094-0.166-2.024-0.729-2.658-1.59
					s-0.894-1.918-0.732-2.974C66.88,193.461,68.58,192,70.54,192c0.198,0,0.397,0.014,0.598,0.045
					c0.051,0.007,0.72,0.098,1.799,0.098c3.609,0,10.494-0.964,16.052-7.419c5.005-5.813,9.485-6.596,13.208-6.596
					c0.452,0,0.891,0.011,1.316,0.021c0.001,0,0.001,0,0.002,0c0.104,0,0.198-0.013,0.292-0.021c0.25-0.024,0.498-0.043,0.745-0.043
					c2.101,0,55.003-0.091,97.512-0.165c27.044-0.046,49.286-0.085,49.851-0.085h52.002c2.206,0,4,1.794,4,4s-1.794,4-4,4h-52
					c-0.563,0-22.773,0.039-49.79,0.085c-42.533,0.074-95.467,0.165-97.574,0.165c-0.137,0-0.274,0.005-0.413,0.01
					c-0.199,0.007-0.399,0.014-0.601,0.014l-0.228-0.003c-0.364-0.009-0.725-0.019-1.086-0.019c-2.116,0-4.117,0.289-7.174,3.837
					C87.396,198.813,77.892,200.14,72.907,200.14z"/>
				<path fill="#E214CF" d="M303.915,180.334c0.828,0,1.5,0.672,1.5,1.5c0,0.829-0.672,1.5-1.5,1.5h-52
					c-1.437,0-143.903,0.25-147.364,0.25c-0.334,0-0.671,0.024-1.013,0.024c-0.055,0-0.109,0-0.164-0.002
					c-0.385-0.01-0.768-0.02-1.15-0.02c-2.718,0-5.429,0.481-9.068,4.706c-7.064,8.205-15.928,9.348-20.249,9.348
					c-1.5,0-2.452-0.138-2.592-0.157c-0.818-0.124-1.382-0.891-1.257-1.708c0.113-0.742,0.756-1.274,1.481-1.274
					c0.074,0,0.148,0.005,0.224,0.017c0.119,0.017,0.915,0.126,2.173,0.126c3.759,0,11.648-0.974,17.947-8.288
					c4.459-5.179,8.206-5.728,11.313-5.728c0.43,0,0.848,0.01,1.254,0.021c0.024,0,0.048,0.001,0.072,0.001
					c0.346,0,0.689-0.065,1.029-0.065c3.459,0,145.924-0.25,147.362-0.25H303.915 M303.915,175.334h-52.002
					c-0.568,0-22.318,0.038-49.854,0.085c-42.507,0.074-95.409,0.165-97.508,0.165c-0.405,0-0.751,0.033-0.98,0.055l-0.095,0.008
					c-0.424-0.011-0.846-0.02-1.279-0.02c-4.039,0-9.405,0.849-15.103,7.465c-4.908,5.7-10.977,6.551-14.158,6.551
					c-0.922,0-1.464-0.076-1.469-0.076c-0.276-0.042-0.603-0.067-0.927-0.067c-3.185,0-5.947,2.375-6.425,5.525
					c-0.262,1.711,0.161,3.427,1.191,4.827c1.03,1.399,2.542,2.314,4.26,2.574l0.029,0.005l0.03,0.004
					c0.946,0.133,2.11,0.205,3.283,0.205c5.413,0,15.733-1.44,24.038-11.086c2.557-2.968,3.818-2.968,5.279-2.968
					c0.339,0,0.679,0.009,1.021,0.018c0.098,0.002,0.196,0.003,0.293,0.003c0.231,0,0.461-0.007,0.689-0.015
					c0.108-0.004,0.216-0.009,0.324-0.009c2.109,0,55.044-0.091,97.579-0.165c26.414-0.045,49.227-0.085,49.785-0.085h52
					c3.584,0,6.5-2.916,6.5-6.5S307.499,175.334,303.915,175.334L303.915,175.334z"/>
			</g>
		</g>
	</g>
	<g>
		<g>
			<g>
				<path fill="#3847D1" d="M251.916,143.833c-0.564,0-145.262-0.083-147.364-0.083c-0.135,0-0.271,0.013-0.408,0.023
					c-0.208,0.016-0.419,0.031-0.63,0.036c-0.458,0.012-0.902,0.023-1.359,0.023c-3.709,0-8.174-0.781-13.165-6.577
					c-5.993-6.959-13.856-7.71-16.958-7.71c-0.733,0-1.156,0.043-1.16,0.043c-0.137,0.017-0.299,0.027-0.459,0.027
					c-2.024,0-3.729-1.517-3.965-3.528c-0.261-2.18,1.305-4.172,3.491-4.436c0.223-0.026,1.023-0.109,2.238-0.109
					c4.157,0,14.707,1.024,22.877,10.513c3.039,3.53,5.034,3.817,7.145,3.817c0.371,0,0.741-0.01,1.114-0.019
					c0.105-0.003,0.21-0.02,0.315-0.033c0.31-0.039,0.619-0.071,0.926-0.071c2.104,0,146.802,0.083,147.366,0.083h51.998
					c2.206,0,4,1.794,4,4c-0.003,2.208-1.798,4.001-4.001,4.001H251.916z"/>
				<path fill="#E214CF" d="M72.175,124.042c4.039,0,13.547,1.008,20.983,9.645c3.624,4.209,6.332,4.686,9.04,4.686
					c0.392,0,0.784-0.01,1.178-0.02c0.397-0.01,0.789-0.103,1.177-0.103c3.461,0,145.927,0.083,147.366,0.083h51.998
					c0.828,0,1.5,0.672,1.5,1.5c-0.001,0.831-0.673,1.501-1.501,1.501h-52c-1.439,0-143.905-0.083-147.364-0.083
					c-0.362,0-0.729,0.051-1.101,0.06c-0.419,0.011-0.852,0.022-1.297,0.022c-3.101,0-6.83-0.552-11.27-5.708
					c-6.68-7.757-15.447-8.579-18.853-8.579c-0.89,0-1.414,0.056-1.438,0.059c-0.061,0.007-0.122,0.011-0.182,0.011
					c-0.745,0-1.393-0.56-1.482-1.32c-0.098-0.821,0.486-1.563,1.308-1.662C70.354,124.119,71.055,124.042,72.175,124.042
					 M72.175,119.042c-1.315,0-2.204,0.088-2.524,0.126c-3.566,0.43-6.111,3.668-5.687,7.221c0.384,3.261,3.156,5.727,6.447,5.727
					c0.239,0,0.481-0.014,0.72-0.04c0.064-0.005,0.385-0.031,0.9-0.03c2.758,0,9.747,0.667,15.064,6.842
					c5.683,6.599,11.033,7.445,15.059,7.445c0.479,0,0.944-0.011,1.396-0.023c0.28-0.007,0.533-0.024,0.784-0.043
					c0.08-0.006,0.159-0.014,0.237-0.016c2.083,0,55.548,0.031,97.478,0.055c27.052,0.016,49.303,0.028,49.867,0.028h52
					c3.58,0,6.497-2.914,6.501-6.495c0-3.59-2.916-6.506-6.5-6.506h-51.998c-0.563,0-22.796-0.013-49.83-0.028
					c-41.938-0.024-95.431-0.055-97.536-0.055c-0.516,0-0.949,0.054-1.236,0.09c-0.043,0.005-0.086,0.011-0.13,0.016
					c-0.331,0.008-0.66,0.017-0.989,0.017c-1.455,0-2.712,0-5.25-2.948C88.102,120.15,76.677,119.042,72.175,119.042L72.175,119.042
					z"/>
			</g>
		</g>
	</g>
	<g>
		<g>
			<g>
				<g>
					<path fill="#FFC294" d="M39.27,183.975c-9.245-0.54-17.354-12.093-17.354-24.725c0-12.54,8.109-24.016,17.354-24.559
						l5.214-0.306l-3.032,4.253c-0.027,0.04-4.036,6.065-4.036,20.612c0,14.559,4.013,20.745,4.053,20.803l2.932,4.221
						L39.27,183.975z"/>
					<path fill="#E214CF" d="M39.416,137.187c0,0-4.5,6.313-4.5,22.063c0,15.749,4.5,22.229,4.5,22.229
						c-7.315-0.427-15-10.259-15-22.229S32.101,137.616,39.416,137.187 M50.205,131.397l-11.082,0.799
						c-10.682,0.626-19.707,13.016-19.707,27.054c0,13.887,9.209,26.607,19.708,27.221l10.741,0.627l-6.317-8.436
						c-0.313-0.523-3.633-6.384-3.633-19.412c0-12.943,3.275-18.663,3.601-19.198L50.205,131.397L50.205,131.397z"/>
				</g>
			</g>
			<g>
				<g>
					<path fill="#3847D1" d="M39.188,185.473c-10.178-0.595-18.772-12.604-18.772-26.223c0-14.929,9.704-25.525,18.767-26.057
						l8.339-0.488l-4.847,6.803c0.001,0.001-3.758,5.881-3.758,19.741c0,13.912,3.787,19.948,3.826,20.008l4.529,6.672
						L39.188,185.473z M31.939,146.887c-2.062,3.164-3.523,7.447-3.523,12.363c0,4.983,1.469,9.317,3.542,12.512
						c-0.616-3.385-1.042-7.529-1.042-12.512C30.916,154.324,31.334,150.231,31.939,146.887z"/>
					<path fill="#E214CF" d="M42.456,135.506l-1.818,2.551c-0.037,0.054-4.222,6.24-4.222,21.192c0,14.97,4.194,21.317,4.236,21.38
						l1.71,2.519l-3.033-0.171c-8.743-0.511-16.413-11.599-16.413-23.727c0-13.319,8.649-23.106,16.413-23.561L42.456,135.506
						 M36.626,139.393c-5.507,2.354-10.71,10.22-10.71,19.857c0,9.731,5.218,17.671,10.732,20.028
						c-1.396-3.426-3.232-9.867-3.232-20.028C33.416,149.153,35.231,142.792,36.626,139.393 M52.587,129.904l-10.423,0.61
						l-3.127,0.183c-10.2,0.598-21.121,12.213-21.121,28.552c0,14.897,9.672,28.049,21.121,28.719l3.043,0.171l10.1,0.569
						l-5.682-8.369l-1.658-2.443c-0.243-0.416-3.424-6.104-3.424-18.647c0-12.317,3.067-17.878,3.375-18.404l1.737-2.438
						L52.587,129.904L52.587,129.904z"/>
				</g>
			</g>
		</g>
	</g>
	<g>
		<g>
			<path fill="#3847D1" d="M55.625,302c-0.413,0-0.823-0.063-1.22-0.19c-2.107-0.681-3.264-2.938-2.588-5.036l29.163-90.43
				c0.346-1.346,2.243-6.512,10.93-6.512H283c2.206,0,4,1.794,4,4s-1.794,4-4,4H91.91c-2.214,0-3.017,0.497-3.222,0.663
				l-0.043,0.148l-29.213,90.584C58.897,300.886,57.367,302,55.625,302z"/>
			<path fill="#E214CF" d="M283,202.333c0.828,0,1.5,0.672,1.5,1.5s-0.672,1.5-1.5,1.5H91.91c-5.049,0-5.573,2.235-5.593,2.33
				l-0.052,0.214L57.053,298.46c-0.205,0.636-0.794,1.04-1.427,1.04c-0.153,0-0.308-0.023-0.461-0.072
				c-0.789-0.255-1.221-1.1-0.967-1.888l29.19-90.514c0.21-0.918,1.501-4.694,8.523-4.694H283 M283,197.333H91.91
				c-10.295,0-12.808,6.395-13.327,8.299l-29.145,90.375c-1.099,3.409,0.781,7.078,4.188,8.18c0.662,0.211,1.328,0.314,1.999,0.314
				c2.831,0,5.316-1.811,6.186-4.505l28.892-89.587c0.285-0.042,0.68-0.076,1.208-0.076H283c3.584,0,6.5-2.916,6.5-6.5
				S286.584,197.333,283,197.333L283,197.333z"/>
		</g>
	</g>
	<g>
		<g>
			<path fill="#3847D1" d="M103.932,302.874c-0.443,0-0.881-0.073-1.301-0.218c-1.015-0.351-1.829-1.071-2.296-2.033
				c-0.467-0.961-0.532-2.047-0.183-3.057c11.497-33.267,23.986-70.016,24.71-73.246c0.003-0.116-0.018-0.2-0.063-0.249
				c-0.079-0.088-0.356-0.238-0.884-0.238H82c-2.206,0-4-1.794-4-4s1.794-4,4-4h41.916c2.725,0,5.148,1.022,6.824,2.88
				c1.589,1.763,2.325,4.082,2.072,6.532c-0.296,2.871-15.853,48.182-25.1,74.936C107.156,301.792,105.636,302.874,103.932,302.874z
				"/>
			<path fill="#E214CF" d="M123.916,218.333c2.008,0,3.772,0.729,4.968,2.055c1.108,1.229,1.621,2.863,1.441,4.601
				c-0.295,2.86-20.856,62.458-24.976,74.376c-0.214,0.62-0.795,1.01-1.417,1.01c-0.163,0-0.328-0.026-0.49-0.082
				c-0.783-0.271-1.199-1.125-0.928-1.908c9.763-28.25,24.432-71.198,24.829-73.727c0.089-0.871-0.147-1.661-0.687-2.26
				c-0.62-0.687-1.593-1.064-2.741-1.064H82c-0.829,0-1.5-0.672-1.5-1.5s0.671-1.5,1.5-1.5H123.916 M123.916,213.333H82
				c-3.584,0-6.5,2.916-6.5,6.5s2.916,6.5,6.5,6.5h39.662c-2.979,9.469-13.742,41.104-23.873,70.418
				c-0.567,1.64-0.462,3.403,0.297,4.966c0.76,1.562,2.082,2.734,3.724,3.301c0.691,0.237,1.402,0.356,2.122,0.356
				c2.77,0,5.238-1.759,6.143-4.376c24.854-71.91,25.132-74.609,25.224-75.497c0.326-3.162-0.633-6.167-2.701-8.461
				C130.44,214.648,127.357,213.333,123.916,213.333L123.916,213.333z"/>
		</g>
	</g>
	<g>
		<g>
			<path fill="#3847D1" d="M76,240.833c-2.206,0-4-1.794-4-4s1.794-4,4-4h40c2.206,0,4,1.794,4,4s-1.794,4-4,4H76z"/>
			<path fill="#E214CF" d="M116,235.333c0.829,0,1.5,0.672,1.5,1.5s-0.671,1.5-1.5,1.5H76c-0.829,0-1.5-0.672-1.5-1.5
				s0.671-1.5,1.5-1.5H116 M116,230.333H76c-3.584,0-6.5,2.916-6.5,6.5s2.916,6.5,6.5,6.5h40c3.584,0,6.5-2.916,6.5-6.5
				S119.584,230.333,116,230.333L116,230.333z"/>
		</g>
	</g>
	<g>
		<g>
			<path fill="#3847D1" d="M71,256.833c-2.206,0-4-1.794-4-4s1.794-4,4-4h39c2.206,0,4,1.794,4,4s-1.794,4-4,4H71z"/>
			<path fill="#E214CF" d="M110,251.333c0.829,0,1.5,0.672,1.5,1.5s-0.671,1.5-1.5,1.5H71c-0.829,0-1.5-0.672-1.5-1.5
				s0.671-1.5,1.5-1.5H110 M110,246.333H71c-3.584,0-6.5,2.916-6.5,6.5s2.916,6.5,6.5,6.5h39c3.584,0,6.5-2.916,6.5-6.5
				S113.584,246.333,110,246.333L110,246.333z"/>
		</g>
	</g>
	<g>
		<g>
			<path fill="#3847D1" d="M67,271.833c-2.206,0-4-1.794-4-4s1.794-4,4-4h37c2.206,0,4,1.794,4,4s-1.794,4-4,4H67z"/>
			<path fill="#E214CF" d="M104,266.333c0.829,0,1.5,0.672,1.5,1.5s-0.671,1.5-1.5,1.5H67c-0.829,0-1.5-0.672-1.5-1.5
				s0.671-1.5,1.5-1.5H104 M104,261.333H67c-3.584,0-6.5,2.916-6.5,6.5s2.916,6.5,6.5,6.5h37c3.584,0,6.5-2.916,6.5-6.5
				S107.584,261.333,104,261.333L104,261.333z"/>
		</g>
	</g>
	<g>
		<g>
			<path fill="#F7D379" d="M69.417,295.668c-4.228,0-7.667-3.439-7.667-7.668c0-4.228,3.439-7.666,7.667-7.666
				s7.667,3.438,7.667,7.666C77.084,292.229,73.645,295.668,69.417,295.668z"/>
			<path fill="#E214CF" d="M69.417,282.834c2.854,0,5.167,2.313,5.167,5.166s-2.313,5.168-5.167,5.168S64.25,290.854,64.25,288
				S66.563,282.834,69.417,282.834 M69.417,277.834c-5.606,0-10.167,4.561-10.167,10.166c0,5.606,4.561,10.168,10.167,10.168
				S79.584,293.607,79.584,288C79.584,282.395,75.023,277.834,69.417,277.834L69.417,277.834z"/>
		</g>
		<g>
			<path fill="#3847D1" d="M69.417,297.168c-5.055,0-9.167-4.112-9.167-9.168c0-5.054,4.112-9.166,9.167-9.166
				s9.167,4.112,9.167,9.166C78.584,293.056,74.472,297.168,69.417,297.168z M69.417,286.834c-0.644,0-1.167,0.523-1.167,1.166
				c0,0.644,0.523,1.168,1.167,1.168s1.167-0.524,1.167-1.168C70.584,287.358,70.061,286.834,69.417,286.834z"/>
			<path fill="#E214CF" d="M69.417,281.334c3.676,0,6.667,2.99,6.667,6.666c0,3.677-2.991,6.668-6.667,6.668
				S62.75,291.677,62.75,288C62.75,284.325,65.741,281.334,69.417,281.334 M69.417,291.668c2.022,0,3.667-1.646,3.667-3.668
				c0-2.021-1.645-3.666-3.667-3.666S65.75,285.979,65.75,288C65.75,290.023,67.395,291.668,69.417,291.668 M69.417,276.334
				c-6.433,0-11.667,5.233-11.667,11.666c0,6.434,5.234,11.668,11.667,11.668S81.084,294.434,81.084,288
				C81.084,281.568,75.85,276.334,69.417,276.334L69.417,276.334z"/>
		</g>
	</g>
	<g>
		<g>
			<path fill="#5FED80" d="M83.417,295.668c-4.228,0-7.667-3.439-7.667-7.668c0-4.228,3.439-7.666,7.667-7.666
				s7.667,3.438,7.667,7.666C91.084,292.229,87.645,295.668,83.417,295.668z"/>
			<path fill="#E214CF" d="M83.417,282.834c2.854,0,5.167,2.313,5.167,5.166s-2.313,5.168-5.167,5.168S78.25,290.854,78.25,288
				S80.563,282.834,83.417,282.834 M83.417,277.834c-5.606,0-10.167,4.561-10.167,10.166c0,5.606,4.561,10.168,10.167,10.168
				S93.584,293.607,93.584,288C93.584,282.395,89.023,277.834,83.417,277.834L83.417,277.834z"/>
		</g>
		<g>
			<path fill="#3847D1" d="M83.417,297.168c-5.055,0-9.167-4.112-9.167-9.168c0-5.054,4.112-9.166,9.167-9.166
				s9.167,4.112,9.167,9.166C92.584,293.056,88.472,297.168,83.417,297.168z M83.417,286.834c-0.644,0-1.167,0.523-1.167,1.166
				c0,0.644,0.523,1.168,1.167,1.168s1.167-0.524,1.167-1.168C84.584,287.358,84.061,286.834,83.417,286.834z"/>
			<path fill="#E214CF" d="M83.417,281.334c3.676,0,6.667,2.99,6.667,6.666c0,3.677-2.991,6.668-6.667,6.668
				S76.75,291.677,76.75,288C76.75,284.325,79.741,281.334,83.417,281.334 M83.417,291.668c2.022,0,3.667-1.646,3.667-3.668
				c0-2.021-1.645-3.666-3.667-3.666S79.75,285.979,79.75,288C79.75,290.023,81.395,291.668,83.417,291.668 M83.417,276.334
				c-6.433,0-11.667,5.233-11.667,11.666c0,6.434,5.234,11.668,11.667,11.668S95.084,294.434,95.084,288
				C95.084,281.568,89.85,276.334,83.417,276.334L83.417,276.334z"/>
		</g>
	</g>
	<g>
		<g>
			<path fill="#CC505F" d="M97.417,295.668c-4.228,0-7.667-3.439-7.667-7.668c0-4.228,3.439-7.666,7.667-7.666
				s7.667,3.438,7.667,7.666C105.084,292.229,101.645,295.668,97.417,295.668z"/>
			<path fill="#E214CF" d="M97.417,282.834c2.854,0,5.167,2.313,5.167,5.166s-2.313,5.168-5.167,5.168S92.25,290.854,92.25,288
				S94.563,282.834,97.417,282.834 M97.417,277.834c-5.606,0-10.167,4.561-10.167,10.166c0,5.606,4.561,10.168,10.167,10.168
				s10.167-4.562,10.167-10.168C107.584,282.395,103.023,277.834,97.417,277.834L97.417,277.834z"/>
		</g>
		<g>
			<path fill="#3847D1" d="M97.417,297.168c-5.055,0-9.167-4.112-9.167-9.168c0-5.054,4.112-9.166,9.167-9.166
				s9.167,4.112,9.167,9.166C106.584,293.056,102.472,297.168,97.417,297.168z M97.417,286.834c-0.644,0-1.167,0.523-1.167,1.166
				c0,0.644,0.523,1.168,1.167,1.168s1.167-0.524,1.167-1.168C98.584,287.358,98.061,286.834,97.417,286.834z"/>
			<path fill="#E214CF" d="M97.417,281.334c3.676,0,6.667,2.99,6.667,6.666c0,3.677-2.991,6.668-6.667,6.668
				S90.75,291.677,90.75,288C90.75,284.325,93.741,281.334,97.417,281.334 M97.417,291.668c2.022,0,3.667-1.646,3.667-3.668
				c0-2.021-1.645-3.666-3.667-3.666S93.75,285.979,93.75,288C93.75,290.023,95.395,291.668,97.417,291.668 M97.417,276.334
				c-6.433,0-11.667,5.233-11.667,11.666c0,6.434,5.234,11.668,11.667,11.668s11.667-5.234,11.667-11.668
				C109.084,281.568,103.85,276.334,97.417,276.334L97.417,276.334z"/>
		</g>
	</g>
	<g>
		<g>
			<g>
				<g>
					<path fill="#D788EA" d="M69.166,184c-13.509,0-24.5-10.991-24.5-24.5s10.991-24.5,24.5-24.5s24.5,10.991,24.5,24.5
						S82.675,184,69.166,184z"/>
					<path fill="#E214CF" d="M69.166,137.5c12.15,0,22,9.85,22,22s-9.85,22-22,22s-22-9.85-22-22S57.016,137.5,69.166,137.5
						 M69.166,132.5c-14.888,0-27,12.112-27,27s12.112,27,27,27s27-12.112,27-27S84.054,132.5,69.166,132.5L69.166,132.5z"/>
				</g>
			</g>
			<g>
				<g>
					<path fill="#3847D1" d="M69.166,185.5c-14.336,0-26-11.663-26-25.999c0-14.336,11.664-26,26-26s26,11.664,26,26
						C95.166,173.837,83.502,185.5,69.166,185.5z M69.166,141.5c-9.925,0-18,8.075-18,18s8.075,18,18,18s18-8.074,18-17.999
						C87.166,149.575,79.091,141.5,69.166,141.5z"/>
					<path fill="#E214CF" d="M69.166,136.001c12.958,0,23.5,10.542,23.5,23.5S82.124,183,69.166,183s-23.5-10.541-23.5-23.499
						S56.208,136.001,69.166,136.001 M69.166,180c11.304,0,20.5-9.195,20.5-20.499c0-11.304-9.196-20.501-20.5-20.501
						s-20.5,9.196-20.5,20.5S57.862,180,69.166,180 M69.166,131.001c-15.715,0-28.5,12.785-28.5,28.5
						c0,15.714,12.785,28.499,28.5,28.499s28.5-12.785,28.5-28.499C97.666,143.786,84.881,131.001,69.166,131.001L69.166,131.001z
						 M69.166,175c-8.547,0-15.5-6.953-15.5-15.5s6.953-15.5,15.5-15.5s15.5,6.954,15.5,15.501
						C84.666,168.047,77.713,175,69.166,175L69.166,175z"/>
				</g>
			</g>
		</g>
		<g>
			<g>
				<g>
					<path fill="#E525A5" d="M69.208,174.249c-8.133,0-14.75-6.616-14.75-14.749c0-8.133,6.617-14.75,14.75-14.75
						s14.75,6.617,14.75,14.75C83.958,167.633,77.341,174.249,69.208,174.249z"/>
					<path fill="#E214CF" d="M69.208,147.25c6.755,0,12.25,5.495,12.25,12.25s-5.495,12.249-12.25,12.249s-12.25-5.494-12.25-12.249
						S62.453,147.25,69.208,147.25 M69.208,142.25c-9.512,0-17.25,7.738-17.25,17.25c0,9.511,7.738,17.249,17.25,17.249
						s17.25-7.738,17.25-17.249C86.458,149.988,78.72,142.25,69.208,142.25L69.208,142.25z"/>
				</g>
			</g>
			<g>
				<g>
					<path fill="#3847D1" d="M69.208,174.75c-8.409,0-15.25-6.841-15.25-15.249c0-8.409,6.841-15.25,15.25-15.25
						s15.25,6.841,15.25,15.25C84.458,167.909,77.617,174.75,69.208,174.75z M69.208,150.25c-5.101,0-9.25,4.149-9.25,9.25
						c0,5.1,4.149,9.249,9.25,9.249s9.25-4.149,9.25-9.249C78.458,154.399,74.309,150.25,69.208,150.25z"/>
					<path fill="#E214CF" d="M69.208,146.751c7.03,0,12.75,5.72,12.75,12.75c0,7.03-5.72,12.749-12.75,12.749
						s-12.75-5.719-12.75-12.749C56.458,152.471,62.178,146.751,69.208,146.751 M69.208,171.249c6.479,0,11.75-5.271,11.75-11.749
						c0-6.479-5.27-11.75-11.75-11.75c-6.479,0-11.75,5.271-11.75,11.75S62.729,171.249,69.208,171.249 M69.208,141.751
						c-9.788,0-17.75,7.962-17.75,17.75c0,9.787,7.962,17.749,17.75,17.749s17.75-7.962,17.75-17.749
						C86.958,149.713,78.996,141.751,69.208,141.751L69.208,141.751z M69.208,166.249c-3.722,0-6.75-3.028-6.75-6.749
						c0-3.722,3.028-6.75,6.75-6.75s6.75,3.028,6.75,6.75C75.958,163.221,72.93,166.249,69.208,166.249L69.208,166.249z"/>
				</g>
			</g>
		</g>
		<g>
			<g>
				<path fill="#A80E84" d="M71.666,169.5c-4.962,0-9-4.155-9-9.263c0-5.107,4.038-9.263,9-9.263s9,4.155,9,9.263
					C80.666,165.345,76.628,169.5,71.666,169.5z"/>
				<path fill="#E214CF" d="M71.666,153.474c3.59,0,6.5,3.028,6.5,6.763c0,3.735-2.91,6.763-6.5,6.763s-6.5-3.028-6.5-6.763
					C65.166,156.502,68.076,153.474,71.666,153.474 M71.666,148.474c-6.341,0-11.5,5.277-11.5,11.763
					c0,6.486,5.159,11.763,11.5,11.763s11.5-5.277,11.5-11.763C83.166,153.751,78.007,148.474,71.666,148.474L71.666,148.474z"/>
			</g>
		</g>
		<g>
			<g>
				<path fill="#FF99EC" d="M64.483,162.985c-2.766,0-5.023-1.232-6.039-3.296c-0.866-1.758-0.707-3.891,0.437-5.853
					c0.969-1.662,2.58-3.107,4.537-4.07c1.573-0.774,3.253-1.184,4.859-1.184c2.766,0,5.023,1.232,6.039,3.296
					c1.661,3.374-0.524,7.733-4.974,9.923C67.769,162.576,66.088,162.985,64.483,162.985z"/>
				<path fill="#E214CF" d="M68.277,151.083c1.736,0,3.185,0.657,3.796,1.899c1.026,2.084-0.691,5.029-3.835,6.576
					c-1.27,0.625-2.579,0.927-3.755,0.927c-1.736,0-3.184-0.657-3.795-1.899c-1.026-2.084,0.691-5.029,3.834-6.576
					C65.792,151.385,67.101,151.083,68.277,151.083 M68.277,146.083L68.277,146.083c-1.987,0-4.049,0.498-5.964,1.441
					c-2.392,1.177-4.378,2.972-5.592,5.054c-1.573,2.698-1.763,5.693-0.52,8.217c1.445,2.937,4.541,4.691,8.281,4.691
					c1.986,0,4.048-0.498,5.963-1.44c2.393-1.178,4.378-2.973,5.592-5.054c1.573-2.698,1.763-5.692,0.521-8.216
					C75.113,147.837,72.018,146.083,68.277,146.083L68.277,146.083z"/>
			</g>
		</g>
	</g>
	<g>
		<g>
			<g>
				<g>
					<g>
						<path fill="#5AEDBF" d="M176.5,177.833c-5.514,0-10-4.486-10-10v-14c0-5.514,4.486-10,10-10s10,4.486,10,10v14
							C186.5,173.347,182.014,177.833,176.5,177.833z"/>
						<path fill="#E214CF" d="M176.5,146.333c4.142,0,7.5,3.358,7.5,7.5v14c0,4.142-3.358,7.5-7.5,7.5s-7.5-3.358-7.5-7.5v-14
							C169,149.691,172.358,146.333,176.5,146.333 M176.5,141.333c-6.893,0-12.5,5.607-12.5,12.5v14c0,6.893,5.607,12.5,12.5,12.5
							s12.5-5.607,12.5-12.5v-14C189,146.94,183.393,141.333,176.5,141.333L176.5,141.333z"/>
					</g>
				</g>
				<g>
					<g>
						<path fill="#3847D1" d="M177,179c-6.341,0-11.5-5.159-11.5-11.5v-14c0-6.341,5.159-11.5,11.5-11.5s11.5,5.159,11.5,11.5v14
							C188.5,173.841,183.341,179,177,179z M177,150c-1.93,0-3.5,1.57-3.5,3.5v14c0,1.93,1.57,3.5,3.5,3.5s3.5-1.57,3.5-3.5v-14
							C180.5,151.57,178.93,150,177,150z"/>
						<path fill="#E214CF" d="M177,144.5c4.963,0,9,4.037,9,9v14c0,4.962-4.037,9-9,9c-4.962,0-9-4.037-9-9v-14
							C168,148.537,172.038,144.5,177,144.5 M177,173.5c3.309,0,6-2.691,6-6v-14c0-3.308-2.691-6-6-6s-6,2.691-6,6v14
							C171,170.809,173.691,173.5,177,173.5 M177,139.5c-7.72,0-14,6.28-14,14v14c0,7.72,6.28,14,14,14s14-6.28,14-14v-14
							C191,145.78,184.72,139.5,177,139.5L177,139.5z M177,168.5c-0.551,0-1-0.449-1-1v-14c0-0.551,0.449-1,1-1s1,0.449,1,1v14
							C178,168.051,177.551,168.5,177,168.5L177,168.5z"/>
					</g>
				</g>
			</g>
			<g>
				<g>
					<g>
						<path fill="#5AEDBF" d="M201.5,177.833c-5.514,0-10-4.486-10-10v-14c0-5.514,4.486-10,10-10s10,4.486,10,10v14
							C211.5,173.347,207.014,177.833,201.5,177.833z"/>
						<path fill="#E214CF" d="M201.5,146.333c4.143,0,7.5,3.358,7.5,7.5v14c0,4.142-3.357,7.5-7.5,7.5s-7.5-3.358-7.5-7.5v-14
							C194,149.691,197.357,146.333,201.5,146.333 M201.5,141.333c-6.893,0-12.5,5.607-12.5,12.5v14c0,6.893,5.607,12.5,12.5,12.5
							s12.5-5.607,12.5-12.5v-14C214,146.94,208.393,141.333,201.5,141.333L201.5,141.333z"/>
					</g>
				</g>
				<g>
					<g>
						<path fill="#3847D1" d="M202,179c-6.341,0-11.5-5.159-11.5-11.5v-14c0-6.341,5.159-11.5,11.5-11.5s11.5,5.159,11.5,11.5v14
							C213.5,173.841,208.341,179,202,179z M202,150c-1.93,0-3.5,1.57-3.5,3.5v14c0,1.93,1.57,3.5,3.5,3.5s3.5-1.57,3.5-3.5v-14
							C205.5,151.57,203.93,150,202,150z"/>
						<path fill="#E214CF" d="M202,144.5c4.963,0,9,4.037,9,9v14c0,4.962-4.037,9-9,9s-9-4.037-9-9v-14
							C193,148.537,197.037,144.5,202,144.5 M202,173.5c3.309,0,6-2.691,6-6v-14c0-3.308-2.691-6-6-6s-6,2.691-6,6v14
							C196,170.809,198.691,173.5,202,173.5 M202,139.5c-7.72,0-14,6.28-14,14v14c0,7.72,6.28,14,14,14s14-6.28,14-14v-14
							C216,145.78,209.72,139.5,202,139.5L202,139.5z M202,168.5c-0.552,0-1-0.449-1-1v-14c0-0.551,0.448-1,1-1s1,0.449,1,1v14
							C203,168.051,202.552,168.5,202,168.5L202,168.5z"/>
					</g>
				</g>
			</g>
			<g>
				<g>
					<g>
						<path fill="#5AEDBF" d="M224.5,177.833c-5.514,0-10-4.486-10-10v-14c0-5.514,4.486-10,10-10s10,4.486,10,10v14
							C234.5,173.347,230.014,177.833,224.5,177.833z"/>
						<path fill="#E214CF" d="M224.5,146.333c4.143,0,7.5,3.358,7.5,7.5v14c0,4.142-3.357,7.5-7.5,7.5s-7.5-3.358-7.5-7.5v-14
							C217,149.691,220.357,146.333,224.5,146.333 M224.5,141.333c-6.893,0-12.5,5.607-12.5,12.5v14c0,6.893,5.607,12.5,12.5,12.5
							s12.5-5.607,12.5-12.5v-14C237,146.94,231.393,141.333,224.5,141.333L224.5,141.333z"/>
					</g>
				</g>
				<g>
					<g>
						<path fill="#3847D1" d="M225,179c-6.341,0-11.5-5.159-11.5-11.5v-14c0-6.341,5.159-11.5,11.5-11.5s11.5,5.159,11.5,11.5v14
							C236.5,173.841,231.341,179,225,179z M225,150c-1.93,0-3.5,1.57-3.5,3.5v14c0,1.93,1.57,3.5,3.5,3.5s3.5-1.57,3.5-3.5v-14
							C228.5,151.57,226.93,150,225,150z"/>
						<path fill="#E214CF" d="M225,144.5c4.963,0,9,4.037,9,9v14c0,4.962-4.037,9-9,9s-9-4.037-9-9v-14
							C216,148.537,220.037,144.5,225,144.5 M225,173.5c3.309,0,6-2.691,6-6v-14c0-3.308-2.691-6-6-6s-6,2.691-6,6v14
							C219,170.809,221.691,173.5,225,173.5 M225,139.5c-7.72,0-14,6.28-14,14v14c0,7.72,6.28,14,14,14s14-6.28,14-14v-14
							C239,145.78,232.72,139.5,225,139.5L225,139.5z M225,168.5c-0.552,0-1-0.449-1-1v-14c0-0.551,0.448-1,1-1s1,0.449,1,1v14
							C226,168.051,225.552,168.5,225,168.5L225,168.5z"/>
					</g>
				</g>
			</g>
			<g>
				<g>
					<g>
						<path fill="#5AEDBF" d="M248.5,177.833c-5.514,0-10-4.486-10-10v-14c0-5.514,4.486-10,10-10s10,4.486,10,10v14
							C258.5,173.347,254.014,177.833,248.5,177.833z"/>
						<path fill="#E214CF" d="M248.5,146.333c4.143,0,7.5,3.358,7.5,7.5v14c0,4.142-3.357,7.5-7.5,7.5s-7.5-3.358-7.5-7.5v-14
							C241,149.691,244.357,146.333,248.5,146.333 M248.5,141.333c-6.893,0-12.5,5.607-12.5,12.5v14c0,6.893,5.607,12.5,12.5,12.5
							s12.5-5.607,12.5-12.5v-14C261,146.94,255.393,141.333,248.5,141.333L248.5,141.333z"/>
					</g>
				</g>
				<g>
					<g>
						<path fill="#3847D1" d="M249,179c-6.341,0-11.5-5.159-11.5-11.5v-14c0-6.341,5.159-11.5,11.5-11.5s11.5,5.159,11.5,11.5v14
							C260.5,173.841,255.341,179,249,179z M249,150c-1.93,0-3.5,1.57-3.5,3.5v14c0,1.93,1.57,3.5,3.5,3.5s3.5-1.57,3.5-3.5v-14
							C252.5,151.57,250.93,150,249,150z"/>
						<path fill="#E214CF" d="M249,144.5c4.963,0,9,4.037,9,9v14c0,4.962-4.037,9-9,9s-9-4.037-9-9v-14
							C240,148.537,244.037,144.5,249,144.5 M249,173.5c3.309,0,6-2.691,6-6v-14c0-3.308-2.691-6-6-6s-6,2.691-6,6v14
							C243,170.809,245.691,173.5,249,173.5 M249,139.5c-7.72,0-14,6.28-14,14v14c0,7.72,6.28,14,14,14s14-6.28,14-14v-14
							C263,145.78,256.72,139.5,249,139.5L249,139.5z M249,168.5c-0.552,0-1-0.449-1-1v-14c0-0.551,0.448-1,1-1s1,0.449,1,1v14
							C250,168.051,249.552,168.5,249,168.5L249,168.5z"/>
					</g>
				</g>
			</g>
		</g>
		<g>
			<g>
				<path fill="#BCFFB8" d="M179.375,170.833c-2.688,0-4.875-2.187-4.875-4.874v-11.252c0-2.688,2.187-4.874,4.875-4.874h0.25
					c2.688,0,4.875,2.187,4.875,4.874v11.252c0,2.688-2.187,4.874-4.875,4.874H179.375z"/>
				<path fill="#E214CF" d="M179.625,152.333c1.312,0,2.375,1.063,2.375,2.374v11.252c0,1.311-1.063,2.374-2.375,2.374h-0.25
					c-1.312,0-2.375-1.063-2.375-2.374v-11.252c0-1.311,1.063-2.374,2.375-2.374H179.625 M179.625,147.333h-0.25
					c-4.066,0-7.375,3.308-7.375,7.374v11.252c0,4.066,3.309,7.374,7.375,7.374h0.25c4.066,0,7.375-3.308,7.375-7.374v-11.252
					C187,150.641,183.691,147.333,179.625,147.333L179.625,147.333z"/>
			</g>
		</g>
		<g>
			<g>
				<path fill="#BCFFB8" d="M204.375,170.833c-2.688,0-4.875-2.187-4.875-4.874v-11.252c0-2.688,2.187-4.874,4.875-4.874h0.25
					c2.688,0,4.875,2.187,4.875,4.874v11.252c0,2.688-2.187,4.874-4.875,4.874H204.375z"/>
				<path fill="#E214CF" d="M204.625,152.333c1.313,0,2.375,1.063,2.375,2.374v11.252c0,1.311-1.063,2.374-2.375,2.374h-0.25
					c-1.313,0-2.375-1.063-2.375-2.374v-11.252c0-1.311,1.063-2.374,2.375-2.374H204.625 M204.625,147.333h-0.25
					c-4.066,0-7.375,3.308-7.375,7.374v11.252c0,4.066,3.309,7.374,7.375,7.374h0.25c4.066,0,7.375-3.308,7.375-7.374v-11.252
					C212,150.641,208.691,147.333,204.625,147.333L204.625,147.333z"/>
			</g>
		</g>
		<g>
			<g>
				<path fill="#BCFFB8" d="M227.375,170.833c-2.688,0-4.875-2.187-4.875-4.874v-11.252c0-2.688,2.187-4.874,4.875-4.874h0.25
					c2.688,0,4.875,2.187,4.875,4.874v11.252c0,2.688-2.187,4.874-4.875,4.874H227.375z"/>
				<path fill="#E214CF" d="M227.625,152.333c1.313,0,2.375,1.063,2.375,2.374v11.252c0,1.311-1.063,2.374-2.375,2.374h-0.25
					c-1.313,0-2.375-1.063-2.375-2.374v-11.252c0-1.311,1.063-2.374,2.375-2.374H227.625 M227.625,147.333h-0.25
					c-4.066,0-7.375,3.308-7.375,7.374v11.252c0,4.066,3.309,7.374,7.375,7.374h0.25c4.066,0,7.375-3.308,7.375-7.374v-11.252
					C235,150.641,231.691,147.333,227.625,147.333L227.625,147.333z"/>
			</g>
		</g>
		<g>
			<g>
				<path fill="#BCFFB8" d="M251.375,170.833c-2.688,0-4.875-2.187-4.875-4.874v-11.252c0-2.688,2.187-4.874,4.875-4.874h0.25
					c2.688,0,4.875,2.187,4.875,4.874v11.252c0,2.688-2.187,4.874-4.875,4.874H251.375z"/>
				<path fill="#E214CF" d="M251.625,152.333c1.313,0,2.375,1.063,2.375,2.374v11.252c0,1.311-1.063,2.374-2.375,2.374h-0.25
					c-1.313,0-2.375-1.063-2.375-2.374v-11.252c0-1.311,1.063-2.374,2.375-2.374H251.625 M251.625,147.333h-0.25
					c-4.066,0-7.375,3.308-7.375,7.374v11.252c0,4.066,3.309,7.374,7.375,7.374h0.25c4.066,0,7.375-3.308,7.375-7.374v-11.252
					C259,150.641,255.691,147.333,251.625,147.333L251.625,147.333z"/>
			</g>
		</g>
	</g>
	<g>
		<g>
			<path fill="#FFEEB6" d="M162.582,120.212c-0.613,0-1.25-0.135-1.895-0.401c-1.352-0.559-2.277-1.778-3.257-3.068
				c-1.322-1.741-2.821-3.714-5.369-4.31c-5.331-1.247-69.48-18.897-72.208-19.647l-18.25-5.022l18.927,0.112
				c0.83,0.005,8.164,0.056,10.044,0.318c6.214,0.839,60.983,8.292,66.977,11.041c6.56,3.007,9.548,9.374,9.548,14.017
				c0,1.807-0.23,3.211-0.704,4.295C165.654,119.24,164.264,120.212,162.582,120.212
				C162.582,120.212,162.582,120.212,162.582,120.212z"/>
			<path fill="#E214CF" d="M80.516,90.375c0,0,7.943,0.047,9.713,0.294c0,0,60.452,8.164,66.281,10.837
				c5.829,2.672,8.09,8.327,8.09,11.744c0,2.832-0.647,4.462-2.018,4.462c-0.283,0-0.597-0.069-0.941-0.212
				c-2.017-0.834-3.665-6.25-9.01-7.501C147.285,108.749,80.516,90.375,80.516,90.375 M42.69,85.152l36.499,10.044
				c2.73,0.751,66.924,18.414,72.303,19.672c1.554,0.364,2.572,1.578,3.947,3.388c1.138,1.499,2.315,3.048,4.292,3.865
				c0.951,0.393,1.91,0.591,2.852,0.591c1.172,0,7.018-0.457,7.018-9.462c0-5.415-3.444-12.822-11.006-16.289
				c-6.036-2.768-53.341-9.309-67.696-11.247c-1.926-0.269-8.412-0.327-10.353-0.339L42.69,85.152L42.69,85.152z"/>
		</g>
	</g>
	<g>
		<g>
			<path fill="#E240B0" d="M360.041,174.874c-6.411,0-15-6.427-15-12.999c0-3.113,2.008-5.047,5.241-5.047
				c1.532,0,3.232,0.378,5.031,0.779c1.699,0.378,3.456,0.769,4.853,0.769c1.492,0,3.546-0.657,5.357-1.237
				c1.936-0.62,3.764-1.205,5.361-1.205c2.753,0,4.531,1.842,4.531,4.692C375.416,167.368,366.252,174.874,360.041,174.874z"/>
			<path fill="#E214CF" d="M370.885,158.433c1.243,0,2.031,0.555,2.031,2.192c0,5.074-7.697,11.749-12.875,11.749
				s-12.5-5.426-12.5-10.499c0-1.947,1.097-2.547,2.741-2.547c2.641,0,6.693,1.547,9.884,1.547
				C363.673,160.875,368.277,158.433,370.885,158.433 M370.885,153.433L370.885,153.433c-1.987,0-3.996,0.644-6.123,1.324
				c-1.557,0.498-3.493,1.118-4.596,1.118c-1.121,0-2.742-0.36-4.31-0.709c-1.852-0.412-3.768-0.838-5.574-0.838
				c-4.63,0-7.741,3.033-7.741,7.547c0,8.202,9.786,15.499,17.5,15.499c7.476,0,17.875-8.44,17.875-16.749
				C377.916,156.39,375.024,153.433,370.885,153.433L370.885,153.433z"/>
		</g>
	</g>
	<g>
		<g>
			<path fill="#FFBBED" d="M366.519,162.619c-3.267,0-6.657-1.486-9.302-4.076c-4.842-4.742-5.669-11.778-1.843-15.685
				c1.618-1.652,3.896-2.562,6.417-2.562c3.267,0,6.658,1.486,9.303,4.077c2.256,2.209,3.729,4.984,4.149,7.815
				c0.452,3.042-0.389,5.911-2.308,7.87C371.317,161.709,369.039,162.619,366.519,162.619z"/>
			<path fill="#E214CF" d="M361.791,142.796c2.507,0,5.301,1.156,7.554,3.363c3.863,3.784,4.671,9.223,1.805,12.149
				c-1.194,1.22-2.84,1.811-4.631,1.811c-2.507,0-5.3-1.156-7.553-3.362c-3.863-3.784-4.672-9.223-1.806-12.15
				C358.354,143.387,359.999,142.796,361.791,142.796 M361.791,137.796L361.791,137.796c-3.198,0-6.111,1.176-8.203,3.312
				c-4.871,4.975-4.046,13.417,1.879,19.221c3.108,3.044,7.137,4.79,11.052,4.79c3.198,0,6.111-1.176,8.203-3.312
				c2.471-2.523,3.563-6.163,2.995-9.986c-0.5-3.366-2.231-6.646-4.873-9.234C369.734,139.542,365.706,137.796,361.791,137.796
				L361.791,137.796z"/>
		</g>
	</g>
</g>
<g>
	<g>
		<g>
			<g>
				<path fill="#66AADD" d="M55,301.5c-8.367,0-10.25-16.539-10.25-22.332v-0.312l32.488-102.152
					c0.162-6.716,5.377-11.205,13.08-11.205h54.89c7.214,0,13.083,6.068,13.083,13.527v0.317l-0.051,0.156h122.853
					c0.735,0,1.275-0.04,1.671-0.068c0.307-0.022,0.549-0.037,0.738-0.037c0.79,0,1.424,0.252,1.887,0.748
					c0.721,0.776,0.654,1.697,0.596,2.511c-0.027,0.395-0.067,0.936-0.067,1.671v24.354c0,0.569,0.022,1.219,0.047,1.905
					c0.122,3.527,0.261,7.526-1.772,9.633c-0.813,0.84-1.883,1.283-3.098,1.283H198.26c-0.482,0.672-1.025,1.588-1.555,2.482
					c-0.227,0.381-0.453,0.766-0.684,1.145C185.493,242.45,179.857,246,174.635,246l-32.314,1.5h-0.082
					c-2.135,0-4.101-0.547-5.897-1.181l-13.373,40.653c-0.166,6.939-5.491,14.525-13.079,14.525H55V301.5z M140.608,233.092
					c0.018,0,0.036-0.002,0.054-0.004c0.485-0.045,0.986-0.09,1.526-0.09l31.639,0.006c0.961-0.651,3.408-3.029,9.326-11.506H168.94
					l2.642,6.889l0.023,0.078c0.303,1.037,0.139,2.051-0.462,2.854c-0.807,1.076-2.27,1.622-4.349,1.622
					c-3.224,0-10.034-1.673-11.164-5.54l-1.784-5.9h-9.283L140.608,233.092z"/>
			</g>
		</g>
		<g>
			<path fill="#3847D1" d="M145.208,167.5c6.121,0,11.083,5.162,11.083,11.527l-0.804,2.473h125.605c1.26,0,1.991-0.105,2.409-0.105
				c0.833,0,0.414,0.419,0.414,2.93v24.354c0,3.769,0.944,10.821-2.823,10.821h-83.781c-0.947,1-1.953,2.867-2.999,4.588
				C183.409,242.027,178.428,244,174.635,244l-32.36,1.5h-0.035c-2.564,0-4.972-0.953-7.148-1.777l-14.118,42.918
				c0,6.365-4.962,12.859-11.083,12.859H55c-6.121,0-8.25-13.967-8.25-20.332l32.484-102.142c0-6.365,4.963-9.527,11.084-9.527
				H145.208 M166.793,230.941c-3.387,0-8.555-1.743-9.245-4.103l-2.219-7.34H143.13l-5.238,15.359
				c0.53,0.23,1.083,0.301,1.651,0.301c0.86,0,1.753-0.16,2.645-0.16c0.006,0,0.013,0,0.02,0l32.137,0.006
				c2.301-1.041,7.182-7.506,12.612-15.506H166.03l3.655,9.527C170.079,230.374,168.727,230.941,166.793,230.941 M145.208,163.5
				h-54.89c-8.773,0-14.747,5.14-15.07,12.863l-32.31,101.593l-0.188,0.592v0.621c0,0.242,0.14,24.332,12.25,24.332h54.89
				c7.831,0,14.725-7.483,15.069-16.178l12.665-38.501c1.425,0.394,2.972,0.679,4.615,0.679h0.093l0.127-0.004L174.734,248
				c6.031-0.041,12.006-3.754,22.997-21.836c0.233-0.386,0.465-0.775,0.694-1.164c0.285-0.481,0.604-1.02,0.905-1.5h81.762
				c1.77,0,3.338-0.655,4.535-1.896c2.623-2.716,2.471-7.164,2.334-11.09c-0.023-0.676-0.046-1.314-0.046-1.838v-24.353
				c0-0.654,0.035-1.138,0.063-1.527c0.069-0.974,0.188-2.604-1.127-4.017c-0.588-0.632-1.647-1.386-3.352-1.386
				c-0.227,0-0.516,0.016-0.883,0.042c-0.389,0.028-0.872,0.063-1.526,0.063H160.219C159.471,169.652,153.024,163.5,145.208,163.5
				L145.208,163.5z M171.849,223.5h7.425c-2.927,4.022-4.655,6.017-5.626,6.998c0.169-0.834,0.132-1.722-0.123-2.595l-0.046-0.157
				l-0.059-0.151L171.849,223.5L171.849,223.5z M145.993,223.5h6.368l1.359,4.496c0.342,1.17,1.019,2.166,1.901,3.006L143.435,231
				L145.993,223.5L145.993,223.5z"/>
		</g>
	</g>
	<g>
		<g>
			<path fill="#D1D1D1" d="M341.5,157.289c0,1.322,1.6,5.545,0.593,5.545h-25.354c-1.007,0-4.239-4.223-4.239-5.545v-5.714
				c0-1.321,3.232,0.259,4.239,0.259h25.354c1.007,0-0.593-1.58-0.593-0.259V157.289z"/>
		</g>
		<g>
			<path fill="#3847D1" d="M342.093,165.334h-25.354c-2.919,0-6.739-5.891-6.739-8.045v-5.714c0-1.504,1.101-3.027,3.203-3.027
				c0.91,0,1.895,0.291,2.763,0.546c0.278,0.082,0.687,0.203,0.87,0.239h23.048c1.11-1.077,2.866-0.928,3.935,0H344v0.169
				c0.563,0.565,0.926,1.325,0.926,2.121c0,0.782-0.342,1.522-0.926,2.028v3.637c0.016,0.239,0.221,1.083,0.357,1.641
				c0.544,2.234,0.975,3.999-0.084,5.346C343.746,164.949,342.951,165.334,342.093,165.334z M317.356,160.334h22.196
				c-0.019-0.077-0.037-0.15-0.054-0.219c-0.268-1.099-0.499-2.048-0.499-2.826v-2.955h-22.261c-0.555,0-1.117-0.135-1.739-0.313
				v3.063C315.285,157.841,316.599,159.634,317.356,160.334z"/>
		</g>
	</g>
	<g>
		<g>
			<path fill="#F4CC69" d="M319,167.177c0,1.006,0.142,1.822-0.865,1.822l-11.832,2c-1.008,0-2.303-0.816-2.303-1.822v-25.354
				c0-1.007,1.774-1.823,2.781-1.823l10.875,2c1.006,0,1.344,0.816,1.344,1.823V167.177z"/>
		</g>
		<g>
			<path fill="#3847D1" d="M306.471,172.999h-0.168c-2.035,0-4.303-1.57-4.303-3.822v-25.354c0-2.545,3.065-3.823,4.781-3.823
				l0.361,0.033l10.733,1.974c1.589,0.1,3.124,1.292,3.124,3.816l0.003,21.654c0.013,0.787,0.03,1.865-0.808,2.717
				c-0.338,0.343-0.929,0.748-1.86,0.799L306.471,172.999z M306,168.882c0.068,0.042,0.153,0.081,0.225,0.102L317,167.163v-21.25
				l-10.33-1.9c-0.197,0.037-0.478,0.147-0.67,0.258V168.882z"/>
		</g>
	</g>
	<g>
		<g>
			<path fill="#FFEEB6" d="M318,155.235c0,0.289,0.142,0.523-0.865,0.523l-11.832,0.575c-1.008,0-2.303-0.234-2.303-0.524v-7.285
				c0-0.289,1.774-0.523,2.781-0.523l10.875,0.574c1.006,0,1.344,0.235,1.344,0.524V155.235z"/>
		</g>
	</g>
	<g>
		<g>
			<circle fill="#F275C5" cx="358.833" cy="156.5" r="18.917"/>
		</g>
		<g>
			<path fill="#3847D1" d="M358.833,177.417c-11.533,0-20.917-9.383-20.917-20.917s9.384-20.917,20.917-20.917
				s20.917,9.383,20.917,20.917S370.366,177.417,358.833,177.417z M358.833,139.583c-9.328,0-16.917,7.589-16.917,16.917
				s7.589,16.917,16.917,16.917s16.917-7.589,16.917-16.917S368.161,139.583,358.833,139.583z"/>
		</g>
	</g>
	<g>
		<g>
			<g>
				<path fill="#F9DB85" d="M107.337,137.333c-5.381,0-21.754-0.2-21.754-9.3c0-12.377-28.464-33.889-39.431-41.095l-6.396-4.253
					l7.635,0.511c3.853,0.271,94.514,6.686,109,13.069c10.71,4.72,14.526,13.547,14.526,20.241c0,8.641-3.586,12.115-3.995,12.483
					l-0.399,0.358l-0.525,0.31c-0.354,0.075-35.607,7.676-58.658,7.676C107.338,137.333,107.338,137.333,107.337,137.333z"/>
			</g>
		</g>
		<g>
			<path fill="#3847D1" d="M47.25,85.167c0,0,94,6.601,108.333,12.916c9.833,4.333,13.333,12.342,13.333,18.417
				c0,8-3.333,11-3.333,11s-35.138,7.433-58.246,7.433c-11.32,0-19.754-1.785-19.754-7.1C87.583,111.667,47.25,85.167,47.25,85.167
				 M32.269,80.105l12.784,8.405c14.896,9.793,38.53,29.129,38.53,39.323c0,11.1,17.879,11.1,23.754,11.1
				c23.259,0,57.622-7.213,59.073-7.52l1.05-0.222l0.798-0.718c0.477-0.429,4.657-4.466,4.657-13.973
				c0-7.324-4.13-16.97-15.72-22.077c-14.55-6.412-99.973-12.565-109.666-13.246L32.269,80.105L32.269,80.105z"/>
		</g>
	</g>
	<g>
		<g>
			<g>
				<path fill="#88BDED" d="M76.155,198.779c-23.866,0-63.905-5.04-63.905-38.237c0-34.447,47.966-37.208,62.666-37.208h221.236
					c6.501,0,9.848,0.167,9.848,7.056v52.601c0,9.713-3.795,15.343-10.01,15.343H86.583c-0.226,0-0.678,0.105-1.328,0.136
					C83.507,198.547,80.254,198.779,76.155,198.779z"/>
			</g>
		</g>
		<g>
			<path fill="#3847D1" d="M296.118,125.417c6.571,0,7.882,0.104,7.882,4.973v52.601c0,4.91-1.296,13.343-8.01,13.343H86.583
				c-0.857,0-4.794,0.362-10.428,0.362c-20.134,0-61.905-3.606-61.905-36.196c0-30.625,41.129-35.167,60.666-35.167
				c0.404,0,221.074,0,221.074,0c0.055,0,0.01,0,0.01,0 M296.152,121.333h-0.162H74.916c-8.514,0-24.916,0.908-39.11,6.434
				c-16.719,6.508-25.556,17.883-25.556,32.817c0,15.755,8.98,27.545,25.972,34.053c13.204,5.059,29.005,6.131,39.934,6.131
				c4.144,0,7.427-0.227,9.19-0.307c0.605-0.027,1.026-0.129,1.237-0.129H295.99c7.355,0,12.01-6.543,12.01-17.344v-52.601
				c0-8.889-5.493-9.056-11.807-9.056L296.152,121.333L296.152,121.333z"/>
		</g>
	</g>
	<g>
		<g>
			<g>
				<path fill="#3847D1" d="M72.907,197.64c-1.5,0-2.452-0.138-2.592-0.157c-0.818-0.124-1.382-0.891-1.257-1.708
					c0.124-0.817,0.892-1.381,1.705-1.258l0,0c0.474,0.067,11.713,1.601,20.12-8.162c5.077-5.896,9.23-5.791,12.567-5.707
					c0.371,0.01,0.738-0.064,1.101-0.064c3.459,0,145.924-0.25,147.362-0.25h52.002c0.828,0,1.5,0.672,1.5,1.5
					c0,0.829-0.672,1.5-1.5,1.5h-52c-1.437,0-143.903,0.25-147.364,0.25c-0.388,0-0.779,0.032-1.177,0.022
					c-3.124-0.081-6.068-0.132-10.218,4.686C86.092,196.497,77.228,197.64,72.907,197.64z"/>
			</g>
		</g>
	</g>
	<g>
		<g>
			<g>
				<path fill="#3847D1" d="M303.916,141.333h-52c-1.439,0-143.905-0.083-147.364-0.083c-0.362,0-0.729,0.051-1.101,0.06
					c-3.341,0.086-7.49,0.21-12.567-5.686c-8.427-9.785-20.174-8.535-20.291-8.52c-0.818,0.1-1.567-0.487-1.664-1.309
					c-0.098-0.821,0.486-1.563,1.308-1.662c0.543-0.064,13.422-1.479,22.921,9.553c4.148,4.818,7.096,4.746,10.218,4.666
					c0.397-0.01,0.789-0.103,1.177-0.103c3.461,0,145.927,0.083,147.366,0.083h51.998c0.828,0,1.5,0.672,1.5,1.5
					C305.416,140.663,304.744,141.333,303.916,141.333z"/>
			</g>
		</g>
	</g>
	<g>
		<g>
			<g>
				<g>
					<path fill="#FFC294" d="M24.416,159.25c0,11.97,7.685,21.802,15,22.229c0,0-4.5-6.48-4.5-22.229c0-15.75,4.5-22.063,4.5-22.063
						C32.101,137.616,24.416,147.28,24.416,159.25z"/>
				</g>
			</g>
			<g>
				<g>
					<path fill="#3847D1" d="M42.362,183.148l-3.033-0.171c-8.743-0.511-16.413-11.599-16.413-23.727
						c0-13.319,8.649-23.106,16.413-23.561l3.127-0.183l-1.818,2.551c-0.037,0.054-4.222,6.24-4.222,21.192
						c0,14.97,4.194,21.317,4.236,21.38L42.362,183.148z M36.626,139.393c-5.507,2.354-10.71,10.22-10.71,19.857
						c0,9.731,5.218,17.671,10.732,20.028c-1.396-3.426-3.232-9.867-3.232-20.028C33.416,149.153,35.231,142.792,36.626,139.393z"/>
				</g>
			</g>
		</g>
	</g>
	<g>
		<g>
			<path fill="#3847D1" d="M55.625,299.5c-0.153,0-0.308-0.023-0.461-0.072c-0.789-0.255-1.221-1.1-0.967-1.888l29.19-90.514
				c0.21-0.918,1.501-4.694,8.523-4.694H283c0.828,0,1.5,0.672,1.5,1.5s-0.672,1.5-1.5,1.5H91.91c-5.049,0-5.573,2.235-5.593,2.33
				l-0.052,0.214L57.053,298.46C56.848,299.096,56.259,299.5,55.625,299.5z"/>
		</g>
	</g>
	<g>
		<g>
			<path fill="#3847D1" d="M103.932,300.374c-0.163,0-0.328-0.026-0.49-0.082c-0.783-0.271-1.199-1.125-0.928-1.908
				c9.763-28.25,24.432-71.198,24.829-73.727c0.089-0.871-0.147-1.661-0.687-2.26c-0.62-0.687-1.593-1.064-2.741-1.064H82
				c-0.829,0-1.5-0.672-1.5-1.5s0.671-1.5,1.5-1.5h41.916c2.008,0,3.772,0.729,4.968,2.055c1.108,1.229,1.621,2.863,1.441,4.601
				c-0.295,2.86-20.856,62.458-24.976,74.376C105.135,299.984,104.554,300.374,103.932,300.374z"/>
		</g>
	</g>
	<g>
		<g>
			<path fill="#3847D1" d="M116,238.333H76c-0.829,0-1.5-0.672-1.5-1.5s0.671-1.5,1.5-1.5h40c0.829,0,1.5,0.672,1.5,1.5
				S116.829,238.333,116,238.333z"/>
		</g>
	</g>
	<g>
		<g>
			<path fill="#3847D1" d="M110,254.333H71c-0.829,0-1.5-0.672-1.5-1.5s0.671-1.5,1.5-1.5h39c0.829,0,1.5,0.672,1.5,1.5
				S110.829,254.333,110,254.333z"/>
		</g>
	</g>
	<g>
		<g>
			<path fill="#3847D1" d="M104,269.333H67c-0.829,0-1.5-0.672-1.5-1.5s0.671-1.5,1.5-1.5h37c0.829,0,1.5,0.672,1.5,1.5
				S104.829,269.333,104,269.333z"/>
		</g>
	</g>
	<g>
		<g>
			<circle fill="#F7D379" cx="69.417" cy="288.001" r="5.167"/>
		</g>
		<g>
			<path fill="#3847D1" d="M69.417,294.668c-3.676,0-6.667-2.991-6.667-6.668c0-3.676,2.991-6.666,6.667-6.666
				s6.667,2.99,6.667,6.666C76.084,291.677,73.093,294.668,69.417,294.668z M69.417,284.334c-2.022,0-3.667,1.645-3.667,3.666
				c0,2.022,1.645,3.668,3.667,3.668s3.667-1.646,3.667-3.668C73.084,285.979,71.439,284.334,69.417,284.334z"/>
		</g>
	</g>
	<g>
		<g>
			<circle fill="#5FED80" cx="83.417" cy="288.001" r="5.167"/>
		</g>
		<g>
			<path fill="#3847D1" d="M83.417,294.668c-3.676,0-6.667-2.991-6.667-6.668c0-3.676,2.991-6.666,6.667-6.666
				s6.667,2.99,6.667,6.666C90.084,291.677,87.093,294.668,83.417,294.668z M83.417,284.334c-2.022,0-3.667,1.645-3.667,3.666
				c0,2.022,1.645,3.668,3.667,3.668s3.667-1.646,3.667-3.668C87.084,285.979,85.439,284.334,83.417,284.334z"/>
		</g>
	</g>
	<g>
		<g>
			<circle fill="#CC505F" cx="97.417" cy="288.001" r="5.167"/>
		</g>
		<g>
			<path fill="#3847D1" d="M97.417,294.668c-3.676,0-6.667-2.991-6.667-6.668c0-3.676,2.991-6.666,6.667-6.666
				s6.667,2.99,6.667,6.666C104.084,291.677,101.093,294.668,97.417,294.668z M97.417,284.334c-2.022,0-3.667,1.645-3.667,3.666
				c0,2.022,1.645,3.668,3.667,3.668s3.667-1.646,3.667-3.668C101.084,285.979,99.439,284.334,97.417,284.334z"/>
		</g>
	</g>
	<g>
		<g>
			<g>
				<g>
					<circle fill="#D788EA" cx="69.166" cy="159.5" r="22"/>
				</g>
			</g>
			<g>
				<g>
					<path fill="#3847D1" d="M69.166,183c-12.958,0-23.5-10.541-23.5-23.499s10.542-23.5,23.5-23.5s23.5,10.542,23.5,23.5
						S82.124,183,69.166,183z M69.166,139c-11.304,0-20.5,9.196-20.5,20.5s9.196,20.5,20.5,20.5s20.5-9.195,20.5-20.499
						C89.666,148.197,80.47,139,69.166,139z"/>
				</g>
			</g>
		</g>
		<g>
			<g>
				<g>
					<path fill="#E525A5" d="M69.208,147.25c-6.755,0-12.25,5.495-12.25,12.25s5.495,12.249,12.25,12.249s12.25-5.494,12.25-12.249
						S75.963,147.25,69.208,147.25z"/>
				</g>
			</g>
			<g>
				<g>
					<path fill="#3847D1" d="M69.208,172.25c-7.03,0-12.75-5.719-12.75-12.749c0-7.03,5.72-12.75,12.75-12.75
						s12.75,5.72,12.75,12.75C81.958,166.531,76.238,172.25,69.208,172.25z M69.208,147.75c-6.479,0-11.75,5.271-11.75,11.75
						s5.271,11.749,11.75,11.749s11.75-5.271,11.75-11.749C80.958,153.021,75.688,147.75,69.208,147.75z"/>
				</g>
			</g>
		</g>
		<g>
			<g>
				<ellipse fill="#A80E84" cx="71.666" cy="160.237" rx="6.5" ry="6.763"/>
			</g>
		</g>
		<g>
			<g>
				
					<ellipse transform="matrix(-0.4416 -0.8972 0.8972 -0.4416 -44.0734 284.1395)" fill="#FF99EC" cx="66.38" cy="155.784" rx="4.207" ry="6.345"/>
			</g>
		</g>
	</g>
	<g>
		<g>
			<g>
				<g>
					<g>
						<path fill="#5AEDBF" d="M184,167.833c0,4.142-3.358,7.5-7.5,7.5l0,0c-4.142,0-7.5-3.358-7.5-7.5v-14
							c0-4.142,3.358-7.5,7.5-7.5l0,0c4.142,0,7.5,3.358,7.5,7.5V167.833z"/>
					</g>
				</g>
				<g>
					<g>
						<path fill="#3847D1" d="M177,176.5c-4.962,0-9-4.037-9-9v-14c0-4.963,4.038-9,9-9c4.963,0,9,4.037,9,9v14
							C186,172.462,181.963,176.5,177,176.5z M177,147.5c-3.309,0-6,2.691-6,6v14c0,3.309,2.691,6,6,6s6-2.691,6-6v-14
							C183,150.192,180.309,147.5,177,147.5z"/>
					</g>
				</g>
			</g>
			<g>
				<g>
					<g>
						<path fill="#5AEDBF" d="M209,167.833c0,4.142-3.357,7.5-7.5,7.5l0,0c-4.143,0-7.5-3.358-7.5-7.5v-14
							c0-4.142,3.357-7.5,7.5-7.5l0,0c4.143,0,7.5,3.358,7.5,7.5V167.833z"/>
					</g>
				</g>
				<g>
					<g>
						<path fill="#3847D1" d="M202,176.5c-4.963,0-9-4.037-9-9v-14c0-4.963,4.037-9,9-9s9,4.037,9,9v14
							C211,172.462,206.963,176.5,202,176.5z M202,147.5c-3.309,0-6,2.691-6,6v14c0,3.309,2.691,6,6,6s6-2.691,6-6v-14
							C208,150.192,205.309,147.5,202,147.5z"/>
					</g>
				</g>
			</g>
			<g>
				<g>
					<g>
						<path fill="#5AEDBF" d="M232,167.833c0,4.142-3.357,7.5-7.5,7.5l0,0c-4.143,0-7.5-3.358-7.5-7.5v-14
							c0-4.142,3.357-7.5,7.5-7.5l0,0c4.143,0,7.5,3.358,7.5,7.5V167.833z"/>
					</g>
				</g>
				<g>
					<g>
						<path fill="#3847D1" d="M225,176.5c-4.963,0-9-4.037-9-9v-14c0-4.963,4.037-9,9-9s9,4.037,9,9v14
							C234,172.462,229.963,176.5,225,176.5z M225,147.5c-3.309,0-6,2.691-6,6v14c0,3.309,2.691,6,6,6s6-2.691,6-6v-14
							C231,150.192,228.309,147.5,225,147.5z"/>
					</g>
				</g>
			</g>
			<g>
				<g>
					<g>
						<path fill="#5AEDBF" d="M256,167.833c0,4.142-3.357,7.5-7.5,7.5l0,0c-4.143,0-7.5-3.358-7.5-7.5v-14
							c0-4.142,3.357-7.5,7.5-7.5l0,0c4.143,0,7.5,3.358,7.5,7.5V167.833z"/>
					</g>
				</g>
				<g>
					<g>
						<path fill="#3847D1" d="M249,176.5c-4.963,0-9-4.037-9-9v-14c0-4.963,4.037-9,9-9s9,4.037,9,9v14
							C258,172.462,253.963,176.5,249,176.5z M249,147.5c-3.309,0-6,2.691-6,6v14c0,3.309,2.691,6,6,6s6-2.691,6-6v-14
							C255,150.192,252.309,147.5,249,147.5z"/>
					</g>
				</g>
			</g>
		</g>
		<g>
			<g>
				<path fill="#BCFFB8" d="M182,165.959c0,1.311-1.063,2.374-2.375,2.374h-0.25c-1.312,0-2.375-1.063-2.375-2.374v-11.252
					c0-1.311,1.063-2.374,2.375-2.374h0.25c1.312,0,2.375,1.063,2.375,2.374V165.959z"/>
			</g>
		</g>
		<g>
			<g>
				<path fill="#BCFFB8" d="M207,165.959c0,1.311-1.063,2.374-2.375,2.374h-0.25c-1.313,0-2.375-1.063-2.375-2.374v-11.252
					c0-1.311,1.063-2.374,2.375-2.374h0.25c1.313,0,2.375,1.063,2.375,2.374V165.959z"/>
			</g>
		</g>
		<g>
			<g>
				<path fill="#BCFFB8" d="M230,165.959c0,1.311-1.063,2.374-2.375,2.374h-0.25c-1.313,0-2.375-1.063-2.375-2.374v-11.252
					c0-1.311,1.063-2.374,2.375-2.374h0.25c1.313,0,2.375,1.063,2.375,2.374V165.959z"/>
			</g>
		</g>
		<g>
			<g>
				<path fill="#BCFFB8" d="M254,165.959c0,1.311-1.063,2.374-2.375,2.374h-0.25c-1.313,0-2.375-1.063-2.375-2.374v-11.252
					c0-1.311,1.063-2.374,2.375-2.374h0.25c1.313,0,2.375,1.063,2.375,2.374V165.959z"/>
			</g>
		</g>
	</g>
	<g>
		<g>
			<path fill="#FFEEB6" d="M157.344,105.631c-4.616-1.993-52.486-8.079-52.486-8.079c-1.402-0.184-7.691-0.219-7.691-0.219
				s52.873,13.697,57.105,14.629c4.233,0.933,5.538,4.97,7.135,5.592c1.597,0.621,2.343-0.622,2.343-3.168
				C163.75,111.838,161.96,107.623,157.344,105.631z"/>
		</g>
	</g>
	<g>
		<g>
			<path fill="#E240B0" d="M372.916,160.625c0,5.074-7.697,11.749-12.875,11.749s-12.5-5.426-12.5-10.499c0-5.074,7.447-1,12.625-1
				S372.916,155.551,372.916,160.625z"/>
		</g>
	</g>
	<g>
		<g>
			
				<ellipse transform="matrix(-0.7144 -0.6997 0.6997 -0.7144 518.3329 514.4684)" fill="#FFBBED" cx="364.155" cy="151.457" rx="9.791" ry="7.417"/>
		</g>
	</g>
</g>
</svg>
